%TF.GenerationSoftware,KiCad,Pcbnew,7.0.9*%
%TF.CreationDate,2025-01-01T13:08:25+08:00*%
%TF.ProjectId,ver0.1-rounded,76657230-2e31-42d7-926f-756e6465642e,rev?*%
%TF.SameCoordinates,Original*%
%TF.FileFunction,Profile,NP*%
%FSLAX46Y46*%
G04 Gerber Fmt 4.6, Leading zero omitted, Abs format (unit mm)*
G04 Created by KiCad (PCBNEW 7.0.9) date 2025-01-01 13:08:25*
%MOMM*%
%LPD*%
G01*
G04 APERTURE LIST*
%TA.AperFunction,Profile*%
%ADD10C,0.100000*%
%TD*%
%TA.AperFunction,Profile*%
%ADD11C,0.010000*%
%TD*%
G04 APERTURE END LIST*
D10*
X129567720Y-119043025D02*
X130367720Y-118277340D01*
X130365799Y-125298900D02*
X170882720Y-125298900D01*
X171682720Y-124505900D02*
X171684640Y-119077340D01*
X129565799Y-107675900D02*
X129567720Y-102213025D01*
X170882720Y-108468900D02*
X171682720Y-107668900D01*
X129565799Y-124505900D02*
X129567720Y-119043025D01*
X170884640Y-118277340D02*
X171684640Y-119077340D01*
X171682720Y-90845900D02*
X171684640Y-85417340D01*
X129565799Y-90845900D02*
X129567720Y-85383025D01*
X107308320Y-130100340D02*
X112308320Y-135100340D01*
X170884640Y-118277340D02*
X130367720Y-118277340D01*
X170884640Y-101447340D02*
X171684640Y-102247340D01*
X170884640Y-101447340D02*
X130367720Y-101447340D01*
X171682720Y-107675900D02*
X171684640Y-102247340D01*
X179909220Y-135100340D02*
X112308320Y-135100340D01*
X170884640Y-84617340D02*
X130367720Y-84617340D01*
X170882720Y-91638900D02*
X171682720Y-90838900D01*
X170882720Y-125298900D02*
X171682720Y-124498900D01*
X130365799Y-108475900D02*
X129565799Y-107675900D01*
X112309900Y-67787720D02*
X107309900Y-72787720D01*
X179909220Y-135100340D02*
X184909220Y-130100340D01*
X130365799Y-91638900D02*
X170882720Y-91638900D01*
X184910800Y-72787720D02*
X184909220Y-130100340D01*
X129567720Y-102213025D02*
X130367720Y-101447340D01*
X107308320Y-130100340D02*
X107309900Y-72787720D01*
X130365799Y-91645900D02*
X129565799Y-90845900D01*
X130365799Y-125298900D02*
X129565799Y-124505900D01*
X112309900Y-67787720D02*
X179910800Y-67787720D01*
X184910800Y-72787720D02*
X179910800Y-67787720D01*
X130365799Y-108468900D02*
X170882720Y-108468900D01*
X129567720Y-85383025D02*
X130367720Y-84617340D01*
X170884640Y-84617340D02*
X171684640Y-85417340D01*
D11*
%TO.C,J3*%
X129228220Y-76073820D02*
G75*
G03*
X129828220Y-76073820I300000J0D01*
G01*
X129828220Y-73873820D02*
G75*
G03*
X129228220Y-73873820I-300000J0D01*
G01*
X131728220Y-72273820D02*
G75*
G03*
X132328220Y-72273820I300000J0D01*
G01*
X132328220Y-70273820D02*
G75*
G03*
X131728220Y-70273820I-300000J0D01*
G01*
X125378220Y-68573820D02*
G75*
G03*
X125378220Y-69373820I0J-400000D01*
G01*
X128078220Y-69373820D02*
G75*
G03*
X128078220Y-68573820I0J400000D01*
G01*
X129828220Y-76073820D02*
X129828220Y-73873820D01*
X129228220Y-73873820D02*
X129228220Y-76073820D01*
X132328220Y-72273820D02*
X132328220Y-70273820D01*
X131728220Y-70273820D02*
X131728220Y-72273820D01*
X125378220Y-69373820D02*
X128078220Y-69373820D01*
X128078220Y-68573820D02*
X125378220Y-68573820D01*
%TD*%
M02*
