%TF.GenerationSoftware,KiCad,Pcbnew,7.0.9*%
%TF.CreationDate,2024-12-30T23:35:23+08:00*%
%TF.ProjectId,ver0.1,76657230-2e31-42e6-9b69-6361645f7063,rev?*%
%TF.SameCoordinates,Original*%
%TF.FileFunction,Paste,Bot*%
%TF.FilePolarity,Positive*%
%FSLAX46Y46*%
G04 Gerber Fmt 4.6, Leading zero omitted, Abs format (unit mm)*
G04 Created by KiCad (PCBNEW 7.0.9) date 2024-12-30 23:35:23*
%MOMM*%
%LPD*%
G01*
G04 APERTURE LIST*
G04 Aperture macros list*
%AMRoundRect*
0 Rectangle with rounded corners*
0 $1 Rounding radius*
0 $2 $3 $4 $5 $6 $7 $8 $9 X,Y pos of 4 corners*
0 Add a 4 corners polygon primitive as box body*
4,1,4,$2,$3,$4,$5,$6,$7,$8,$9,$2,$3,0*
0 Add four circle primitives for the rounded corners*
1,1,$1+$1,$2,$3*
1,1,$1+$1,$4,$5*
1,1,$1+$1,$6,$7*
1,1,$1+$1,$8,$9*
0 Add four rect primitives between the rounded corners*
20,1,$1+$1,$2,$3,$4,$5,0*
20,1,$1+$1,$4,$5,$6,$7,0*
20,1,$1+$1,$6,$7,$8,$9,0*
20,1,$1+$1,$8,$9,$2,$3,0*%
G04 Aperture macros list end*
%ADD10C,0.010000*%
%ADD11RoundRect,0.225000X-0.225000X-0.250000X0.225000X-0.250000X0.225000X0.250000X-0.225000X0.250000X0*%
%ADD12RoundRect,0.250000X0.475000X-0.250000X0.475000X0.250000X-0.475000X0.250000X-0.475000X-0.250000X0*%
%ADD13RoundRect,0.250000X-0.550000X1.500000X-0.550000X-1.500000X0.550000X-1.500000X0.550000X1.500000X0*%
%ADD14RoundRect,0.140000X0.140000X0.170000X-0.140000X0.170000X-0.140000X-0.170000X0.140000X-0.170000X0*%
%ADD15RoundRect,0.140000X-0.170000X0.140000X-0.170000X-0.140000X0.170000X-0.140000X0.170000X0.140000X0*%
%ADD16RoundRect,0.030000X0.270000X0.090000X-0.270000X0.090000X-0.270000X-0.090000X0.270000X-0.090000X0*%
%ADD17RoundRect,0.125000X0.125000X-0.537500X0.125000X0.537500X-0.125000X0.537500X-0.125000X-0.537500X0*%
%ADD18R,1.500000X2.500000*%
%ADD19RoundRect,0.135000X0.185000X-0.135000X0.185000X0.135000X-0.185000X0.135000X-0.185000X-0.135000X0*%
%ADD20RoundRect,0.135000X-0.135000X-0.185000X0.135000X-0.185000X0.135000X0.185000X-0.135000X0.185000X0*%
%ADD21RoundRect,0.135000X-0.185000X0.135000X-0.185000X-0.135000X0.185000X-0.135000X0.185000X0.135000X0*%
%ADD22RoundRect,0.135000X0.135000X0.185000X-0.135000X0.185000X-0.135000X-0.185000X0.135000X-0.185000X0*%
%ADD23R,2.500000X1.500000*%
%ADD24RoundRect,0.225000X0.250000X-0.225000X0.250000X0.225000X-0.250000X0.225000X-0.250000X-0.225000X0*%
%ADD25RoundRect,0.225000X-0.250000X0.225000X-0.250000X-0.225000X0.250000X-0.225000X0.250000X0.225000X0*%
G04 APERTURE END LIST*
%TO.C,U2*%
D10*
X178361600Y-85296000D02*
X178363600Y-85296000D01*
X178366600Y-85297000D01*
X178368600Y-85297000D01*
X178371600Y-85298000D01*
X178373600Y-85299000D01*
X178376600Y-85300000D01*
X178378600Y-85302000D01*
X178380600Y-85303000D01*
X178382600Y-85305000D01*
X178384600Y-85306000D01*
X178386600Y-85308000D01*
X178388600Y-85310000D01*
X178390600Y-85312000D01*
X178392600Y-85314000D01*
X178393600Y-85316000D01*
X178395600Y-85318000D01*
X178396600Y-85320000D01*
X178398600Y-85322000D01*
X178399600Y-85325000D01*
X178400600Y-85327000D01*
X178401600Y-85330000D01*
X178401600Y-85332000D01*
X178402600Y-85335000D01*
X178402600Y-85337000D01*
X178403600Y-85340000D01*
X178403600Y-85342000D01*
X178403600Y-85345000D01*
X178403600Y-85635000D01*
X178153600Y-85635000D01*
X178153600Y-85345000D01*
X178153600Y-85342000D01*
X178153600Y-85340000D01*
X178154600Y-85337000D01*
X178154600Y-85335000D01*
X178155600Y-85332000D01*
X178155600Y-85330000D01*
X178156600Y-85327000D01*
X178157600Y-85325000D01*
X178158600Y-85322000D01*
X178160600Y-85320000D01*
X178161600Y-85318000D01*
X178163600Y-85316000D01*
X178164600Y-85314000D01*
X178166600Y-85312000D01*
X178168600Y-85310000D01*
X178170600Y-85308000D01*
X178172600Y-85306000D01*
X178174600Y-85305000D01*
X178176600Y-85303000D01*
X178178600Y-85302000D01*
X178180600Y-85300000D01*
X178183600Y-85299000D01*
X178185600Y-85298000D01*
X178188600Y-85297000D01*
X178190600Y-85297000D01*
X178193600Y-85296000D01*
X178195600Y-85296000D01*
X178198600Y-85295000D01*
X178200600Y-85295000D01*
X178203600Y-85295000D01*
X178353600Y-85295000D01*
X178356600Y-85295000D01*
X178358600Y-85295000D01*
X178361600Y-85296000D01*
G36*
X178361600Y-85296000D02*
G01*
X178363600Y-85296000D01*
X178366600Y-85297000D01*
X178368600Y-85297000D01*
X178371600Y-85298000D01*
X178373600Y-85299000D01*
X178376600Y-85300000D01*
X178378600Y-85302000D01*
X178380600Y-85303000D01*
X178382600Y-85305000D01*
X178384600Y-85306000D01*
X178386600Y-85308000D01*
X178388600Y-85310000D01*
X178390600Y-85312000D01*
X178392600Y-85314000D01*
X178393600Y-85316000D01*
X178395600Y-85318000D01*
X178396600Y-85320000D01*
X178398600Y-85322000D01*
X178399600Y-85325000D01*
X178400600Y-85327000D01*
X178401600Y-85330000D01*
X178401600Y-85332000D01*
X178402600Y-85335000D01*
X178402600Y-85337000D01*
X178403600Y-85340000D01*
X178403600Y-85342000D01*
X178403600Y-85345000D01*
X178403600Y-85635000D01*
X178153600Y-85635000D01*
X178153600Y-85345000D01*
X178153600Y-85342000D01*
X178153600Y-85340000D01*
X178154600Y-85337000D01*
X178154600Y-85335000D01*
X178155600Y-85332000D01*
X178155600Y-85330000D01*
X178156600Y-85327000D01*
X178157600Y-85325000D01*
X178158600Y-85322000D01*
X178160600Y-85320000D01*
X178161600Y-85318000D01*
X178163600Y-85316000D01*
X178164600Y-85314000D01*
X178166600Y-85312000D01*
X178168600Y-85310000D01*
X178170600Y-85308000D01*
X178172600Y-85306000D01*
X178174600Y-85305000D01*
X178176600Y-85303000D01*
X178178600Y-85302000D01*
X178180600Y-85300000D01*
X178183600Y-85299000D01*
X178185600Y-85298000D01*
X178188600Y-85297000D01*
X178190600Y-85297000D01*
X178193600Y-85296000D01*
X178195600Y-85296000D01*
X178198600Y-85295000D01*
X178200600Y-85295000D01*
X178203600Y-85295000D01*
X178353600Y-85295000D01*
X178356600Y-85295000D01*
X178358600Y-85295000D01*
X178361600Y-85296000D01*
G37*
X178403600Y-88645000D02*
X178403600Y-88648000D01*
X178403600Y-88650000D01*
X178402600Y-88653000D01*
X178402600Y-88655000D01*
X178401600Y-88658000D01*
X178401600Y-88660000D01*
X178400600Y-88663000D01*
X178399600Y-88665000D01*
X178398600Y-88668000D01*
X178396600Y-88670000D01*
X178395600Y-88672000D01*
X178393600Y-88674000D01*
X178392600Y-88676000D01*
X178390600Y-88678000D01*
X178388600Y-88680000D01*
X178386600Y-88682000D01*
X178384600Y-88684000D01*
X178382600Y-88685000D01*
X178380600Y-88687000D01*
X178378600Y-88688000D01*
X178376600Y-88690000D01*
X178373600Y-88691000D01*
X178371600Y-88692000D01*
X178368600Y-88693000D01*
X178366600Y-88693000D01*
X178363600Y-88694000D01*
X178361600Y-88694000D01*
X178358600Y-88695000D01*
X178356600Y-88695000D01*
X178353600Y-88695000D01*
X178203600Y-88695000D01*
X178200600Y-88695000D01*
X178198600Y-88695000D01*
X178195600Y-88694000D01*
X178193600Y-88694000D01*
X178190600Y-88693000D01*
X178188600Y-88693000D01*
X178185600Y-88692000D01*
X178183600Y-88691000D01*
X178180600Y-88690000D01*
X178178600Y-88688000D01*
X178176600Y-88687000D01*
X178174600Y-88685000D01*
X178172600Y-88684000D01*
X178170600Y-88682000D01*
X178168600Y-88680000D01*
X178166600Y-88678000D01*
X178164600Y-88676000D01*
X178163600Y-88674000D01*
X178161600Y-88672000D01*
X178160600Y-88670000D01*
X178158600Y-88668000D01*
X178157600Y-88665000D01*
X178156600Y-88663000D01*
X178155600Y-88660000D01*
X178155600Y-88658000D01*
X178154600Y-88655000D01*
X178154600Y-88653000D01*
X178153600Y-88650000D01*
X178153600Y-88648000D01*
X178153600Y-88645000D01*
X178153600Y-88355000D01*
X178403600Y-88355000D01*
X178403600Y-88645000D01*
G36*
X178403600Y-88645000D02*
G01*
X178403600Y-88648000D01*
X178403600Y-88650000D01*
X178402600Y-88653000D01*
X178402600Y-88655000D01*
X178401600Y-88658000D01*
X178401600Y-88660000D01*
X178400600Y-88663000D01*
X178399600Y-88665000D01*
X178398600Y-88668000D01*
X178396600Y-88670000D01*
X178395600Y-88672000D01*
X178393600Y-88674000D01*
X178392600Y-88676000D01*
X178390600Y-88678000D01*
X178388600Y-88680000D01*
X178386600Y-88682000D01*
X178384600Y-88684000D01*
X178382600Y-88685000D01*
X178380600Y-88687000D01*
X178378600Y-88688000D01*
X178376600Y-88690000D01*
X178373600Y-88691000D01*
X178371600Y-88692000D01*
X178368600Y-88693000D01*
X178366600Y-88693000D01*
X178363600Y-88694000D01*
X178361600Y-88694000D01*
X178358600Y-88695000D01*
X178356600Y-88695000D01*
X178353600Y-88695000D01*
X178203600Y-88695000D01*
X178200600Y-88695000D01*
X178198600Y-88695000D01*
X178195600Y-88694000D01*
X178193600Y-88694000D01*
X178190600Y-88693000D01*
X178188600Y-88693000D01*
X178185600Y-88692000D01*
X178183600Y-88691000D01*
X178180600Y-88690000D01*
X178178600Y-88688000D01*
X178176600Y-88687000D01*
X178174600Y-88685000D01*
X178172600Y-88684000D01*
X178170600Y-88682000D01*
X178168600Y-88680000D01*
X178166600Y-88678000D01*
X178164600Y-88676000D01*
X178163600Y-88674000D01*
X178161600Y-88672000D01*
X178160600Y-88670000D01*
X178158600Y-88668000D01*
X178157600Y-88665000D01*
X178156600Y-88663000D01*
X178155600Y-88660000D01*
X178155600Y-88658000D01*
X178154600Y-88655000D01*
X178154600Y-88653000D01*
X178153600Y-88650000D01*
X178153600Y-88648000D01*
X178153600Y-88645000D01*
X178153600Y-88355000D01*
X178403600Y-88355000D01*
X178403600Y-88645000D01*
G37*
X177861600Y-85296000D02*
X177863600Y-85296000D01*
X177866600Y-85297000D01*
X177868600Y-85297000D01*
X177871600Y-85298000D01*
X177873600Y-85299000D01*
X177876600Y-85300000D01*
X177878600Y-85302000D01*
X177880600Y-85303000D01*
X177882600Y-85305000D01*
X177884600Y-85306000D01*
X177886600Y-85308000D01*
X177888600Y-85310000D01*
X177890600Y-85312000D01*
X177892600Y-85314000D01*
X177893600Y-85316000D01*
X177895600Y-85318000D01*
X177896600Y-85320000D01*
X177898600Y-85322000D01*
X177899600Y-85325000D01*
X177900600Y-85327000D01*
X177901600Y-85330000D01*
X177901600Y-85332000D01*
X177902600Y-85335000D01*
X177902600Y-85337000D01*
X177903600Y-85340000D01*
X177903600Y-85342000D01*
X177903600Y-85345000D01*
X177903600Y-85635000D01*
X177653600Y-85635000D01*
X177653600Y-85345000D01*
X177653600Y-85342000D01*
X177653600Y-85340000D01*
X177654600Y-85337000D01*
X177654600Y-85335000D01*
X177655600Y-85332000D01*
X177655600Y-85330000D01*
X177656600Y-85327000D01*
X177657600Y-85325000D01*
X177658600Y-85322000D01*
X177660600Y-85320000D01*
X177661600Y-85318000D01*
X177663600Y-85316000D01*
X177664600Y-85314000D01*
X177666600Y-85312000D01*
X177668600Y-85310000D01*
X177670600Y-85308000D01*
X177672600Y-85306000D01*
X177674600Y-85305000D01*
X177676600Y-85303000D01*
X177678600Y-85302000D01*
X177680600Y-85300000D01*
X177683600Y-85299000D01*
X177685600Y-85298000D01*
X177688600Y-85297000D01*
X177690600Y-85297000D01*
X177693600Y-85296000D01*
X177695600Y-85296000D01*
X177698600Y-85295000D01*
X177700600Y-85295000D01*
X177703600Y-85295000D01*
X177853600Y-85295000D01*
X177856600Y-85295000D01*
X177858600Y-85295000D01*
X177861600Y-85296000D01*
G36*
X177861600Y-85296000D02*
G01*
X177863600Y-85296000D01*
X177866600Y-85297000D01*
X177868600Y-85297000D01*
X177871600Y-85298000D01*
X177873600Y-85299000D01*
X177876600Y-85300000D01*
X177878600Y-85302000D01*
X177880600Y-85303000D01*
X177882600Y-85305000D01*
X177884600Y-85306000D01*
X177886600Y-85308000D01*
X177888600Y-85310000D01*
X177890600Y-85312000D01*
X177892600Y-85314000D01*
X177893600Y-85316000D01*
X177895600Y-85318000D01*
X177896600Y-85320000D01*
X177898600Y-85322000D01*
X177899600Y-85325000D01*
X177900600Y-85327000D01*
X177901600Y-85330000D01*
X177901600Y-85332000D01*
X177902600Y-85335000D01*
X177902600Y-85337000D01*
X177903600Y-85340000D01*
X177903600Y-85342000D01*
X177903600Y-85345000D01*
X177903600Y-85635000D01*
X177653600Y-85635000D01*
X177653600Y-85345000D01*
X177653600Y-85342000D01*
X177653600Y-85340000D01*
X177654600Y-85337000D01*
X177654600Y-85335000D01*
X177655600Y-85332000D01*
X177655600Y-85330000D01*
X177656600Y-85327000D01*
X177657600Y-85325000D01*
X177658600Y-85322000D01*
X177660600Y-85320000D01*
X177661600Y-85318000D01*
X177663600Y-85316000D01*
X177664600Y-85314000D01*
X177666600Y-85312000D01*
X177668600Y-85310000D01*
X177670600Y-85308000D01*
X177672600Y-85306000D01*
X177674600Y-85305000D01*
X177676600Y-85303000D01*
X177678600Y-85302000D01*
X177680600Y-85300000D01*
X177683600Y-85299000D01*
X177685600Y-85298000D01*
X177688600Y-85297000D01*
X177690600Y-85297000D01*
X177693600Y-85296000D01*
X177695600Y-85296000D01*
X177698600Y-85295000D01*
X177700600Y-85295000D01*
X177703600Y-85295000D01*
X177853600Y-85295000D01*
X177856600Y-85295000D01*
X177858600Y-85295000D01*
X177861600Y-85296000D01*
G37*
X177903600Y-88645000D02*
X177903600Y-88648000D01*
X177903600Y-88650000D01*
X177902600Y-88653000D01*
X177902600Y-88655000D01*
X177901600Y-88658000D01*
X177901600Y-88660000D01*
X177900600Y-88663000D01*
X177899600Y-88665000D01*
X177898600Y-88668000D01*
X177896600Y-88670000D01*
X177895600Y-88672000D01*
X177893600Y-88674000D01*
X177892600Y-88676000D01*
X177890600Y-88678000D01*
X177888600Y-88680000D01*
X177886600Y-88682000D01*
X177884600Y-88684000D01*
X177882600Y-88685000D01*
X177880600Y-88687000D01*
X177878600Y-88688000D01*
X177876600Y-88690000D01*
X177873600Y-88691000D01*
X177871600Y-88692000D01*
X177868600Y-88693000D01*
X177866600Y-88693000D01*
X177863600Y-88694000D01*
X177861600Y-88694000D01*
X177858600Y-88695000D01*
X177856600Y-88695000D01*
X177853600Y-88695000D01*
X177703600Y-88695000D01*
X177700600Y-88695000D01*
X177698600Y-88695000D01*
X177695600Y-88694000D01*
X177693600Y-88694000D01*
X177690600Y-88693000D01*
X177688600Y-88693000D01*
X177685600Y-88692000D01*
X177683600Y-88691000D01*
X177680600Y-88690000D01*
X177678600Y-88688000D01*
X177676600Y-88687000D01*
X177674600Y-88685000D01*
X177672600Y-88684000D01*
X177670600Y-88682000D01*
X177668600Y-88680000D01*
X177666600Y-88678000D01*
X177664600Y-88676000D01*
X177663600Y-88674000D01*
X177661600Y-88672000D01*
X177660600Y-88670000D01*
X177658600Y-88668000D01*
X177657600Y-88665000D01*
X177656600Y-88663000D01*
X177655600Y-88660000D01*
X177655600Y-88658000D01*
X177654600Y-88655000D01*
X177654600Y-88653000D01*
X177653600Y-88650000D01*
X177653600Y-88648000D01*
X177653600Y-88645000D01*
X177653600Y-88355000D01*
X177903600Y-88355000D01*
X177903600Y-88645000D01*
G36*
X177903600Y-88645000D02*
G01*
X177903600Y-88648000D01*
X177903600Y-88650000D01*
X177902600Y-88653000D01*
X177902600Y-88655000D01*
X177901600Y-88658000D01*
X177901600Y-88660000D01*
X177900600Y-88663000D01*
X177899600Y-88665000D01*
X177898600Y-88668000D01*
X177896600Y-88670000D01*
X177895600Y-88672000D01*
X177893600Y-88674000D01*
X177892600Y-88676000D01*
X177890600Y-88678000D01*
X177888600Y-88680000D01*
X177886600Y-88682000D01*
X177884600Y-88684000D01*
X177882600Y-88685000D01*
X177880600Y-88687000D01*
X177878600Y-88688000D01*
X177876600Y-88690000D01*
X177873600Y-88691000D01*
X177871600Y-88692000D01*
X177868600Y-88693000D01*
X177866600Y-88693000D01*
X177863600Y-88694000D01*
X177861600Y-88694000D01*
X177858600Y-88695000D01*
X177856600Y-88695000D01*
X177853600Y-88695000D01*
X177703600Y-88695000D01*
X177700600Y-88695000D01*
X177698600Y-88695000D01*
X177695600Y-88694000D01*
X177693600Y-88694000D01*
X177690600Y-88693000D01*
X177688600Y-88693000D01*
X177685600Y-88692000D01*
X177683600Y-88691000D01*
X177680600Y-88690000D01*
X177678600Y-88688000D01*
X177676600Y-88687000D01*
X177674600Y-88685000D01*
X177672600Y-88684000D01*
X177670600Y-88682000D01*
X177668600Y-88680000D01*
X177666600Y-88678000D01*
X177664600Y-88676000D01*
X177663600Y-88674000D01*
X177661600Y-88672000D01*
X177660600Y-88670000D01*
X177658600Y-88668000D01*
X177657600Y-88665000D01*
X177656600Y-88663000D01*
X177655600Y-88660000D01*
X177655600Y-88658000D01*
X177654600Y-88655000D01*
X177654600Y-88653000D01*
X177653600Y-88650000D01*
X177653600Y-88648000D01*
X177653600Y-88645000D01*
X177653600Y-88355000D01*
X177903600Y-88355000D01*
X177903600Y-88645000D01*
G37*
X178736600Y-87096000D02*
X178738600Y-87096000D01*
X178741600Y-87097000D01*
X178743600Y-87097000D01*
X178746600Y-87098000D01*
X178748600Y-87099000D01*
X178751600Y-87100000D01*
X178753600Y-87102000D01*
X178755600Y-87103000D01*
X178757600Y-87105000D01*
X178759600Y-87106000D01*
X178761600Y-87108000D01*
X178763600Y-87110000D01*
X178765600Y-87112000D01*
X178767600Y-87114000D01*
X178768600Y-87116000D01*
X178770600Y-87118000D01*
X178771600Y-87120000D01*
X178773600Y-87122000D01*
X178774600Y-87125000D01*
X178775600Y-87127000D01*
X178776600Y-87130000D01*
X178776600Y-87132000D01*
X178777600Y-87135000D01*
X178777600Y-87137000D01*
X178778600Y-87140000D01*
X178778600Y-87142000D01*
X178778600Y-87145000D01*
X178778600Y-88105000D01*
X178778600Y-88108000D01*
X178778600Y-88110000D01*
X178777600Y-88113000D01*
X178777600Y-88115000D01*
X178776600Y-88118000D01*
X178776600Y-88120000D01*
X178775600Y-88123000D01*
X178774600Y-88125000D01*
X178773600Y-88128000D01*
X178771600Y-88130000D01*
X178770600Y-88132000D01*
X178768600Y-88134000D01*
X178767600Y-88136000D01*
X178765600Y-88138000D01*
X178763600Y-88140000D01*
X178761600Y-88142000D01*
X178759600Y-88144000D01*
X178757600Y-88145000D01*
X178755600Y-88147000D01*
X178753600Y-88148000D01*
X178751600Y-88150000D01*
X178748600Y-88151000D01*
X178746600Y-88152000D01*
X178743600Y-88153000D01*
X178741600Y-88153000D01*
X178738600Y-88154000D01*
X178736600Y-88154000D01*
X178733600Y-88155000D01*
X178731600Y-88155000D01*
X178728600Y-88155000D01*
X177328600Y-88155000D01*
X177325600Y-88155000D01*
X177323600Y-88155000D01*
X177320600Y-88154000D01*
X177318600Y-88154000D01*
X177315600Y-88153000D01*
X177313600Y-88153000D01*
X177310600Y-88152000D01*
X177308600Y-88151000D01*
X177305600Y-88150000D01*
X177303600Y-88148000D01*
X177301600Y-88147000D01*
X177299600Y-88145000D01*
X177297600Y-88144000D01*
X177295600Y-88142000D01*
X177293600Y-88140000D01*
X177291600Y-88138000D01*
X177289600Y-88136000D01*
X177288600Y-88134000D01*
X177286600Y-88132000D01*
X177285600Y-88130000D01*
X177283600Y-88128000D01*
X177282600Y-88125000D01*
X177281600Y-88123000D01*
X177280600Y-88120000D01*
X177280600Y-88118000D01*
X177279600Y-88115000D01*
X177279600Y-88113000D01*
X177278600Y-88110000D01*
X177278600Y-88108000D01*
X177278600Y-88105000D01*
X177278600Y-87145000D01*
X177278600Y-87142000D01*
X177278600Y-87140000D01*
X177279600Y-87137000D01*
X177279600Y-87135000D01*
X177280600Y-87132000D01*
X177280600Y-87130000D01*
X177281600Y-87127000D01*
X177282600Y-87125000D01*
X177283600Y-87122000D01*
X177285600Y-87120000D01*
X177286600Y-87118000D01*
X177288600Y-87116000D01*
X177289600Y-87114000D01*
X177291600Y-87112000D01*
X177293600Y-87110000D01*
X177295600Y-87108000D01*
X177297600Y-87106000D01*
X177299600Y-87105000D01*
X177301600Y-87103000D01*
X177303600Y-87102000D01*
X177305600Y-87100000D01*
X177308600Y-87099000D01*
X177310600Y-87098000D01*
X177313600Y-87097000D01*
X177315600Y-87097000D01*
X177318600Y-87096000D01*
X177320600Y-87096000D01*
X177323600Y-87095000D01*
X177325600Y-87095000D01*
X177328600Y-87095000D01*
X178728600Y-87095000D01*
X178731600Y-87095000D01*
X178733600Y-87095000D01*
X178736600Y-87096000D01*
G36*
X178736600Y-87096000D02*
G01*
X178738600Y-87096000D01*
X178741600Y-87097000D01*
X178743600Y-87097000D01*
X178746600Y-87098000D01*
X178748600Y-87099000D01*
X178751600Y-87100000D01*
X178753600Y-87102000D01*
X178755600Y-87103000D01*
X178757600Y-87105000D01*
X178759600Y-87106000D01*
X178761600Y-87108000D01*
X178763600Y-87110000D01*
X178765600Y-87112000D01*
X178767600Y-87114000D01*
X178768600Y-87116000D01*
X178770600Y-87118000D01*
X178771600Y-87120000D01*
X178773600Y-87122000D01*
X178774600Y-87125000D01*
X178775600Y-87127000D01*
X178776600Y-87130000D01*
X178776600Y-87132000D01*
X178777600Y-87135000D01*
X178777600Y-87137000D01*
X178778600Y-87140000D01*
X178778600Y-87142000D01*
X178778600Y-87145000D01*
X178778600Y-88105000D01*
X178778600Y-88108000D01*
X178778600Y-88110000D01*
X178777600Y-88113000D01*
X178777600Y-88115000D01*
X178776600Y-88118000D01*
X178776600Y-88120000D01*
X178775600Y-88123000D01*
X178774600Y-88125000D01*
X178773600Y-88128000D01*
X178771600Y-88130000D01*
X178770600Y-88132000D01*
X178768600Y-88134000D01*
X178767600Y-88136000D01*
X178765600Y-88138000D01*
X178763600Y-88140000D01*
X178761600Y-88142000D01*
X178759600Y-88144000D01*
X178757600Y-88145000D01*
X178755600Y-88147000D01*
X178753600Y-88148000D01*
X178751600Y-88150000D01*
X178748600Y-88151000D01*
X178746600Y-88152000D01*
X178743600Y-88153000D01*
X178741600Y-88153000D01*
X178738600Y-88154000D01*
X178736600Y-88154000D01*
X178733600Y-88155000D01*
X178731600Y-88155000D01*
X178728600Y-88155000D01*
X177328600Y-88155000D01*
X177325600Y-88155000D01*
X177323600Y-88155000D01*
X177320600Y-88154000D01*
X177318600Y-88154000D01*
X177315600Y-88153000D01*
X177313600Y-88153000D01*
X177310600Y-88152000D01*
X177308600Y-88151000D01*
X177305600Y-88150000D01*
X177303600Y-88148000D01*
X177301600Y-88147000D01*
X177299600Y-88145000D01*
X177297600Y-88144000D01*
X177295600Y-88142000D01*
X177293600Y-88140000D01*
X177291600Y-88138000D01*
X177289600Y-88136000D01*
X177288600Y-88134000D01*
X177286600Y-88132000D01*
X177285600Y-88130000D01*
X177283600Y-88128000D01*
X177282600Y-88125000D01*
X177281600Y-88123000D01*
X177280600Y-88120000D01*
X177280600Y-88118000D01*
X177279600Y-88115000D01*
X177279600Y-88113000D01*
X177278600Y-88110000D01*
X177278600Y-88108000D01*
X177278600Y-88105000D01*
X177278600Y-87145000D01*
X177278600Y-87142000D01*
X177278600Y-87140000D01*
X177279600Y-87137000D01*
X177279600Y-87135000D01*
X177280600Y-87132000D01*
X177280600Y-87130000D01*
X177281600Y-87127000D01*
X177282600Y-87125000D01*
X177283600Y-87122000D01*
X177285600Y-87120000D01*
X177286600Y-87118000D01*
X177288600Y-87116000D01*
X177289600Y-87114000D01*
X177291600Y-87112000D01*
X177293600Y-87110000D01*
X177295600Y-87108000D01*
X177297600Y-87106000D01*
X177299600Y-87105000D01*
X177301600Y-87103000D01*
X177303600Y-87102000D01*
X177305600Y-87100000D01*
X177308600Y-87099000D01*
X177310600Y-87098000D01*
X177313600Y-87097000D01*
X177315600Y-87097000D01*
X177318600Y-87096000D01*
X177320600Y-87096000D01*
X177323600Y-87095000D01*
X177325600Y-87095000D01*
X177328600Y-87095000D01*
X178728600Y-87095000D01*
X178731600Y-87095000D01*
X178733600Y-87095000D01*
X178736600Y-87096000D01*
G37*
X178736600Y-85836000D02*
X178738600Y-85836000D01*
X178741600Y-85837000D01*
X178743600Y-85837000D01*
X178746600Y-85838000D01*
X178748600Y-85839000D01*
X178751600Y-85840000D01*
X178753600Y-85842000D01*
X178755600Y-85843000D01*
X178757600Y-85845000D01*
X178759600Y-85846000D01*
X178761600Y-85848000D01*
X178763600Y-85850000D01*
X178765600Y-85852000D01*
X178767600Y-85854000D01*
X178768600Y-85856000D01*
X178770600Y-85858000D01*
X178771600Y-85860000D01*
X178773600Y-85862000D01*
X178774600Y-85865000D01*
X178775600Y-85867000D01*
X178776600Y-85870000D01*
X178776600Y-85872000D01*
X178777600Y-85875000D01*
X178777600Y-85877000D01*
X178778600Y-85880000D01*
X178778600Y-85882000D01*
X178778600Y-85885000D01*
X178778600Y-86845000D01*
X178778600Y-86848000D01*
X178778600Y-86850000D01*
X178777600Y-86853000D01*
X178777600Y-86855000D01*
X178776600Y-86858000D01*
X178776600Y-86860000D01*
X178775600Y-86863000D01*
X178774600Y-86865000D01*
X178773600Y-86868000D01*
X178771600Y-86870000D01*
X178770600Y-86872000D01*
X178768600Y-86874000D01*
X178767600Y-86876000D01*
X178765600Y-86878000D01*
X178763600Y-86880000D01*
X178761600Y-86882000D01*
X178759600Y-86884000D01*
X178757600Y-86885000D01*
X178755600Y-86887000D01*
X178753600Y-86888000D01*
X178751600Y-86890000D01*
X178748600Y-86891000D01*
X178746600Y-86892000D01*
X178743600Y-86893000D01*
X178741600Y-86893000D01*
X178738600Y-86894000D01*
X178736600Y-86894000D01*
X178733600Y-86895000D01*
X178731600Y-86895000D01*
X178728600Y-86895000D01*
X177328600Y-86895000D01*
X177325600Y-86895000D01*
X177323600Y-86895000D01*
X177320600Y-86894000D01*
X177318600Y-86894000D01*
X177315600Y-86893000D01*
X177313600Y-86893000D01*
X177310600Y-86892000D01*
X177308600Y-86891000D01*
X177305600Y-86890000D01*
X177303600Y-86888000D01*
X177301600Y-86887000D01*
X177299600Y-86885000D01*
X177297600Y-86884000D01*
X177295600Y-86882000D01*
X177293600Y-86880000D01*
X177291600Y-86878000D01*
X177289600Y-86876000D01*
X177288600Y-86874000D01*
X177286600Y-86872000D01*
X177285600Y-86870000D01*
X177283600Y-86868000D01*
X177282600Y-86865000D01*
X177281600Y-86863000D01*
X177280600Y-86860000D01*
X177280600Y-86858000D01*
X177279600Y-86855000D01*
X177279600Y-86853000D01*
X177278600Y-86850000D01*
X177278600Y-86848000D01*
X177278600Y-86845000D01*
X177278600Y-85885000D01*
X177278600Y-85882000D01*
X177278600Y-85880000D01*
X177279600Y-85877000D01*
X177279600Y-85875000D01*
X177280600Y-85872000D01*
X177280600Y-85870000D01*
X177281600Y-85867000D01*
X177282600Y-85865000D01*
X177283600Y-85862000D01*
X177285600Y-85860000D01*
X177286600Y-85858000D01*
X177288600Y-85856000D01*
X177289600Y-85854000D01*
X177291600Y-85852000D01*
X177293600Y-85850000D01*
X177295600Y-85848000D01*
X177297600Y-85846000D01*
X177299600Y-85845000D01*
X177301600Y-85843000D01*
X177303600Y-85842000D01*
X177305600Y-85840000D01*
X177308600Y-85839000D01*
X177310600Y-85838000D01*
X177313600Y-85837000D01*
X177315600Y-85837000D01*
X177318600Y-85836000D01*
X177320600Y-85836000D01*
X177323600Y-85835000D01*
X177325600Y-85835000D01*
X177328600Y-85835000D01*
X178728600Y-85835000D01*
X178731600Y-85835000D01*
X178733600Y-85835000D01*
X178736600Y-85836000D01*
G36*
X178736600Y-85836000D02*
G01*
X178738600Y-85836000D01*
X178741600Y-85837000D01*
X178743600Y-85837000D01*
X178746600Y-85838000D01*
X178748600Y-85839000D01*
X178751600Y-85840000D01*
X178753600Y-85842000D01*
X178755600Y-85843000D01*
X178757600Y-85845000D01*
X178759600Y-85846000D01*
X178761600Y-85848000D01*
X178763600Y-85850000D01*
X178765600Y-85852000D01*
X178767600Y-85854000D01*
X178768600Y-85856000D01*
X178770600Y-85858000D01*
X178771600Y-85860000D01*
X178773600Y-85862000D01*
X178774600Y-85865000D01*
X178775600Y-85867000D01*
X178776600Y-85870000D01*
X178776600Y-85872000D01*
X178777600Y-85875000D01*
X178777600Y-85877000D01*
X178778600Y-85880000D01*
X178778600Y-85882000D01*
X178778600Y-85885000D01*
X178778600Y-86845000D01*
X178778600Y-86848000D01*
X178778600Y-86850000D01*
X178777600Y-86853000D01*
X178777600Y-86855000D01*
X178776600Y-86858000D01*
X178776600Y-86860000D01*
X178775600Y-86863000D01*
X178774600Y-86865000D01*
X178773600Y-86868000D01*
X178771600Y-86870000D01*
X178770600Y-86872000D01*
X178768600Y-86874000D01*
X178767600Y-86876000D01*
X178765600Y-86878000D01*
X178763600Y-86880000D01*
X178761600Y-86882000D01*
X178759600Y-86884000D01*
X178757600Y-86885000D01*
X178755600Y-86887000D01*
X178753600Y-86888000D01*
X178751600Y-86890000D01*
X178748600Y-86891000D01*
X178746600Y-86892000D01*
X178743600Y-86893000D01*
X178741600Y-86893000D01*
X178738600Y-86894000D01*
X178736600Y-86894000D01*
X178733600Y-86895000D01*
X178731600Y-86895000D01*
X178728600Y-86895000D01*
X177328600Y-86895000D01*
X177325600Y-86895000D01*
X177323600Y-86895000D01*
X177320600Y-86894000D01*
X177318600Y-86894000D01*
X177315600Y-86893000D01*
X177313600Y-86893000D01*
X177310600Y-86892000D01*
X177308600Y-86891000D01*
X177305600Y-86890000D01*
X177303600Y-86888000D01*
X177301600Y-86887000D01*
X177299600Y-86885000D01*
X177297600Y-86884000D01*
X177295600Y-86882000D01*
X177293600Y-86880000D01*
X177291600Y-86878000D01*
X177289600Y-86876000D01*
X177288600Y-86874000D01*
X177286600Y-86872000D01*
X177285600Y-86870000D01*
X177283600Y-86868000D01*
X177282600Y-86865000D01*
X177281600Y-86863000D01*
X177280600Y-86860000D01*
X177280600Y-86858000D01*
X177279600Y-86855000D01*
X177279600Y-86853000D01*
X177278600Y-86850000D01*
X177278600Y-86848000D01*
X177278600Y-86845000D01*
X177278600Y-85885000D01*
X177278600Y-85882000D01*
X177278600Y-85880000D01*
X177279600Y-85877000D01*
X177279600Y-85875000D01*
X177280600Y-85872000D01*
X177280600Y-85870000D01*
X177281600Y-85867000D01*
X177282600Y-85865000D01*
X177283600Y-85862000D01*
X177285600Y-85860000D01*
X177286600Y-85858000D01*
X177288600Y-85856000D01*
X177289600Y-85854000D01*
X177291600Y-85852000D01*
X177293600Y-85850000D01*
X177295600Y-85848000D01*
X177297600Y-85846000D01*
X177299600Y-85845000D01*
X177301600Y-85843000D01*
X177303600Y-85842000D01*
X177305600Y-85840000D01*
X177308600Y-85839000D01*
X177310600Y-85838000D01*
X177313600Y-85837000D01*
X177315600Y-85837000D01*
X177318600Y-85836000D01*
X177320600Y-85836000D01*
X177323600Y-85835000D01*
X177325600Y-85835000D01*
X177328600Y-85835000D01*
X178728600Y-85835000D01*
X178731600Y-85835000D01*
X178733600Y-85835000D01*
X178736600Y-85836000D01*
G37*
%TO.C,U1*%
X178310800Y-102212400D02*
X178312800Y-102212400D01*
X178315800Y-102213400D01*
X178317800Y-102213400D01*
X178320800Y-102214400D01*
X178322800Y-102215400D01*
X178325800Y-102216400D01*
X178327800Y-102218400D01*
X178329800Y-102219400D01*
X178331800Y-102221400D01*
X178333800Y-102222400D01*
X178335800Y-102224400D01*
X178337800Y-102226400D01*
X178339800Y-102228400D01*
X178341800Y-102230400D01*
X178342800Y-102232400D01*
X178344800Y-102234400D01*
X178345800Y-102236400D01*
X178347800Y-102238400D01*
X178348800Y-102241400D01*
X178349800Y-102243400D01*
X178350800Y-102246400D01*
X178350800Y-102248400D01*
X178351800Y-102251400D01*
X178351800Y-102253400D01*
X178352800Y-102256400D01*
X178352800Y-102258400D01*
X178352800Y-102261400D01*
X178352800Y-102551400D01*
X178102800Y-102551400D01*
X178102800Y-102261400D01*
X178102800Y-102258400D01*
X178102800Y-102256400D01*
X178103800Y-102253400D01*
X178103800Y-102251400D01*
X178104800Y-102248400D01*
X178104800Y-102246400D01*
X178105800Y-102243400D01*
X178106800Y-102241400D01*
X178107800Y-102238400D01*
X178109800Y-102236400D01*
X178110800Y-102234400D01*
X178112800Y-102232400D01*
X178113800Y-102230400D01*
X178115800Y-102228400D01*
X178117800Y-102226400D01*
X178119800Y-102224400D01*
X178121800Y-102222400D01*
X178123800Y-102221400D01*
X178125800Y-102219400D01*
X178127800Y-102218400D01*
X178129800Y-102216400D01*
X178132800Y-102215400D01*
X178134800Y-102214400D01*
X178137800Y-102213400D01*
X178139800Y-102213400D01*
X178142800Y-102212400D01*
X178144800Y-102212400D01*
X178147800Y-102211400D01*
X178149800Y-102211400D01*
X178152800Y-102211400D01*
X178302800Y-102211400D01*
X178305800Y-102211400D01*
X178307800Y-102211400D01*
X178310800Y-102212400D01*
G36*
X178310800Y-102212400D02*
G01*
X178312800Y-102212400D01*
X178315800Y-102213400D01*
X178317800Y-102213400D01*
X178320800Y-102214400D01*
X178322800Y-102215400D01*
X178325800Y-102216400D01*
X178327800Y-102218400D01*
X178329800Y-102219400D01*
X178331800Y-102221400D01*
X178333800Y-102222400D01*
X178335800Y-102224400D01*
X178337800Y-102226400D01*
X178339800Y-102228400D01*
X178341800Y-102230400D01*
X178342800Y-102232400D01*
X178344800Y-102234400D01*
X178345800Y-102236400D01*
X178347800Y-102238400D01*
X178348800Y-102241400D01*
X178349800Y-102243400D01*
X178350800Y-102246400D01*
X178350800Y-102248400D01*
X178351800Y-102251400D01*
X178351800Y-102253400D01*
X178352800Y-102256400D01*
X178352800Y-102258400D01*
X178352800Y-102261400D01*
X178352800Y-102551400D01*
X178102800Y-102551400D01*
X178102800Y-102261400D01*
X178102800Y-102258400D01*
X178102800Y-102256400D01*
X178103800Y-102253400D01*
X178103800Y-102251400D01*
X178104800Y-102248400D01*
X178104800Y-102246400D01*
X178105800Y-102243400D01*
X178106800Y-102241400D01*
X178107800Y-102238400D01*
X178109800Y-102236400D01*
X178110800Y-102234400D01*
X178112800Y-102232400D01*
X178113800Y-102230400D01*
X178115800Y-102228400D01*
X178117800Y-102226400D01*
X178119800Y-102224400D01*
X178121800Y-102222400D01*
X178123800Y-102221400D01*
X178125800Y-102219400D01*
X178127800Y-102218400D01*
X178129800Y-102216400D01*
X178132800Y-102215400D01*
X178134800Y-102214400D01*
X178137800Y-102213400D01*
X178139800Y-102213400D01*
X178142800Y-102212400D01*
X178144800Y-102212400D01*
X178147800Y-102211400D01*
X178149800Y-102211400D01*
X178152800Y-102211400D01*
X178302800Y-102211400D01*
X178305800Y-102211400D01*
X178307800Y-102211400D01*
X178310800Y-102212400D01*
G37*
X178352800Y-105561400D02*
X178352800Y-105564400D01*
X178352800Y-105566400D01*
X178351800Y-105569400D01*
X178351800Y-105571400D01*
X178350800Y-105574400D01*
X178350800Y-105576400D01*
X178349800Y-105579400D01*
X178348800Y-105581400D01*
X178347800Y-105584400D01*
X178345800Y-105586400D01*
X178344800Y-105588400D01*
X178342800Y-105590400D01*
X178341800Y-105592400D01*
X178339800Y-105594400D01*
X178337800Y-105596400D01*
X178335800Y-105598400D01*
X178333800Y-105600400D01*
X178331800Y-105601400D01*
X178329800Y-105603400D01*
X178327800Y-105604400D01*
X178325800Y-105606400D01*
X178322800Y-105607400D01*
X178320800Y-105608400D01*
X178317800Y-105609400D01*
X178315800Y-105609400D01*
X178312800Y-105610400D01*
X178310800Y-105610400D01*
X178307800Y-105611400D01*
X178305800Y-105611400D01*
X178302800Y-105611400D01*
X178152800Y-105611400D01*
X178149800Y-105611400D01*
X178147800Y-105611400D01*
X178144800Y-105610400D01*
X178142800Y-105610400D01*
X178139800Y-105609400D01*
X178137800Y-105609400D01*
X178134800Y-105608400D01*
X178132800Y-105607400D01*
X178129800Y-105606400D01*
X178127800Y-105604400D01*
X178125800Y-105603400D01*
X178123800Y-105601400D01*
X178121800Y-105600400D01*
X178119800Y-105598400D01*
X178117800Y-105596400D01*
X178115800Y-105594400D01*
X178113800Y-105592400D01*
X178112800Y-105590400D01*
X178110800Y-105588400D01*
X178109800Y-105586400D01*
X178107800Y-105584400D01*
X178106800Y-105581400D01*
X178105800Y-105579400D01*
X178104800Y-105576400D01*
X178104800Y-105574400D01*
X178103800Y-105571400D01*
X178103800Y-105569400D01*
X178102800Y-105566400D01*
X178102800Y-105564400D01*
X178102800Y-105561400D01*
X178102800Y-105271400D01*
X178352800Y-105271400D01*
X178352800Y-105561400D01*
G36*
X178352800Y-105561400D02*
G01*
X178352800Y-105564400D01*
X178352800Y-105566400D01*
X178351800Y-105569400D01*
X178351800Y-105571400D01*
X178350800Y-105574400D01*
X178350800Y-105576400D01*
X178349800Y-105579400D01*
X178348800Y-105581400D01*
X178347800Y-105584400D01*
X178345800Y-105586400D01*
X178344800Y-105588400D01*
X178342800Y-105590400D01*
X178341800Y-105592400D01*
X178339800Y-105594400D01*
X178337800Y-105596400D01*
X178335800Y-105598400D01*
X178333800Y-105600400D01*
X178331800Y-105601400D01*
X178329800Y-105603400D01*
X178327800Y-105604400D01*
X178325800Y-105606400D01*
X178322800Y-105607400D01*
X178320800Y-105608400D01*
X178317800Y-105609400D01*
X178315800Y-105609400D01*
X178312800Y-105610400D01*
X178310800Y-105610400D01*
X178307800Y-105611400D01*
X178305800Y-105611400D01*
X178302800Y-105611400D01*
X178152800Y-105611400D01*
X178149800Y-105611400D01*
X178147800Y-105611400D01*
X178144800Y-105610400D01*
X178142800Y-105610400D01*
X178139800Y-105609400D01*
X178137800Y-105609400D01*
X178134800Y-105608400D01*
X178132800Y-105607400D01*
X178129800Y-105606400D01*
X178127800Y-105604400D01*
X178125800Y-105603400D01*
X178123800Y-105601400D01*
X178121800Y-105600400D01*
X178119800Y-105598400D01*
X178117800Y-105596400D01*
X178115800Y-105594400D01*
X178113800Y-105592400D01*
X178112800Y-105590400D01*
X178110800Y-105588400D01*
X178109800Y-105586400D01*
X178107800Y-105584400D01*
X178106800Y-105581400D01*
X178105800Y-105579400D01*
X178104800Y-105576400D01*
X178104800Y-105574400D01*
X178103800Y-105571400D01*
X178103800Y-105569400D01*
X178102800Y-105566400D01*
X178102800Y-105564400D01*
X178102800Y-105561400D01*
X178102800Y-105271400D01*
X178352800Y-105271400D01*
X178352800Y-105561400D01*
G37*
X177810800Y-102212400D02*
X177812800Y-102212400D01*
X177815800Y-102213400D01*
X177817800Y-102213400D01*
X177820800Y-102214400D01*
X177822800Y-102215400D01*
X177825800Y-102216400D01*
X177827800Y-102218400D01*
X177829800Y-102219400D01*
X177831800Y-102221400D01*
X177833800Y-102222400D01*
X177835800Y-102224400D01*
X177837800Y-102226400D01*
X177839800Y-102228400D01*
X177841800Y-102230400D01*
X177842800Y-102232400D01*
X177844800Y-102234400D01*
X177845800Y-102236400D01*
X177847800Y-102238400D01*
X177848800Y-102241400D01*
X177849800Y-102243400D01*
X177850800Y-102246400D01*
X177850800Y-102248400D01*
X177851800Y-102251400D01*
X177851800Y-102253400D01*
X177852800Y-102256400D01*
X177852800Y-102258400D01*
X177852800Y-102261400D01*
X177852800Y-102551400D01*
X177602800Y-102551400D01*
X177602800Y-102261400D01*
X177602800Y-102258400D01*
X177602800Y-102256400D01*
X177603800Y-102253400D01*
X177603800Y-102251400D01*
X177604800Y-102248400D01*
X177604800Y-102246400D01*
X177605800Y-102243400D01*
X177606800Y-102241400D01*
X177607800Y-102238400D01*
X177609800Y-102236400D01*
X177610800Y-102234400D01*
X177612800Y-102232400D01*
X177613800Y-102230400D01*
X177615800Y-102228400D01*
X177617800Y-102226400D01*
X177619800Y-102224400D01*
X177621800Y-102222400D01*
X177623800Y-102221400D01*
X177625800Y-102219400D01*
X177627800Y-102218400D01*
X177629800Y-102216400D01*
X177632800Y-102215400D01*
X177634800Y-102214400D01*
X177637800Y-102213400D01*
X177639800Y-102213400D01*
X177642800Y-102212400D01*
X177644800Y-102212400D01*
X177647800Y-102211400D01*
X177649800Y-102211400D01*
X177652800Y-102211400D01*
X177802800Y-102211400D01*
X177805800Y-102211400D01*
X177807800Y-102211400D01*
X177810800Y-102212400D01*
G36*
X177810800Y-102212400D02*
G01*
X177812800Y-102212400D01*
X177815800Y-102213400D01*
X177817800Y-102213400D01*
X177820800Y-102214400D01*
X177822800Y-102215400D01*
X177825800Y-102216400D01*
X177827800Y-102218400D01*
X177829800Y-102219400D01*
X177831800Y-102221400D01*
X177833800Y-102222400D01*
X177835800Y-102224400D01*
X177837800Y-102226400D01*
X177839800Y-102228400D01*
X177841800Y-102230400D01*
X177842800Y-102232400D01*
X177844800Y-102234400D01*
X177845800Y-102236400D01*
X177847800Y-102238400D01*
X177848800Y-102241400D01*
X177849800Y-102243400D01*
X177850800Y-102246400D01*
X177850800Y-102248400D01*
X177851800Y-102251400D01*
X177851800Y-102253400D01*
X177852800Y-102256400D01*
X177852800Y-102258400D01*
X177852800Y-102261400D01*
X177852800Y-102551400D01*
X177602800Y-102551400D01*
X177602800Y-102261400D01*
X177602800Y-102258400D01*
X177602800Y-102256400D01*
X177603800Y-102253400D01*
X177603800Y-102251400D01*
X177604800Y-102248400D01*
X177604800Y-102246400D01*
X177605800Y-102243400D01*
X177606800Y-102241400D01*
X177607800Y-102238400D01*
X177609800Y-102236400D01*
X177610800Y-102234400D01*
X177612800Y-102232400D01*
X177613800Y-102230400D01*
X177615800Y-102228400D01*
X177617800Y-102226400D01*
X177619800Y-102224400D01*
X177621800Y-102222400D01*
X177623800Y-102221400D01*
X177625800Y-102219400D01*
X177627800Y-102218400D01*
X177629800Y-102216400D01*
X177632800Y-102215400D01*
X177634800Y-102214400D01*
X177637800Y-102213400D01*
X177639800Y-102213400D01*
X177642800Y-102212400D01*
X177644800Y-102212400D01*
X177647800Y-102211400D01*
X177649800Y-102211400D01*
X177652800Y-102211400D01*
X177802800Y-102211400D01*
X177805800Y-102211400D01*
X177807800Y-102211400D01*
X177810800Y-102212400D01*
G37*
X177852800Y-105561400D02*
X177852800Y-105564400D01*
X177852800Y-105566400D01*
X177851800Y-105569400D01*
X177851800Y-105571400D01*
X177850800Y-105574400D01*
X177850800Y-105576400D01*
X177849800Y-105579400D01*
X177848800Y-105581400D01*
X177847800Y-105584400D01*
X177845800Y-105586400D01*
X177844800Y-105588400D01*
X177842800Y-105590400D01*
X177841800Y-105592400D01*
X177839800Y-105594400D01*
X177837800Y-105596400D01*
X177835800Y-105598400D01*
X177833800Y-105600400D01*
X177831800Y-105601400D01*
X177829800Y-105603400D01*
X177827800Y-105604400D01*
X177825800Y-105606400D01*
X177822800Y-105607400D01*
X177820800Y-105608400D01*
X177817800Y-105609400D01*
X177815800Y-105609400D01*
X177812800Y-105610400D01*
X177810800Y-105610400D01*
X177807800Y-105611400D01*
X177805800Y-105611400D01*
X177802800Y-105611400D01*
X177652800Y-105611400D01*
X177649800Y-105611400D01*
X177647800Y-105611400D01*
X177644800Y-105610400D01*
X177642800Y-105610400D01*
X177639800Y-105609400D01*
X177637800Y-105609400D01*
X177634800Y-105608400D01*
X177632800Y-105607400D01*
X177629800Y-105606400D01*
X177627800Y-105604400D01*
X177625800Y-105603400D01*
X177623800Y-105601400D01*
X177621800Y-105600400D01*
X177619800Y-105598400D01*
X177617800Y-105596400D01*
X177615800Y-105594400D01*
X177613800Y-105592400D01*
X177612800Y-105590400D01*
X177610800Y-105588400D01*
X177609800Y-105586400D01*
X177607800Y-105584400D01*
X177606800Y-105581400D01*
X177605800Y-105579400D01*
X177604800Y-105576400D01*
X177604800Y-105574400D01*
X177603800Y-105571400D01*
X177603800Y-105569400D01*
X177602800Y-105566400D01*
X177602800Y-105564400D01*
X177602800Y-105561400D01*
X177602800Y-105271400D01*
X177852800Y-105271400D01*
X177852800Y-105561400D01*
G36*
X177852800Y-105561400D02*
G01*
X177852800Y-105564400D01*
X177852800Y-105566400D01*
X177851800Y-105569400D01*
X177851800Y-105571400D01*
X177850800Y-105574400D01*
X177850800Y-105576400D01*
X177849800Y-105579400D01*
X177848800Y-105581400D01*
X177847800Y-105584400D01*
X177845800Y-105586400D01*
X177844800Y-105588400D01*
X177842800Y-105590400D01*
X177841800Y-105592400D01*
X177839800Y-105594400D01*
X177837800Y-105596400D01*
X177835800Y-105598400D01*
X177833800Y-105600400D01*
X177831800Y-105601400D01*
X177829800Y-105603400D01*
X177827800Y-105604400D01*
X177825800Y-105606400D01*
X177822800Y-105607400D01*
X177820800Y-105608400D01*
X177817800Y-105609400D01*
X177815800Y-105609400D01*
X177812800Y-105610400D01*
X177810800Y-105610400D01*
X177807800Y-105611400D01*
X177805800Y-105611400D01*
X177802800Y-105611400D01*
X177652800Y-105611400D01*
X177649800Y-105611400D01*
X177647800Y-105611400D01*
X177644800Y-105610400D01*
X177642800Y-105610400D01*
X177639800Y-105609400D01*
X177637800Y-105609400D01*
X177634800Y-105608400D01*
X177632800Y-105607400D01*
X177629800Y-105606400D01*
X177627800Y-105604400D01*
X177625800Y-105603400D01*
X177623800Y-105601400D01*
X177621800Y-105600400D01*
X177619800Y-105598400D01*
X177617800Y-105596400D01*
X177615800Y-105594400D01*
X177613800Y-105592400D01*
X177612800Y-105590400D01*
X177610800Y-105588400D01*
X177609800Y-105586400D01*
X177607800Y-105584400D01*
X177606800Y-105581400D01*
X177605800Y-105579400D01*
X177604800Y-105576400D01*
X177604800Y-105574400D01*
X177603800Y-105571400D01*
X177603800Y-105569400D01*
X177602800Y-105566400D01*
X177602800Y-105564400D01*
X177602800Y-105561400D01*
X177602800Y-105271400D01*
X177852800Y-105271400D01*
X177852800Y-105561400D01*
G37*
X178685800Y-104012400D02*
X178687800Y-104012400D01*
X178690800Y-104013400D01*
X178692800Y-104013400D01*
X178695800Y-104014400D01*
X178697800Y-104015400D01*
X178700800Y-104016400D01*
X178702800Y-104018400D01*
X178704800Y-104019400D01*
X178706800Y-104021400D01*
X178708800Y-104022400D01*
X178710800Y-104024400D01*
X178712800Y-104026400D01*
X178714800Y-104028400D01*
X178716800Y-104030400D01*
X178717800Y-104032400D01*
X178719800Y-104034400D01*
X178720800Y-104036400D01*
X178722800Y-104038400D01*
X178723800Y-104041400D01*
X178724800Y-104043400D01*
X178725800Y-104046400D01*
X178725800Y-104048400D01*
X178726800Y-104051400D01*
X178726800Y-104053400D01*
X178727800Y-104056400D01*
X178727800Y-104058400D01*
X178727800Y-104061400D01*
X178727800Y-105021400D01*
X178727800Y-105024400D01*
X178727800Y-105026400D01*
X178726800Y-105029400D01*
X178726800Y-105031400D01*
X178725800Y-105034400D01*
X178725800Y-105036400D01*
X178724800Y-105039400D01*
X178723800Y-105041400D01*
X178722800Y-105044400D01*
X178720800Y-105046400D01*
X178719800Y-105048400D01*
X178717800Y-105050400D01*
X178716800Y-105052400D01*
X178714800Y-105054400D01*
X178712800Y-105056400D01*
X178710800Y-105058400D01*
X178708800Y-105060400D01*
X178706800Y-105061400D01*
X178704800Y-105063400D01*
X178702800Y-105064400D01*
X178700800Y-105066400D01*
X178697800Y-105067400D01*
X178695800Y-105068400D01*
X178692800Y-105069400D01*
X178690800Y-105069400D01*
X178687800Y-105070400D01*
X178685800Y-105070400D01*
X178682800Y-105071400D01*
X178680800Y-105071400D01*
X178677800Y-105071400D01*
X177277800Y-105071400D01*
X177274800Y-105071400D01*
X177272800Y-105071400D01*
X177269800Y-105070400D01*
X177267800Y-105070400D01*
X177264800Y-105069400D01*
X177262800Y-105069400D01*
X177259800Y-105068400D01*
X177257800Y-105067400D01*
X177254800Y-105066400D01*
X177252800Y-105064400D01*
X177250800Y-105063400D01*
X177248800Y-105061400D01*
X177246800Y-105060400D01*
X177244800Y-105058400D01*
X177242800Y-105056400D01*
X177240800Y-105054400D01*
X177238800Y-105052400D01*
X177237800Y-105050400D01*
X177235800Y-105048400D01*
X177234800Y-105046400D01*
X177232800Y-105044400D01*
X177231800Y-105041400D01*
X177230800Y-105039400D01*
X177229800Y-105036400D01*
X177229800Y-105034400D01*
X177228800Y-105031400D01*
X177228800Y-105029400D01*
X177227800Y-105026400D01*
X177227800Y-105024400D01*
X177227800Y-105021400D01*
X177227800Y-104061400D01*
X177227800Y-104058400D01*
X177227800Y-104056400D01*
X177228800Y-104053400D01*
X177228800Y-104051400D01*
X177229800Y-104048400D01*
X177229800Y-104046400D01*
X177230800Y-104043400D01*
X177231800Y-104041400D01*
X177232800Y-104038400D01*
X177234800Y-104036400D01*
X177235800Y-104034400D01*
X177237800Y-104032400D01*
X177238800Y-104030400D01*
X177240800Y-104028400D01*
X177242800Y-104026400D01*
X177244800Y-104024400D01*
X177246800Y-104022400D01*
X177248800Y-104021400D01*
X177250800Y-104019400D01*
X177252800Y-104018400D01*
X177254800Y-104016400D01*
X177257800Y-104015400D01*
X177259800Y-104014400D01*
X177262800Y-104013400D01*
X177264800Y-104013400D01*
X177267800Y-104012400D01*
X177269800Y-104012400D01*
X177272800Y-104011400D01*
X177274800Y-104011400D01*
X177277800Y-104011400D01*
X178677800Y-104011400D01*
X178680800Y-104011400D01*
X178682800Y-104011400D01*
X178685800Y-104012400D01*
G36*
X178685800Y-104012400D02*
G01*
X178687800Y-104012400D01*
X178690800Y-104013400D01*
X178692800Y-104013400D01*
X178695800Y-104014400D01*
X178697800Y-104015400D01*
X178700800Y-104016400D01*
X178702800Y-104018400D01*
X178704800Y-104019400D01*
X178706800Y-104021400D01*
X178708800Y-104022400D01*
X178710800Y-104024400D01*
X178712800Y-104026400D01*
X178714800Y-104028400D01*
X178716800Y-104030400D01*
X178717800Y-104032400D01*
X178719800Y-104034400D01*
X178720800Y-104036400D01*
X178722800Y-104038400D01*
X178723800Y-104041400D01*
X178724800Y-104043400D01*
X178725800Y-104046400D01*
X178725800Y-104048400D01*
X178726800Y-104051400D01*
X178726800Y-104053400D01*
X178727800Y-104056400D01*
X178727800Y-104058400D01*
X178727800Y-104061400D01*
X178727800Y-105021400D01*
X178727800Y-105024400D01*
X178727800Y-105026400D01*
X178726800Y-105029400D01*
X178726800Y-105031400D01*
X178725800Y-105034400D01*
X178725800Y-105036400D01*
X178724800Y-105039400D01*
X178723800Y-105041400D01*
X178722800Y-105044400D01*
X178720800Y-105046400D01*
X178719800Y-105048400D01*
X178717800Y-105050400D01*
X178716800Y-105052400D01*
X178714800Y-105054400D01*
X178712800Y-105056400D01*
X178710800Y-105058400D01*
X178708800Y-105060400D01*
X178706800Y-105061400D01*
X178704800Y-105063400D01*
X178702800Y-105064400D01*
X178700800Y-105066400D01*
X178697800Y-105067400D01*
X178695800Y-105068400D01*
X178692800Y-105069400D01*
X178690800Y-105069400D01*
X178687800Y-105070400D01*
X178685800Y-105070400D01*
X178682800Y-105071400D01*
X178680800Y-105071400D01*
X178677800Y-105071400D01*
X177277800Y-105071400D01*
X177274800Y-105071400D01*
X177272800Y-105071400D01*
X177269800Y-105070400D01*
X177267800Y-105070400D01*
X177264800Y-105069400D01*
X177262800Y-105069400D01*
X177259800Y-105068400D01*
X177257800Y-105067400D01*
X177254800Y-105066400D01*
X177252800Y-105064400D01*
X177250800Y-105063400D01*
X177248800Y-105061400D01*
X177246800Y-105060400D01*
X177244800Y-105058400D01*
X177242800Y-105056400D01*
X177240800Y-105054400D01*
X177238800Y-105052400D01*
X177237800Y-105050400D01*
X177235800Y-105048400D01*
X177234800Y-105046400D01*
X177232800Y-105044400D01*
X177231800Y-105041400D01*
X177230800Y-105039400D01*
X177229800Y-105036400D01*
X177229800Y-105034400D01*
X177228800Y-105031400D01*
X177228800Y-105029400D01*
X177227800Y-105026400D01*
X177227800Y-105024400D01*
X177227800Y-105021400D01*
X177227800Y-104061400D01*
X177227800Y-104058400D01*
X177227800Y-104056400D01*
X177228800Y-104053400D01*
X177228800Y-104051400D01*
X177229800Y-104048400D01*
X177229800Y-104046400D01*
X177230800Y-104043400D01*
X177231800Y-104041400D01*
X177232800Y-104038400D01*
X177234800Y-104036400D01*
X177235800Y-104034400D01*
X177237800Y-104032400D01*
X177238800Y-104030400D01*
X177240800Y-104028400D01*
X177242800Y-104026400D01*
X177244800Y-104024400D01*
X177246800Y-104022400D01*
X177248800Y-104021400D01*
X177250800Y-104019400D01*
X177252800Y-104018400D01*
X177254800Y-104016400D01*
X177257800Y-104015400D01*
X177259800Y-104014400D01*
X177262800Y-104013400D01*
X177264800Y-104013400D01*
X177267800Y-104012400D01*
X177269800Y-104012400D01*
X177272800Y-104011400D01*
X177274800Y-104011400D01*
X177277800Y-104011400D01*
X178677800Y-104011400D01*
X178680800Y-104011400D01*
X178682800Y-104011400D01*
X178685800Y-104012400D01*
G37*
X178685800Y-102752400D02*
X178687800Y-102752400D01*
X178690800Y-102753400D01*
X178692800Y-102753400D01*
X178695800Y-102754400D01*
X178697800Y-102755400D01*
X178700800Y-102756400D01*
X178702800Y-102758400D01*
X178704800Y-102759400D01*
X178706800Y-102761400D01*
X178708800Y-102762400D01*
X178710800Y-102764400D01*
X178712800Y-102766400D01*
X178714800Y-102768400D01*
X178716800Y-102770400D01*
X178717800Y-102772400D01*
X178719800Y-102774400D01*
X178720800Y-102776400D01*
X178722800Y-102778400D01*
X178723800Y-102781400D01*
X178724800Y-102783400D01*
X178725800Y-102786400D01*
X178725800Y-102788400D01*
X178726800Y-102791400D01*
X178726800Y-102793400D01*
X178727800Y-102796400D01*
X178727800Y-102798400D01*
X178727800Y-102801400D01*
X178727800Y-103761400D01*
X178727800Y-103764400D01*
X178727800Y-103766400D01*
X178726800Y-103769400D01*
X178726800Y-103771400D01*
X178725800Y-103774400D01*
X178725800Y-103776400D01*
X178724800Y-103779400D01*
X178723800Y-103781400D01*
X178722800Y-103784400D01*
X178720800Y-103786400D01*
X178719800Y-103788400D01*
X178717800Y-103790400D01*
X178716800Y-103792400D01*
X178714800Y-103794400D01*
X178712800Y-103796400D01*
X178710800Y-103798400D01*
X178708800Y-103800400D01*
X178706800Y-103801400D01*
X178704800Y-103803400D01*
X178702800Y-103804400D01*
X178700800Y-103806400D01*
X178697800Y-103807400D01*
X178695800Y-103808400D01*
X178692800Y-103809400D01*
X178690800Y-103809400D01*
X178687800Y-103810400D01*
X178685800Y-103810400D01*
X178682800Y-103811400D01*
X178680800Y-103811400D01*
X178677800Y-103811400D01*
X177277800Y-103811400D01*
X177274800Y-103811400D01*
X177272800Y-103811400D01*
X177269800Y-103810400D01*
X177267800Y-103810400D01*
X177264800Y-103809400D01*
X177262800Y-103809400D01*
X177259800Y-103808400D01*
X177257800Y-103807400D01*
X177254800Y-103806400D01*
X177252800Y-103804400D01*
X177250800Y-103803400D01*
X177248800Y-103801400D01*
X177246800Y-103800400D01*
X177244800Y-103798400D01*
X177242800Y-103796400D01*
X177240800Y-103794400D01*
X177238800Y-103792400D01*
X177237800Y-103790400D01*
X177235800Y-103788400D01*
X177234800Y-103786400D01*
X177232800Y-103784400D01*
X177231800Y-103781400D01*
X177230800Y-103779400D01*
X177229800Y-103776400D01*
X177229800Y-103774400D01*
X177228800Y-103771400D01*
X177228800Y-103769400D01*
X177227800Y-103766400D01*
X177227800Y-103764400D01*
X177227800Y-103761400D01*
X177227800Y-102801400D01*
X177227800Y-102798400D01*
X177227800Y-102796400D01*
X177228800Y-102793400D01*
X177228800Y-102791400D01*
X177229800Y-102788400D01*
X177229800Y-102786400D01*
X177230800Y-102783400D01*
X177231800Y-102781400D01*
X177232800Y-102778400D01*
X177234800Y-102776400D01*
X177235800Y-102774400D01*
X177237800Y-102772400D01*
X177238800Y-102770400D01*
X177240800Y-102768400D01*
X177242800Y-102766400D01*
X177244800Y-102764400D01*
X177246800Y-102762400D01*
X177248800Y-102761400D01*
X177250800Y-102759400D01*
X177252800Y-102758400D01*
X177254800Y-102756400D01*
X177257800Y-102755400D01*
X177259800Y-102754400D01*
X177262800Y-102753400D01*
X177264800Y-102753400D01*
X177267800Y-102752400D01*
X177269800Y-102752400D01*
X177272800Y-102751400D01*
X177274800Y-102751400D01*
X177277800Y-102751400D01*
X178677800Y-102751400D01*
X178680800Y-102751400D01*
X178682800Y-102751400D01*
X178685800Y-102752400D01*
G36*
X178685800Y-102752400D02*
G01*
X178687800Y-102752400D01*
X178690800Y-102753400D01*
X178692800Y-102753400D01*
X178695800Y-102754400D01*
X178697800Y-102755400D01*
X178700800Y-102756400D01*
X178702800Y-102758400D01*
X178704800Y-102759400D01*
X178706800Y-102761400D01*
X178708800Y-102762400D01*
X178710800Y-102764400D01*
X178712800Y-102766400D01*
X178714800Y-102768400D01*
X178716800Y-102770400D01*
X178717800Y-102772400D01*
X178719800Y-102774400D01*
X178720800Y-102776400D01*
X178722800Y-102778400D01*
X178723800Y-102781400D01*
X178724800Y-102783400D01*
X178725800Y-102786400D01*
X178725800Y-102788400D01*
X178726800Y-102791400D01*
X178726800Y-102793400D01*
X178727800Y-102796400D01*
X178727800Y-102798400D01*
X178727800Y-102801400D01*
X178727800Y-103761400D01*
X178727800Y-103764400D01*
X178727800Y-103766400D01*
X178726800Y-103769400D01*
X178726800Y-103771400D01*
X178725800Y-103774400D01*
X178725800Y-103776400D01*
X178724800Y-103779400D01*
X178723800Y-103781400D01*
X178722800Y-103784400D01*
X178720800Y-103786400D01*
X178719800Y-103788400D01*
X178717800Y-103790400D01*
X178716800Y-103792400D01*
X178714800Y-103794400D01*
X178712800Y-103796400D01*
X178710800Y-103798400D01*
X178708800Y-103800400D01*
X178706800Y-103801400D01*
X178704800Y-103803400D01*
X178702800Y-103804400D01*
X178700800Y-103806400D01*
X178697800Y-103807400D01*
X178695800Y-103808400D01*
X178692800Y-103809400D01*
X178690800Y-103809400D01*
X178687800Y-103810400D01*
X178685800Y-103810400D01*
X178682800Y-103811400D01*
X178680800Y-103811400D01*
X178677800Y-103811400D01*
X177277800Y-103811400D01*
X177274800Y-103811400D01*
X177272800Y-103811400D01*
X177269800Y-103810400D01*
X177267800Y-103810400D01*
X177264800Y-103809400D01*
X177262800Y-103809400D01*
X177259800Y-103808400D01*
X177257800Y-103807400D01*
X177254800Y-103806400D01*
X177252800Y-103804400D01*
X177250800Y-103803400D01*
X177248800Y-103801400D01*
X177246800Y-103800400D01*
X177244800Y-103798400D01*
X177242800Y-103796400D01*
X177240800Y-103794400D01*
X177238800Y-103792400D01*
X177237800Y-103790400D01*
X177235800Y-103788400D01*
X177234800Y-103786400D01*
X177232800Y-103784400D01*
X177231800Y-103781400D01*
X177230800Y-103779400D01*
X177229800Y-103776400D01*
X177229800Y-103774400D01*
X177228800Y-103771400D01*
X177228800Y-103769400D01*
X177227800Y-103766400D01*
X177227800Y-103764400D01*
X177227800Y-103761400D01*
X177227800Y-102801400D01*
X177227800Y-102798400D01*
X177227800Y-102796400D01*
X177228800Y-102793400D01*
X177228800Y-102791400D01*
X177229800Y-102788400D01*
X177229800Y-102786400D01*
X177230800Y-102783400D01*
X177231800Y-102781400D01*
X177232800Y-102778400D01*
X177234800Y-102776400D01*
X177235800Y-102774400D01*
X177237800Y-102772400D01*
X177238800Y-102770400D01*
X177240800Y-102768400D01*
X177242800Y-102766400D01*
X177244800Y-102764400D01*
X177246800Y-102762400D01*
X177248800Y-102761400D01*
X177250800Y-102759400D01*
X177252800Y-102758400D01*
X177254800Y-102756400D01*
X177257800Y-102755400D01*
X177259800Y-102754400D01*
X177262800Y-102753400D01*
X177264800Y-102753400D01*
X177267800Y-102752400D01*
X177269800Y-102752400D01*
X177272800Y-102751400D01*
X177274800Y-102751400D01*
X177277800Y-102751400D01*
X178677800Y-102751400D01*
X178680800Y-102751400D01*
X178682800Y-102751400D01*
X178685800Y-102752400D01*
G37*
%TD*%
D11*
%TO.C,C1*%
X177660000Y-99644200D03*
X179210000Y-99644200D03*
%TD*%
D12*
%TO.C,C14*%
X177063400Y-91678800D03*
X177063400Y-89778800D03*
%TD*%
D13*
%TO.C,C101*%
X156211020Y-110581640D03*
X156211020Y-116181640D03*
%TD*%
D14*
%TO.C,C12*%
X175553520Y-88493600D03*
X174593520Y-88493600D03*
%TD*%
D15*
%TO.C,C115*%
X137789900Y-79428400D03*
X137789900Y-80388400D03*
%TD*%
D16*
%TO.C,U2*%
X179428600Y-85995000D03*
X179428600Y-86495000D03*
X179428600Y-86995000D03*
X179428600Y-87495000D03*
X179428600Y-87995000D03*
X176628600Y-87995000D03*
X176628600Y-87495000D03*
X176628600Y-86995000D03*
X176628600Y-86495000D03*
X176628600Y-85995000D03*
%TD*%
D13*
%TO.C,C98*%
X170917620Y-110581640D03*
X170917620Y-116181640D03*
%TD*%
D15*
%TO.C,C123*%
X137789900Y-129900800D03*
X137789900Y-130860800D03*
%TD*%
D17*
%TO.C,U3*%
X182676440Y-123464140D03*
X182026440Y-123464140D03*
X181376440Y-123464140D03*
X180726440Y-123464140D03*
X180726440Y-121189140D03*
X181376440Y-121189140D03*
X182026440Y-121189140D03*
X182676440Y-121189140D03*
%TD*%
D18*
%TO.C,L4*%
X181056640Y-126791540D03*
X177356640Y-126791540D03*
%TD*%
D19*
%TO.C,R22*%
X182615840Y-128678640D03*
X182615840Y-127658640D03*
%TD*%
D20*
%TO.C,R13*%
X174572200Y-90932000D03*
X175592200Y-90932000D03*
%TD*%
D11*
%TO.C,C9*%
X177710800Y-84251800D03*
X179260800Y-84251800D03*
%TD*%
D21*
%TO.C,R19*%
X183631840Y-124915440D03*
X183631840Y-125935440D03*
%TD*%
D12*
%TO.C,C5*%
X179019200Y-108595200D03*
X179019200Y-106695200D03*
%TD*%
D13*
%TO.C,C104*%
X163550600Y-76886876D03*
X163550600Y-82486876D03*
%TD*%
%TO.C,C105*%
X148845020Y-127396640D03*
X148845020Y-132996640D03*
%TD*%
D19*
%TO.C,R9*%
X176453800Y-84556600D03*
X176453800Y-83536600D03*
%TD*%
D21*
%TO.C,R16*%
X182641240Y-116000040D03*
X182641240Y-117020040D03*
%TD*%
D15*
%TO.C,C117*%
X141599900Y-79428400D03*
X141599900Y-80388400D03*
%TD*%
D22*
%TO.C,R7*%
X175532720Y-104419400D03*
X174512720Y-104419400D03*
%TD*%
D21*
%TO.C,R18*%
X182641240Y-118743240D03*
X182641240Y-119763240D03*
%TD*%
D23*
%TO.C,L1*%
X182321200Y-103403400D03*
X182321200Y-107103400D03*
%TD*%
D15*
%TO.C,C129*%
X141599900Y-96189800D03*
X141599900Y-97149800D03*
%TD*%
D14*
%TO.C,C7*%
X175502720Y-105410000D03*
X174542720Y-105410000D03*
%TD*%
D13*
%TO.C,C70*%
X170917620Y-127396640D03*
X170917620Y-132996640D03*
%TD*%
%TO.C,C67*%
X156210000Y-76905200D03*
X156210000Y-82505200D03*
%TD*%
%TO.C,C71*%
X148870420Y-93741240D03*
X148870420Y-99341240D03*
%TD*%
D15*
%TO.C,C119*%
X137795000Y-113035200D03*
X137795000Y-113995200D03*
%TD*%
D19*
%TO.C,R15*%
X183657240Y-117020040D03*
X183657240Y-116000040D03*
%TD*%
D16*
%TO.C,U1*%
X179377800Y-102911400D03*
X179377800Y-103411400D03*
X179377800Y-103911400D03*
X179377800Y-104411400D03*
X179377800Y-104911400D03*
X176577800Y-104911400D03*
X176577800Y-104411400D03*
X176577800Y-103911400D03*
X176577800Y-103411400D03*
X176577800Y-102911400D03*
%TD*%
D22*
%TO.C,R14*%
X175592200Y-89916000D03*
X174572200Y-89916000D03*
%TD*%
D21*
%TO.C,R8*%
X175429000Y-83532600D03*
X175429000Y-84552600D03*
%TD*%
D11*
%TO.C,C18*%
X177078040Y-123596640D03*
X178628040Y-123596640D03*
%TD*%
D13*
%TO.C,C99*%
X148845020Y-110581640D03*
X148845020Y-116181640D03*
%TD*%
D22*
%TO.C,R4*%
X175539400Y-108864400D03*
X174519400Y-108864400D03*
%TD*%
D14*
%TO.C,C3*%
X175552040Y-86507320D03*
X174592040Y-86507320D03*
%TD*%
D13*
%TO.C,C72*%
X163551620Y-93722916D03*
X163551620Y-99322916D03*
%TD*%
D19*
%TO.C,R20*%
X182615840Y-125935440D03*
X182615840Y-124915440D03*
%TD*%
%TO.C,R2*%
X176403000Y-101473000D03*
X176403000Y-100453000D03*
%TD*%
D15*
%TO.C,C124*%
X140329900Y-129900800D03*
X140329900Y-130860800D03*
%TD*%
D20*
%TO.C,R5*%
X174521400Y-107848400D03*
X175541400Y-107848400D03*
%TD*%
D21*
%TO.C,R21*%
X183631840Y-127658640D03*
X183631840Y-128678640D03*
%TD*%
D11*
%TO.C,C17*%
X177078040Y-121086640D03*
X178628040Y-121086640D03*
%TD*%
D22*
%TO.C,R3*%
X175532720Y-102438200D03*
X174512720Y-102438200D03*
%TD*%
D15*
%TO.C,C118*%
X136525000Y-113035200D03*
X136525000Y-113995200D03*
%TD*%
D19*
%TO.C,R17*%
X183657240Y-119763240D03*
X183657240Y-118743240D03*
%TD*%
D18*
%TO.C,L3*%
X177382040Y-117876140D03*
X181082040Y-117876140D03*
%TD*%
D13*
%TO.C,C69*%
X148869400Y-76905200D03*
X148869400Y-82505200D03*
%TD*%
D14*
%TO.C,C133*%
X175502720Y-103428800D03*
X174542720Y-103428800D03*
%TD*%
D15*
%TO.C,C128*%
X140329900Y-96189800D03*
X140329900Y-97149800D03*
%TD*%
D22*
%TO.C,R6*%
X175541400Y-106832400D03*
X174521400Y-106832400D03*
%TD*%
D15*
%TO.C,C6*%
X173558200Y-104447400D03*
X173558200Y-105407400D03*
%TD*%
D24*
%TO.C,C15*%
X175529240Y-121120440D03*
X175529240Y-119570440D03*
%TD*%
D23*
%TO.C,L2*%
X182372000Y-86487000D03*
X182372000Y-90187000D03*
%TD*%
D13*
%TO.C,C100*%
X170916600Y-76905200D03*
X170916600Y-82505200D03*
%TD*%
D15*
%TO.C,C120*%
X140335000Y-113035200D03*
X140335000Y-113995200D03*
%TD*%
D25*
%TO.C,C19*%
X175503840Y-123571240D03*
X175503840Y-125121240D03*
%TD*%
D13*
%TO.C,C68*%
X170917620Y-93741240D03*
X170917620Y-99341240D03*
%TD*%
D15*
%TO.C,C125*%
X141605000Y-129900800D03*
X141605000Y-130860800D03*
%TD*%
D22*
%TO.C,R10*%
X175583520Y-85521800D03*
X174563520Y-85521800D03*
%TD*%
D25*
%TO.C,C20*%
X173970640Y-123571240D03*
X173970640Y-125121240D03*
%TD*%
D15*
%TO.C,C116*%
X140329900Y-79428400D03*
X140329900Y-80388400D03*
%TD*%
D11*
%TO.C,C2*%
X177660000Y-101168200D03*
X179210000Y-101168200D03*
%TD*%
D12*
%TO.C,C13*%
X179070000Y-91678800D03*
X179070000Y-89778800D03*
%TD*%
D22*
%TO.C,R12*%
X175590200Y-91948000D03*
X174570200Y-91948000D03*
%TD*%
D13*
%TO.C,C66*%
X163526220Y-127371240D03*
X163526220Y-132971240D03*
%TD*%
D15*
%TO.C,C127*%
X137789900Y-96189800D03*
X137789900Y-97149800D03*
%TD*%
D11*
%TO.C,C8*%
X177710800Y-82727800D03*
X179260800Y-82727800D03*
%TD*%
D13*
%TO.C,C102*%
X163551620Y-110581640D03*
X163551620Y-116181640D03*
%TD*%
D15*
%TO.C,C121*%
X141605000Y-113035200D03*
X141605000Y-113995200D03*
%TD*%
%TO.C,C122*%
X136519900Y-129889520D03*
X136519900Y-130849520D03*
%TD*%
D21*
%TO.C,R1*%
X175378200Y-100449000D03*
X175378200Y-101469000D03*
%TD*%
D15*
%TO.C,C126*%
X136519900Y-96189800D03*
X136519900Y-97149800D03*
%TD*%
%TO.C,C11*%
X173609000Y-87531000D03*
X173609000Y-88491000D03*
%TD*%
D24*
%TO.C,C16*%
X174005240Y-121120440D03*
X174005240Y-119570440D03*
%TD*%
D15*
%TO.C,C114*%
X136519900Y-79419720D03*
X136519900Y-80379720D03*
%TD*%
D12*
%TO.C,C4*%
X177012600Y-108595200D03*
X177012600Y-106695200D03*
%TD*%
D13*
%TO.C,C73*%
X156211020Y-93741240D03*
X156211020Y-99341240D03*
%TD*%
D22*
%TO.C,R11*%
X175583520Y-87503000D03*
X174563520Y-87503000D03*
%TD*%
D13*
%TO.C,C103*%
X156185620Y-127396640D03*
X156185620Y-132996640D03*
%TD*%
M02*
