%TF.GenerationSoftware,KiCad,Pcbnew,7.0.9*%
%TF.CreationDate,2025-01-01T13:08:25+08:00*%
%TF.ProjectId,ver0.1-rounded,76657230-2e31-42d7-926f-756e6465642e,rev?*%
%TF.SameCoordinates,Original*%
%TF.FileFunction,Paste,Top*%
%TF.FilePolarity,Positive*%
%FSLAX46Y46*%
G04 Gerber Fmt 4.6, Leading zero omitted, Abs format (unit mm)*
G04 Created by KiCad (PCBNEW 7.0.9) date 2025-01-01 13:08:25*
%MOMM*%
%LPD*%
G01*
G04 APERTURE LIST*
G04 Aperture macros list*
%AMRoundRect*
0 Rectangle with rounded corners*
0 $1 Rounding radius*
0 $2 $3 $4 $5 $6 $7 $8 $9 X,Y pos of 4 corners*
0 Add a 4 corners polygon primitive as box body*
4,1,4,$2,$3,$4,$5,$6,$7,$8,$9,$2,$3,0*
0 Add four circle primitives for the rounded corners*
1,1,$1+$1,$2,$3*
1,1,$1+$1,$4,$5*
1,1,$1+$1,$6,$7*
1,1,$1+$1,$8,$9*
0 Add four rect primitives between the rounded corners*
20,1,$1+$1,$2,$3,$4,$5,0*
20,1,$1+$1,$4,$5,$6,$7,0*
20,1,$1+$1,$6,$7,$8,$9,0*
20,1,$1+$1,$8,$9,$2,$3,0*%
%AMRotRect*
0 Rectangle, with rotation*
0 The origin of the aperture is its center*
0 $1 length*
0 $2 width*
0 $3 Rotation angle, in degrees counterclockwise*
0 Add horizontal line*
21,1,$1,$2,0,0,$3*%
%AMFreePoly0*
4,1,33,0.459513,0.680391,0.494205,0.666021,0.523996,0.643161,0.643161,0.523996,0.666021,0.494205,0.680391,0.459513,0.685292,0.422283,0.685292,-0.422283,0.680391,-0.459513,0.666021,-0.494205,0.643161,-0.523996,0.523996,-0.643161,0.494205,-0.666021,0.459513,-0.680391,0.422283,-0.685292,-0.422283,-0.685292,-0.459513,-0.680391,-0.494205,-0.666021,-0.523996,-0.643161,-0.643161,-0.523996,
-0.666021,-0.494205,-0.680391,-0.459513,-0.685292,-0.422283,-0.685292,0.422283,-0.680391,0.459513,-0.666021,0.494205,-0.643161,0.523996,-0.523996,0.643161,-0.494205,0.666021,-0.459513,0.680391,-0.422283,0.685292,0.422283,0.685292,0.459513,0.680391,0.459513,0.680391,$1*%
G04 Aperture macros list end*
%ADD10RoundRect,0.147500X0.147500X0.172500X-0.147500X0.172500X-0.147500X-0.172500X0.147500X-0.172500X0*%
%ADD11R,1.550000X0.600000*%
%ADD12RoundRect,0.243750X-0.456250X0.243750X-0.456250X-0.243750X0.456250X-0.243750X0.456250X0.243750X0*%
%ADD13RoundRect,0.135000X-0.185000X0.135000X-0.185000X-0.135000X0.185000X-0.135000X0.185000X0.135000X0*%
%ADD14RoundRect,0.243750X0.456250X-0.243750X0.456250X0.243750X-0.456250X0.243750X-0.456250X-0.243750X0*%
%ADD15RoundRect,0.225000X0.250000X-0.225000X0.250000X0.225000X-0.250000X0.225000X-0.250000X-0.225000X0*%
%ADD16RoundRect,0.225000X-0.225000X-0.250000X0.225000X-0.250000X0.225000X0.250000X-0.225000X0.250000X0*%
%ADD17RoundRect,0.140000X-0.170000X0.140000X-0.170000X-0.140000X0.170000X-0.140000X0.170000X0.140000X0*%
%ADD18RoundRect,0.225000X0.225000X0.250000X-0.225000X0.250000X-0.225000X-0.250000X0.225000X-0.250000X0*%
%ADD19R,2.440000X2.820000*%
%ADD20R,0.600000X2.900000*%
%ADD21RoundRect,0.225000X-0.250000X0.225000X-0.250000X-0.225000X0.250000X-0.225000X0.250000X0.225000X0*%
%ADD22R,0.600000X1.550000*%
%ADD23RoundRect,0.140000X-0.140000X-0.170000X0.140000X-0.170000X0.140000X0.170000X-0.140000X0.170000X0*%
%ADD24RoundRect,0.225000X0.017678X-0.335876X0.335876X-0.017678X-0.017678X0.335876X-0.335876X0.017678X0*%
%ADD25RoundRect,0.135000X0.185000X-0.135000X0.185000X0.135000X-0.185000X0.135000X-0.185000X-0.135000X0*%
%ADD26RoundRect,0.135000X0.135000X0.185000X-0.135000X0.185000X-0.135000X-0.185000X0.135000X-0.185000X0*%
%ADD27RoundRect,0.062500X0.062500X0.350000X-0.062500X0.350000X-0.062500X-0.350000X0.062500X-0.350000X0*%
%ADD28RoundRect,0.062500X0.350000X0.062500X-0.350000X0.062500X-0.350000X-0.062500X0.350000X-0.062500X0*%
%ADD29FreePoly0,180.000000*%
%ADD30RoundRect,0.135000X-0.135000X-0.185000X0.135000X-0.185000X0.135000X0.185000X-0.135000X0.185000X0*%
%ADD31RoundRect,0.150000X-0.512500X-0.150000X0.512500X-0.150000X0.512500X0.150000X-0.512500X0.150000X0*%
%ADD32RoundRect,0.050000X0.050000X0.375000X-0.050000X0.375000X-0.050000X-0.375000X0.050000X-0.375000X0*%
%ADD33RoundRect,0.050000X0.375000X0.050000X-0.375000X0.050000X-0.375000X-0.050000X0.375000X-0.050000X0*%
%ADD34RoundRect,0.211634X0.211634X0.211634X-0.211634X0.211634X-0.211634X-0.211634X0.211634X-0.211634X0*%
%ADD35RoundRect,0.200000X-0.275000X0.200000X-0.275000X-0.200000X0.275000X-0.200000X0.275000X0.200000X0*%
%ADD36R,1.000000X1.000000*%
%ADD37RotRect,1.400000X1.200000X135.000000*%
%ADD38R,1.200000X1.400000*%
%ADD39R,1.500000X2.500000*%
%ADD40RoundRect,0.125000X0.537500X0.125000X-0.537500X0.125000X-0.537500X-0.125000X0.537500X-0.125000X0*%
G04 APERTURE END LIST*
D10*
%TO.C,R41*%
X183405900Y-93565980D03*
X184375900Y-93565980D03*
%TD*%
D11*
%TO.C,U6*%
X127789920Y-104648000D03*
X127789920Y-105918000D03*
X127789920Y-107188000D03*
X127789920Y-108458000D03*
X122389920Y-108458000D03*
X122389920Y-107188000D03*
X122389920Y-105918000D03*
X122389920Y-104648000D03*
%TD*%
D12*
%TO.C,D2*%
X181415560Y-78408800D03*
X181415560Y-76533800D03*
%TD*%
D13*
%TO.C,R29*%
X123154440Y-129177720D03*
X123154440Y-128157720D03*
%TD*%
D14*
%TO.C,D6*%
X181415600Y-120757400D03*
X181415600Y-122632400D03*
%TD*%
D15*
%TO.C,C64*%
X119400320Y-127892720D03*
X119400320Y-129442720D03*
%TD*%
D16*
%TO.C,C23*%
X111727280Y-90357960D03*
X110177280Y-90357960D03*
%TD*%
D10*
%TO.C,R40*%
X183405900Y-126187200D03*
X184375900Y-126187200D03*
%TD*%
D15*
%TO.C,C47*%
X119126000Y-97565120D03*
X119126000Y-99115120D03*
%TD*%
D17*
%TO.C,C39*%
X110939580Y-79617720D03*
X110939580Y-78657720D03*
%TD*%
D15*
%TO.C,C40*%
X122107500Y-100787460D03*
X122107500Y-102337460D03*
%TD*%
D18*
%TO.C,C46*%
X123298900Y-88275160D03*
X124848900Y-88275160D03*
%TD*%
D19*
%TO.C,J7*%
X173232320Y-95864140D03*
X129052320Y-95864140D03*
D20*
X142882320Y-94340140D03*
X141612320Y-94340140D03*
X140342320Y-94340140D03*
X139072320Y-94340140D03*
X137802320Y-94340140D03*
X136532320Y-94340140D03*
X135262320Y-94340140D03*
X167022320Y-94340140D03*
X165742320Y-94340140D03*
X164472320Y-94340140D03*
X163202320Y-94340140D03*
X161932320Y-94340140D03*
X160662320Y-94340140D03*
X159392320Y-94340140D03*
X158122320Y-94340140D03*
X156852320Y-94340140D03*
X155582320Y-94340140D03*
X154312320Y-94340140D03*
X153042320Y-94340140D03*
X151772320Y-94340140D03*
X150502320Y-94340140D03*
X149232320Y-94340140D03*
%TD*%
D18*
%TO.C,C29*%
X123298900Y-89796420D03*
X124848900Y-89796420D03*
%TD*%
D16*
%TO.C,C55*%
X111272620Y-122186700D03*
X109722620Y-122186700D03*
%TD*%
D18*
%TO.C,C28*%
X123298900Y-92991940D03*
X124848900Y-92991940D03*
%TD*%
D17*
%TO.C,C57*%
X122161300Y-129147720D03*
X122161300Y-128187720D03*
%TD*%
D18*
%TO.C,C52*%
X125838900Y-118633240D03*
X127388900Y-118633240D03*
%TD*%
D16*
%TO.C,C50*%
X128125220Y-102981760D03*
X126575220Y-102981760D03*
%TD*%
D18*
%TO.C,C130*%
X125838900Y-121627900D03*
X127388900Y-121627900D03*
%TD*%
D16*
%TO.C,C30*%
X111717100Y-92390740D03*
X110167100Y-92390740D03*
%TD*%
D10*
%TO.C,R35*%
X183405900Y-75722480D03*
X184375900Y-75722480D03*
%TD*%
D21*
%TO.C,C56*%
X114330480Y-113367820D03*
X114330480Y-111817820D03*
%TD*%
D12*
%TO.C,D5*%
X181415560Y-128857800D03*
X181415560Y-126982800D03*
%TD*%
D19*
%TO.C,J6*%
X173232320Y-129517140D03*
X129052320Y-129517140D03*
D20*
X142882320Y-127993140D03*
X141612320Y-127993140D03*
X140342320Y-127993140D03*
X139072320Y-127993140D03*
X137802320Y-127993140D03*
X136532320Y-127993140D03*
X135262320Y-127993140D03*
X167022320Y-127993140D03*
X165742320Y-127993140D03*
X164472320Y-127993140D03*
X163202320Y-127993140D03*
X161932320Y-127993140D03*
X160662320Y-127993140D03*
X159392320Y-127993140D03*
X158122320Y-127993140D03*
X156852320Y-127993140D03*
X155582320Y-127993140D03*
X154312320Y-127993140D03*
X153042320Y-127993140D03*
X151772320Y-127993140D03*
X150502320Y-127993140D03*
X149232320Y-127993140D03*
%TD*%
D22*
%TO.C,U4*%
X125996700Y-85465020D03*
X124726700Y-85465020D03*
X123456700Y-85465020D03*
X122186700Y-85465020D03*
X122186700Y-80065020D03*
X123456700Y-80065020D03*
X124726700Y-80065020D03*
X125996700Y-80065020D03*
%TD*%
D15*
%TO.C,C27*%
X117091460Y-97565120D03*
X117091460Y-99115120D03*
%TD*%
D13*
%TO.C,R33*%
X124157740Y-129177720D03*
X124157740Y-128157720D03*
%TD*%
D23*
%TO.C,C44*%
X112534640Y-108668820D03*
X111574640Y-108668820D03*
%TD*%
D19*
%TO.C,J5*%
X173232320Y-112694140D03*
X129052320Y-112694140D03*
D20*
X142882320Y-111170140D03*
X141612320Y-111170140D03*
X140342320Y-111170140D03*
X139072320Y-111170140D03*
X137802320Y-111170140D03*
X136532320Y-111170140D03*
X135262320Y-111170140D03*
X167022320Y-111170140D03*
X165742320Y-111170140D03*
X164472320Y-111170140D03*
X163202320Y-111170140D03*
X161932320Y-111170140D03*
X160662320Y-111170140D03*
X159392320Y-111170140D03*
X158122320Y-111170140D03*
X156852320Y-111170140D03*
X155582320Y-111170140D03*
X154312320Y-111170140D03*
X153042320Y-111170140D03*
X151772320Y-111170140D03*
X150502320Y-111170140D03*
X149232320Y-111170140D03*
%TD*%
D10*
%TO.C,R42*%
X183405900Y-92544900D03*
X184375900Y-92544900D03*
%TD*%
D16*
%TO.C,C54*%
X111272620Y-119382540D03*
X109722620Y-119382540D03*
%TD*%
D24*
%TO.C,C49*%
X110127460Y-128067275D03*
X109031444Y-129163291D03*
%TD*%
D21*
%TO.C,C60*%
X119331740Y-113364520D03*
X119331740Y-111814520D03*
%TD*%
D15*
%TO.C,C32*%
X120644920Y-97565120D03*
X120644920Y-99115120D03*
%TD*%
D25*
%TO.C,R24*%
X114320320Y-97830120D03*
X114320320Y-98850120D03*
%TD*%
D12*
%TO.C,D3*%
X181415560Y-110179800D03*
X181415560Y-112054800D03*
%TD*%
D17*
%TO.C,C36*%
X117688360Y-79621320D03*
X117688360Y-78661320D03*
%TD*%
D22*
%TO.C,Q2*%
X138277600Y-74510000D03*
X137007600Y-74510000D03*
X135737600Y-74510000D03*
X134467600Y-74510000D03*
X134467600Y-69110000D03*
X135737600Y-69110000D03*
X137007600Y-69110000D03*
X138277600Y-69110000D03*
%TD*%
D15*
%TO.C,C132*%
X120916700Y-127892720D03*
X120916700Y-129442720D03*
%TD*%
D16*
%TO.C,C63*%
X111272620Y-123705620D03*
X109722620Y-123705620D03*
%TD*%
D17*
%TO.C,C37*%
X111922560Y-79617720D03*
X111922560Y-78657720D03*
%TD*%
D18*
%TO.C,C58*%
X125846540Y-117116860D03*
X127396540Y-117116860D03*
%TD*%
D26*
%TO.C,R26*%
X110437200Y-94665800D03*
X111457200Y-94665800D03*
%TD*%
D17*
%TO.C,C35*%
X118671340Y-79618780D03*
X118671340Y-78658780D03*
%TD*%
D15*
%TO.C,C53*%
X117868700Y-127892720D03*
X117868700Y-129442720D03*
%TD*%
D22*
%TO.C,Q1*%
X144068800Y-74522520D03*
X142798800Y-74522520D03*
X141528800Y-74522520D03*
X140258800Y-74522520D03*
X140258800Y-69122520D03*
X141528800Y-69122520D03*
X142798800Y-69122520D03*
X144068800Y-69122520D03*
%TD*%
D25*
%TO.C,R31*%
X122092720Y-112042480D03*
X122092720Y-113062480D03*
%TD*%
D27*
%TO.C,jmb1*%
X122342600Y-125062100D03*
X121842600Y-125062100D03*
X121342600Y-125062100D03*
X120842600Y-125062100D03*
X120342600Y-125062100D03*
X119842600Y-125062100D03*
X119342600Y-125062100D03*
X118842600Y-125062100D03*
X118342600Y-125062100D03*
X117842600Y-125062100D03*
X117342600Y-125062100D03*
X116842600Y-125062100D03*
X116342600Y-125062100D03*
X115842600Y-125062100D03*
X115342600Y-125062100D03*
X114842600Y-125062100D03*
D28*
X114155100Y-124374600D03*
X114155100Y-123874600D03*
X114155100Y-123374600D03*
X114155100Y-122874600D03*
X114155100Y-122374600D03*
X114155100Y-121874600D03*
X114155100Y-121374600D03*
X114155100Y-120874600D03*
X114155100Y-120374600D03*
X114155100Y-119874600D03*
X114155100Y-119374600D03*
X114155100Y-118874600D03*
X114155100Y-118374600D03*
X114155100Y-117874600D03*
X114155100Y-117374600D03*
X114155100Y-116874600D03*
D27*
X114842600Y-116187100D03*
X115342600Y-116187100D03*
X115842600Y-116187100D03*
X116342600Y-116187100D03*
X116842600Y-116187100D03*
X117342600Y-116187100D03*
X117842600Y-116187100D03*
X118342600Y-116187100D03*
X118842600Y-116187100D03*
X119342600Y-116187100D03*
X119842600Y-116187100D03*
X120342600Y-116187100D03*
X120842600Y-116187100D03*
X121342600Y-116187100D03*
X121842600Y-116187100D03*
X122342600Y-116187100D03*
D28*
X123030100Y-116874600D03*
X123030100Y-117374600D03*
X123030100Y-117874600D03*
X123030100Y-118374600D03*
X123030100Y-118874600D03*
X123030100Y-119374600D03*
X123030100Y-119874600D03*
X123030100Y-120374600D03*
X123030100Y-120874600D03*
X123030100Y-121374600D03*
X123030100Y-121874600D03*
X123030100Y-122374600D03*
X123030100Y-122874600D03*
X123030100Y-123374600D03*
X123030100Y-123874600D03*
X123030100Y-124374600D03*
D29*
X117867600Y-119899600D03*
X117867600Y-121349600D03*
X119317600Y-119899600D03*
X119317600Y-121349600D03*
%TD*%
D30*
%TO.C,R23*%
X124583900Y-94449900D03*
X123563900Y-94449900D03*
%TD*%
D10*
%TO.C,R39*%
X183405900Y-127195580D03*
X184375900Y-127195580D03*
%TD*%
D25*
%TO.C,R32*%
X123156980Y-112042480D03*
X123156980Y-113062480D03*
%TD*%
D21*
%TO.C,C61*%
X115844320Y-113367820D03*
X115844320Y-111817820D03*
%TD*%
D18*
%TO.C,C34*%
X123298900Y-91315540D03*
X124848900Y-91315540D03*
%TD*%
D31*
%TO.C,T1*%
X151843320Y-72842120D03*
X149568320Y-73792120D03*
X149568320Y-71892120D03*
%TD*%
D21*
%TO.C,C26*%
X113879340Y-86008720D03*
X113879340Y-84458720D03*
%TD*%
D10*
%TO.C,R36*%
X183405900Y-76746100D03*
X184375900Y-76746100D03*
%TD*%
%TO.C,R37*%
X183405900Y-110393480D03*
X184375900Y-110393480D03*
%TD*%
D13*
%TO.C,R25*%
X113337340Y-98850120D03*
X113337340Y-97830120D03*
%TD*%
D32*
%TO.C,U5*%
X119712320Y-94737980D03*
X119312320Y-94737980D03*
X118912320Y-94737980D03*
X118512320Y-94737980D03*
X118112320Y-94737980D03*
X117712320Y-94737980D03*
X117312320Y-94737980D03*
X116912320Y-94737980D03*
X116512320Y-94737980D03*
X116112320Y-94737980D03*
X115712320Y-94737980D03*
X115312320Y-94737980D03*
D33*
X114562320Y-93987980D03*
X114562320Y-93587980D03*
X114562320Y-93187980D03*
X114562320Y-92787980D03*
X114562320Y-92387980D03*
X114562320Y-91987980D03*
X114562320Y-91587980D03*
X114562320Y-91187980D03*
X114562320Y-90787980D03*
X114562320Y-90387980D03*
X114562320Y-89987980D03*
X114562320Y-89587980D03*
D32*
X115312320Y-88837980D03*
X115712320Y-88837980D03*
X116112320Y-88837980D03*
X116512320Y-88837980D03*
X116912320Y-88837980D03*
X117312320Y-88837980D03*
X117712320Y-88837980D03*
X118112320Y-88837980D03*
X118512320Y-88837980D03*
X118912320Y-88837980D03*
X119312320Y-88837980D03*
X119712320Y-88837980D03*
D33*
X120462320Y-89587980D03*
X120462320Y-89987980D03*
X120462320Y-90387980D03*
X120462320Y-90787980D03*
X120462320Y-91187980D03*
X120462320Y-91587980D03*
X120462320Y-91987980D03*
X120462320Y-92387980D03*
X120462320Y-92787980D03*
X120462320Y-93187980D03*
X120462320Y-93587980D03*
X120462320Y-93987980D03*
D34*
X117512320Y-91787980D03*
%TD*%
D21*
%TO.C,C25*%
X115841780Y-86008720D03*
X115841780Y-84458720D03*
%TD*%
D24*
%TO.C,C48*%
X114205231Y-132142904D03*
X113109215Y-133238920D03*
%TD*%
D23*
%TO.C,C42*%
X112534640Y-110828280D03*
X111574640Y-110828280D03*
%TD*%
%TO.C,C43*%
X112534640Y-107696000D03*
X111574640Y-107696000D03*
%TD*%
D15*
%TO.C,C45*%
X123628960Y-100785220D03*
X123628960Y-102335220D03*
%TD*%
D35*
%TO.C,R27*%
X149352000Y-68742560D03*
X149352000Y-70392560D03*
%TD*%
D12*
%TO.C,D7*%
X181415560Y-95231800D03*
X181415560Y-93356800D03*
%TD*%
D36*
%TO.C,R44*%
X179236000Y-99568000D03*
X180936000Y-99568000D03*
%TD*%
D21*
%TO.C,C51*%
X117363240Y-113364520D03*
X117363240Y-111814520D03*
%TD*%
D25*
%TO.C,R30*%
X121051320Y-112042480D03*
X121051320Y-113062480D03*
%TD*%
D23*
%TO.C,C41*%
X112534640Y-109855000D03*
X111574640Y-109855000D03*
%TD*%
D14*
%TO.C,D1*%
X181415600Y-70288400D03*
X181415600Y-72163400D03*
%TD*%
D21*
%TO.C,C24*%
X118186200Y-86008720D03*
X118186200Y-84458720D03*
%TD*%
D14*
%TO.C,D8*%
X181415600Y-87111400D03*
X181415600Y-88986400D03*
%TD*%
D26*
%TO.C,R28*%
X109987620Y-120924320D03*
X111007620Y-120924320D03*
%TD*%
D35*
%TO.C,R34*%
X152072340Y-70392560D03*
X152072340Y-68742560D03*
%TD*%
D18*
%TO.C,C65*%
X125838900Y-123151900D03*
X127388900Y-123151900D03*
%TD*%
D16*
%TO.C,C22*%
X111714580Y-88841580D03*
X110164580Y-88841580D03*
%TD*%
D19*
%TO.C,J4*%
X173232320Y-79034140D03*
X129052320Y-79034140D03*
D20*
X142882320Y-77510140D03*
X141612320Y-77510140D03*
X140342320Y-77510140D03*
X139072320Y-77510140D03*
X137802320Y-77510140D03*
X136532320Y-77510140D03*
X135262320Y-77510140D03*
X167022320Y-77510140D03*
X165742320Y-77510140D03*
X164472320Y-77510140D03*
X163202320Y-77510140D03*
X161932320Y-77510140D03*
X160662320Y-77510140D03*
X159392320Y-77510140D03*
X158122320Y-77510140D03*
X156852320Y-77510140D03*
X155582320Y-77510140D03*
X154312320Y-77510140D03*
X153042320Y-77510140D03*
X151772320Y-77510140D03*
X150502320Y-77510140D03*
X149232320Y-77510140D03*
%TD*%
D10*
%TO.C,R38*%
X183405900Y-109372400D03*
X184375900Y-109372400D03*
%TD*%
D14*
%TO.C,D4*%
X181415600Y-103934400D03*
X181415600Y-105809400D03*
%TD*%
D15*
%TO.C,C131*%
X114818160Y-127892720D03*
X114818160Y-129442720D03*
%TD*%
D16*
%TO.C,C62*%
X111272620Y-117858540D03*
X109722620Y-117858540D03*
%TD*%
D23*
%TO.C,C21*%
X124553900Y-95435420D03*
X123593900Y-95435420D03*
%TD*%
D37*
%TO.C,Y2*%
X111992452Y-131841083D03*
X110436817Y-130285448D03*
X111568188Y-129154077D03*
X113123823Y-130709712D03*
%TD*%
D15*
%TO.C,C33*%
X115577620Y-97565120D03*
X115577620Y-99115120D03*
%TD*%
D38*
%TO.C,Y1*%
X110139580Y-87051660D03*
X110139580Y-84851660D03*
X111739580Y-84851660D03*
X111739580Y-87051660D03*
%TD*%
D17*
%TO.C,C38*%
X112354360Y-98820120D03*
X112354360Y-97860120D03*
%TD*%
D16*
%TO.C,C31*%
X111714580Y-83060540D03*
X110164580Y-83060540D03*
%TD*%
D39*
%TO.C,L5*%
X120310520Y-102389940D03*
X116610520Y-102389940D03*
%TD*%
D15*
%TO.C,C59*%
X116342160Y-127892720D03*
X116342160Y-129442720D03*
%TD*%
D17*
%TO.C,C115*%
X137789900Y-82344200D03*
X137789900Y-83304200D03*
%TD*%
%TO.C,C123*%
X137789900Y-132816600D03*
X137789900Y-133776600D03*
%TD*%
D40*
%TO.C,U3*%
X169590300Y-74671996D03*
X169590300Y-74021996D03*
X169590300Y-73371996D03*
X169590300Y-72721996D03*
X167315300Y-72721996D03*
X167315300Y-73371996D03*
X167315300Y-74021996D03*
X167315300Y-74671996D03*
%TD*%
D39*
%TO.C,L4*%
X179192800Y-71308202D03*
X175492800Y-71308202D03*
%TD*%
D26*
%TO.C,R22*%
X173066100Y-73848202D03*
X174086100Y-73848202D03*
%TD*%
D30*
%TO.C,R19*%
X171143200Y-74864202D03*
X172163200Y-74864202D03*
%TD*%
%TO.C,R16*%
X162837400Y-73873602D03*
X163857400Y-73873602D03*
%TD*%
D17*
%TO.C,C117*%
X141599900Y-83304200D03*
X141599900Y-82344200D03*
%TD*%
D30*
%TO.C,R18*%
X164775300Y-73873602D03*
X165795300Y-73873602D03*
%TD*%
D17*
%TO.C,C129*%
X141599900Y-99105600D03*
X141599900Y-100065600D03*
%TD*%
%TO.C,C119*%
X137795000Y-115951000D03*
X137795000Y-116911000D03*
%TD*%
D26*
%TO.C,R15*%
X163857400Y-74889602D03*
X162837400Y-74889602D03*
%TD*%
D21*
%TO.C,C18*%
X169722800Y-69711617D03*
X169722800Y-71261617D03*
%TD*%
D26*
%TO.C,R20*%
X171143200Y-73848202D03*
X172163200Y-73848202D03*
%TD*%
D17*
%TO.C,C124*%
X140329900Y-132816600D03*
X140329900Y-133776600D03*
%TD*%
D30*
%TO.C,R21*%
X173066100Y-74864202D03*
X174086100Y-74864202D03*
%TD*%
D21*
%TO.C,C17*%
X167212800Y-69711617D03*
X167212800Y-71261617D03*
%TD*%
D17*
%TO.C,C118*%
X136525000Y-115951000D03*
X136525000Y-116911000D03*
%TD*%
D26*
%TO.C,R17*%
X165795300Y-74889602D03*
X164775300Y-74889602D03*
%TD*%
D39*
%TO.C,L3*%
X161442400Y-71308202D03*
X157742400Y-71308202D03*
%TD*%
D17*
%TO.C,C128*%
X140329900Y-99105600D03*
X140329900Y-100065600D03*
%TD*%
D18*
%TO.C,C15*%
X165697200Y-69745116D03*
X164147200Y-69745116D03*
%TD*%
D17*
%TO.C,C120*%
X140335000Y-115951000D03*
X140335000Y-116911000D03*
%TD*%
D16*
%TO.C,C19*%
X171246800Y-71278316D03*
X172796800Y-71278316D03*
%TD*%
D17*
%TO.C,C125*%
X141605000Y-132816600D03*
X141605000Y-133776600D03*
%TD*%
D16*
%TO.C,C20*%
X171246800Y-69745116D03*
X172796800Y-69745116D03*
%TD*%
D17*
%TO.C,C116*%
X140329900Y-83304200D03*
X140329900Y-82344200D03*
%TD*%
%TO.C,C127*%
X137789900Y-99105600D03*
X137789900Y-100065600D03*
%TD*%
%TO.C,C121*%
X141605000Y-115951000D03*
X141605000Y-116911000D03*
%TD*%
%TO.C,C122*%
X136519900Y-132805320D03*
X136519900Y-133765320D03*
%TD*%
%TO.C,C126*%
X136519900Y-99105600D03*
X136519900Y-100065600D03*
%TD*%
D18*
%TO.C,C16*%
X165697200Y-71269116D03*
X164147200Y-71269116D03*
%TD*%
D17*
%TO.C,C114*%
X136519900Y-82335520D03*
X136519900Y-83295520D03*
%TD*%
M02*
