M48
; DRILL file {KiCad 7.0.9} date Mon Dec 30 23:35:20 2024
; FORMAT={-:-/ absolute / inch / decimal}
; #@! TF.CreationDate,2024-12-30T23:35:20+08:00
; #@! TF.GenerationSoftware,Kicad,Pcbnew,7.0.9
; #@! TF.FileFunction,Plated,1,4,PTH
FMAT,2
INCH
; #@! TA.AperFunction,Plated,PTH,ViaDrill
T1C0.0118
; #@! TA.AperFunction,Plated,PTH,ComponentDrill
T2C0.0118
; #@! TA.AperFunction,Plated,PTH,ComponentDrill
T3C0.0236
; #@! TA.AperFunction,Plated,PTH,ComponentDrill
T4C0.0276
; #@! TA.AperFunction,Plated,PTH,ComponentDrill
T5C0.0315
; #@! TA.AperFunction,Plated,PTH,ComponentDrill
T6C0.0906
%
G90
G05
T1
X4.245Y-3.625
X4.245Y-3.745
X4.245Y-3.86
X4.245Y-3.965
X4.245Y-4.1
X4.245Y-4.205
X4.288Y-3.91
X4.288Y-3.992
X4.288Y-4.062
X4.288Y-4.122
X4.3493Y-4.8542
X4.3494Y-4.6401
X4.3494Y-4.7001
X4.3499Y-4.8262
X4.35Y-3.06
X4.35Y-3.17
X4.36Y-2.865
X4.36Y-2.975
X4.36Y-3.985
X4.36Y-4.015
X4.36Y-4.045
X4.36Y-4.075
X4.3669Y-3.6374
X4.3673Y-3.5574
X4.42Y-2.83
X4.4623Y-4.5994
X4.4623Y-4.623
X4.4623Y-4.6584
X4.4623Y-4.6821
X4.4623Y-4.8159
X4.4623Y-4.8396
X4.4623Y-4.875
X4.4623Y-4.8986
X4.4834Y-3.3547
X4.5008Y-3.8741
X4.5012Y-4.4318
X4.5204Y-5.0666
X4.5391Y-4.9557
X4.5503Y-3.8726
X4.555Y-2.82
X4.5607Y-3.3547
X4.5608Y-4.4318
X4.5627Y-4.9557
X4.575Y-2.96
X4.5804Y-5.0666
X4.5981Y-4.9557
X4.6099Y-3.8726
X4.62Y-2.83
X4.62Y-2.875
X4.62Y-2.965
X4.62Y-3.06
X4.62Y-3.17
X4.6206Y-4.4317
X4.6218Y-4.9557
X4.635Y-2.729
X4.6405Y-5.0666
X4.653Y-3.3547
X4.6572Y-4.9557
X4.664Y-2.73
X4.672Y-3.24
X4.672Y-3.262
X4.6808Y-4.9557
X4.685Y-3.06
X4.685Y-3.17
X4.69Y-2.835
X4.69Y-3.8726
X4.694Y-2.73
X4.6972Y-3.529
X4.6981Y-4.4317
X4.7008Y-5.0666
X4.7162Y-4.9557
X4.7399Y-4.9557
X4.7498Y-3.8726
X4.755Y-4.385
X4.7605Y-5.0666
X4.7659Y-4.4288
X4.8069Y-4.4288
X4.81Y-3.475
X4.81Y-4.7
X4.8105Y-3.1836
X4.8251Y-4.7195
X4.84Y-3.91
X4.84Y-3.93
X4.8488Y-4.4288
X4.86Y-3.91
X4.86Y-3.93
X4.8605Y-3.1836
X4.87Y-4.12
X4.875Y-4.175
X4.88Y-3.91
X4.88Y-3.93
X4.8808Y-3.7573
X4.8823Y-4.6249
X4.8857Y-3.5353
X4.8857Y-3.5951
X4.8857Y-3.6611
X4.888Y-5.0681
X4.9008Y-4.6101
X4.9105Y-3.3333
X4.94Y-4.12
X4.9477Y-3.6519
X4.9478Y-3.6702
X4.9605Y-3.3333
X4.9857Y-4.6706
X4.9857Y-4.7885
X4.9857Y-4.8485
X4.986Y-4.6109
X5.2055Y-4.9963
X5.2055Y-5.0133
X5.2061Y-4.95
X5.2061Y-4.967
X5.2225Y-4.9963
X5.2225Y-5.0133
X5.2231Y-4.95
X5.2231Y-4.967
X5.2395Y-4.9963
X5.2395Y-5.0133
X5.2401Y-4.95
X5.2401Y-4.967
X5.3753Y-3.1029
X5.3753Y-3.7655
X5.3753Y-4.4281
X5.3753Y-5.0904
X5.4253Y-3.1029
X5.4253Y-3.7655
X5.4253Y-4.4281
X5.4253Y-5.0904
X5.5253Y-3.1029
X5.5253Y-3.7655
X5.5253Y-4.4281
X5.5253Y-5.0904
X5.5753Y-3.1029
X5.5753Y-3.7655
X5.5753Y-4.4281
X5.5753Y-5.0904
X5.725Y-2.705
X5.725Y-2.725
X5.93Y-2.705
X5.93Y-2.725
X6.0253Y-3.1087
X6.0253Y-3.7713
X6.0253Y-4.4339
X6.204Y-2.958
X6.204Y-2.978
X6.204Y-2.998
X6.204Y-3.62
X6.204Y-3.64
X6.204Y-3.66
X6.204Y-4.282
X6.204Y-4.302
X6.204Y-4.322
X6.204Y-4.946
X6.204Y-4.966
X6.204Y-4.986
X6.224Y-2.958
X6.224Y-2.978
X6.224Y-2.998
X6.224Y-3.62
X6.224Y-3.64
X6.224Y-3.66
X6.224Y-4.282
X6.224Y-4.302
X6.224Y-4.322
X6.224Y-4.946
X6.224Y-4.966
X6.224Y-4.986
X6.244Y-2.958
X6.244Y-2.978
X6.244Y-2.998
X6.244Y-3.62
X6.244Y-3.64
X6.244Y-3.66
X6.244Y-4.282
X6.244Y-4.302
X6.244Y-4.322
X6.244Y-4.946
X6.244Y-4.966
X6.244Y-4.986
X6.264Y-2.958
X6.264Y-2.978
X6.264Y-2.998
X6.264Y-3.62
X6.264Y-3.64
X6.264Y-3.66
X6.264Y-4.282
X6.264Y-4.302
X6.264Y-4.322
X6.264Y-4.946
X6.264Y-4.966
X6.264Y-4.986
X6.3753Y-3.1087
X6.3753Y-3.7713
X6.3753Y-4.4339
X6.626Y-3.008
X6.626Y-3.028
X6.626Y-3.048
X6.626Y-3.67
X6.626Y-3.69
X6.626Y-3.71
X6.626Y-4.3324
X6.626Y-4.3524
X6.626Y-4.3724
X6.626Y-4.996
X6.626Y-5.016
X6.626Y-5.036
X6.646Y-3.008
X6.646Y-3.028
X6.646Y-3.048
X6.646Y-3.67
X6.646Y-3.69
X6.646Y-3.71
X6.646Y-4.3324
X6.646Y-4.3524
X6.646Y-4.3724
X6.646Y-4.996
X6.646Y-5.016
X6.646Y-5.036
X6.666Y-3.008
X6.666Y-3.028
X6.666Y-3.048
X6.666Y-3.67
X6.666Y-3.69
X6.666Y-3.71
X6.666Y-4.3324
X6.666Y-4.3524
X6.666Y-4.3724
X6.666Y-4.996
X6.666Y-5.016
X6.666Y-5.036
X6.686Y-3.008
X6.686Y-3.028
X6.686Y-3.048
X6.686Y-3.67
X6.686Y-3.69
X6.686Y-3.71
X6.686Y-4.3324
X6.686Y-4.3524
X6.686Y-4.3724
X6.686Y-4.996
X6.686Y-5.016
X6.686Y-5.036
X6.8048Y-4.6905
X6.8048Y-4.7075
X6.8048Y-4.7245
X6.8048Y-4.9094
X6.8048Y-4.9264
X6.8048Y-4.9434
X6.8218Y-4.6905
X6.8218Y-4.7075
X6.8218Y-4.7245
X6.8218Y-4.9094
X6.8218Y-4.9264
X6.8218Y-4.9434
X6.8575Y-4.072
X6.8595Y-3.406
X6.8664Y-4.964
X6.8664Y-4.981
X6.8664Y-4.998
X6.867Y-4.638
X6.867Y-4.655
X6.867Y-4.672
X6.8834Y-4.964
X6.8834Y-4.981
X6.8834Y-4.998
X6.884Y-4.638
X6.884Y-4.655
X6.884Y-4.672
X6.886Y-3.956
X6.888Y-3.29
X6.94Y-4.315
X6.94Y-4.335
X6.94Y-4.355
X6.942Y-3.649
X6.942Y-3.669
X6.942Y-3.689
X6.96Y-4.315
X6.96Y-4.335
X6.96Y-4.355
X6.962Y-3.649
X6.962Y-3.669
X6.962Y-3.689
X6.98Y-4.315
X6.98Y-4.335
X6.98Y-4.355
X6.982Y-3.649
X6.982Y-3.669
X6.982Y-3.689
X7.0Y-4.315
X7.0Y-4.335
X7.0Y-4.355
X7.002Y-3.649
X7.002Y-3.669
X7.002Y-3.689
X7.0116Y-4.8065
X7.0116Y-4.8235
X7.028Y-3.846
X7.028Y-3.866
X7.028Y-3.886
X7.0286Y-4.8065
X7.0286Y-4.8235
X7.03Y-3.18
X7.03Y-3.2
X7.03Y-3.22
X7.048Y-3.846
X7.048Y-3.866
X7.048Y-3.886
X7.05Y-3.18
X7.05Y-3.2
X7.05Y-3.22
X7.0621Y-4.0129
X7.0641Y-3.3469
X7.068Y-3.846
X7.068Y-3.866
X7.068Y-3.886
X7.07Y-3.18
X7.07Y-3.2
X7.07Y-3.22
X7.088Y-3.846
X7.088Y-3.866
X7.088Y-3.886
X7.09Y-3.18
X7.09Y-3.2
X7.09Y-3.22
X7.1153Y-4.8954
X7.125Y-4.27
X7.125Y-4.295
X7.13Y-3.605
X7.13Y-3.63
X7.14Y-3.85
X7.14Y-3.875
X7.15Y-3.19
X7.15Y-3.21
X7.15Y-4.27
X7.15Y-4.295
X7.155Y-3.605
X7.155Y-3.63
X7.165Y-3.85
X7.165Y-3.875
X7.17Y-3.19
X7.17Y-3.21
X7.1706Y-4.624
X7.178Y-4.07
X7.18Y-3.405
X7.1896Y-4.9914
X7.1906Y-4.6412
X7.2029Y-2.9613
X7.2029Y-3.6236
X7.2029Y-4.2859
X7.2029Y-3.0412
X7.2029Y-3.7036
X7.203Y-4.3661
X7.2211Y-4.7541
X7.2211Y-4.7711
X7.2303Y-4.641
X7.2381Y-4.7541
X7.2381Y-4.7711
X7.255Y-2.88
X7.255Y-2.905
T2
X4.6058Y-3.593
X4.6058Y-3.6344
X4.6119Y-4.6919
X4.6119Y-4.749
X4.6119Y-4.8061
X4.6471Y-3.593
X4.6471Y-3.6344
X4.669Y-4.6919
X4.669Y-4.749
X4.669Y-4.8061
X4.7261Y-4.6919
X4.7261Y-4.749
X4.7261Y-4.8061
X7.007Y-4.0536
X7.007Y-4.091
X7.007Y-4.1284
X7.009Y-3.3876
X7.009Y-3.425
X7.009Y-3.4624
T3
X5.0995Y-2.9517
X5.198Y-2.8061
T4
X4.3527Y-2.7835
X4.4216Y-2.7835
X4.4708Y-2.9095
X4.4708Y-3.0276
X4.52Y-2.7835
X4.5692Y-2.9095
X4.5692Y-3.0276
X4.6184Y-2.7835
X4.6873Y-2.7835
X5.7795Y-2.7652
X5.7795Y-2.8152
X6.4214Y-2.7645
X6.4214Y-2.8145
T5
X4.9893Y-2.7155
T6
X4.2838Y-2.937
X4.7562Y-2.937
T3
G00X4.4826Y-2.6949
M15
G01X4.5574Y-2.6949
M16
G05
T0
M30
