%TF.GenerationSoftware,KiCad,Pcbnew,7.0.9*%
%TF.CreationDate,2025-01-01T13:08:24+08:00*%
%TF.ProjectId,ver0.1-rounded,76657230-2e31-42d7-926f-756e6465642e,rev?*%
%TF.SameCoordinates,Original*%
%TF.FileFunction,Drillmap*%
%TF.FilePolarity,Positive*%
%FSLAX45Y45*%
G04 Gerber Fmt 4.5, Leading zero omitted, Abs format (unit mm)*
G04 Created by KiCad (PCBNEW 7.0.9) date 2025-01-01 13:08:24*
%MOMM*%
%LPD*%
G01*
G04 APERTURE LIST*
%ADD10C,0.100000*%
%ADD11C,0.200000*%
%ADD12C,0.230000*%
G04 APERTURE END LIST*
D10*
X12956772Y-11904302D02*
X13036772Y-11827734D01*
X13036580Y-12529890D02*
X17088272Y-12529890D01*
X17168272Y-12450590D02*
X17168464Y-11907734D01*
X12956580Y-10767590D02*
X12956772Y-10221303D01*
X17088272Y-10846890D02*
X17168272Y-10766890D01*
X12956580Y-12450590D02*
X12956772Y-11904302D01*
X17088464Y-11827734D02*
X17168464Y-11907734D01*
X17168272Y-9084590D02*
X17168464Y-8541734D01*
X12956580Y-9084590D02*
X12956772Y-8538303D01*
X10730832Y-13010034D02*
X11230832Y-13510034D01*
X17088464Y-11827734D02*
X13036772Y-11827734D01*
X17088464Y-10144734D02*
X17168464Y-10224734D01*
X17088464Y-10144734D02*
X13036772Y-10144734D01*
X17168272Y-10767590D02*
X17168464Y-10224734D01*
X17990922Y-13510034D02*
X11230832Y-13510034D01*
X17088464Y-8461734D02*
X13036772Y-8461734D01*
X17088272Y-9163890D02*
X17168272Y-9083890D01*
X17088272Y-12529890D02*
X17168272Y-12449890D01*
X13036580Y-10847590D02*
X12956580Y-10767590D01*
X11230990Y-6778772D02*
X10730990Y-7278772D01*
X17990922Y-13510034D02*
X18490922Y-13010034D01*
X13036580Y-9163890D02*
X17088272Y-9163890D01*
X18491080Y-7278772D02*
X18490922Y-13010034D01*
X12956772Y-10221303D02*
X13036772Y-10144734D01*
X10730832Y-13010034D02*
X10730990Y-7278772D01*
X13036580Y-9164590D02*
X12956580Y-9084590D01*
X13036580Y-12529890D02*
X12956580Y-12450590D01*
X11230990Y-6778772D02*
X17991080Y-6778772D01*
X18491080Y-7278772D02*
X17991080Y-6778772D01*
X13036580Y-10846890D02*
X17088272Y-10846890D01*
X12956772Y-8538303D02*
X13036772Y-8461734D01*
X17088464Y-8461734D02*
X17168464Y-8541734D01*
D11*
D10*
X11032222Y-12314668D02*
X11062222Y-12344668D01*
X11062222Y-12314668D02*
X11032222Y-12344668D01*
X11032372Y-11770854D02*
X11062372Y-11800854D01*
X11062372Y-11770854D02*
X11032372Y-11800854D01*
X11032372Y-11923254D02*
X11062372Y-11953254D01*
X11062372Y-11923254D02*
X11032372Y-11953254D01*
X11033746Y-12243548D02*
X11063746Y-12273548D01*
X11063746Y-12243548D02*
X11033746Y-12273548D01*
X11034000Y-7757400D02*
X11064000Y-7787400D01*
X11064000Y-7757400D02*
X11034000Y-7787400D01*
X11034000Y-8036800D02*
X11064000Y-8066800D01*
X11064000Y-8036800D02*
X11034000Y-8066800D01*
X11059400Y-7262100D02*
X11089400Y-7292100D01*
X11089400Y-7262100D02*
X11059400Y-7292100D01*
X11059400Y-7541500D02*
X11089400Y-7571500D01*
X11089400Y-7541500D02*
X11059400Y-7571500D01*
X11076820Y-9224074D02*
X11106820Y-9254074D01*
X11106820Y-9224074D02*
X11076820Y-9254074D01*
X11077838Y-9020796D02*
X11107838Y-9050796D01*
X11107838Y-9020796D02*
X11077838Y-9050796D01*
X11211800Y-7173200D02*
X11241800Y-7203200D01*
X11241800Y-7173200D02*
X11211800Y-7203200D01*
X11272549Y-11627486D02*
X11302549Y-11657486D01*
X11302549Y-11627486D02*
X11272549Y-11657486D01*
X11286479Y-12479106D02*
X11316479Y-12509106D01*
X11316479Y-12479106D02*
X11286479Y-12509106D01*
X11319271Y-11667460D02*
X11349271Y-11697460D01*
X11349271Y-11667460D02*
X11319271Y-11697460D01*
X11319271Y-11727460D02*
X11349271Y-11757460D01*
X11349271Y-11727460D02*
X11319271Y-11757460D01*
X11319271Y-12367460D02*
X11349271Y-12397460D01*
X11349271Y-12367460D02*
X11319271Y-12397460D01*
X11319271Y-12427460D02*
X11349271Y-12457460D01*
X11349271Y-12427460D02*
X11319271Y-12457460D01*
X11372934Y-8505982D02*
X11402934Y-8535982D01*
X11402934Y-8505982D02*
X11372934Y-8535982D01*
X11417057Y-9825122D02*
X11447057Y-9855122D01*
X11447057Y-9825122D02*
X11417057Y-9855122D01*
X11418048Y-11241892D02*
X11448048Y-11271892D01*
X11448048Y-11241892D02*
X11418048Y-11271892D01*
X11466816Y-12854162D02*
X11496816Y-12884162D01*
X11496816Y-12854162D02*
X11466816Y-12884162D01*
X11481749Y-11817460D02*
X11511749Y-11847460D01*
X11511749Y-11817460D02*
X11481749Y-11847460D01*
X11481749Y-11877460D02*
X11511749Y-11907460D01*
X11511749Y-11877460D02*
X11481749Y-11907460D01*
X11481749Y-12217460D02*
X11511749Y-12247460D01*
X11511749Y-12217460D02*
X11481749Y-12247460D01*
X11481749Y-12277460D02*
X11511749Y-12307460D01*
X11511749Y-12277460D02*
X11481749Y-12307460D01*
X11514260Y-12409971D02*
X11544260Y-12439971D01*
X11544260Y-12409971D02*
X11514260Y-12439971D01*
X11524619Y-12175620D02*
X11554619Y-12205620D01*
X11554619Y-12175620D02*
X11524619Y-12205620D01*
X11524638Y-11919797D02*
X11554638Y-11949797D01*
X11554638Y-11919797D02*
X11524638Y-11949797D01*
X11524882Y-12319486D02*
X11554882Y-12349486D01*
X11554882Y-12319486D02*
X11524882Y-12349486D01*
X11525890Y-11776132D02*
X11555890Y-11806132D01*
X11555890Y-11776132D02*
X11525890Y-11806132D01*
X11542762Y-9821402D02*
X11572762Y-9851402D01*
X11572762Y-9821402D02*
X11542762Y-9851402D01*
X11547000Y-10961000D02*
X11577000Y-10991000D01*
X11577000Y-10961000D02*
X11547000Y-10991000D01*
X11569178Y-8505982D02*
X11599178Y-8535982D01*
X11599178Y-8505982D02*
X11569178Y-8535982D01*
X11569432Y-11241892D02*
X11599432Y-11271892D01*
X11599432Y-11241892D02*
X11569432Y-11271892D01*
X11574260Y-12409971D02*
X11604260Y-12439971D01*
X11604260Y-12409971D02*
X11574260Y-12439971D01*
X11605500Y-7503400D02*
X11635500Y-7533400D01*
X11635500Y-7503400D02*
X11605500Y-7533400D01*
X11618817Y-12368365D02*
X11648817Y-12398365D01*
X11648817Y-12368365D02*
X11618817Y-12398365D01*
X11619216Y-12854162D02*
X11649216Y-12884162D01*
X11649216Y-12854162D02*
X11619216Y-12884162D01*
X11659000Y-10960000D02*
X11689000Y-10990000D01*
X11689000Y-10960000D02*
X11659000Y-10990000D01*
X11664260Y-12409971D02*
X11694260Y-12439971D01*
X11694260Y-12409971D02*
X11664260Y-12439971D01*
X11694146Y-9821402D02*
X11724146Y-9851402D01*
X11724146Y-9821402D02*
X11694146Y-9851402D01*
X11719800Y-7173200D02*
X11749800Y-7203200D01*
X11749800Y-7173200D02*
X11719800Y-7203200D01*
X11719800Y-7287500D02*
X11749800Y-7317500D01*
X11749800Y-7287500D02*
X11719800Y-7317500D01*
X11719800Y-7516100D02*
X11749800Y-7546100D01*
X11749800Y-7516100D02*
X11719800Y-7546100D01*
X11719800Y-7757400D02*
X11749800Y-7787400D01*
X11749800Y-7757400D02*
X11719800Y-7787400D01*
X11719800Y-8036800D02*
X11749800Y-8066800D01*
X11749800Y-8036800D02*
X11719800Y-8066800D01*
X11721324Y-11241562D02*
X11751324Y-11271562D01*
X11751324Y-11241562D02*
X11721324Y-11271562D01*
X11724260Y-12409971D02*
X11754260Y-12439971D01*
X11754260Y-12409971D02*
X11724260Y-12439971D01*
X11769094Y-12370209D02*
X11799094Y-12400209D01*
X11799094Y-12370209D02*
X11769094Y-12400209D01*
X11771870Y-12854162D02*
X11801870Y-12884162D01*
X11801870Y-12854162D02*
X11771870Y-12884162D01*
X11803620Y-8505982D02*
X11833620Y-8535982D01*
X11833620Y-8505982D02*
X11803620Y-8535982D01*
X11814260Y-12409971D02*
X11844260Y-12439971D01*
X11844260Y-12409971D02*
X11814260Y-12439971D01*
X11865000Y-11048000D02*
X11895000Y-11078000D01*
X11895000Y-11048000D02*
X11865000Y-11078000D01*
X11874260Y-12409971D02*
X11904260Y-12439971D01*
X11904260Y-12409971D02*
X11874260Y-12439971D01*
X11884900Y-7757400D02*
X11914900Y-7787400D01*
X11914900Y-7757400D02*
X11884900Y-7787400D01*
X11884900Y-8036800D02*
X11914900Y-8066800D01*
X11914900Y-8036800D02*
X11884900Y-8066800D01*
X11897600Y-7185900D02*
X11927600Y-7215900D01*
X11927600Y-7185900D02*
X11897600Y-7215900D01*
X11897600Y-9821402D02*
X11927600Y-9851402D01*
X11927600Y-9821402D02*
X11897600Y-9851402D01*
X11915888Y-8948660D02*
X11945888Y-8978660D01*
X11945888Y-8948660D02*
X11915888Y-8978660D01*
X11918174Y-11241562D02*
X11948174Y-11271562D01*
X11948174Y-11241562D02*
X11918174Y-11271562D01*
X11919000Y-12370000D02*
X11949000Y-12400000D01*
X11949000Y-12370000D02*
X11919000Y-12400000D01*
X11925032Y-12854162D02*
X11955032Y-12884162D01*
X11955032Y-12854162D02*
X11925032Y-12884162D01*
X11964260Y-12409971D02*
X11994260Y-12439971D01*
X11994260Y-12409971D02*
X11964260Y-12439971D01*
X12024260Y-12409971D02*
X12054260Y-12439971D01*
X12054260Y-12409971D02*
X12024260Y-12439971D01*
X12049492Y-9821402D02*
X12079492Y-9851402D01*
X12079492Y-9821402D02*
X12049492Y-9851402D01*
X12062700Y-11122900D02*
X12092700Y-11152900D01*
X12092700Y-11122900D02*
X12062700Y-11152900D01*
X12067000Y-12367000D02*
X12097000Y-12397000D01*
X12097000Y-12367000D02*
X12067000Y-12397000D01*
X12076670Y-12854162D02*
X12106670Y-12884162D01*
X12106670Y-12854162D02*
X12076670Y-12884162D01*
X12090268Y-11234138D02*
X12120268Y-11264138D01*
X12120268Y-11234138D02*
X12090268Y-11264138D01*
X12194408Y-11234138D02*
X12224408Y-11264138D01*
X12224408Y-11234138D02*
X12194408Y-11264138D01*
X12202400Y-8811500D02*
X12232400Y-8841500D01*
X12232400Y-8811500D02*
X12202400Y-8841500D01*
X12202400Y-11923000D02*
X12232400Y-11953000D01*
X12232400Y-11923000D02*
X12202400Y-11953000D01*
X12203670Y-8071392D02*
X12233670Y-8101392D01*
X12233670Y-8071392D02*
X12203670Y-8101392D01*
X12240754Y-11972460D02*
X12270754Y-12002460D01*
X12270754Y-11972460D02*
X12240754Y-12002460D01*
X12278600Y-9916400D02*
X12308600Y-9946400D01*
X12308600Y-9916400D02*
X12278600Y-9946400D01*
X12278600Y-9967200D02*
X12308600Y-9997200D01*
X12308600Y-9967200D02*
X12278600Y-9997200D01*
X12300834Y-11234138D02*
X12330834Y-11264138D01*
X12330834Y-11234138D02*
X12300834Y-11264138D01*
X12329400Y-9916400D02*
X12359400Y-9946400D01*
X12359400Y-9916400D02*
X12329400Y-9946400D01*
X12329400Y-9967200D02*
X12359400Y-9997200D01*
X12359400Y-9967200D02*
X12329400Y-9997200D01*
X12330670Y-8071392D02*
X12360670Y-8101392D01*
X12360670Y-8071392D02*
X12330670Y-8101392D01*
X12354800Y-10449800D02*
X12384800Y-10479800D01*
X12384800Y-10449800D02*
X12354800Y-10479800D01*
X12367500Y-10589500D02*
X12397500Y-10619500D01*
X12397500Y-10589500D02*
X12367500Y-10619500D01*
X12380200Y-9916400D02*
X12410200Y-9946400D01*
X12410200Y-9916400D02*
X12380200Y-9946400D01*
X12380200Y-9967200D02*
X12410200Y-9997200D01*
X12410200Y-9967200D02*
X12380200Y-9997200D01*
X12382280Y-9528558D02*
X12412280Y-9558558D01*
X12412280Y-9528558D02*
X12382280Y-9558558D01*
X12385956Y-11732350D02*
X12415956Y-11762350D01*
X12415956Y-11732350D02*
X12385956Y-11762350D01*
X12394780Y-8964642D02*
X12424780Y-8994642D01*
X12424780Y-8964642D02*
X12394780Y-8994642D01*
X12394780Y-9116554D02*
X12424780Y-9146554D01*
X12424780Y-9116554D02*
X12394780Y-9146554D01*
X12394780Y-9284194D02*
X12424780Y-9314194D01*
X12424780Y-9284194D02*
X12394780Y-9314194D01*
X12400520Y-12857882D02*
X12430520Y-12887882D01*
X12430520Y-12857882D02*
X12400520Y-12887882D01*
X12433032Y-11694654D02*
X12463032Y-11724654D01*
X12463032Y-11694654D02*
X12433032Y-11724654D01*
X12457670Y-8451612D02*
X12487670Y-8481612D01*
X12487670Y-8451612D02*
X12457670Y-8481612D01*
X12532600Y-10449800D02*
X12562600Y-10479800D01*
X12562600Y-10449800D02*
X12532600Y-10479800D01*
X12552158Y-9260826D02*
X12582158Y-9290826D01*
X12582158Y-9260826D02*
X12552158Y-9290826D01*
X12552412Y-9307308D02*
X12582412Y-9337308D01*
X12582412Y-9307308D02*
X12552412Y-9337308D01*
X12584670Y-8451612D02*
X12614670Y-8481612D01*
X12614670Y-8451612D02*
X12584670Y-8481612D01*
X12648780Y-11848324D02*
X12678780Y-11878324D01*
X12678780Y-11848324D02*
X12648780Y-11878324D01*
X12648780Y-12147790D02*
X12678780Y-12177790D01*
X12678780Y-12147790D02*
X12648780Y-12177790D01*
X12648780Y-12300190D02*
X12678780Y-12330190D01*
X12678780Y-12300190D02*
X12648780Y-12330190D01*
X12649544Y-11696686D02*
X12679544Y-11726686D01*
X12679544Y-11696686D02*
X12649544Y-11726686D01*
X13408900Y-7201140D02*
X13438900Y-7231140D01*
X13438900Y-7201140D02*
X13408900Y-7231140D01*
X13408900Y-7328140D02*
X13438900Y-7358140D01*
X13438900Y-7328140D02*
X13408900Y-7358140D01*
X13472400Y-7264640D02*
X13502400Y-7294640D01*
X13502400Y-7264640D02*
X13472400Y-7294640D01*
X13535900Y-7201140D02*
X13565900Y-7231140D01*
X13565900Y-7201140D02*
X13535900Y-7231140D01*
X13535900Y-7328140D02*
X13565900Y-7358140D01*
X13565900Y-7328140D02*
X13535900Y-7358140D01*
X13599400Y-7264640D02*
X13629400Y-7294640D01*
X13629400Y-7264640D02*
X13599400Y-7294640D01*
X13662900Y-7201140D02*
X13692900Y-7231140D01*
X13692900Y-7201140D02*
X13662900Y-7231140D01*
X13662900Y-7328140D02*
X13692900Y-7358140D01*
X13692900Y-7328140D02*
X13662900Y-7358140D01*
X13670902Y-8280380D02*
X13700902Y-8310380D01*
X13700902Y-8280380D02*
X13670902Y-8310380D01*
X13670902Y-9956520D02*
X13700902Y-9986520D01*
X13700902Y-9956520D02*
X13670902Y-9986520D01*
X13670902Y-13327620D02*
X13700902Y-13357620D01*
X13700902Y-13327620D02*
X13670902Y-13357620D01*
X13671412Y-11641060D02*
X13701412Y-11671060D01*
X13701412Y-11641060D02*
X13671412Y-11671060D01*
X13726400Y-7264640D02*
X13756400Y-7294640D01*
X13756400Y-7264640D02*
X13726400Y-7294640D01*
X13728940Y-8280380D02*
X13758940Y-8310380D01*
X13758940Y-8280380D02*
X13728940Y-8310380D01*
X13728940Y-9956520D02*
X13758940Y-9986520D01*
X13758940Y-9956520D02*
X13728940Y-9986520D01*
X13728940Y-13327620D02*
X13758940Y-13357620D01*
X13758940Y-13327620D02*
X13728940Y-13357620D01*
X13729450Y-11641060D02*
X13759450Y-11671060D01*
X13759450Y-11641060D02*
X13729450Y-11671060D01*
X13789900Y-7201140D02*
X13819900Y-7231140D01*
X13819900Y-7201140D02*
X13789900Y-7231140D01*
X13789900Y-7328140D02*
X13819900Y-7358140D01*
X13819900Y-7328140D02*
X13789900Y-7358140D01*
X13853400Y-7264640D02*
X13883400Y-7294640D01*
X13883400Y-7264640D02*
X13853400Y-7294640D01*
X13916900Y-7201140D02*
X13946900Y-7231140D01*
X13946900Y-7201140D02*
X13916900Y-7231140D01*
X13916900Y-7328140D02*
X13946900Y-7358140D01*
X13946900Y-7328140D02*
X13916900Y-7358140D01*
X13980400Y-7264640D02*
X14010400Y-7294640D01*
X14010400Y-7264640D02*
X13980400Y-7294640D01*
X14043900Y-7201140D02*
X14073900Y-7231140D01*
X14073900Y-7201140D02*
X14043900Y-7231140D01*
X14043900Y-7328140D02*
X14073900Y-7358140D01*
X14073900Y-7328140D02*
X14043900Y-7358140D01*
X14051902Y-8280380D02*
X14081902Y-8310380D01*
X14081902Y-8280380D02*
X14051902Y-8310380D01*
X14051902Y-9956520D02*
X14081902Y-9986520D01*
X14081902Y-9956520D02*
X14051902Y-9986520D01*
X14052412Y-11641060D02*
X14082412Y-11671060D01*
X14082412Y-11641060D02*
X14052412Y-11671060D01*
X14052412Y-13327620D02*
X14082412Y-13357620D01*
X14082412Y-13327620D02*
X14052412Y-13357620D01*
X14107400Y-7264640D02*
X14137400Y-7294640D01*
X14137400Y-7264640D02*
X14107400Y-7294640D01*
X14109940Y-8280380D02*
X14139940Y-8310380D01*
X14139940Y-8280380D02*
X14109940Y-8310380D01*
X14109940Y-9956520D02*
X14139940Y-9986520D01*
X14139940Y-9956520D02*
X14109940Y-9986520D01*
X14110450Y-11641060D02*
X14140450Y-11671060D01*
X14140450Y-11641060D02*
X14110450Y-11671060D01*
X14110450Y-13327620D02*
X14140450Y-13357620D01*
X14140450Y-13327620D02*
X14110450Y-13357620D01*
X14170900Y-7201140D02*
X14200900Y-7231140D01*
X14200900Y-7201140D02*
X14170900Y-7231140D01*
X14170900Y-7328140D02*
X14200900Y-7358140D01*
X14200900Y-7328140D02*
X14170900Y-7358140D01*
X14234400Y-7264640D02*
X14264400Y-7294640D01*
X14264400Y-7264640D02*
X14234400Y-7294640D01*
X14297900Y-7201140D02*
X14327900Y-7231140D01*
X14327900Y-7201140D02*
X14297900Y-7231140D01*
X14297900Y-7328140D02*
X14327900Y-7358140D01*
X14327900Y-7328140D02*
X14297900Y-7358140D01*
X14361400Y-7264640D02*
X14391400Y-7294640D01*
X14391400Y-7264640D02*
X14361400Y-7294640D01*
X14424900Y-7201140D02*
X14454900Y-7231140D01*
X14454900Y-7201140D02*
X14424900Y-7231140D01*
X14424900Y-7328140D02*
X14454900Y-7358140D01*
X14454900Y-7328140D02*
X14424900Y-7358140D01*
X14526500Y-6855700D02*
X14556500Y-6885700D01*
X14556500Y-6855700D02*
X14526500Y-6885700D01*
X14526500Y-6906500D02*
X14556500Y-6936500D01*
X14556500Y-6906500D02*
X14526500Y-6936500D01*
X15047200Y-6855700D02*
X15077200Y-6885700D01*
X15077200Y-6855700D02*
X15047200Y-6885700D01*
X15047200Y-6906500D02*
X15077200Y-6936500D01*
X15077200Y-6906500D02*
X15047200Y-6936500D01*
X15289262Y-7881106D02*
X15319262Y-7911106D01*
X15319262Y-7881106D02*
X15289262Y-7911106D01*
X15289262Y-9564106D02*
X15319262Y-9594106D01*
X15319262Y-9564106D02*
X15289262Y-9594106D01*
X15289262Y-11247106D02*
X15319262Y-11277106D01*
X15319262Y-11247106D02*
X15289262Y-11277106D01*
X15743160Y-7498320D02*
X15773160Y-7528320D01*
X15773160Y-7498320D02*
X15743160Y-7528320D01*
X15743160Y-7549120D02*
X15773160Y-7579120D01*
X15773160Y-7549120D02*
X15743160Y-7579120D01*
X15743160Y-7599920D02*
X15773160Y-7629920D01*
X15773160Y-7599920D02*
X15743160Y-7629920D01*
X15743160Y-9179800D02*
X15773160Y-9209800D01*
X15773160Y-9179800D02*
X15743160Y-9209800D01*
X15743160Y-9230600D02*
X15773160Y-9260600D01*
X15773160Y-9230600D02*
X15743160Y-9260600D01*
X15743160Y-9281400D02*
X15773160Y-9311400D01*
X15773160Y-9281400D02*
X15743160Y-9311400D01*
X15743160Y-10861280D02*
X15773160Y-10891280D01*
X15773160Y-10861280D02*
X15743160Y-10891280D01*
X15743160Y-10912080D02*
X15773160Y-10942080D01*
X15773160Y-10912080D02*
X15743160Y-10942080D01*
X15743160Y-10962880D02*
X15773160Y-10992880D01*
X15773160Y-10962880D02*
X15743160Y-10992880D01*
X15743160Y-12547840D02*
X15773160Y-12577840D01*
X15773160Y-12547840D02*
X15743160Y-12577840D01*
X15743160Y-12598640D02*
X15773160Y-12628640D01*
X15773160Y-12598640D02*
X15743160Y-12628640D01*
X15743160Y-12649440D02*
X15773160Y-12679440D01*
X15773160Y-12649440D02*
X15743160Y-12679440D01*
X15793960Y-7498320D02*
X15823960Y-7528320D01*
X15823960Y-7498320D02*
X15793960Y-7528320D01*
X15793960Y-7549120D02*
X15823960Y-7579120D01*
X15823960Y-7549120D02*
X15793960Y-7579120D01*
X15793960Y-7599920D02*
X15823960Y-7629920D01*
X15823960Y-7599920D02*
X15793960Y-7629920D01*
X15793960Y-9179800D02*
X15823960Y-9209800D01*
X15823960Y-9179800D02*
X15793960Y-9209800D01*
X15793960Y-9230600D02*
X15823960Y-9260600D01*
X15823960Y-9230600D02*
X15793960Y-9260600D01*
X15793960Y-9281400D02*
X15823960Y-9311400D01*
X15823960Y-9281400D02*
X15793960Y-9311400D01*
X15793960Y-10861280D02*
X15823960Y-10891280D01*
X15823960Y-10861280D02*
X15793960Y-10891280D01*
X15793960Y-10912080D02*
X15823960Y-10942080D01*
X15823960Y-10912080D02*
X15793960Y-10942080D01*
X15793960Y-10962880D02*
X15823960Y-10992880D01*
X15823960Y-10962880D02*
X15793960Y-10992880D01*
X15793960Y-12547840D02*
X15823960Y-12577840D01*
X15823960Y-12547840D02*
X15793960Y-12577840D01*
X15793960Y-12598640D02*
X15823960Y-12628640D01*
X15823960Y-12598640D02*
X15793960Y-12628640D01*
X15793960Y-12649440D02*
X15823960Y-12679440D01*
X15823960Y-12649440D02*
X15793960Y-12679440D01*
X15844760Y-7498320D02*
X15874760Y-7528320D01*
X15874760Y-7498320D02*
X15844760Y-7528320D01*
X15844760Y-7549120D02*
X15874760Y-7579120D01*
X15874760Y-7549120D02*
X15844760Y-7579120D01*
X15844760Y-7599920D02*
X15874760Y-7629920D01*
X15874760Y-7599920D02*
X15844760Y-7629920D01*
X15844760Y-9179800D02*
X15874760Y-9209800D01*
X15874760Y-9179800D02*
X15844760Y-9209800D01*
X15844760Y-9230600D02*
X15874760Y-9260600D01*
X15874760Y-9230600D02*
X15844760Y-9260600D01*
X15844760Y-9281400D02*
X15874760Y-9311400D01*
X15874760Y-9281400D02*
X15844760Y-9311400D01*
X15844760Y-10861280D02*
X15874760Y-10891280D01*
X15874760Y-10861280D02*
X15844760Y-10891280D01*
X15844760Y-10912080D02*
X15874760Y-10942080D01*
X15874760Y-10912080D02*
X15844760Y-10942080D01*
X15844760Y-10962880D02*
X15874760Y-10992880D01*
X15874760Y-10962880D02*
X15844760Y-10992880D01*
X15844760Y-12547840D02*
X15874760Y-12577840D01*
X15874760Y-12547840D02*
X15844760Y-12577840D01*
X15844760Y-12598640D02*
X15874760Y-12628640D01*
X15874760Y-12598640D02*
X15844760Y-12628640D01*
X15844760Y-12649440D02*
X15874760Y-12679440D01*
X15874760Y-12649440D02*
X15844760Y-12679440D01*
X15895560Y-7498320D02*
X15925560Y-7528320D01*
X15925560Y-7498320D02*
X15895560Y-7528320D01*
X15895560Y-7549120D02*
X15925560Y-7579120D01*
X15925560Y-7549120D02*
X15895560Y-7579120D01*
X15895560Y-7599920D02*
X15925560Y-7629920D01*
X15925560Y-7599920D02*
X15895560Y-7629920D01*
X15895560Y-9179800D02*
X15925560Y-9209800D01*
X15925560Y-9179800D02*
X15895560Y-9209800D01*
X15895560Y-9230600D02*
X15925560Y-9260600D01*
X15925560Y-9230600D02*
X15895560Y-9260600D01*
X15895560Y-9281400D02*
X15925560Y-9311400D01*
X15925560Y-9281400D02*
X15895560Y-9311400D01*
X15895560Y-10861280D02*
X15925560Y-10891280D01*
X15925560Y-10861280D02*
X15895560Y-10891280D01*
X15895560Y-10912080D02*
X15925560Y-10942080D01*
X15925560Y-10912080D02*
X15895560Y-10942080D01*
X15895560Y-10962880D02*
X15925560Y-10992880D01*
X15925560Y-10962880D02*
X15895560Y-10992880D01*
X15895560Y-12547840D02*
X15925560Y-12577840D01*
X15925560Y-12547840D02*
X15895560Y-12577840D01*
X15895560Y-12598640D02*
X15925560Y-12628640D01*
X15925560Y-12598640D02*
X15895560Y-12628640D01*
X15895560Y-12649440D02*
X15925560Y-12679440D01*
X15925560Y-12649440D02*
X15895560Y-12679440D01*
X16178262Y-7881106D02*
X16208262Y-7911106D01*
X16208262Y-7881106D02*
X16178262Y-7911106D01*
X16178262Y-9564106D02*
X16208262Y-9594106D01*
X16208262Y-9564106D02*
X16178262Y-9594106D01*
X16178262Y-11247106D02*
X16208262Y-11277106D01*
X16208262Y-11247106D02*
X16178262Y-11277106D01*
X16253700Y-7086840D02*
X16283700Y-7116840D01*
X16283700Y-7086840D02*
X16253700Y-7116840D01*
X16253700Y-7137640D02*
X16283700Y-7167640D01*
X16283700Y-7137640D02*
X16253700Y-7167640D01*
X16304500Y-7086840D02*
X16334500Y-7116840D01*
X16334500Y-7086840D02*
X16304500Y-7116840D01*
X16304500Y-7137640D02*
X16334500Y-7167640D01*
X16334500Y-7137640D02*
X16304500Y-7167640D01*
X16431500Y-7249174D02*
X16461500Y-7279174D01*
X16461500Y-7249174D02*
X16431500Y-7279174D01*
X16628000Y-6898880D02*
X16658000Y-6928880D01*
X16658000Y-6898880D02*
X16628000Y-6928880D01*
X16628000Y-6962380D02*
X16658000Y-6992380D01*
X16658000Y-6962380D02*
X16628000Y-6992380D01*
X16628000Y-7033500D02*
X16658000Y-7063500D01*
X16658000Y-7033500D02*
X16628000Y-7063500D01*
X16628000Y-7097000D02*
X16658000Y-7127000D01*
X16658000Y-7097000D02*
X16628000Y-7127000D01*
X16628000Y-7165580D02*
X16658000Y-7195580D01*
X16658000Y-7165580D02*
X16628000Y-7195580D01*
X16688040Y-7518640D02*
X16718040Y-7548640D01*
X16718040Y-7518640D02*
X16688040Y-7548640D01*
X16733760Y-7518640D02*
X16763760Y-7548640D01*
X16763760Y-7518640D02*
X16733760Y-7548640D01*
X16782020Y-7518640D02*
X16812020Y-7548640D01*
X16812020Y-7518640D02*
X16782020Y-7548640D01*
X16815040Y-7625320D02*
X16845040Y-7655320D01*
X16845040Y-7625320D02*
X16815040Y-7655320D01*
X16815040Y-7676120D02*
X16845040Y-7706120D01*
X16845040Y-7676120D02*
X16815040Y-7706120D01*
X16815040Y-7726920D02*
X16845040Y-7756920D01*
X16845040Y-7726920D02*
X16815040Y-7756920D01*
X16815040Y-9306800D02*
X16845040Y-9336800D01*
X16845040Y-9306800D02*
X16815040Y-9336800D01*
X16815040Y-9357600D02*
X16845040Y-9387600D01*
X16845040Y-9357600D02*
X16815040Y-9387600D01*
X16815040Y-9408400D02*
X16845040Y-9438400D01*
X16845040Y-9408400D02*
X16815040Y-9438400D01*
X16815040Y-10989296D02*
X16845040Y-11019296D01*
X16845040Y-10989296D02*
X16815040Y-11019296D01*
X16815040Y-11040096D02*
X16845040Y-11070096D01*
X16845040Y-11040096D02*
X16815040Y-11070096D01*
X16815040Y-11090896D02*
X16845040Y-11120896D01*
X16845040Y-11090896D02*
X16815040Y-11120896D01*
X16815040Y-12674840D02*
X16845040Y-12704840D01*
X16845040Y-12674840D02*
X16815040Y-12704840D01*
X16815040Y-12725640D02*
X16845040Y-12755640D01*
X16845040Y-12725640D02*
X16815040Y-12755640D01*
X16815040Y-12776440D02*
X16845040Y-12806440D01*
X16845040Y-12776440D02*
X16815040Y-12806440D01*
X16865840Y-7625320D02*
X16895840Y-7655320D01*
X16895840Y-7625320D02*
X16865840Y-7655320D01*
X16865840Y-7676120D02*
X16895840Y-7706120D01*
X16895840Y-7676120D02*
X16865840Y-7706120D01*
X16865840Y-7726920D02*
X16895840Y-7756920D01*
X16895840Y-7726920D02*
X16865840Y-7756920D01*
X16865840Y-9306800D02*
X16895840Y-9336800D01*
X16895840Y-9306800D02*
X16865840Y-9336800D01*
X16865840Y-9357600D02*
X16895840Y-9387600D01*
X16895840Y-9357600D02*
X16865840Y-9387600D01*
X16865840Y-9408400D02*
X16895840Y-9438400D01*
X16895840Y-9408400D02*
X16865840Y-9438400D01*
X16865840Y-10989296D02*
X16895840Y-11019296D01*
X16895840Y-10989296D02*
X16865840Y-11019296D01*
X16865840Y-11040096D02*
X16895840Y-11070096D01*
X16895840Y-11040096D02*
X16865840Y-11070096D01*
X16865840Y-11090896D02*
X16895840Y-11120896D01*
X16895840Y-11090896D02*
X16865840Y-11120896D01*
X16865840Y-12674840D02*
X16895840Y-12704840D01*
X16895840Y-12674840D02*
X16865840Y-12704840D01*
X16865840Y-12725640D02*
X16895840Y-12755640D01*
X16895840Y-12725640D02*
X16865840Y-12755640D01*
X16865840Y-12776440D02*
X16895840Y-12806440D01*
X16895840Y-12776440D02*
X16865840Y-12806440D01*
X16870920Y-7518640D02*
X16900920Y-7548640D01*
X16900920Y-7518640D02*
X16870920Y-7548640D01*
X16916640Y-7518640D02*
X16946640Y-7548640D01*
X16946640Y-7518640D02*
X16916640Y-7548640D01*
X16916640Y-7625320D02*
X16946640Y-7655320D01*
X16946640Y-7625320D02*
X16916640Y-7655320D01*
X16916640Y-7676120D02*
X16946640Y-7706120D01*
X16946640Y-7676120D02*
X16916640Y-7706120D01*
X16916640Y-7726920D02*
X16946640Y-7756920D01*
X16946640Y-7726920D02*
X16916640Y-7756920D01*
X16916640Y-9306800D02*
X16946640Y-9336800D01*
X16946640Y-9306800D02*
X16916640Y-9336800D01*
X16916640Y-9357600D02*
X16946640Y-9387600D01*
X16946640Y-9357600D02*
X16916640Y-9387600D01*
X16916640Y-9408400D02*
X16946640Y-9438400D01*
X16946640Y-9408400D02*
X16916640Y-9438400D01*
X16916640Y-10989296D02*
X16946640Y-11019296D01*
X16946640Y-10989296D02*
X16916640Y-11019296D01*
X16916640Y-11040096D02*
X16946640Y-11070096D01*
X16946640Y-11040096D02*
X16916640Y-11070096D01*
X16916640Y-11090896D02*
X16946640Y-11120896D01*
X16946640Y-11090896D02*
X16916640Y-11120896D01*
X16916640Y-12674840D02*
X16946640Y-12704840D01*
X16946640Y-12674840D02*
X16916640Y-12704840D01*
X16916640Y-12725640D02*
X16946640Y-12755640D01*
X16946640Y-12725640D02*
X16916640Y-12755640D01*
X16916640Y-12776440D02*
X16946640Y-12806440D01*
X16946640Y-12776440D02*
X16916640Y-12806440D01*
X16939500Y-7198600D02*
X16969500Y-7228600D01*
X16969500Y-7198600D02*
X16939500Y-7228600D01*
X16964900Y-7518640D02*
X16994900Y-7548640D01*
X16994900Y-7518640D02*
X16964900Y-7548640D01*
X16967440Y-7625320D02*
X16997440Y-7655320D01*
X16997440Y-7625320D02*
X16967440Y-7655320D01*
X16967440Y-7676120D02*
X16997440Y-7706120D01*
X16997440Y-7676120D02*
X16967440Y-7706120D01*
X16967440Y-7726920D02*
X16997440Y-7756920D01*
X16997440Y-7726920D02*
X16967440Y-7756920D01*
X16967440Y-9306800D02*
X16997440Y-9336800D01*
X16997440Y-9306800D02*
X16967440Y-9336800D01*
X16967440Y-9357600D02*
X16997440Y-9387600D01*
X16997440Y-9357600D02*
X16967440Y-9387600D01*
X16967440Y-9408400D02*
X16997440Y-9438400D01*
X16997440Y-9408400D02*
X16967440Y-9438400D01*
X16967440Y-10989296D02*
X16997440Y-11019296D01*
X16997440Y-10989296D02*
X16967440Y-11019296D01*
X16967440Y-11040096D02*
X16997440Y-11070096D01*
X16997440Y-11040096D02*
X16967440Y-11070096D01*
X16967440Y-11090896D02*
X16997440Y-11120896D01*
X16997440Y-11090896D02*
X16967440Y-11120896D01*
X16967440Y-12674840D02*
X16997440Y-12704840D01*
X16997440Y-12674840D02*
X16967440Y-12704840D01*
X16967440Y-12725640D02*
X16997440Y-12755640D01*
X16997440Y-12725640D02*
X16967440Y-12755640D01*
X16967440Y-12776440D02*
X16997440Y-12806440D01*
X16997440Y-12776440D02*
X16967440Y-12806440D01*
X17036020Y-6901420D02*
X17066020Y-6931420D01*
X17066020Y-6901420D02*
X17036020Y-6931420D01*
X17036020Y-6964920D02*
X17066020Y-6994920D01*
X17066020Y-6964920D02*
X17036020Y-6994920D01*
X17036020Y-7036040D02*
X17066020Y-7066040D01*
X17066020Y-7036040D02*
X17036020Y-7066040D01*
X17036020Y-7168120D02*
X17066020Y-7198120D01*
X17066020Y-7168120D02*
X17036020Y-7198120D01*
X17037176Y-7099540D02*
X17067176Y-7129540D01*
X17067176Y-7099540D02*
X17037176Y-7129540D01*
X17254460Y-12072860D02*
X17284460Y-12102860D01*
X17284460Y-12072860D02*
X17254460Y-12102860D01*
X17254460Y-12199860D02*
X17284460Y-12229860D01*
X17284460Y-12199860D02*
X17254460Y-12229860D01*
X17259540Y-8702280D02*
X17289540Y-8732280D01*
X17289540Y-8702280D02*
X17259540Y-8732280D01*
X17259540Y-8829280D02*
X17289540Y-8859280D01*
X17289540Y-8829280D02*
X17259540Y-8859280D01*
X17264620Y-10371060D02*
X17294620Y-10401060D01*
X17294620Y-10371060D02*
X17264620Y-10401060D01*
X17264620Y-10498060D02*
X17294620Y-10528060D01*
X17294620Y-10498060D02*
X17264620Y-10528060D01*
X17317960Y-12136360D02*
X17347960Y-12166360D01*
X17347960Y-12136360D02*
X17317960Y-12166360D01*
X17323040Y-8765780D02*
X17353040Y-8795780D01*
X17353040Y-8765780D02*
X17323040Y-8795780D01*
X17328120Y-10434560D02*
X17358120Y-10464560D01*
X17358120Y-10434560D02*
X17328120Y-10464560D01*
X17358600Y-7086840D02*
X17388600Y-7116840D01*
X17388600Y-7086840D02*
X17358600Y-7116840D01*
X17358600Y-7137640D02*
X17388600Y-7167640D01*
X17388600Y-7137640D02*
X17358600Y-7167640D01*
X17381460Y-12072860D02*
X17411460Y-12102860D01*
X17411460Y-12072860D02*
X17381460Y-12102860D01*
X17381460Y-12199860D02*
X17411460Y-12229860D01*
X17411460Y-12199860D02*
X17381460Y-12229860D01*
X17386540Y-8702280D02*
X17416540Y-8732280D01*
X17416540Y-8702280D02*
X17386540Y-8732280D01*
X17386540Y-8829280D02*
X17416540Y-8859280D01*
X17416540Y-8829280D02*
X17386540Y-8859280D01*
X17391620Y-10371060D02*
X17421620Y-10401060D01*
X17421620Y-10371060D02*
X17391620Y-10401060D01*
X17391620Y-10498060D02*
X17421620Y-10528060D01*
X17421620Y-10498060D02*
X17391620Y-10528060D01*
X17409400Y-7086840D02*
X17439400Y-7116840D01*
X17439400Y-7086840D02*
X17409400Y-7116840D01*
X17409400Y-7137640D02*
X17439400Y-7167640D01*
X17439400Y-7137640D02*
X17409400Y-7167640D01*
X17544020Y-11818860D02*
X17574020Y-11848860D01*
X17574020Y-11818860D02*
X17544020Y-11848860D01*
X17544020Y-11869660D02*
X17574020Y-11899660D01*
X17574020Y-11869660D02*
X17544020Y-11899660D01*
X17544020Y-11920460D02*
X17574020Y-11950460D01*
X17574020Y-11920460D02*
X17544020Y-11950460D01*
X17594820Y-11818860D02*
X17624820Y-11848860D01*
X17624820Y-11818860D02*
X17594820Y-11848860D01*
X17594820Y-11869660D02*
X17624820Y-11899660D01*
X17624820Y-11869660D02*
X17594820Y-11899660D01*
X17594820Y-11920460D02*
X17624820Y-11950460D01*
X17624820Y-11920460D02*
X17594820Y-11950460D01*
X17645620Y-11818860D02*
X17675620Y-11848860D01*
X17675620Y-11818860D02*
X17645620Y-11848860D01*
X17645620Y-11869660D02*
X17675620Y-11899660D01*
X17675620Y-11869660D02*
X17645620Y-11899660D01*
X17645620Y-11920460D02*
X17675620Y-11950460D01*
X17675620Y-11920460D02*
X17645620Y-11950460D01*
X17696420Y-11818860D02*
X17726420Y-11848860D01*
X17726420Y-11818860D02*
X17696420Y-11848860D01*
X17696420Y-11869660D02*
X17726420Y-11899660D01*
X17726420Y-11869660D02*
X17696420Y-11899660D01*
X17696420Y-11920460D02*
X17726420Y-11950460D01*
X17726420Y-11920460D02*
X17696420Y-11950460D01*
X18158700Y-9941800D02*
X18188700Y-9971800D01*
X18188700Y-9941800D02*
X18158700Y-9971800D01*
X18212040Y-12753580D02*
X18242040Y-12783580D01*
X18242040Y-12753580D02*
X18212040Y-12783580D01*
X18280366Y-7506586D02*
X18310366Y-7536586D01*
X18310366Y-7506586D02*
X18280366Y-7536586D01*
X18280366Y-9188886D02*
X18310366Y-9218886D01*
X18310366Y-9188886D02*
X18280366Y-9218886D01*
X18280366Y-10805400D02*
X18310366Y-10835400D01*
X18310366Y-10805400D02*
X18280366Y-10835400D01*
X18280370Y-7709738D02*
X18310370Y-7739738D01*
X18310370Y-7709738D02*
X18280370Y-7739738D01*
X18280370Y-9392038D02*
X18310370Y-9422038D01*
X18310370Y-9392038D02*
X18280370Y-9422038D01*
X18280510Y-11074793D02*
X18310510Y-11104793D01*
X18310510Y-11074793D02*
X18280510Y-11104793D01*
X18422860Y-7399260D02*
X18452860Y-7429260D01*
X18452860Y-7399260D02*
X18422860Y-7429260D01*
X18422860Y-7447520D02*
X18452860Y-7477520D01*
X18452860Y-7447520D02*
X18422860Y-7477520D01*
X18422860Y-7493240D02*
X18452860Y-7523240D01*
X18452860Y-7493240D02*
X18422860Y-7523240D01*
X18422860Y-12766280D02*
X18452860Y-12796280D01*
X18452860Y-12766280D02*
X18422860Y-12796280D01*
X18422860Y-12812000D02*
X18452860Y-12842000D01*
X18452860Y-12812000D02*
X18422860Y-12842000D01*
X18422860Y-12857720D02*
X18452860Y-12887720D01*
X18452860Y-12857720D02*
X18422860Y-12887720D01*
X11713732Y-9126298D02*
G75*
G03*
X11713732Y-9126298I-15000J0D01*
G01*
X11713732Y-9231298D02*
G75*
G03*
X11713732Y-9231298I-15000J0D01*
G01*
X11729260Y-11917460D02*
G75*
G03*
X11729260Y-11917460I-15000J0D01*
G01*
X11729260Y-12062460D02*
G75*
G03*
X11729260Y-12062460I-15000J0D01*
G01*
X11729260Y-12207460D02*
G75*
G03*
X11729260Y-12207460I-15000J0D01*
G01*
X11818732Y-9126298D02*
G75*
G03*
X11818732Y-9126298I-15000J0D01*
G01*
X11818732Y-9231298D02*
G75*
G03*
X11818732Y-9231298I-15000J0D01*
G01*
X11874260Y-11917460D02*
G75*
G03*
X11874260Y-11917460I-15000J0D01*
G01*
X11874260Y-12062460D02*
G75*
G03*
X11874260Y-12062460I-15000J0D01*
G01*
X11874260Y-12207460D02*
G75*
G03*
X11874260Y-12207460I-15000J0D01*
G01*
X12019260Y-11917460D02*
G75*
G03*
X12019260Y-11917460I-15000J0D01*
G01*
X12019260Y-12062460D02*
G75*
G03*
X12019260Y-12062460I-15000J0D01*
G01*
X12019260Y-12207460D02*
G75*
G03*
X12019260Y-12207460I-15000J0D01*
G01*
X11480768Y-6815090D02*
X11480768Y-6875090D01*
X11450768Y-6845090D02*
X11510768Y-6845090D01*
X11385768Y-6875090D02*
X11575768Y-6875090D01*
X11575768Y-6875090D02*
G75*
G03*
X11575768Y-6815090I0J30000D01*
G01*
X11575768Y-6815090D02*
X11385768Y-6815090D01*
X11385768Y-6815090D02*
G75*
G03*
X11385768Y-6875090I0J-30000D01*
G01*
X12952822Y-7467382D02*
X12952822Y-7527382D01*
X12922822Y-7497382D02*
X12982822Y-7497382D01*
X13202822Y-7097382D02*
X13202822Y-7157382D01*
X13172822Y-7127382D02*
X13232822Y-7127382D01*
X11080517Y-7094839D02*
X11080517Y-7045341D01*
X11031019Y-7045341D01*
X11031019Y-7094839D01*
X11080517Y-7094839D01*
X11255517Y-7094839D02*
X11255517Y-7045341D01*
X11206019Y-7045341D01*
X11206019Y-7094839D01*
X11255517Y-7094839D01*
X11380517Y-7414839D02*
X11380517Y-7365341D01*
X11331019Y-7365341D01*
X11331019Y-7414839D01*
X11380517Y-7414839D01*
X11380517Y-7714839D02*
X11380517Y-7665341D01*
X11331019Y-7665341D01*
X11331019Y-7714839D01*
X11380517Y-7714839D01*
X11505517Y-7094839D02*
X11505517Y-7045341D01*
X11456019Y-7045341D01*
X11456019Y-7094839D01*
X11505517Y-7094839D01*
X11630517Y-7414839D02*
X11630517Y-7365341D01*
X11581019Y-7365341D01*
X11581019Y-7414839D01*
X11630517Y-7414839D01*
X11630517Y-7714839D02*
X11630517Y-7665341D01*
X11581019Y-7665341D01*
X11581019Y-7714839D01*
X11630517Y-7714839D01*
X11755517Y-7094839D02*
X11755517Y-7045341D01*
X11706019Y-7045341D01*
X11706019Y-7094839D01*
X11755517Y-7094839D01*
X11930517Y-7094839D02*
X11930517Y-7045341D01*
X11881019Y-7045341D01*
X11881019Y-7094839D01*
X11930517Y-7094839D01*
X14704782Y-7048427D02*
X14704782Y-6998929D01*
X14655284Y-6998929D01*
X14655284Y-7048427D01*
X14704782Y-7048427D01*
X14704782Y-7175427D02*
X14704782Y-7125929D01*
X14655284Y-7125929D01*
X14655284Y-7175427D01*
X14704782Y-7175427D01*
X12672822Y-6937382D02*
X12712822Y-6897382D01*
X12672822Y-6857382D01*
X12632822Y-6897382D01*
X12672822Y-6937382D01*
X17869700Y-10289800D02*
X17969700Y-10389800D01*
X17969700Y-10289800D02*
X17869700Y-10389800D01*
X17969700Y-10339800D02*
G75*
G03*
X17969700Y-10339800I-50000J0D01*
G01*
X17869700Y-10539800D02*
X17969700Y-10639800D01*
X17969700Y-10539800D02*
X17869700Y-10639800D01*
X17969700Y-10589800D02*
G75*
G03*
X17969700Y-10589800I-50000J0D01*
G01*
D12*
X10765768Y-7345090D02*
X10995768Y-7575090D01*
X10995768Y-7345090D02*
X10765768Y-7575090D01*
X10880768Y-7345090D02*
X10880768Y-7575090D01*
X10765768Y-7460090D02*
X10995768Y-7460090D01*
X11965768Y-7345090D02*
X12195768Y-7575090D01*
X12195768Y-7345090D02*
X11965768Y-7575090D01*
X12080768Y-7345090D02*
X12080768Y-7575090D01*
X11965768Y-7460090D02*
X12195768Y-7460090D01*
D11*
X10986609Y-13826518D02*
X10986609Y-13626518D01*
X10986609Y-13626518D02*
X11034228Y-13626518D01*
X11034228Y-13626518D02*
X11062799Y-13636042D01*
X11062799Y-13636042D02*
X11081847Y-13655089D01*
X11081847Y-13655089D02*
X11091371Y-13674137D01*
X11091371Y-13674137D02*
X11100895Y-13712232D01*
X11100895Y-13712232D02*
X11100895Y-13740803D01*
X11100895Y-13740803D02*
X11091371Y-13778899D01*
X11091371Y-13778899D02*
X11081847Y-13797946D01*
X11081847Y-13797946D02*
X11062799Y-13816994D01*
X11062799Y-13816994D02*
X11034228Y-13826518D01*
X11034228Y-13826518D02*
X10986609Y-13826518D01*
X11186609Y-13826518D02*
X11186609Y-13693184D01*
X11186609Y-13731280D02*
X11196133Y-13712232D01*
X11196133Y-13712232D02*
X11205656Y-13702708D01*
X11205656Y-13702708D02*
X11224704Y-13693184D01*
X11224704Y-13693184D02*
X11243752Y-13693184D01*
X11310418Y-13826518D02*
X11310418Y-13693184D01*
X11310418Y-13626518D02*
X11300894Y-13636042D01*
X11300894Y-13636042D02*
X11310418Y-13645565D01*
X11310418Y-13645565D02*
X11319942Y-13636042D01*
X11319942Y-13636042D02*
X11310418Y-13626518D01*
X11310418Y-13626518D02*
X11310418Y-13645565D01*
X11434228Y-13826518D02*
X11415180Y-13816994D01*
X11415180Y-13816994D02*
X11405656Y-13797946D01*
X11405656Y-13797946D02*
X11405656Y-13626518D01*
X11538990Y-13826518D02*
X11519942Y-13816994D01*
X11519942Y-13816994D02*
X11510418Y-13797946D01*
X11510418Y-13797946D02*
X11510418Y-13626518D01*
X11767561Y-13826518D02*
X11767561Y-13626518D01*
X11767561Y-13626518D02*
X11834228Y-13769375D01*
X11834228Y-13769375D02*
X11900894Y-13626518D01*
X11900894Y-13626518D02*
X11900894Y-13826518D01*
X12081847Y-13826518D02*
X12081847Y-13721756D01*
X12081847Y-13721756D02*
X12072323Y-13702708D01*
X12072323Y-13702708D02*
X12053275Y-13693184D01*
X12053275Y-13693184D02*
X12015180Y-13693184D01*
X12015180Y-13693184D02*
X11996133Y-13702708D01*
X12081847Y-13816994D02*
X12062799Y-13826518D01*
X12062799Y-13826518D02*
X12015180Y-13826518D01*
X12015180Y-13826518D02*
X11996133Y-13816994D01*
X11996133Y-13816994D02*
X11986609Y-13797946D01*
X11986609Y-13797946D02*
X11986609Y-13778899D01*
X11986609Y-13778899D02*
X11996133Y-13759851D01*
X11996133Y-13759851D02*
X12015180Y-13750327D01*
X12015180Y-13750327D02*
X12062799Y-13750327D01*
X12062799Y-13750327D02*
X12081847Y-13740803D01*
X12177085Y-13693184D02*
X12177085Y-13893184D01*
X12177085Y-13702708D02*
X12196133Y-13693184D01*
X12196133Y-13693184D02*
X12234228Y-13693184D01*
X12234228Y-13693184D02*
X12253275Y-13702708D01*
X12253275Y-13702708D02*
X12262799Y-13712232D01*
X12262799Y-13712232D02*
X12272323Y-13731280D01*
X12272323Y-13731280D02*
X12272323Y-13788422D01*
X12272323Y-13788422D02*
X12262799Y-13807470D01*
X12262799Y-13807470D02*
X12253275Y-13816994D01*
X12253275Y-13816994D02*
X12234228Y-13826518D01*
X12234228Y-13826518D02*
X12196133Y-13826518D01*
X12196133Y-13826518D02*
X12177085Y-13816994D01*
X12358037Y-13807470D02*
X12367561Y-13816994D01*
X12367561Y-13816994D02*
X12358037Y-13826518D01*
X12358037Y-13826518D02*
X12348514Y-13816994D01*
X12348514Y-13816994D02*
X12358037Y-13807470D01*
X12358037Y-13807470D02*
X12358037Y-13826518D01*
X12358037Y-13702708D02*
X12367561Y-13712232D01*
X12367561Y-13712232D02*
X12358037Y-13721756D01*
X12358037Y-13721756D02*
X12348514Y-13712232D01*
X12348514Y-13712232D02*
X12358037Y-13702708D01*
X12358037Y-13702708D02*
X12358037Y-13721756D01*
D10*
X10695832Y-14140034D02*
X10725832Y-14170034D01*
X10725832Y-14140034D02*
X10695832Y-14170034D01*
D11*
X11024704Y-14046518D02*
X11043752Y-14046518D01*
X11043752Y-14046518D02*
X11062799Y-14056042D01*
X11062799Y-14056042D02*
X11072323Y-14065565D01*
X11072323Y-14065565D02*
X11081847Y-14084613D01*
X11081847Y-14084613D02*
X11091371Y-14122708D01*
X11091371Y-14122708D02*
X11091371Y-14170327D01*
X11091371Y-14170327D02*
X11081847Y-14208422D01*
X11081847Y-14208422D02*
X11072323Y-14227470D01*
X11072323Y-14227470D02*
X11062799Y-14236994D01*
X11062799Y-14236994D02*
X11043752Y-14246518D01*
X11043752Y-14246518D02*
X11024704Y-14246518D01*
X11024704Y-14246518D02*
X11005656Y-14236994D01*
X11005656Y-14236994D02*
X10996133Y-14227470D01*
X10996133Y-14227470D02*
X10986609Y-14208422D01*
X10986609Y-14208422D02*
X10977085Y-14170327D01*
X10977085Y-14170327D02*
X10977085Y-14122708D01*
X10977085Y-14122708D02*
X10986609Y-14084613D01*
X10986609Y-14084613D02*
X10996133Y-14065565D01*
X10996133Y-14065565D02*
X11005656Y-14056042D01*
X11005656Y-14056042D02*
X11024704Y-14046518D01*
X11177085Y-14227470D02*
X11186609Y-14236994D01*
X11186609Y-14236994D02*
X11177085Y-14246518D01*
X11177085Y-14246518D02*
X11167561Y-14236994D01*
X11167561Y-14236994D02*
X11177085Y-14227470D01*
X11177085Y-14227470D02*
X11177085Y-14246518D01*
X11253275Y-14046518D02*
X11377085Y-14046518D01*
X11377085Y-14046518D02*
X11310418Y-14122708D01*
X11310418Y-14122708D02*
X11338990Y-14122708D01*
X11338990Y-14122708D02*
X11358037Y-14132232D01*
X11358037Y-14132232D02*
X11367561Y-14141756D01*
X11367561Y-14141756D02*
X11377085Y-14160803D01*
X11377085Y-14160803D02*
X11377085Y-14208422D01*
X11377085Y-14208422D02*
X11367561Y-14227470D01*
X11367561Y-14227470D02*
X11358037Y-14236994D01*
X11358037Y-14236994D02*
X11338990Y-14246518D01*
X11338990Y-14246518D02*
X11281847Y-14246518D01*
X11281847Y-14246518D02*
X11262799Y-14236994D01*
X11262799Y-14236994D02*
X11253275Y-14227470D01*
X11500894Y-14046518D02*
X11519942Y-14046518D01*
X11519942Y-14046518D02*
X11538990Y-14056042D01*
X11538990Y-14056042D02*
X11548514Y-14065565D01*
X11548514Y-14065565D02*
X11558037Y-14084613D01*
X11558037Y-14084613D02*
X11567561Y-14122708D01*
X11567561Y-14122708D02*
X11567561Y-14170327D01*
X11567561Y-14170327D02*
X11558037Y-14208422D01*
X11558037Y-14208422D02*
X11548514Y-14227470D01*
X11548514Y-14227470D02*
X11538990Y-14236994D01*
X11538990Y-14236994D02*
X11519942Y-14246518D01*
X11519942Y-14246518D02*
X11500894Y-14246518D01*
X11500894Y-14246518D02*
X11481847Y-14236994D01*
X11481847Y-14236994D02*
X11472323Y-14227470D01*
X11472323Y-14227470D02*
X11462799Y-14208422D01*
X11462799Y-14208422D02*
X11453275Y-14170327D01*
X11453275Y-14170327D02*
X11453275Y-14122708D01*
X11453275Y-14122708D02*
X11462799Y-14084613D01*
X11462799Y-14084613D02*
X11472323Y-14065565D01*
X11472323Y-14065565D02*
X11481847Y-14056042D01*
X11481847Y-14056042D02*
X11500894Y-14046518D01*
X11691371Y-14046518D02*
X11710418Y-14046518D01*
X11710418Y-14046518D02*
X11729466Y-14056042D01*
X11729466Y-14056042D02*
X11738990Y-14065565D01*
X11738990Y-14065565D02*
X11748514Y-14084613D01*
X11748514Y-14084613D02*
X11758037Y-14122708D01*
X11758037Y-14122708D02*
X11758037Y-14170327D01*
X11758037Y-14170327D02*
X11748514Y-14208422D01*
X11748514Y-14208422D02*
X11738990Y-14227470D01*
X11738990Y-14227470D02*
X11729466Y-14236994D01*
X11729466Y-14236994D02*
X11710418Y-14246518D01*
X11710418Y-14246518D02*
X11691371Y-14246518D01*
X11691371Y-14246518D02*
X11672323Y-14236994D01*
X11672323Y-14236994D02*
X11662799Y-14227470D01*
X11662799Y-14227470D02*
X11653275Y-14208422D01*
X11653275Y-14208422D02*
X11643752Y-14170327D01*
X11643752Y-14170327D02*
X11643752Y-14122708D01*
X11643752Y-14122708D02*
X11653275Y-14084613D01*
X11653275Y-14084613D02*
X11662799Y-14065565D01*
X11662799Y-14065565D02*
X11672323Y-14056042D01*
X11672323Y-14056042D02*
X11691371Y-14046518D01*
X11843752Y-14246518D02*
X11843752Y-14113184D01*
X11843752Y-14132232D02*
X11853275Y-14122708D01*
X11853275Y-14122708D02*
X11872323Y-14113184D01*
X11872323Y-14113184D02*
X11900895Y-14113184D01*
X11900895Y-14113184D02*
X11919942Y-14122708D01*
X11919942Y-14122708D02*
X11929466Y-14141756D01*
X11929466Y-14141756D02*
X11929466Y-14246518D01*
X11929466Y-14141756D02*
X11938990Y-14122708D01*
X11938990Y-14122708D02*
X11958037Y-14113184D01*
X11958037Y-14113184D02*
X11986609Y-14113184D01*
X11986609Y-14113184D02*
X12005656Y-14122708D01*
X12005656Y-14122708D02*
X12015180Y-14141756D01*
X12015180Y-14141756D02*
X12015180Y-14246518D01*
X12110418Y-14246518D02*
X12110418Y-14113184D01*
X12110418Y-14132232D02*
X12119942Y-14122708D01*
X12119942Y-14122708D02*
X12138990Y-14113184D01*
X12138990Y-14113184D02*
X12167561Y-14113184D01*
X12167561Y-14113184D02*
X12186609Y-14122708D01*
X12186609Y-14122708D02*
X12196133Y-14141756D01*
X12196133Y-14141756D02*
X12196133Y-14246518D01*
X12196133Y-14141756D02*
X12205656Y-14122708D01*
X12205656Y-14122708D02*
X12224704Y-14113184D01*
X12224704Y-14113184D02*
X12253275Y-14113184D01*
X12253275Y-14113184D02*
X12272323Y-14122708D01*
X12272323Y-14122708D02*
X12281847Y-14141756D01*
X12281847Y-14141756D02*
X12281847Y-14246518D01*
X12672323Y-14036994D02*
X12500895Y-14294137D01*
X12929466Y-14046518D02*
X12948514Y-14046518D01*
X12948514Y-14046518D02*
X12967561Y-14056042D01*
X12967561Y-14056042D02*
X12977085Y-14065565D01*
X12977085Y-14065565D02*
X12986609Y-14084613D01*
X12986609Y-14084613D02*
X12996133Y-14122708D01*
X12996133Y-14122708D02*
X12996133Y-14170327D01*
X12996133Y-14170327D02*
X12986609Y-14208422D01*
X12986609Y-14208422D02*
X12977085Y-14227470D01*
X12977085Y-14227470D02*
X12967561Y-14236994D01*
X12967561Y-14236994D02*
X12948514Y-14246518D01*
X12948514Y-14246518D02*
X12929466Y-14246518D01*
X12929466Y-14246518D02*
X12910418Y-14236994D01*
X12910418Y-14236994D02*
X12900895Y-14227470D01*
X12900895Y-14227470D02*
X12891371Y-14208422D01*
X12891371Y-14208422D02*
X12881847Y-14170327D01*
X12881847Y-14170327D02*
X12881847Y-14122708D01*
X12881847Y-14122708D02*
X12891371Y-14084613D01*
X12891371Y-14084613D02*
X12900895Y-14065565D01*
X12900895Y-14065565D02*
X12910418Y-14056042D01*
X12910418Y-14056042D02*
X12929466Y-14046518D01*
X13081847Y-14227470D02*
X13091371Y-14236994D01*
X13091371Y-14236994D02*
X13081847Y-14246518D01*
X13081847Y-14246518D02*
X13072323Y-14236994D01*
X13072323Y-14236994D02*
X13081847Y-14227470D01*
X13081847Y-14227470D02*
X13081847Y-14246518D01*
X13215180Y-14046518D02*
X13234228Y-14046518D01*
X13234228Y-14046518D02*
X13253276Y-14056042D01*
X13253276Y-14056042D02*
X13262799Y-14065565D01*
X13262799Y-14065565D02*
X13272323Y-14084613D01*
X13272323Y-14084613D02*
X13281847Y-14122708D01*
X13281847Y-14122708D02*
X13281847Y-14170327D01*
X13281847Y-14170327D02*
X13272323Y-14208422D01*
X13272323Y-14208422D02*
X13262799Y-14227470D01*
X13262799Y-14227470D02*
X13253276Y-14236994D01*
X13253276Y-14236994D02*
X13234228Y-14246518D01*
X13234228Y-14246518D02*
X13215180Y-14246518D01*
X13215180Y-14246518D02*
X13196133Y-14236994D01*
X13196133Y-14236994D02*
X13186609Y-14227470D01*
X13186609Y-14227470D02*
X13177085Y-14208422D01*
X13177085Y-14208422D02*
X13167561Y-14170327D01*
X13167561Y-14170327D02*
X13167561Y-14122708D01*
X13167561Y-14122708D02*
X13177085Y-14084613D01*
X13177085Y-14084613D02*
X13186609Y-14065565D01*
X13186609Y-14065565D02*
X13196133Y-14056042D01*
X13196133Y-14056042D02*
X13215180Y-14046518D01*
X13472323Y-14246518D02*
X13358038Y-14246518D01*
X13415180Y-14246518D02*
X13415180Y-14046518D01*
X13415180Y-14046518D02*
X13396133Y-14075089D01*
X13396133Y-14075089D02*
X13377085Y-14094137D01*
X13377085Y-14094137D02*
X13358038Y-14103661D01*
X13662799Y-14246518D02*
X13548514Y-14246518D01*
X13605657Y-14246518D02*
X13605657Y-14046518D01*
X13605657Y-14046518D02*
X13586609Y-14075089D01*
X13586609Y-14075089D02*
X13567561Y-14094137D01*
X13567561Y-14094137D02*
X13548514Y-14103661D01*
X13777085Y-14132232D02*
X13758038Y-14122708D01*
X13758038Y-14122708D02*
X13748514Y-14113184D01*
X13748514Y-14113184D02*
X13738990Y-14094137D01*
X13738990Y-14094137D02*
X13738990Y-14084613D01*
X13738990Y-14084613D02*
X13748514Y-14065565D01*
X13748514Y-14065565D02*
X13758038Y-14056042D01*
X13758038Y-14056042D02*
X13777085Y-14046518D01*
X13777085Y-14046518D02*
X13815180Y-14046518D01*
X13815180Y-14046518D02*
X13834228Y-14056042D01*
X13834228Y-14056042D02*
X13843752Y-14065565D01*
X13843752Y-14065565D02*
X13853276Y-14084613D01*
X13853276Y-14084613D02*
X13853276Y-14094137D01*
X13853276Y-14094137D02*
X13843752Y-14113184D01*
X13843752Y-14113184D02*
X13834228Y-14122708D01*
X13834228Y-14122708D02*
X13815180Y-14132232D01*
X13815180Y-14132232D02*
X13777085Y-14132232D01*
X13777085Y-14132232D02*
X13758038Y-14141756D01*
X13758038Y-14141756D02*
X13748514Y-14151280D01*
X13748514Y-14151280D02*
X13738990Y-14170327D01*
X13738990Y-14170327D02*
X13738990Y-14208422D01*
X13738990Y-14208422D02*
X13748514Y-14227470D01*
X13748514Y-14227470D02*
X13758038Y-14236994D01*
X13758038Y-14236994D02*
X13777085Y-14246518D01*
X13777085Y-14246518D02*
X13815180Y-14246518D01*
X13815180Y-14246518D02*
X13834228Y-14236994D01*
X13834228Y-14236994D02*
X13843752Y-14227470D01*
X13843752Y-14227470D02*
X13853276Y-14208422D01*
X13853276Y-14208422D02*
X13853276Y-14170327D01*
X13853276Y-14170327D02*
X13843752Y-14151280D01*
X13843752Y-14151280D02*
X13834228Y-14141756D01*
X13834228Y-14141756D02*
X13815180Y-14132232D01*
X13929466Y-14046518D02*
X13929466Y-14084613D01*
X14005657Y-14046518D02*
X14005657Y-14084613D01*
X14300895Y-14322708D02*
X14291371Y-14313184D01*
X14291371Y-14313184D02*
X14272323Y-14284613D01*
X14272323Y-14284613D02*
X14262800Y-14265565D01*
X14262800Y-14265565D02*
X14253276Y-14236994D01*
X14253276Y-14236994D02*
X14243752Y-14189375D01*
X14243752Y-14189375D02*
X14243752Y-14151280D01*
X14243752Y-14151280D02*
X14253276Y-14103661D01*
X14253276Y-14103661D02*
X14262800Y-14075089D01*
X14262800Y-14075089D02*
X14272323Y-14056042D01*
X14272323Y-14056042D02*
X14291371Y-14027470D01*
X14291371Y-14027470D02*
X14300895Y-14017946D01*
X14358038Y-14046518D02*
X14481847Y-14046518D01*
X14481847Y-14046518D02*
X14415180Y-14122708D01*
X14415180Y-14122708D02*
X14443752Y-14122708D01*
X14443752Y-14122708D02*
X14462800Y-14132232D01*
X14462800Y-14132232D02*
X14472323Y-14141756D01*
X14472323Y-14141756D02*
X14481847Y-14160803D01*
X14481847Y-14160803D02*
X14481847Y-14208422D01*
X14481847Y-14208422D02*
X14472323Y-14227470D01*
X14472323Y-14227470D02*
X14462800Y-14236994D01*
X14462800Y-14236994D02*
X14443752Y-14246518D01*
X14443752Y-14246518D02*
X14386609Y-14246518D01*
X14386609Y-14246518D02*
X14367561Y-14236994D01*
X14367561Y-14236994D02*
X14358038Y-14227470D01*
X14672323Y-14246518D02*
X14558038Y-14246518D01*
X14615180Y-14246518D02*
X14615180Y-14046518D01*
X14615180Y-14046518D02*
X14596133Y-14075089D01*
X14596133Y-14075089D02*
X14577085Y-14094137D01*
X14577085Y-14094137D02*
X14558038Y-14103661D01*
X14853276Y-14046518D02*
X14758038Y-14046518D01*
X14758038Y-14046518D02*
X14748514Y-14141756D01*
X14748514Y-14141756D02*
X14758038Y-14132232D01*
X14758038Y-14132232D02*
X14777085Y-14122708D01*
X14777085Y-14122708D02*
X14824704Y-14122708D01*
X14824704Y-14122708D02*
X14843752Y-14132232D01*
X14843752Y-14132232D02*
X14853276Y-14141756D01*
X14853276Y-14141756D02*
X14862800Y-14160803D01*
X14862800Y-14160803D02*
X14862800Y-14208422D01*
X14862800Y-14208422D02*
X14853276Y-14227470D01*
X14853276Y-14227470D02*
X14843752Y-14236994D01*
X14843752Y-14236994D02*
X14824704Y-14246518D01*
X14824704Y-14246518D02*
X14777085Y-14246518D01*
X14777085Y-14246518D02*
X14758038Y-14236994D01*
X14758038Y-14236994D02*
X14748514Y-14227470D01*
X15100895Y-14246518D02*
X15100895Y-14046518D01*
X15186609Y-14246518D02*
X15186609Y-14141756D01*
X15186609Y-14141756D02*
X15177085Y-14122708D01*
X15177085Y-14122708D02*
X15158038Y-14113184D01*
X15158038Y-14113184D02*
X15129466Y-14113184D01*
X15129466Y-14113184D02*
X15110419Y-14122708D01*
X15110419Y-14122708D02*
X15100895Y-14132232D01*
X15310419Y-14246518D02*
X15291371Y-14236994D01*
X15291371Y-14236994D02*
X15281847Y-14227470D01*
X15281847Y-14227470D02*
X15272323Y-14208422D01*
X15272323Y-14208422D02*
X15272323Y-14151280D01*
X15272323Y-14151280D02*
X15281847Y-14132232D01*
X15281847Y-14132232D02*
X15291371Y-14122708D01*
X15291371Y-14122708D02*
X15310419Y-14113184D01*
X15310419Y-14113184D02*
X15338990Y-14113184D01*
X15338990Y-14113184D02*
X15358038Y-14122708D01*
X15358038Y-14122708D02*
X15367562Y-14132232D01*
X15367562Y-14132232D02*
X15377085Y-14151280D01*
X15377085Y-14151280D02*
X15377085Y-14208422D01*
X15377085Y-14208422D02*
X15367562Y-14227470D01*
X15367562Y-14227470D02*
X15358038Y-14236994D01*
X15358038Y-14236994D02*
X15338990Y-14246518D01*
X15338990Y-14246518D02*
X15310419Y-14246518D01*
X15491371Y-14246518D02*
X15472323Y-14236994D01*
X15472323Y-14236994D02*
X15462800Y-14217946D01*
X15462800Y-14217946D02*
X15462800Y-14046518D01*
X15643752Y-14236994D02*
X15624704Y-14246518D01*
X15624704Y-14246518D02*
X15586609Y-14246518D01*
X15586609Y-14246518D02*
X15567562Y-14236994D01*
X15567562Y-14236994D02*
X15558038Y-14217946D01*
X15558038Y-14217946D02*
X15558038Y-14141756D01*
X15558038Y-14141756D02*
X15567562Y-14122708D01*
X15567562Y-14122708D02*
X15586609Y-14113184D01*
X15586609Y-14113184D02*
X15624704Y-14113184D01*
X15624704Y-14113184D02*
X15643752Y-14122708D01*
X15643752Y-14122708D02*
X15653276Y-14141756D01*
X15653276Y-14141756D02*
X15653276Y-14160803D01*
X15653276Y-14160803D02*
X15558038Y-14179851D01*
X15729466Y-14236994D02*
X15748514Y-14246518D01*
X15748514Y-14246518D02*
X15786609Y-14246518D01*
X15786609Y-14246518D02*
X15805657Y-14236994D01*
X15805657Y-14236994D02*
X15815181Y-14217946D01*
X15815181Y-14217946D02*
X15815181Y-14208422D01*
X15815181Y-14208422D02*
X15805657Y-14189375D01*
X15805657Y-14189375D02*
X15786609Y-14179851D01*
X15786609Y-14179851D02*
X15758038Y-14179851D01*
X15758038Y-14179851D02*
X15738990Y-14170327D01*
X15738990Y-14170327D02*
X15729466Y-14151280D01*
X15729466Y-14151280D02*
X15729466Y-14141756D01*
X15729466Y-14141756D02*
X15738990Y-14122708D01*
X15738990Y-14122708D02*
X15758038Y-14113184D01*
X15758038Y-14113184D02*
X15786609Y-14113184D01*
X15786609Y-14113184D02*
X15805657Y-14122708D01*
X15881847Y-14322708D02*
X15891371Y-14313184D01*
X15891371Y-14313184D02*
X15910419Y-14284613D01*
X15910419Y-14284613D02*
X15919943Y-14265565D01*
X15919943Y-14265565D02*
X15929466Y-14236994D01*
X15929466Y-14236994D02*
X15938990Y-14189375D01*
X15938990Y-14189375D02*
X15938990Y-14151280D01*
X15938990Y-14151280D02*
X15929466Y-14103661D01*
X15929466Y-14103661D02*
X15919943Y-14075089D01*
X15919943Y-14075089D02*
X15910419Y-14056042D01*
X15910419Y-14056042D02*
X15891371Y-14027470D01*
X15891371Y-14027470D02*
X15881847Y-14017946D01*
D10*
X10725832Y-14419034D02*
G75*
G03*
X10725832Y-14419034I-15000J0D01*
G01*
D11*
X11024704Y-14310518D02*
X11043752Y-14310518D01*
X11043752Y-14310518D02*
X11062799Y-14320042D01*
X11062799Y-14320042D02*
X11072323Y-14329565D01*
X11072323Y-14329565D02*
X11081847Y-14348613D01*
X11081847Y-14348613D02*
X11091371Y-14386708D01*
X11091371Y-14386708D02*
X11091371Y-14434327D01*
X11091371Y-14434327D02*
X11081847Y-14472422D01*
X11081847Y-14472422D02*
X11072323Y-14491470D01*
X11072323Y-14491470D02*
X11062799Y-14500994D01*
X11062799Y-14500994D02*
X11043752Y-14510518D01*
X11043752Y-14510518D02*
X11024704Y-14510518D01*
X11024704Y-14510518D02*
X11005656Y-14500994D01*
X11005656Y-14500994D02*
X10996133Y-14491470D01*
X10996133Y-14491470D02*
X10986609Y-14472422D01*
X10986609Y-14472422D02*
X10977085Y-14434327D01*
X10977085Y-14434327D02*
X10977085Y-14386708D01*
X10977085Y-14386708D02*
X10986609Y-14348613D01*
X10986609Y-14348613D02*
X10996133Y-14329565D01*
X10996133Y-14329565D02*
X11005656Y-14320042D01*
X11005656Y-14320042D02*
X11024704Y-14310518D01*
X11177085Y-14491470D02*
X11186609Y-14500994D01*
X11186609Y-14500994D02*
X11177085Y-14510518D01*
X11177085Y-14510518D02*
X11167561Y-14500994D01*
X11167561Y-14500994D02*
X11177085Y-14491470D01*
X11177085Y-14491470D02*
X11177085Y-14510518D01*
X11253275Y-14310518D02*
X11377085Y-14310518D01*
X11377085Y-14310518D02*
X11310418Y-14386708D01*
X11310418Y-14386708D02*
X11338990Y-14386708D01*
X11338990Y-14386708D02*
X11358037Y-14396232D01*
X11358037Y-14396232D02*
X11367561Y-14405756D01*
X11367561Y-14405756D02*
X11377085Y-14424803D01*
X11377085Y-14424803D02*
X11377085Y-14472422D01*
X11377085Y-14472422D02*
X11367561Y-14491470D01*
X11367561Y-14491470D02*
X11358037Y-14500994D01*
X11358037Y-14500994D02*
X11338990Y-14510518D01*
X11338990Y-14510518D02*
X11281847Y-14510518D01*
X11281847Y-14510518D02*
X11262799Y-14500994D01*
X11262799Y-14500994D02*
X11253275Y-14491470D01*
X11500894Y-14310518D02*
X11519942Y-14310518D01*
X11519942Y-14310518D02*
X11538990Y-14320042D01*
X11538990Y-14320042D02*
X11548514Y-14329565D01*
X11548514Y-14329565D02*
X11558037Y-14348613D01*
X11558037Y-14348613D02*
X11567561Y-14386708D01*
X11567561Y-14386708D02*
X11567561Y-14434327D01*
X11567561Y-14434327D02*
X11558037Y-14472422D01*
X11558037Y-14472422D02*
X11548514Y-14491470D01*
X11548514Y-14491470D02*
X11538990Y-14500994D01*
X11538990Y-14500994D02*
X11519942Y-14510518D01*
X11519942Y-14510518D02*
X11500894Y-14510518D01*
X11500894Y-14510518D02*
X11481847Y-14500994D01*
X11481847Y-14500994D02*
X11472323Y-14491470D01*
X11472323Y-14491470D02*
X11462799Y-14472422D01*
X11462799Y-14472422D02*
X11453275Y-14434327D01*
X11453275Y-14434327D02*
X11453275Y-14386708D01*
X11453275Y-14386708D02*
X11462799Y-14348613D01*
X11462799Y-14348613D02*
X11472323Y-14329565D01*
X11472323Y-14329565D02*
X11481847Y-14320042D01*
X11481847Y-14320042D02*
X11500894Y-14310518D01*
X11691371Y-14310518D02*
X11710418Y-14310518D01*
X11710418Y-14310518D02*
X11729466Y-14320042D01*
X11729466Y-14320042D02*
X11738990Y-14329565D01*
X11738990Y-14329565D02*
X11748514Y-14348613D01*
X11748514Y-14348613D02*
X11758037Y-14386708D01*
X11758037Y-14386708D02*
X11758037Y-14434327D01*
X11758037Y-14434327D02*
X11748514Y-14472422D01*
X11748514Y-14472422D02*
X11738990Y-14491470D01*
X11738990Y-14491470D02*
X11729466Y-14500994D01*
X11729466Y-14500994D02*
X11710418Y-14510518D01*
X11710418Y-14510518D02*
X11691371Y-14510518D01*
X11691371Y-14510518D02*
X11672323Y-14500994D01*
X11672323Y-14500994D02*
X11662799Y-14491470D01*
X11662799Y-14491470D02*
X11653275Y-14472422D01*
X11653275Y-14472422D02*
X11643752Y-14434327D01*
X11643752Y-14434327D02*
X11643752Y-14386708D01*
X11643752Y-14386708D02*
X11653275Y-14348613D01*
X11653275Y-14348613D02*
X11662799Y-14329565D01*
X11662799Y-14329565D02*
X11672323Y-14320042D01*
X11672323Y-14320042D02*
X11691371Y-14310518D01*
X11843752Y-14510518D02*
X11843752Y-14377184D01*
X11843752Y-14396232D02*
X11853275Y-14386708D01*
X11853275Y-14386708D02*
X11872323Y-14377184D01*
X11872323Y-14377184D02*
X11900895Y-14377184D01*
X11900895Y-14377184D02*
X11919942Y-14386708D01*
X11919942Y-14386708D02*
X11929466Y-14405756D01*
X11929466Y-14405756D02*
X11929466Y-14510518D01*
X11929466Y-14405756D02*
X11938990Y-14386708D01*
X11938990Y-14386708D02*
X11958037Y-14377184D01*
X11958037Y-14377184D02*
X11986609Y-14377184D01*
X11986609Y-14377184D02*
X12005656Y-14386708D01*
X12005656Y-14386708D02*
X12015180Y-14405756D01*
X12015180Y-14405756D02*
X12015180Y-14510518D01*
X12110418Y-14510518D02*
X12110418Y-14377184D01*
X12110418Y-14396232D02*
X12119942Y-14386708D01*
X12119942Y-14386708D02*
X12138990Y-14377184D01*
X12138990Y-14377184D02*
X12167561Y-14377184D01*
X12167561Y-14377184D02*
X12186609Y-14386708D01*
X12186609Y-14386708D02*
X12196133Y-14405756D01*
X12196133Y-14405756D02*
X12196133Y-14510518D01*
X12196133Y-14405756D02*
X12205656Y-14386708D01*
X12205656Y-14386708D02*
X12224704Y-14377184D01*
X12224704Y-14377184D02*
X12253275Y-14377184D01*
X12253275Y-14377184D02*
X12272323Y-14386708D01*
X12272323Y-14386708D02*
X12281847Y-14405756D01*
X12281847Y-14405756D02*
X12281847Y-14510518D01*
X12672323Y-14300994D02*
X12500895Y-14558137D01*
X12929466Y-14310518D02*
X12948514Y-14310518D01*
X12948514Y-14310518D02*
X12967561Y-14320042D01*
X12967561Y-14320042D02*
X12977085Y-14329565D01*
X12977085Y-14329565D02*
X12986609Y-14348613D01*
X12986609Y-14348613D02*
X12996133Y-14386708D01*
X12996133Y-14386708D02*
X12996133Y-14434327D01*
X12996133Y-14434327D02*
X12986609Y-14472422D01*
X12986609Y-14472422D02*
X12977085Y-14491470D01*
X12977085Y-14491470D02*
X12967561Y-14500994D01*
X12967561Y-14500994D02*
X12948514Y-14510518D01*
X12948514Y-14510518D02*
X12929466Y-14510518D01*
X12929466Y-14510518D02*
X12910418Y-14500994D01*
X12910418Y-14500994D02*
X12900895Y-14491470D01*
X12900895Y-14491470D02*
X12891371Y-14472422D01*
X12891371Y-14472422D02*
X12881847Y-14434327D01*
X12881847Y-14434327D02*
X12881847Y-14386708D01*
X12881847Y-14386708D02*
X12891371Y-14348613D01*
X12891371Y-14348613D02*
X12900895Y-14329565D01*
X12900895Y-14329565D02*
X12910418Y-14320042D01*
X12910418Y-14320042D02*
X12929466Y-14310518D01*
X13081847Y-14491470D02*
X13091371Y-14500994D01*
X13091371Y-14500994D02*
X13081847Y-14510518D01*
X13081847Y-14510518D02*
X13072323Y-14500994D01*
X13072323Y-14500994D02*
X13081847Y-14491470D01*
X13081847Y-14491470D02*
X13081847Y-14510518D01*
X13215180Y-14310518D02*
X13234228Y-14310518D01*
X13234228Y-14310518D02*
X13253276Y-14320042D01*
X13253276Y-14320042D02*
X13262799Y-14329565D01*
X13262799Y-14329565D02*
X13272323Y-14348613D01*
X13272323Y-14348613D02*
X13281847Y-14386708D01*
X13281847Y-14386708D02*
X13281847Y-14434327D01*
X13281847Y-14434327D02*
X13272323Y-14472422D01*
X13272323Y-14472422D02*
X13262799Y-14491470D01*
X13262799Y-14491470D02*
X13253276Y-14500994D01*
X13253276Y-14500994D02*
X13234228Y-14510518D01*
X13234228Y-14510518D02*
X13215180Y-14510518D01*
X13215180Y-14510518D02*
X13196133Y-14500994D01*
X13196133Y-14500994D02*
X13186609Y-14491470D01*
X13186609Y-14491470D02*
X13177085Y-14472422D01*
X13177085Y-14472422D02*
X13167561Y-14434327D01*
X13167561Y-14434327D02*
X13167561Y-14386708D01*
X13167561Y-14386708D02*
X13177085Y-14348613D01*
X13177085Y-14348613D02*
X13186609Y-14329565D01*
X13186609Y-14329565D02*
X13196133Y-14320042D01*
X13196133Y-14320042D02*
X13215180Y-14310518D01*
X13472323Y-14510518D02*
X13358038Y-14510518D01*
X13415180Y-14510518D02*
X13415180Y-14310518D01*
X13415180Y-14310518D02*
X13396133Y-14339089D01*
X13396133Y-14339089D02*
X13377085Y-14358137D01*
X13377085Y-14358137D02*
X13358038Y-14367661D01*
X13662799Y-14510518D02*
X13548514Y-14510518D01*
X13605657Y-14510518D02*
X13605657Y-14310518D01*
X13605657Y-14310518D02*
X13586609Y-14339089D01*
X13586609Y-14339089D02*
X13567561Y-14358137D01*
X13567561Y-14358137D02*
X13548514Y-14367661D01*
X13777085Y-14396232D02*
X13758038Y-14386708D01*
X13758038Y-14386708D02*
X13748514Y-14377184D01*
X13748514Y-14377184D02*
X13738990Y-14358137D01*
X13738990Y-14358137D02*
X13738990Y-14348613D01*
X13738990Y-14348613D02*
X13748514Y-14329565D01*
X13748514Y-14329565D02*
X13758038Y-14320042D01*
X13758038Y-14320042D02*
X13777085Y-14310518D01*
X13777085Y-14310518D02*
X13815180Y-14310518D01*
X13815180Y-14310518D02*
X13834228Y-14320042D01*
X13834228Y-14320042D02*
X13843752Y-14329565D01*
X13843752Y-14329565D02*
X13853276Y-14348613D01*
X13853276Y-14348613D02*
X13853276Y-14358137D01*
X13853276Y-14358137D02*
X13843752Y-14377184D01*
X13843752Y-14377184D02*
X13834228Y-14386708D01*
X13834228Y-14386708D02*
X13815180Y-14396232D01*
X13815180Y-14396232D02*
X13777085Y-14396232D01*
X13777085Y-14396232D02*
X13758038Y-14405756D01*
X13758038Y-14405756D02*
X13748514Y-14415280D01*
X13748514Y-14415280D02*
X13738990Y-14434327D01*
X13738990Y-14434327D02*
X13738990Y-14472422D01*
X13738990Y-14472422D02*
X13748514Y-14491470D01*
X13748514Y-14491470D02*
X13758038Y-14500994D01*
X13758038Y-14500994D02*
X13777085Y-14510518D01*
X13777085Y-14510518D02*
X13815180Y-14510518D01*
X13815180Y-14510518D02*
X13834228Y-14500994D01*
X13834228Y-14500994D02*
X13843752Y-14491470D01*
X13843752Y-14491470D02*
X13853276Y-14472422D01*
X13853276Y-14472422D02*
X13853276Y-14434327D01*
X13853276Y-14434327D02*
X13843752Y-14415280D01*
X13843752Y-14415280D02*
X13834228Y-14405756D01*
X13834228Y-14405756D02*
X13815180Y-14396232D01*
X13929466Y-14310518D02*
X13929466Y-14348613D01*
X14005657Y-14310518D02*
X14005657Y-14348613D01*
X14300895Y-14586708D02*
X14291371Y-14577184D01*
X14291371Y-14577184D02*
X14272323Y-14548613D01*
X14272323Y-14548613D02*
X14262800Y-14529565D01*
X14262800Y-14529565D02*
X14253276Y-14500994D01*
X14253276Y-14500994D02*
X14243752Y-14453375D01*
X14243752Y-14453375D02*
X14243752Y-14415280D01*
X14243752Y-14415280D02*
X14253276Y-14367661D01*
X14253276Y-14367661D02*
X14262800Y-14339089D01*
X14262800Y-14339089D02*
X14272323Y-14320042D01*
X14272323Y-14320042D02*
X14291371Y-14291470D01*
X14291371Y-14291470D02*
X14300895Y-14281946D01*
X14481847Y-14510518D02*
X14367561Y-14510518D01*
X14424704Y-14510518D02*
X14424704Y-14310518D01*
X14424704Y-14310518D02*
X14405657Y-14339089D01*
X14405657Y-14339089D02*
X14386609Y-14358137D01*
X14386609Y-14358137D02*
X14367561Y-14367661D01*
X14548514Y-14310518D02*
X14672323Y-14310518D01*
X14672323Y-14310518D02*
X14605657Y-14386708D01*
X14605657Y-14386708D02*
X14634228Y-14386708D01*
X14634228Y-14386708D02*
X14653276Y-14396232D01*
X14653276Y-14396232D02*
X14662800Y-14405756D01*
X14662800Y-14405756D02*
X14672323Y-14424803D01*
X14672323Y-14424803D02*
X14672323Y-14472422D01*
X14672323Y-14472422D02*
X14662800Y-14491470D01*
X14662800Y-14491470D02*
X14653276Y-14500994D01*
X14653276Y-14500994D02*
X14634228Y-14510518D01*
X14634228Y-14510518D02*
X14577085Y-14510518D01*
X14577085Y-14510518D02*
X14558038Y-14500994D01*
X14558038Y-14500994D02*
X14548514Y-14491470D01*
X14910419Y-14510518D02*
X14910419Y-14310518D01*
X14996133Y-14510518D02*
X14996133Y-14405756D01*
X14996133Y-14405756D02*
X14986609Y-14386708D01*
X14986609Y-14386708D02*
X14967562Y-14377184D01*
X14967562Y-14377184D02*
X14938990Y-14377184D01*
X14938990Y-14377184D02*
X14919942Y-14386708D01*
X14919942Y-14386708D02*
X14910419Y-14396232D01*
X15119942Y-14510518D02*
X15100895Y-14500994D01*
X15100895Y-14500994D02*
X15091371Y-14491470D01*
X15091371Y-14491470D02*
X15081847Y-14472422D01*
X15081847Y-14472422D02*
X15081847Y-14415280D01*
X15081847Y-14415280D02*
X15091371Y-14396232D01*
X15091371Y-14396232D02*
X15100895Y-14386708D01*
X15100895Y-14386708D02*
X15119942Y-14377184D01*
X15119942Y-14377184D02*
X15148514Y-14377184D01*
X15148514Y-14377184D02*
X15167562Y-14386708D01*
X15167562Y-14386708D02*
X15177085Y-14396232D01*
X15177085Y-14396232D02*
X15186609Y-14415280D01*
X15186609Y-14415280D02*
X15186609Y-14472422D01*
X15186609Y-14472422D02*
X15177085Y-14491470D01*
X15177085Y-14491470D02*
X15167562Y-14500994D01*
X15167562Y-14500994D02*
X15148514Y-14510518D01*
X15148514Y-14510518D02*
X15119942Y-14510518D01*
X15300895Y-14510518D02*
X15281847Y-14500994D01*
X15281847Y-14500994D02*
X15272323Y-14481946D01*
X15272323Y-14481946D02*
X15272323Y-14310518D01*
X15453276Y-14500994D02*
X15434228Y-14510518D01*
X15434228Y-14510518D02*
X15396133Y-14510518D01*
X15396133Y-14510518D02*
X15377085Y-14500994D01*
X15377085Y-14500994D02*
X15367562Y-14481946D01*
X15367562Y-14481946D02*
X15367562Y-14405756D01*
X15367562Y-14405756D02*
X15377085Y-14386708D01*
X15377085Y-14386708D02*
X15396133Y-14377184D01*
X15396133Y-14377184D02*
X15434228Y-14377184D01*
X15434228Y-14377184D02*
X15453276Y-14386708D01*
X15453276Y-14386708D02*
X15462800Y-14405756D01*
X15462800Y-14405756D02*
X15462800Y-14424803D01*
X15462800Y-14424803D02*
X15367562Y-14443851D01*
X15538990Y-14500994D02*
X15558038Y-14510518D01*
X15558038Y-14510518D02*
X15596133Y-14510518D01*
X15596133Y-14510518D02*
X15615181Y-14500994D01*
X15615181Y-14500994D02*
X15624704Y-14481946D01*
X15624704Y-14481946D02*
X15624704Y-14472422D01*
X15624704Y-14472422D02*
X15615181Y-14453375D01*
X15615181Y-14453375D02*
X15596133Y-14443851D01*
X15596133Y-14443851D02*
X15567562Y-14443851D01*
X15567562Y-14443851D02*
X15548514Y-14434327D01*
X15548514Y-14434327D02*
X15538990Y-14415280D01*
X15538990Y-14415280D02*
X15538990Y-14405756D01*
X15538990Y-14405756D02*
X15548514Y-14386708D01*
X15548514Y-14386708D02*
X15567562Y-14377184D01*
X15567562Y-14377184D02*
X15596133Y-14377184D01*
X15596133Y-14377184D02*
X15615181Y-14386708D01*
X15691371Y-14586708D02*
X15700895Y-14577184D01*
X15700895Y-14577184D02*
X15719943Y-14548613D01*
X15719943Y-14548613D02*
X15729466Y-14529565D01*
X15729466Y-14529565D02*
X15738990Y-14500994D01*
X15738990Y-14500994D02*
X15748514Y-14453375D01*
X15748514Y-14453375D02*
X15748514Y-14415280D01*
X15748514Y-14415280D02*
X15738990Y-14367661D01*
X15738990Y-14367661D02*
X15729466Y-14339089D01*
X15729466Y-14339089D02*
X15719943Y-14320042D01*
X15719943Y-14320042D02*
X15700895Y-14291470D01*
X15700895Y-14291470D02*
X15691371Y-14281946D01*
D10*
X10695832Y-14653034D02*
X10695832Y-14713034D01*
X10665832Y-14683034D02*
X10725832Y-14683034D01*
D11*
X11024704Y-14574518D02*
X11043752Y-14574518D01*
X11043752Y-14574518D02*
X11062799Y-14584042D01*
X11062799Y-14584042D02*
X11072323Y-14593565D01*
X11072323Y-14593565D02*
X11081847Y-14612613D01*
X11081847Y-14612613D02*
X11091371Y-14650708D01*
X11091371Y-14650708D02*
X11091371Y-14698327D01*
X11091371Y-14698327D02*
X11081847Y-14736422D01*
X11081847Y-14736422D02*
X11072323Y-14755470D01*
X11072323Y-14755470D02*
X11062799Y-14764994D01*
X11062799Y-14764994D02*
X11043752Y-14774518D01*
X11043752Y-14774518D02*
X11024704Y-14774518D01*
X11024704Y-14774518D02*
X11005656Y-14764994D01*
X11005656Y-14764994D02*
X10996133Y-14755470D01*
X10996133Y-14755470D02*
X10986609Y-14736422D01*
X10986609Y-14736422D02*
X10977085Y-14698327D01*
X10977085Y-14698327D02*
X10977085Y-14650708D01*
X10977085Y-14650708D02*
X10986609Y-14612613D01*
X10986609Y-14612613D02*
X10996133Y-14593565D01*
X10996133Y-14593565D02*
X11005656Y-14584042D01*
X11005656Y-14584042D02*
X11024704Y-14574518D01*
X11177085Y-14755470D02*
X11186609Y-14764994D01*
X11186609Y-14764994D02*
X11177085Y-14774518D01*
X11177085Y-14774518D02*
X11167561Y-14764994D01*
X11167561Y-14764994D02*
X11177085Y-14755470D01*
X11177085Y-14755470D02*
X11177085Y-14774518D01*
X11358037Y-14574518D02*
X11319942Y-14574518D01*
X11319942Y-14574518D02*
X11300894Y-14584042D01*
X11300894Y-14584042D02*
X11291371Y-14593565D01*
X11291371Y-14593565D02*
X11272323Y-14622137D01*
X11272323Y-14622137D02*
X11262799Y-14660232D01*
X11262799Y-14660232D02*
X11262799Y-14736422D01*
X11262799Y-14736422D02*
X11272323Y-14755470D01*
X11272323Y-14755470D02*
X11281847Y-14764994D01*
X11281847Y-14764994D02*
X11300894Y-14774518D01*
X11300894Y-14774518D02*
X11338990Y-14774518D01*
X11338990Y-14774518D02*
X11358037Y-14764994D01*
X11358037Y-14764994D02*
X11367561Y-14755470D01*
X11367561Y-14755470D02*
X11377085Y-14736422D01*
X11377085Y-14736422D02*
X11377085Y-14688803D01*
X11377085Y-14688803D02*
X11367561Y-14669756D01*
X11367561Y-14669756D02*
X11358037Y-14660232D01*
X11358037Y-14660232D02*
X11338990Y-14650708D01*
X11338990Y-14650708D02*
X11300894Y-14650708D01*
X11300894Y-14650708D02*
X11281847Y-14660232D01*
X11281847Y-14660232D02*
X11272323Y-14669756D01*
X11272323Y-14669756D02*
X11262799Y-14688803D01*
X11500894Y-14574518D02*
X11519942Y-14574518D01*
X11519942Y-14574518D02*
X11538990Y-14584042D01*
X11538990Y-14584042D02*
X11548514Y-14593565D01*
X11548514Y-14593565D02*
X11558037Y-14612613D01*
X11558037Y-14612613D02*
X11567561Y-14650708D01*
X11567561Y-14650708D02*
X11567561Y-14698327D01*
X11567561Y-14698327D02*
X11558037Y-14736422D01*
X11558037Y-14736422D02*
X11548514Y-14755470D01*
X11548514Y-14755470D02*
X11538990Y-14764994D01*
X11538990Y-14764994D02*
X11519942Y-14774518D01*
X11519942Y-14774518D02*
X11500894Y-14774518D01*
X11500894Y-14774518D02*
X11481847Y-14764994D01*
X11481847Y-14764994D02*
X11472323Y-14755470D01*
X11472323Y-14755470D02*
X11462799Y-14736422D01*
X11462799Y-14736422D02*
X11453275Y-14698327D01*
X11453275Y-14698327D02*
X11453275Y-14650708D01*
X11453275Y-14650708D02*
X11462799Y-14612613D01*
X11462799Y-14612613D02*
X11472323Y-14593565D01*
X11472323Y-14593565D02*
X11481847Y-14584042D01*
X11481847Y-14584042D02*
X11500894Y-14574518D01*
X11691371Y-14574518D02*
X11710418Y-14574518D01*
X11710418Y-14574518D02*
X11729466Y-14584042D01*
X11729466Y-14584042D02*
X11738990Y-14593565D01*
X11738990Y-14593565D02*
X11748514Y-14612613D01*
X11748514Y-14612613D02*
X11758037Y-14650708D01*
X11758037Y-14650708D02*
X11758037Y-14698327D01*
X11758037Y-14698327D02*
X11748514Y-14736422D01*
X11748514Y-14736422D02*
X11738990Y-14755470D01*
X11738990Y-14755470D02*
X11729466Y-14764994D01*
X11729466Y-14764994D02*
X11710418Y-14774518D01*
X11710418Y-14774518D02*
X11691371Y-14774518D01*
X11691371Y-14774518D02*
X11672323Y-14764994D01*
X11672323Y-14764994D02*
X11662799Y-14755470D01*
X11662799Y-14755470D02*
X11653275Y-14736422D01*
X11653275Y-14736422D02*
X11643752Y-14698327D01*
X11643752Y-14698327D02*
X11643752Y-14650708D01*
X11643752Y-14650708D02*
X11653275Y-14612613D01*
X11653275Y-14612613D02*
X11662799Y-14593565D01*
X11662799Y-14593565D02*
X11672323Y-14584042D01*
X11672323Y-14584042D02*
X11691371Y-14574518D01*
X11843752Y-14774518D02*
X11843752Y-14641184D01*
X11843752Y-14660232D02*
X11853275Y-14650708D01*
X11853275Y-14650708D02*
X11872323Y-14641184D01*
X11872323Y-14641184D02*
X11900895Y-14641184D01*
X11900895Y-14641184D02*
X11919942Y-14650708D01*
X11919942Y-14650708D02*
X11929466Y-14669756D01*
X11929466Y-14669756D02*
X11929466Y-14774518D01*
X11929466Y-14669756D02*
X11938990Y-14650708D01*
X11938990Y-14650708D02*
X11958037Y-14641184D01*
X11958037Y-14641184D02*
X11986609Y-14641184D01*
X11986609Y-14641184D02*
X12005656Y-14650708D01*
X12005656Y-14650708D02*
X12015180Y-14669756D01*
X12015180Y-14669756D02*
X12015180Y-14774518D01*
X12110418Y-14774518D02*
X12110418Y-14641184D01*
X12110418Y-14660232D02*
X12119942Y-14650708D01*
X12119942Y-14650708D02*
X12138990Y-14641184D01*
X12138990Y-14641184D02*
X12167561Y-14641184D01*
X12167561Y-14641184D02*
X12186609Y-14650708D01*
X12186609Y-14650708D02*
X12196133Y-14669756D01*
X12196133Y-14669756D02*
X12196133Y-14774518D01*
X12196133Y-14669756D02*
X12205656Y-14650708D01*
X12205656Y-14650708D02*
X12224704Y-14641184D01*
X12224704Y-14641184D02*
X12253275Y-14641184D01*
X12253275Y-14641184D02*
X12272323Y-14650708D01*
X12272323Y-14650708D02*
X12281847Y-14669756D01*
X12281847Y-14669756D02*
X12281847Y-14774518D01*
X12672323Y-14564994D02*
X12500895Y-14822137D01*
X12929466Y-14574518D02*
X12948514Y-14574518D01*
X12948514Y-14574518D02*
X12967561Y-14584042D01*
X12967561Y-14584042D02*
X12977085Y-14593565D01*
X12977085Y-14593565D02*
X12986609Y-14612613D01*
X12986609Y-14612613D02*
X12996133Y-14650708D01*
X12996133Y-14650708D02*
X12996133Y-14698327D01*
X12996133Y-14698327D02*
X12986609Y-14736422D01*
X12986609Y-14736422D02*
X12977085Y-14755470D01*
X12977085Y-14755470D02*
X12967561Y-14764994D01*
X12967561Y-14764994D02*
X12948514Y-14774518D01*
X12948514Y-14774518D02*
X12929466Y-14774518D01*
X12929466Y-14774518D02*
X12910418Y-14764994D01*
X12910418Y-14764994D02*
X12900895Y-14755470D01*
X12900895Y-14755470D02*
X12891371Y-14736422D01*
X12891371Y-14736422D02*
X12881847Y-14698327D01*
X12881847Y-14698327D02*
X12881847Y-14650708D01*
X12881847Y-14650708D02*
X12891371Y-14612613D01*
X12891371Y-14612613D02*
X12900895Y-14593565D01*
X12900895Y-14593565D02*
X12910418Y-14584042D01*
X12910418Y-14584042D02*
X12929466Y-14574518D01*
X13081847Y-14755470D02*
X13091371Y-14764994D01*
X13091371Y-14764994D02*
X13081847Y-14774518D01*
X13081847Y-14774518D02*
X13072323Y-14764994D01*
X13072323Y-14764994D02*
X13081847Y-14755470D01*
X13081847Y-14755470D02*
X13081847Y-14774518D01*
X13215180Y-14574518D02*
X13234228Y-14574518D01*
X13234228Y-14574518D02*
X13253276Y-14584042D01*
X13253276Y-14584042D02*
X13262799Y-14593565D01*
X13262799Y-14593565D02*
X13272323Y-14612613D01*
X13272323Y-14612613D02*
X13281847Y-14650708D01*
X13281847Y-14650708D02*
X13281847Y-14698327D01*
X13281847Y-14698327D02*
X13272323Y-14736422D01*
X13272323Y-14736422D02*
X13262799Y-14755470D01*
X13262799Y-14755470D02*
X13253276Y-14764994D01*
X13253276Y-14764994D02*
X13234228Y-14774518D01*
X13234228Y-14774518D02*
X13215180Y-14774518D01*
X13215180Y-14774518D02*
X13196133Y-14764994D01*
X13196133Y-14764994D02*
X13186609Y-14755470D01*
X13186609Y-14755470D02*
X13177085Y-14736422D01*
X13177085Y-14736422D02*
X13167561Y-14698327D01*
X13167561Y-14698327D02*
X13167561Y-14650708D01*
X13167561Y-14650708D02*
X13177085Y-14612613D01*
X13177085Y-14612613D02*
X13186609Y-14593565D01*
X13186609Y-14593565D02*
X13196133Y-14584042D01*
X13196133Y-14584042D02*
X13215180Y-14574518D01*
X13358038Y-14593565D02*
X13367561Y-14584042D01*
X13367561Y-14584042D02*
X13386609Y-14574518D01*
X13386609Y-14574518D02*
X13434228Y-14574518D01*
X13434228Y-14574518D02*
X13453276Y-14584042D01*
X13453276Y-14584042D02*
X13462799Y-14593565D01*
X13462799Y-14593565D02*
X13472323Y-14612613D01*
X13472323Y-14612613D02*
X13472323Y-14631661D01*
X13472323Y-14631661D02*
X13462799Y-14660232D01*
X13462799Y-14660232D02*
X13348514Y-14774518D01*
X13348514Y-14774518D02*
X13472323Y-14774518D01*
X13538990Y-14574518D02*
X13662799Y-14574518D01*
X13662799Y-14574518D02*
X13596133Y-14650708D01*
X13596133Y-14650708D02*
X13624704Y-14650708D01*
X13624704Y-14650708D02*
X13643752Y-14660232D01*
X13643752Y-14660232D02*
X13653276Y-14669756D01*
X13653276Y-14669756D02*
X13662799Y-14688803D01*
X13662799Y-14688803D02*
X13662799Y-14736422D01*
X13662799Y-14736422D02*
X13653276Y-14755470D01*
X13653276Y-14755470D02*
X13643752Y-14764994D01*
X13643752Y-14764994D02*
X13624704Y-14774518D01*
X13624704Y-14774518D02*
X13567561Y-14774518D01*
X13567561Y-14774518D02*
X13548514Y-14764994D01*
X13548514Y-14764994D02*
X13538990Y-14755470D01*
X13834228Y-14574518D02*
X13796133Y-14574518D01*
X13796133Y-14574518D02*
X13777085Y-14584042D01*
X13777085Y-14584042D02*
X13767561Y-14593565D01*
X13767561Y-14593565D02*
X13748514Y-14622137D01*
X13748514Y-14622137D02*
X13738990Y-14660232D01*
X13738990Y-14660232D02*
X13738990Y-14736422D01*
X13738990Y-14736422D02*
X13748514Y-14755470D01*
X13748514Y-14755470D02*
X13758038Y-14764994D01*
X13758038Y-14764994D02*
X13777085Y-14774518D01*
X13777085Y-14774518D02*
X13815180Y-14774518D01*
X13815180Y-14774518D02*
X13834228Y-14764994D01*
X13834228Y-14764994D02*
X13843752Y-14755470D01*
X13843752Y-14755470D02*
X13853276Y-14736422D01*
X13853276Y-14736422D02*
X13853276Y-14688803D01*
X13853276Y-14688803D02*
X13843752Y-14669756D01*
X13843752Y-14669756D02*
X13834228Y-14660232D01*
X13834228Y-14660232D02*
X13815180Y-14650708D01*
X13815180Y-14650708D02*
X13777085Y-14650708D01*
X13777085Y-14650708D02*
X13758038Y-14660232D01*
X13758038Y-14660232D02*
X13748514Y-14669756D01*
X13748514Y-14669756D02*
X13738990Y-14688803D01*
X13929466Y-14574518D02*
X13929466Y-14612613D01*
X14005657Y-14574518D02*
X14005657Y-14612613D01*
X14300895Y-14850708D02*
X14291371Y-14841184D01*
X14291371Y-14841184D02*
X14272323Y-14812613D01*
X14272323Y-14812613D02*
X14262800Y-14793565D01*
X14262800Y-14793565D02*
X14253276Y-14764994D01*
X14253276Y-14764994D02*
X14243752Y-14717375D01*
X14243752Y-14717375D02*
X14243752Y-14679280D01*
X14243752Y-14679280D02*
X14253276Y-14631661D01*
X14253276Y-14631661D02*
X14262800Y-14603089D01*
X14262800Y-14603089D02*
X14272323Y-14584042D01*
X14272323Y-14584042D02*
X14291371Y-14555470D01*
X14291371Y-14555470D02*
X14300895Y-14545946D01*
X14367561Y-14593565D02*
X14377085Y-14584042D01*
X14377085Y-14584042D02*
X14396133Y-14574518D01*
X14396133Y-14574518D02*
X14443752Y-14574518D01*
X14443752Y-14574518D02*
X14462800Y-14584042D01*
X14462800Y-14584042D02*
X14472323Y-14593565D01*
X14472323Y-14593565D02*
X14481847Y-14612613D01*
X14481847Y-14612613D02*
X14481847Y-14631661D01*
X14481847Y-14631661D02*
X14472323Y-14660232D01*
X14472323Y-14660232D02*
X14358038Y-14774518D01*
X14358038Y-14774518D02*
X14481847Y-14774518D01*
X14719942Y-14774518D02*
X14719942Y-14574518D01*
X14805657Y-14774518D02*
X14805657Y-14669756D01*
X14805657Y-14669756D02*
X14796133Y-14650708D01*
X14796133Y-14650708D02*
X14777085Y-14641184D01*
X14777085Y-14641184D02*
X14748514Y-14641184D01*
X14748514Y-14641184D02*
X14729466Y-14650708D01*
X14729466Y-14650708D02*
X14719942Y-14660232D01*
X14929466Y-14774518D02*
X14910419Y-14764994D01*
X14910419Y-14764994D02*
X14900895Y-14755470D01*
X14900895Y-14755470D02*
X14891371Y-14736422D01*
X14891371Y-14736422D02*
X14891371Y-14679280D01*
X14891371Y-14679280D02*
X14900895Y-14660232D01*
X14900895Y-14660232D02*
X14910419Y-14650708D01*
X14910419Y-14650708D02*
X14929466Y-14641184D01*
X14929466Y-14641184D02*
X14958038Y-14641184D01*
X14958038Y-14641184D02*
X14977085Y-14650708D01*
X14977085Y-14650708D02*
X14986609Y-14660232D01*
X14986609Y-14660232D02*
X14996133Y-14679280D01*
X14996133Y-14679280D02*
X14996133Y-14736422D01*
X14996133Y-14736422D02*
X14986609Y-14755470D01*
X14986609Y-14755470D02*
X14977085Y-14764994D01*
X14977085Y-14764994D02*
X14958038Y-14774518D01*
X14958038Y-14774518D02*
X14929466Y-14774518D01*
X15110419Y-14774518D02*
X15091371Y-14764994D01*
X15091371Y-14764994D02*
X15081847Y-14745946D01*
X15081847Y-14745946D02*
X15081847Y-14574518D01*
X15262800Y-14764994D02*
X15243752Y-14774518D01*
X15243752Y-14774518D02*
X15205657Y-14774518D01*
X15205657Y-14774518D02*
X15186609Y-14764994D01*
X15186609Y-14764994D02*
X15177085Y-14745946D01*
X15177085Y-14745946D02*
X15177085Y-14669756D01*
X15177085Y-14669756D02*
X15186609Y-14650708D01*
X15186609Y-14650708D02*
X15205657Y-14641184D01*
X15205657Y-14641184D02*
X15243752Y-14641184D01*
X15243752Y-14641184D02*
X15262800Y-14650708D01*
X15262800Y-14650708D02*
X15272323Y-14669756D01*
X15272323Y-14669756D02*
X15272323Y-14688803D01*
X15272323Y-14688803D02*
X15177085Y-14707851D01*
X15348514Y-14764994D02*
X15367562Y-14774518D01*
X15367562Y-14774518D02*
X15405657Y-14774518D01*
X15405657Y-14774518D02*
X15424704Y-14764994D01*
X15424704Y-14764994D02*
X15434228Y-14745946D01*
X15434228Y-14745946D02*
X15434228Y-14736422D01*
X15434228Y-14736422D02*
X15424704Y-14717375D01*
X15424704Y-14717375D02*
X15405657Y-14707851D01*
X15405657Y-14707851D02*
X15377085Y-14707851D01*
X15377085Y-14707851D02*
X15358038Y-14698327D01*
X15358038Y-14698327D02*
X15348514Y-14679280D01*
X15348514Y-14679280D02*
X15348514Y-14669756D01*
X15348514Y-14669756D02*
X15358038Y-14650708D01*
X15358038Y-14650708D02*
X15377085Y-14641184D01*
X15377085Y-14641184D02*
X15405657Y-14641184D01*
X15405657Y-14641184D02*
X15424704Y-14650708D01*
X15672324Y-14698327D02*
X15824705Y-14698327D01*
X15748514Y-14774518D02*
X15748514Y-14622137D01*
X16177085Y-14774518D02*
X16062800Y-14774518D01*
X16119943Y-14774518D02*
X16119943Y-14574518D01*
X16119943Y-14574518D02*
X16100895Y-14603089D01*
X16100895Y-14603089D02*
X16081847Y-14622137D01*
X16081847Y-14622137D02*
X16062800Y-14631661D01*
X16405657Y-14764994D02*
X16424705Y-14774518D01*
X16424705Y-14774518D02*
X16462800Y-14774518D01*
X16462800Y-14774518D02*
X16481847Y-14764994D01*
X16481847Y-14764994D02*
X16491371Y-14745946D01*
X16491371Y-14745946D02*
X16491371Y-14736422D01*
X16491371Y-14736422D02*
X16481847Y-14717375D01*
X16481847Y-14717375D02*
X16462800Y-14707851D01*
X16462800Y-14707851D02*
X16434228Y-14707851D01*
X16434228Y-14707851D02*
X16415181Y-14698327D01*
X16415181Y-14698327D02*
X16405657Y-14679280D01*
X16405657Y-14679280D02*
X16405657Y-14669756D01*
X16405657Y-14669756D02*
X16415181Y-14650708D01*
X16415181Y-14650708D02*
X16434228Y-14641184D01*
X16434228Y-14641184D02*
X16462800Y-14641184D01*
X16462800Y-14641184D02*
X16481847Y-14650708D01*
X16605657Y-14774518D02*
X16586609Y-14764994D01*
X16586609Y-14764994D02*
X16577086Y-14745946D01*
X16577086Y-14745946D02*
X16577086Y-14574518D01*
X16710419Y-14774518D02*
X16691371Y-14764994D01*
X16691371Y-14764994D02*
X16681847Y-14755470D01*
X16681847Y-14755470D02*
X16672324Y-14736422D01*
X16672324Y-14736422D02*
X16672324Y-14679280D01*
X16672324Y-14679280D02*
X16681847Y-14660232D01*
X16681847Y-14660232D02*
X16691371Y-14650708D01*
X16691371Y-14650708D02*
X16710419Y-14641184D01*
X16710419Y-14641184D02*
X16738990Y-14641184D01*
X16738990Y-14641184D02*
X16758038Y-14650708D01*
X16758038Y-14650708D02*
X16767562Y-14660232D01*
X16767562Y-14660232D02*
X16777086Y-14679280D01*
X16777086Y-14679280D02*
X16777086Y-14736422D01*
X16777086Y-14736422D02*
X16767562Y-14755470D01*
X16767562Y-14755470D02*
X16758038Y-14764994D01*
X16758038Y-14764994D02*
X16738990Y-14774518D01*
X16738990Y-14774518D02*
X16710419Y-14774518D01*
X16834229Y-14641184D02*
X16910419Y-14641184D01*
X16862800Y-14574518D02*
X16862800Y-14745946D01*
X16862800Y-14745946D02*
X16872324Y-14764994D01*
X16872324Y-14764994D02*
X16891371Y-14774518D01*
X16891371Y-14774518D02*
X16910419Y-14774518D01*
X16958038Y-14850708D02*
X16967562Y-14841184D01*
X16967562Y-14841184D02*
X16986609Y-14812613D01*
X16986609Y-14812613D02*
X16996133Y-14793565D01*
X16996133Y-14793565D02*
X17005657Y-14764994D01*
X17005657Y-14764994D02*
X17015181Y-14717375D01*
X17015181Y-14717375D02*
X17015181Y-14679280D01*
X17015181Y-14679280D02*
X17005657Y-14631661D01*
X17005657Y-14631661D02*
X16996133Y-14603089D01*
X16996133Y-14603089D02*
X16986609Y-14584042D01*
X16986609Y-14584042D02*
X16967562Y-14555470D01*
X16967562Y-14555470D02*
X16958038Y-14545946D01*
D10*
X10715581Y-14971783D02*
X10715581Y-14922285D01*
X10666083Y-14922285D01*
X10666083Y-14971783D01*
X10715581Y-14971783D01*
D11*
X11024704Y-14838518D02*
X11043752Y-14838518D01*
X11043752Y-14838518D02*
X11062799Y-14848042D01*
X11062799Y-14848042D02*
X11072323Y-14857565D01*
X11072323Y-14857565D02*
X11081847Y-14876613D01*
X11081847Y-14876613D02*
X11091371Y-14914708D01*
X11091371Y-14914708D02*
X11091371Y-14962327D01*
X11091371Y-14962327D02*
X11081847Y-15000422D01*
X11081847Y-15000422D02*
X11072323Y-15019470D01*
X11072323Y-15019470D02*
X11062799Y-15028994D01*
X11062799Y-15028994D02*
X11043752Y-15038518D01*
X11043752Y-15038518D02*
X11024704Y-15038518D01*
X11024704Y-15038518D02*
X11005656Y-15028994D01*
X11005656Y-15028994D02*
X10996133Y-15019470D01*
X10996133Y-15019470D02*
X10986609Y-15000422D01*
X10986609Y-15000422D02*
X10977085Y-14962327D01*
X10977085Y-14962327D02*
X10977085Y-14914708D01*
X10977085Y-14914708D02*
X10986609Y-14876613D01*
X10986609Y-14876613D02*
X10996133Y-14857565D01*
X10996133Y-14857565D02*
X11005656Y-14848042D01*
X11005656Y-14848042D02*
X11024704Y-14838518D01*
X11177085Y-15019470D02*
X11186609Y-15028994D01*
X11186609Y-15028994D02*
X11177085Y-15038518D01*
X11177085Y-15038518D02*
X11167561Y-15028994D01*
X11167561Y-15028994D02*
X11177085Y-15019470D01*
X11177085Y-15019470D02*
X11177085Y-15038518D01*
X11253275Y-14838518D02*
X11386609Y-14838518D01*
X11386609Y-14838518D02*
X11300894Y-15038518D01*
X11500894Y-14838518D02*
X11519942Y-14838518D01*
X11519942Y-14838518D02*
X11538990Y-14848042D01*
X11538990Y-14848042D02*
X11548514Y-14857565D01*
X11548514Y-14857565D02*
X11558037Y-14876613D01*
X11558037Y-14876613D02*
X11567561Y-14914708D01*
X11567561Y-14914708D02*
X11567561Y-14962327D01*
X11567561Y-14962327D02*
X11558037Y-15000422D01*
X11558037Y-15000422D02*
X11548514Y-15019470D01*
X11548514Y-15019470D02*
X11538990Y-15028994D01*
X11538990Y-15028994D02*
X11519942Y-15038518D01*
X11519942Y-15038518D02*
X11500894Y-15038518D01*
X11500894Y-15038518D02*
X11481847Y-15028994D01*
X11481847Y-15028994D02*
X11472323Y-15019470D01*
X11472323Y-15019470D02*
X11462799Y-15000422D01*
X11462799Y-15000422D02*
X11453275Y-14962327D01*
X11453275Y-14962327D02*
X11453275Y-14914708D01*
X11453275Y-14914708D02*
X11462799Y-14876613D01*
X11462799Y-14876613D02*
X11472323Y-14857565D01*
X11472323Y-14857565D02*
X11481847Y-14848042D01*
X11481847Y-14848042D02*
X11500894Y-14838518D01*
X11691371Y-14838518D02*
X11710418Y-14838518D01*
X11710418Y-14838518D02*
X11729466Y-14848042D01*
X11729466Y-14848042D02*
X11738990Y-14857565D01*
X11738990Y-14857565D02*
X11748514Y-14876613D01*
X11748514Y-14876613D02*
X11758037Y-14914708D01*
X11758037Y-14914708D02*
X11758037Y-14962327D01*
X11758037Y-14962327D02*
X11748514Y-15000422D01*
X11748514Y-15000422D02*
X11738990Y-15019470D01*
X11738990Y-15019470D02*
X11729466Y-15028994D01*
X11729466Y-15028994D02*
X11710418Y-15038518D01*
X11710418Y-15038518D02*
X11691371Y-15038518D01*
X11691371Y-15038518D02*
X11672323Y-15028994D01*
X11672323Y-15028994D02*
X11662799Y-15019470D01*
X11662799Y-15019470D02*
X11653275Y-15000422D01*
X11653275Y-15000422D02*
X11643752Y-14962327D01*
X11643752Y-14962327D02*
X11643752Y-14914708D01*
X11643752Y-14914708D02*
X11653275Y-14876613D01*
X11653275Y-14876613D02*
X11662799Y-14857565D01*
X11662799Y-14857565D02*
X11672323Y-14848042D01*
X11672323Y-14848042D02*
X11691371Y-14838518D01*
X11843752Y-15038518D02*
X11843752Y-14905184D01*
X11843752Y-14924232D02*
X11853275Y-14914708D01*
X11853275Y-14914708D02*
X11872323Y-14905184D01*
X11872323Y-14905184D02*
X11900895Y-14905184D01*
X11900895Y-14905184D02*
X11919942Y-14914708D01*
X11919942Y-14914708D02*
X11929466Y-14933756D01*
X11929466Y-14933756D02*
X11929466Y-15038518D01*
X11929466Y-14933756D02*
X11938990Y-14914708D01*
X11938990Y-14914708D02*
X11958037Y-14905184D01*
X11958037Y-14905184D02*
X11986609Y-14905184D01*
X11986609Y-14905184D02*
X12005656Y-14914708D01*
X12005656Y-14914708D02*
X12015180Y-14933756D01*
X12015180Y-14933756D02*
X12015180Y-15038518D01*
X12110418Y-15038518D02*
X12110418Y-14905184D01*
X12110418Y-14924232D02*
X12119942Y-14914708D01*
X12119942Y-14914708D02*
X12138990Y-14905184D01*
X12138990Y-14905184D02*
X12167561Y-14905184D01*
X12167561Y-14905184D02*
X12186609Y-14914708D01*
X12186609Y-14914708D02*
X12196133Y-14933756D01*
X12196133Y-14933756D02*
X12196133Y-15038518D01*
X12196133Y-14933756D02*
X12205656Y-14914708D01*
X12205656Y-14914708D02*
X12224704Y-14905184D01*
X12224704Y-14905184D02*
X12253275Y-14905184D01*
X12253275Y-14905184D02*
X12272323Y-14914708D01*
X12272323Y-14914708D02*
X12281847Y-14933756D01*
X12281847Y-14933756D02*
X12281847Y-15038518D01*
X12672323Y-14828994D02*
X12500895Y-15086137D01*
X12929466Y-14838518D02*
X12948514Y-14838518D01*
X12948514Y-14838518D02*
X12967561Y-14848042D01*
X12967561Y-14848042D02*
X12977085Y-14857565D01*
X12977085Y-14857565D02*
X12986609Y-14876613D01*
X12986609Y-14876613D02*
X12996133Y-14914708D01*
X12996133Y-14914708D02*
X12996133Y-14962327D01*
X12996133Y-14962327D02*
X12986609Y-15000422D01*
X12986609Y-15000422D02*
X12977085Y-15019470D01*
X12977085Y-15019470D02*
X12967561Y-15028994D01*
X12967561Y-15028994D02*
X12948514Y-15038518D01*
X12948514Y-15038518D02*
X12929466Y-15038518D01*
X12929466Y-15038518D02*
X12910418Y-15028994D01*
X12910418Y-15028994D02*
X12900895Y-15019470D01*
X12900895Y-15019470D02*
X12891371Y-15000422D01*
X12891371Y-15000422D02*
X12881847Y-14962327D01*
X12881847Y-14962327D02*
X12881847Y-14914708D01*
X12881847Y-14914708D02*
X12891371Y-14876613D01*
X12891371Y-14876613D02*
X12900895Y-14857565D01*
X12900895Y-14857565D02*
X12910418Y-14848042D01*
X12910418Y-14848042D02*
X12929466Y-14838518D01*
X13081847Y-15019470D02*
X13091371Y-15028994D01*
X13091371Y-15028994D02*
X13081847Y-15038518D01*
X13081847Y-15038518D02*
X13072323Y-15028994D01*
X13072323Y-15028994D02*
X13081847Y-15019470D01*
X13081847Y-15019470D02*
X13081847Y-15038518D01*
X13215180Y-14838518D02*
X13234228Y-14838518D01*
X13234228Y-14838518D02*
X13253276Y-14848042D01*
X13253276Y-14848042D02*
X13262799Y-14857565D01*
X13262799Y-14857565D02*
X13272323Y-14876613D01*
X13272323Y-14876613D02*
X13281847Y-14914708D01*
X13281847Y-14914708D02*
X13281847Y-14962327D01*
X13281847Y-14962327D02*
X13272323Y-15000422D01*
X13272323Y-15000422D02*
X13262799Y-15019470D01*
X13262799Y-15019470D02*
X13253276Y-15028994D01*
X13253276Y-15028994D02*
X13234228Y-15038518D01*
X13234228Y-15038518D02*
X13215180Y-15038518D01*
X13215180Y-15038518D02*
X13196133Y-15028994D01*
X13196133Y-15028994D02*
X13186609Y-15019470D01*
X13186609Y-15019470D02*
X13177085Y-15000422D01*
X13177085Y-15000422D02*
X13167561Y-14962327D01*
X13167561Y-14962327D02*
X13167561Y-14914708D01*
X13167561Y-14914708D02*
X13177085Y-14876613D01*
X13177085Y-14876613D02*
X13186609Y-14857565D01*
X13186609Y-14857565D02*
X13196133Y-14848042D01*
X13196133Y-14848042D02*
X13215180Y-14838518D01*
X13358038Y-14857565D02*
X13367561Y-14848042D01*
X13367561Y-14848042D02*
X13386609Y-14838518D01*
X13386609Y-14838518D02*
X13434228Y-14838518D01*
X13434228Y-14838518D02*
X13453276Y-14848042D01*
X13453276Y-14848042D02*
X13462799Y-14857565D01*
X13462799Y-14857565D02*
X13472323Y-14876613D01*
X13472323Y-14876613D02*
X13472323Y-14895661D01*
X13472323Y-14895661D02*
X13462799Y-14924232D01*
X13462799Y-14924232D02*
X13348514Y-15038518D01*
X13348514Y-15038518D02*
X13472323Y-15038518D01*
X13538990Y-14838518D02*
X13672323Y-14838518D01*
X13672323Y-14838518D02*
X13586609Y-15038518D01*
X13834228Y-14838518D02*
X13796133Y-14838518D01*
X13796133Y-14838518D02*
X13777085Y-14848042D01*
X13777085Y-14848042D02*
X13767561Y-14857565D01*
X13767561Y-14857565D02*
X13748514Y-14886137D01*
X13748514Y-14886137D02*
X13738990Y-14924232D01*
X13738990Y-14924232D02*
X13738990Y-15000422D01*
X13738990Y-15000422D02*
X13748514Y-15019470D01*
X13748514Y-15019470D02*
X13758038Y-15028994D01*
X13758038Y-15028994D02*
X13777085Y-15038518D01*
X13777085Y-15038518D02*
X13815180Y-15038518D01*
X13815180Y-15038518D02*
X13834228Y-15028994D01*
X13834228Y-15028994D02*
X13843752Y-15019470D01*
X13843752Y-15019470D02*
X13853276Y-15000422D01*
X13853276Y-15000422D02*
X13853276Y-14952803D01*
X13853276Y-14952803D02*
X13843752Y-14933756D01*
X13843752Y-14933756D02*
X13834228Y-14924232D01*
X13834228Y-14924232D02*
X13815180Y-14914708D01*
X13815180Y-14914708D02*
X13777085Y-14914708D01*
X13777085Y-14914708D02*
X13758038Y-14924232D01*
X13758038Y-14924232D02*
X13748514Y-14933756D01*
X13748514Y-14933756D02*
X13738990Y-14952803D01*
X13929466Y-14838518D02*
X13929466Y-14876613D01*
X14005657Y-14838518D02*
X14005657Y-14876613D01*
X14300895Y-15114708D02*
X14291371Y-15105184D01*
X14291371Y-15105184D02*
X14272323Y-15076613D01*
X14272323Y-15076613D02*
X14262800Y-15057565D01*
X14262800Y-15057565D02*
X14253276Y-15028994D01*
X14253276Y-15028994D02*
X14243752Y-14981375D01*
X14243752Y-14981375D02*
X14243752Y-14943280D01*
X14243752Y-14943280D02*
X14253276Y-14895661D01*
X14253276Y-14895661D02*
X14262800Y-14867089D01*
X14262800Y-14867089D02*
X14272323Y-14848042D01*
X14272323Y-14848042D02*
X14291371Y-14819470D01*
X14291371Y-14819470D02*
X14300895Y-14809946D01*
X14481847Y-15038518D02*
X14367561Y-15038518D01*
X14424704Y-15038518D02*
X14424704Y-14838518D01*
X14424704Y-14838518D02*
X14405657Y-14867089D01*
X14405657Y-14867089D02*
X14386609Y-14886137D01*
X14386609Y-14886137D02*
X14367561Y-14895661D01*
X14672323Y-15038518D02*
X14558038Y-15038518D01*
X14615180Y-15038518D02*
X14615180Y-14838518D01*
X14615180Y-14838518D02*
X14596133Y-14867089D01*
X14596133Y-14867089D02*
X14577085Y-14886137D01*
X14577085Y-14886137D02*
X14558038Y-14895661D01*
X14910419Y-15038518D02*
X14910419Y-14838518D01*
X14996133Y-15038518D02*
X14996133Y-14933756D01*
X14996133Y-14933756D02*
X14986609Y-14914708D01*
X14986609Y-14914708D02*
X14967562Y-14905184D01*
X14967562Y-14905184D02*
X14938990Y-14905184D01*
X14938990Y-14905184D02*
X14919942Y-14914708D01*
X14919942Y-14914708D02*
X14910419Y-14924232D01*
X15119942Y-15038518D02*
X15100895Y-15028994D01*
X15100895Y-15028994D02*
X15091371Y-15019470D01*
X15091371Y-15019470D02*
X15081847Y-15000422D01*
X15081847Y-15000422D02*
X15081847Y-14943280D01*
X15081847Y-14943280D02*
X15091371Y-14924232D01*
X15091371Y-14924232D02*
X15100895Y-14914708D01*
X15100895Y-14914708D02*
X15119942Y-14905184D01*
X15119942Y-14905184D02*
X15148514Y-14905184D01*
X15148514Y-14905184D02*
X15167562Y-14914708D01*
X15167562Y-14914708D02*
X15177085Y-14924232D01*
X15177085Y-14924232D02*
X15186609Y-14943280D01*
X15186609Y-14943280D02*
X15186609Y-15000422D01*
X15186609Y-15000422D02*
X15177085Y-15019470D01*
X15177085Y-15019470D02*
X15167562Y-15028994D01*
X15167562Y-15028994D02*
X15148514Y-15038518D01*
X15148514Y-15038518D02*
X15119942Y-15038518D01*
X15300895Y-15038518D02*
X15281847Y-15028994D01*
X15281847Y-15028994D02*
X15272323Y-15009946D01*
X15272323Y-15009946D02*
X15272323Y-14838518D01*
X15453276Y-15028994D02*
X15434228Y-15038518D01*
X15434228Y-15038518D02*
X15396133Y-15038518D01*
X15396133Y-15038518D02*
X15377085Y-15028994D01*
X15377085Y-15028994D02*
X15367562Y-15009946D01*
X15367562Y-15009946D02*
X15367562Y-14933756D01*
X15367562Y-14933756D02*
X15377085Y-14914708D01*
X15377085Y-14914708D02*
X15396133Y-14905184D01*
X15396133Y-14905184D02*
X15434228Y-14905184D01*
X15434228Y-14905184D02*
X15453276Y-14914708D01*
X15453276Y-14914708D02*
X15462800Y-14933756D01*
X15462800Y-14933756D02*
X15462800Y-14952803D01*
X15462800Y-14952803D02*
X15367562Y-14971851D01*
X15538990Y-15028994D02*
X15558038Y-15038518D01*
X15558038Y-15038518D02*
X15596133Y-15038518D01*
X15596133Y-15038518D02*
X15615181Y-15028994D01*
X15615181Y-15028994D02*
X15624704Y-15009946D01*
X15624704Y-15009946D02*
X15624704Y-15000422D01*
X15624704Y-15000422D02*
X15615181Y-14981375D01*
X15615181Y-14981375D02*
X15596133Y-14971851D01*
X15596133Y-14971851D02*
X15567562Y-14971851D01*
X15567562Y-14971851D02*
X15548514Y-14962327D01*
X15548514Y-14962327D02*
X15538990Y-14943280D01*
X15538990Y-14943280D02*
X15538990Y-14933756D01*
X15538990Y-14933756D02*
X15548514Y-14914708D01*
X15548514Y-14914708D02*
X15567562Y-14905184D01*
X15567562Y-14905184D02*
X15596133Y-14905184D01*
X15596133Y-14905184D02*
X15615181Y-14914708D01*
X15691371Y-15114708D02*
X15700895Y-15105184D01*
X15700895Y-15105184D02*
X15719943Y-15076613D01*
X15719943Y-15076613D02*
X15729466Y-15057565D01*
X15729466Y-15057565D02*
X15738990Y-15028994D01*
X15738990Y-15028994D02*
X15748514Y-14981375D01*
X15748514Y-14981375D02*
X15748514Y-14943280D01*
X15748514Y-14943280D02*
X15738990Y-14895661D01*
X15738990Y-14895661D02*
X15729466Y-14867089D01*
X15729466Y-14867089D02*
X15719943Y-14848042D01*
X15719943Y-14848042D02*
X15700895Y-14819470D01*
X15700895Y-14819470D02*
X15691371Y-14809946D01*
D10*
X10685832Y-15251034D02*
X10725832Y-15211034D01*
X10685832Y-15171034D01*
X10645832Y-15211034D01*
X10685832Y-15251034D01*
D11*
X11024704Y-15102518D02*
X11043752Y-15102518D01*
X11043752Y-15102518D02*
X11062799Y-15112042D01*
X11062799Y-15112042D02*
X11072323Y-15121565D01*
X11072323Y-15121565D02*
X11081847Y-15140613D01*
X11081847Y-15140613D02*
X11091371Y-15178708D01*
X11091371Y-15178708D02*
X11091371Y-15226327D01*
X11091371Y-15226327D02*
X11081847Y-15264422D01*
X11081847Y-15264422D02*
X11072323Y-15283470D01*
X11072323Y-15283470D02*
X11062799Y-15292994D01*
X11062799Y-15292994D02*
X11043752Y-15302518D01*
X11043752Y-15302518D02*
X11024704Y-15302518D01*
X11024704Y-15302518D02*
X11005656Y-15292994D01*
X11005656Y-15292994D02*
X10996133Y-15283470D01*
X10996133Y-15283470D02*
X10986609Y-15264422D01*
X10986609Y-15264422D02*
X10977085Y-15226327D01*
X10977085Y-15226327D02*
X10977085Y-15178708D01*
X10977085Y-15178708D02*
X10986609Y-15140613D01*
X10986609Y-15140613D02*
X10996133Y-15121565D01*
X10996133Y-15121565D02*
X11005656Y-15112042D01*
X11005656Y-15112042D02*
X11024704Y-15102518D01*
X11177085Y-15283470D02*
X11186609Y-15292994D01*
X11186609Y-15292994D02*
X11177085Y-15302518D01*
X11177085Y-15302518D02*
X11167561Y-15292994D01*
X11167561Y-15292994D02*
X11177085Y-15283470D01*
X11177085Y-15283470D02*
X11177085Y-15302518D01*
X11300894Y-15188232D02*
X11281847Y-15178708D01*
X11281847Y-15178708D02*
X11272323Y-15169184D01*
X11272323Y-15169184D02*
X11262799Y-15150137D01*
X11262799Y-15150137D02*
X11262799Y-15140613D01*
X11262799Y-15140613D02*
X11272323Y-15121565D01*
X11272323Y-15121565D02*
X11281847Y-15112042D01*
X11281847Y-15112042D02*
X11300894Y-15102518D01*
X11300894Y-15102518D02*
X11338990Y-15102518D01*
X11338990Y-15102518D02*
X11358037Y-15112042D01*
X11358037Y-15112042D02*
X11367561Y-15121565D01*
X11367561Y-15121565D02*
X11377085Y-15140613D01*
X11377085Y-15140613D02*
X11377085Y-15150137D01*
X11377085Y-15150137D02*
X11367561Y-15169184D01*
X11367561Y-15169184D02*
X11358037Y-15178708D01*
X11358037Y-15178708D02*
X11338990Y-15188232D01*
X11338990Y-15188232D02*
X11300894Y-15188232D01*
X11300894Y-15188232D02*
X11281847Y-15197756D01*
X11281847Y-15197756D02*
X11272323Y-15207280D01*
X11272323Y-15207280D02*
X11262799Y-15226327D01*
X11262799Y-15226327D02*
X11262799Y-15264422D01*
X11262799Y-15264422D02*
X11272323Y-15283470D01*
X11272323Y-15283470D02*
X11281847Y-15292994D01*
X11281847Y-15292994D02*
X11300894Y-15302518D01*
X11300894Y-15302518D02*
X11338990Y-15302518D01*
X11338990Y-15302518D02*
X11358037Y-15292994D01*
X11358037Y-15292994D02*
X11367561Y-15283470D01*
X11367561Y-15283470D02*
X11377085Y-15264422D01*
X11377085Y-15264422D02*
X11377085Y-15226327D01*
X11377085Y-15226327D02*
X11367561Y-15207280D01*
X11367561Y-15207280D02*
X11358037Y-15197756D01*
X11358037Y-15197756D02*
X11338990Y-15188232D01*
X11500894Y-15102518D02*
X11519942Y-15102518D01*
X11519942Y-15102518D02*
X11538990Y-15112042D01*
X11538990Y-15112042D02*
X11548514Y-15121565D01*
X11548514Y-15121565D02*
X11558037Y-15140613D01*
X11558037Y-15140613D02*
X11567561Y-15178708D01*
X11567561Y-15178708D02*
X11567561Y-15226327D01*
X11567561Y-15226327D02*
X11558037Y-15264422D01*
X11558037Y-15264422D02*
X11548514Y-15283470D01*
X11548514Y-15283470D02*
X11538990Y-15292994D01*
X11538990Y-15292994D02*
X11519942Y-15302518D01*
X11519942Y-15302518D02*
X11500894Y-15302518D01*
X11500894Y-15302518D02*
X11481847Y-15292994D01*
X11481847Y-15292994D02*
X11472323Y-15283470D01*
X11472323Y-15283470D02*
X11462799Y-15264422D01*
X11462799Y-15264422D02*
X11453275Y-15226327D01*
X11453275Y-15226327D02*
X11453275Y-15178708D01*
X11453275Y-15178708D02*
X11462799Y-15140613D01*
X11462799Y-15140613D02*
X11472323Y-15121565D01*
X11472323Y-15121565D02*
X11481847Y-15112042D01*
X11481847Y-15112042D02*
X11500894Y-15102518D01*
X11691371Y-15102518D02*
X11710418Y-15102518D01*
X11710418Y-15102518D02*
X11729466Y-15112042D01*
X11729466Y-15112042D02*
X11738990Y-15121565D01*
X11738990Y-15121565D02*
X11748514Y-15140613D01*
X11748514Y-15140613D02*
X11758037Y-15178708D01*
X11758037Y-15178708D02*
X11758037Y-15226327D01*
X11758037Y-15226327D02*
X11748514Y-15264422D01*
X11748514Y-15264422D02*
X11738990Y-15283470D01*
X11738990Y-15283470D02*
X11729466Y-15292994D01*
X11729466Y-15292994D02*
X11710418Y-15302518D01*
X11710418Y-15302518D02*
X11691371Y-15302518D01*
X11691371Y-15302518D02*
X11672323Y-15292994D01*
X11672323Y-15292994D02*
X11662799Y-15283470D01*
X11662799Y-15283470D02*
X11653275Y-15264422D01*
X11653275Y-15264422D02*
X11643752Y-15226327D01*
X11643752Y-15226327D02*
X11643752Y-15178708D01*
X11643752Y-15178708D02*
X11653275Y-15140613D01*
X11653275Y-15140613D02*
X11662799Y-15121565D01*
X11662799Y-15121565D02*
X11672323Y-15112042D01*
X11672323Y-15112042D02*
X11691371Y-15102518D01*
X11843752Y-15302518D02*
X11843752Y-15169184D01*
X11843752Y-15188232D02*
X11853275Y-15178708D01*
X11853275Y-15178708D02*
X11872323Y-15169184D01*
X11872323Y-15169184D02*
X11900895Y-15169184D01*
X11900895Y-15169184D02*
X11919942Y-15178708D01*
X11919942Y-15178708D02*
X11929466Y-15197756D01*
X11929466Y-15197756D02*
X11929466Y-15302518D01*
X11929466Y-15197756D02*
X11938990Y-15178708D01*
X11938990Y-15178708D02*
X11958037Y-15169184D01*
X11958037Y-15169184D02*
X11986609Y-15169184D01*
X11986609Y-15169184D02*
X12005656Y-15178708D01*
X12005656Y-15178708D02*
X12015180Y-15197756D01*
X12015180Y-15197756D02*
X12015180Y-15302518D01*
X12110418Y-15302518D02*
X12110418Y-15169184D01*
X12110418Y-15188232D02*
X12119942Y-15178708D01*
X12119942Y-15178708D02*
X12138990Y-15169184D01*
X12138990Y-15169184D02*
X12167561Y-15169184D01*
X12167561Y-15169184D02*
X12186609Y-15178708D01*
X12186609Y-15178708D02*
X12196133Y-15197756D01*
X12196133Y-15197756D02*
X12196133Y-15302518D01*
X12196133Y-15197756D02*
X12205656Y-15178708D01*
X12205656Y-15178708D02*
X12224704Y-15169184D01*
X12224704Y-15169184D02*
X12253275Y-15169184D01*
X12253275Y-15169184D02*
X12272323Y-15178708D01*
X12272323Y-15178708D02*
X12281847Y-15197756D01*
X12281847Y-15197756D02*
X12281847Y-15302518D01*
X12672323Y-15092994D02*
X12500895Y-15350137D01*
X12929466Y-15102518D02*
X12948514Y-15102518D01*
X12948514Y-15102518D02*
X12967561Y-15112042D01*
X12967561Y-15112042D02*
X12977085Y-15121565D01*
X12977085Y-15121565D02*
X12986609Y-15140613D01*
X12986609Y-15140613D02*
X12996133Y-15178708D01*
X12996133Y-15178708D02*
X12996133Y-15226327D01*
X12996133Y-15226327D02*
X12986609Y-15264422D01*
X12986609Y-15264422D02*
X12977085Y-15283470D01*
X12977085Y-15283470D02*
X12967561Y-15292994D01*
X12967561Y-15292994D02*
X12948514Y-15302518D01*
X12948514Y-15302518D02*
X12929466Y-15302518D01*
X12929466Y-15302518D02*
X12910418Y-15292994D01*
X12910418Y-15292994D02*
X12900895Y-15283470D01*
X12900895Y-15283470D02*
X12891371Y-15264422D01*
X12891371Y-15264422D02*
X12881847Y-15226327D01*
X12881847Y-15226327D02*
X12881847Y-15178708D01*
X12881847Y-15178708D02*
X12891371Y-15140613D01*
X12891371Y-15140613D02*
X12900895Y-15121565D01*
X12900895Y-15121565D02*
X12910418Y-15112042D01*
X12910418Y-15112042D02*
X12929466Y-15102518D01*
X13081847Y-15283470D02*
X13091371Y-15292994D01*
X13091371Y-15292994D02*
X13081847Y-15302518D01*
X13081847Y-15302518D02*
X13072323Y-15292994D01*
X13072323Y-15292994D02*
X13081847Y-15283470D01*
X13081847Y-15283470D02*
X13081847Y-15302518D01*
X13215180Y-15102518D02*
X13234228Y-15102518D01*
X13234228Y-15102518D02*
X13253276Y-15112042D01*
X13253276Y-15112042D02*
X13262799Y-15121565D01*
X13262799Y-15121565D02*
X13272323Y-15140613D01*
X13272323Y-15140613D02*
X13281847Y-15178708D01*
X13281847Y-15178708D02*
X13281847Y-15226327D01*
X13281847Y-15226327D02*
X13272323Y-15264422D01*
X13272323Y-15264422D02*
X13262799Y-15283470D01*
X13262799Y-15283470D02*
X13253276Y-15292994D01*
X13253276Y-15292994D02*
X13234228Y-15302518D01*
X13234228Y-15302518D02*
X13215180Y-15302518D01*
X13215180Y-15302518D02*
X13196133Y-15292994D01*
X13196133Y-15292994D02*
X13186609Y-15283470D01*
X13186609Y-15283470D02*
X13177085Y-15264422D01*
X13177085Y-15264422D02*
X13167561Y-15226327D01*
X13167561Y-15226327D02*
X13167561Y-15178708D01*
X13167561Y-15178708D02*
X13177085Y-15140613D01*
X13177085Y-15140613D02*
X13186609Y-15121565D01*
X13186609Y-15121565D02*
X13196133Y-15112042D01*
X13196133Y-15112042D02*
X13215180Y-15102518D01*
X13348514Y-15102518D02*
X13472323Y-15102518D01*
X13472323Y-15102518D02*
X13405657Y-15178708D01*
X13405657Y-15178708D02*
X13434228Y-15178708D01*
X13434228Y-15178708D02*
X13453276Y-15188232D01*
X13453276Y-15188232D02*
X13462799Y-15197756D01*
X13462799Y-15197756D02*
X13472323Y-15216803D01*
X13472323Y-15216803D02*
X13472323Y-15264422D01*
X13472323Y-15264422D02*
X13462799Y-15283470D01*
X13462799Y-15283470D02*
X13453276Y-15292994D01*
X13453276Y-15292994D02*
X13434228Y-15302518D01*
X13434228Y-15302518D02*
X13377085Y-15302518D01*
X13377085Y-15302518D02*
X13358038Y-15292994D01*
X13358038Y-15292994D02*
X13348514Y-15283470D01*
X13662799Y-15302518D02*
X13548514Y-15302518D01*
X13605657Y-15302518D02*
X13605657Y-15102518D01*
X13605657Y-15102518D02*
X13586609Y-15131089D01*
X13586609Y-15131089D02*
X13567561Y-15150137D01*
X13567561Y-15150137D02*
X13548514Y-15159661D01*
X13843752Y-15102518D02*
X13748514Y-15102518D01*
X13748514Y-15102518D02*
X13738990Y-15197756D01*
X13738990Y-15197756D02*
X13748514Y-15188232D01*
X13748514Y-15188232D02*
X13767561Y-15178708D01*
X13767561Y-15178708D02*
X13815180Y-15178708D01*
X13815180Y-15178708D02*
X13834228Y-15188232D01*
X13834228Y-15188232D02*
X13843752Y-15197756D01*
X13843752Y-15197756D02*
X13853276Y-15216803D01*
X13853276Y-15216803D02*
X13853276Y-15264422D01*
X13853276Y-15264422D02*
X13843752Y-15283470D01*
X13843752Y-15283470D02*
X13834228Y-15292994D01*
X13834228Y-15292994D02*
X13815180Y-15302518D01*
X13815180Y-15302518D02*
X13767561Y-15302518D01*
X13767561Y-15302518D02*
X13748514Y-15292994D01*
X13748514Y-15292994D02*
X13738990Y-15283470D01*
X13929466Y-15102518D02*
X13929466Y-15140613D01*
X14005657Y-15102518D02*
X14005657Y-15140613D01*
X14300895Y-15378708D02*
X14291371Y-15369184D01*
X14291371Y-15369184D02*
X14272323Y-15340613D01*
X14272323Y-15340613D02*
X14262800Y-15321565D01*
X14262800Y-15321565D02*
X14253276Y-15292994D01*
X14253276Y-15292994D02*
X14243752Y-15245375D01*
X14243752Y-15245375D02*
X14243752Y-15207280D01*
X14243752Y-15207280D02*
X14253276Y-15159661D01*
X14253276Y-15159661D02*
X14262800Y-15131089D01*
X14262800Y-15131089D02*
X14272323Y-15112042D01*
X14272323Y-15112042D02*
X14291371Y-15083470D01*
X14291371Y-15083470D02*
X14300895Y-15073946D01*
X14481847Y-15302518D02*
X14367561Y-15302518D01*
X14424704Y-15302518D02*
X14424704Y-15102518D01*
X14424704Y-15102518D02*
X14405657Y-15131089D01*
X14405657Y-15131089D02*
X14386609Y-15150137D01*
X14386609Y-15150137D02*
X14367561Y-15159661D01*
X14719942Y-15302518D02*
X14719942Y-15102518D01*
X14805657Y-15302518D02*
X14805657Y-15197756D01*
X14805657Y-15197756D02*
X14796133Y-15178708D01*
X14796133Y-15178708D02*
X14777085Y-15169184D01*
X14777085Y-15169184D02*
X14748514Y-15169184D01*
X14748514Y-15169184D02*
X14729466Y-15178708D01*
X14729466Y-15178708D02*
X14719942Y-15188232D01*
X14929466Y-15302518D02*
X14910419Y-15292994D01*
X14910419Y-15292994D02*
X14900895Y-15283470D01*
X14900895Y-15283470D02*
X14891371Y-15264422D01*
X14891371Y-15264422D02*
X14891371Y-15207280D01*
X14891371Y-15207280D02*
X14900895Y-15188232D01*
X14900895Y-15188232D02*
X14910419Y-15178708D01*
X14910419Y-15178708D02*
X14929466Y-15169184D01*
X14929466Y-15169184D02*
X14958038Y-15169184D01*
X14958038Y-15169184D02*
X14977085Y-15178708D01*
X14977085Y-15178708D02*
X14986609Y-15188232D01*
X14986609Y-15188232D02*
X14996133Y-15207280D01*
X14996133Y-15207280D02*
X14996133Y-15264422D01*
X14996133Y-15264422D02*
X14986609Y-15283470D01*
X14986609Y-15283470D02*
X14977085Y-15292994D01*
X14977085Y-15292994D02*
X14958038Y-15302518D01*
X14958038Y-15302518D02*
X14929466Y-15302518D01*
X15110419Y-15302518D02*
X15091371Y-15292994D01*
X15091371Y-15292994D02*
X15081847Y-15273946D01*
X15081847Y-15273946D02*
X15081847Y-15102518D01*
X15262800Y-15292994D02*
X15243752Y-15302518D01*
X15243752Y-15302518D02*
X15205657Y-15302518D01*
X15205657Y-15302518D02*
X15186609Y-15292994D01*
X15186609Y-15292994D02*
X15177085Y-15273946D01*
X15177085Y-15273946D02*
X15177085Y-15197756D01*
X15177085Y-15197756D02*
X15186609Y-15178708D01*
X15186609Y-15178708D02*
X15205657Y-15169184D01*
X15205657Y-15169184D02*
X15243752Y-15169184D01*
X15243752Y-15169184D02*
X15262800Y-15178708D01*
X15262800Y-15178708D02*
X15272323Y-15197756D01*
X15272323Y-15197756D02*
X15272323Y-15216803D01*
X15272323Y-15216803D02*
X15177085Y-15235851D01*
X15338990Y-15378708D02*
X15348514Y-15369184D01*
X15348514Y-15369184D02*
X15367562Y-15340613D01*
X15367562Y-15340613D02*
X15377085Y-15321565D01*
X15377085Y-15321565D02*
X15386609Y-15292994D01*
X15386609Y-15292994D02*
X15396133Y-15245375D01*
X15396133Y-15245375D02*
X15396133Y-15207280D01*
X15396133Y-15207280D02*
X15386609Y-15159661D01*
X15386609Y-15159661D02*
X15377085Y-15131089D01*
X15377085Y-15131089D02*
X15367562Y-15112042D01*
X15367562Y-15112042D02*
X15348514Y-15083470D01*
X15348514Y-15083470D02*
X15338990Y-15073946D01*
D10*
X10625832Y-15425034D02*
X10725832Y-15525034D01*
X10725832Y-15425034D02*
X10625832Y-15525034D01*
X10725832Y-15475034D02*
G75*
G03*
X10725832Y-15475034I-50000J0D01*
G01*
D11*
X11091371Y-15566518D02*
X10977085Y-15566518D01*
X11034228Y-15566518D02*
X11034228Y-15366518D01*
X11034228Y-15366518D02*
X11015180Y-15395089D01*
X11015180Y-15395089D02*
X10996133Y-15414137D01*
X10996133Y-15414137D02*
X10977085Y-15423661D01*
X11177085Y-15547470D02*
X11186609Y-15556994D01*
X11186609Y-15556994D02*
X11177085Y-15566518D01*
X11177085Y-15566518D02*
X11167561Y-15556994D01*
X11167561Y-15556994D02*
X11177085Y-15547470D01*
X11177085Y-15547470D02*
X11177085Y-15566518D01*
X11310418Y-15366518D02*
X11329466Y-15366518D01*
X11329466Y-15366518D02*
X11348514Y-15376042D01*
X11348514Y-15376042D02*
X11358037Y-15385565D01*
X11358037Y-15385565D02*
X11367561Y-15404613D01*
X11367561Y-15404613D02*
X11377085Y-15442708D01*
X11377085Y-15442708D02*
X11377085Y-15490327D01*
X11377085Y-15490327D02*
X11367561Y-15528422D01*
X11367561Y-15528422D02*
X11358037Y-15547470D01*
X11358037Y-15547470D02*
X11348514Y-15556994D01*
X11348514Y-15556994D02*
X11329466Y-15566518D01*
X11329466Y-15566518D02*
X11310418Y-15566518D01*
X11310418Y-15566518D02*
X11291371Y-15556994D01*
X11291371Y-15556994D02*
X11281847Y-15547470D01*
X11281847Y-15547470D02*
X11272323Y-15528422D01*
X11272323Y-15528422D02*
X11262799Y-15490327D01*
X11262799Y-15490327D02*
X11262799Y-15442708D01*
X11262799Y-15442708D02*
X11272323Y-15404613D01*
X11272323Y-15404613D02*
X11281847Y-15385565D01*
X11281847Y-15385565D02*
X11291371Y-15376042D01*
X11291371Y-15376042D02*
X11310418Y-15366518D01*
X11500894Y-15366518D02*
X11519942Y-15366518D01*
X11519942Y-15366518D02*
X11538990Y-15376042D01*
X11538990Y-15376042D02*
X11548514Y-15385565D01*
X11548514Y-15385565D02*
X11558037Y-15404613D01*
X11558037Y-15404613D02*
X11567561Y-15442708D01*
X11567561Y-15442708D02*
X11567561Y-15490327D01*
X11567561Y-15490327D02*
X11558037Y-15528422D01*
X11558037Y-15528422D02*
X11548514Y-15547470D01*
X11548514Y-15547470D02*
X11538990Y-15556994D01*
X11538990Y-15556994D02*
X11519942Y-15566518D01*
X11519942Y-15566518D02*
X11500894Y-15566518D01*
X11500894Y-15566518D02*
X11481847Y-15556994D01*
X11481847Y-15556994D02*
X11472323Y-15547470D01*
X11472323Y-15547470D02*
X11462799Y-15528422D01*
X11462799Y-15528422D02*
X11453275Y-15490327D01*
X11453275Y-15490327D02*
X11453275Y-15442708D01*
X11453275Y-15442708D02*
X11462799Y-15404613D01*
X11462799Y-15404613D02*
X11472323Y-15385565D01*
X11472323Y-15385565D02*
X11481847Y-15376042D01*
X11481847Y-15376042D02*
X11500894Y-15366518D01*
X11691371Y-15366518D02*
X11710418Y-15366518D01*
X11710418Y-15366518D02*
X11729466Y-15376042D01*
X11729466Y-15376042D02*
X11738990Y-15385565D01*
X11738990Y-15385565D02*
X11748514Y-15404613D01*
X11748514Y-15404613D02*
X11758037Y-15442708D01*
X11758037Y-15442708D02*
X11758037Y-15490327D01*
X11758037Y-15490327D02*
X11748514Y-15528422D01*
X11748514Y-15528422D02*
X11738990Y-15547470D01*
X11738990Y-15547470D02*
X11729466Y-15556994D01*
X11729466Y-15556994D02*
X11710418Y-15566518D01*
X11710418Y-15566518D02*
X11691371Y-15566518D01*
X11691371Y-15566518D02*
X11672323Y-15556994D01*
X11672323Y-15556994D02*
X11662799Y-15547470D01*
X11662799Y-15547470D02*
X11653275Y-15528422D01*
X11653275Y-15528422D02*
X11643752Y-15490327D01*
X11643752Y-15490327D02*
X11643752Y-15442708D01*
X11643752Y-15442708D02*
X11653275Y-15404613D01*
X11653275Y-15404613D02*
X11662799Y-15385565D01*
X11662799Y-15385565D02*
X11672323Y-15376042D01*
X11672323Y-15376042D02*
X11691371Y-15366518D01*
X11843752Y-15566518D02*
X11843752Y-15433184D01*
X11843752Y-15452232D02*
X11853275Y-15442708D01*
X11853275Y-15442708D02*
X11872323Y-15433184D01*
X11872323Y-15433184D02*
X11900895Y-15433184D01*
X11900895Y-15433184D02*
X11919942Y-15442708D01*
X11919942Y-15442708D02*
X11929466Y-15461756D01*
X11929466Y-15461756D02*
X11929466Y-15566518D01*
X11929466Y-15461756D02*
X11938990Y-15442708D01*
X11938990Y-15442708D02*
X11958037Y-15433184D01*
X11958037Y-15433184D02*
X11986609Y-15433184D01*
X11986609Y-15433184D02*
X12005656Y-15442708D01*
X12005656Y-15442708D02*
X12015180Y-15461756D01*
X12015180Y-15461756D02*
X12015180Y-15566518D01*
X12110418Y-15566518D02*
X12110418Y-15433184D01*
X12110418Y-15452232D02*
X12119942Y-15442708D01*
X12119942Y-15442708D02*
X12138990Y-15433184D01*
X12138990Y-15433184D02*
X12167561Y-15433184D01*
X12167561Y-15433184D02*
X12186609Y-15442708D01*
X12186609Y-15442708D02*
X12196133Y-15461756D01*
X12196133Y-15461756D02*
X12196133Y-15566518D01*
X12196133Y-15461756D02*
X12205656Y-15442708D01*
X12205656Y-15442708D02*
X12224704Y-15433184D01*
X12224704Y-15433184D02*
X12253275Y-15433184D01*
X12253275Y-15433184D02*
X12272323Y-15442708D01*
X12272323Y-15442708D02*
X12281847Y-15461756D01*
X12281847Y-15461756D02*
X12281847Y-15566518D01*
X12672323Y-15356994D02*
X12500895Y-15614137D01*
X12929466Y-15366518D02*
X12948514Y-15366518D01*
X12948514Y-15366518D02*
X12967561Y-15376042D01*
X12967561Y-15376042D02*
X12977085Y-15385565D01*
X12977085Y-15385565D02*
X12986609Y-15404613D01*
X12986609Y-15404613D02*
X12996133Y-15442708D01*
X12996133Y-15442708D02*
X12996133Y-15490327D01*
X12996133Y-15490327D02*
X12986609Y-15528422D01*
X12986609Y-15528422D02*
X12977085Y-15547470D01*
X12977085Y-15547470D02*
X12967561Y-15556994D01*
X12967561Y-15556994D02*
X12948514Y-15566518D01*
X12948514Y-15566518D02*
X12929466Y-15566518D01*
X12929466Y-15566518D02*
X12910418Y-15556994D01*
X12910418Y-15556994D02*
X12900895Y-15547470D01*
X12900895Y-15547470D02*
X12891371Y-15528422D01*
X12891371Y-15528422D02*
X12881847Y-15490327D01*
X12881847Y-15490327D02*
X12881847Y-15442708D01*
X12881847Y-15442708D02*
X12891371Y-15404613D01*
X12891371Y-15404613D02*
X12900895Y-15385565D01*
X12900895Y-15385565D02*
X12910418Y-15376042D01*
X12910418Y-15376042D02*
X12929466Y-15366518D01*
X13081847Y-15547470D02*
X13091371Y-15556994D01*
X13091371Y-15556994D02*
X13081847Y-15566518D01*
X13081847Y-15566518D02*
X13072323Y-15556994D01*
X13072323Y-15556994D02*
X13081847Y-15547470D01*
X13081847Y-15547470D02*
X13081847Y-15566518D01*
X13215180Y-15366518D02*
X13234228Y-15366518D01*
X13234228Y-15366518D02*
X13253276Y-15376042D01*
X13253276Y-15376042D02*
X13262799Y-15385565D01*
X13262799Y-15385565D02*
X13272323Y-15404613D01*
X13272323Y-15404613D02*
X13281847Y-15442708D01*
X13281847Y-15442708D02*
X13281847Y-15490327D01*
X13281847Y-15490327D02*
X13272323Y-15528422D01*
X13272323Y-15528422D02*
X13262799Y-15547470D01*
X13262799Y-15547470D02*
X13253276Y-15556994D01*
X13253276Y-15556994D02*
X13234228Y-15566518D01*
X13234228Y-15566518D02*
X13215180Y-15566518D01*
X13215180Y-15566518D02*
X13196133Y-15556994D01*
X13196133Y-15556994D02*
X13186609Y-15547470D01*
X13186609Y-15547470D02*
X13177085Y-15528422D01*
X13177085Y-15528422D02*
X13167561Y-15490327D01*
X13167561Y-15490327D02*
X13167561Y-15442708D01*
X13167561Y-15442708D02*
X13177085Y-15404613D01*
X13177085Y-15404613D02*
X13186609Y-15385565D01*
X13186609Y-15385565D02*
X13196133Y-15376042D01*
X13196133Y-15376042D02*
X13215180Y-15366518D01*
X13348514Y-15366518D02*
X13472323Y-15366518D01*
X13472323Y-15366518D02*
X13405657Y-15442708D01*
X13405657Y-15442708D02*
X13434228Y-15442708D01*
X13434228Y-15442708D02*
X13453276Y-15452232D01*
X13453276Y-15452232D02*
X13462799Y-15461756D01*
X13462799Y-15461756D02*
X13472323Y-15480803D01*
X13472323Y-15480803D02*
X13472323Y-15528422D01*
X13472323Y-15528422D02*
X13462799Y-15547470D01*
X13462799Y-15547470D02*
X13453276Y-15556994D01*
X13453276Y-15556994D02*
X13434228Y-15566518D01*
X13434228Y-15566518D02*
X13377085Y-15566518D01*
X13377085Y-15566518D02*
X13358038Y-15556994D01*
X13358038Y-15556994D02*
X13348514Y-15547470D01*
X13567561Y-15566518D02*
X13605657Y-15566518D01*
X13605657Y-15566518D02*
X13624704Y-15556994D01*
X13624704Y-15556994D02*
X13634228Y-15547470D01*
X13634228Y-15547470D02*
X13653276Y-15518899D01*
X13653276Y-15518899D02*
X13662799Y-15480803D01*
X13662799Y-15480803D02*
X13662799Y-15404613D01*
X13662799Y-15404613D02*
X13653276Y-15385565D01*
X13653276Y-15385565D02*
X13643752Y-15376042D01*
X13643752Y-15376042D02*
X13624704Y-15366518D01*
X13624704Y-15366518D02*
X13586609Y-15366518D01*
X13586609Y-15366518D02*
X13567561Y-15376042D01*
X13567561Y-15376042D02*
X13558038Y-15385565D01*
X13558038Y-15385565D02*
X13548514Y-15404613D01*
X13548514Y-15404613D02*
X13548514Y-15452232D01*
X13548514Y-15452232D02*
X13558038Y-15471280D01*
X13558038Y-15471280D02*
X13567561Y-15480803D01*
X13567561Y-15480803D02*
X13586609Y-15490327D01*
X13586609Y-15490327D02*
X13624704Y-15490327D01*
X13624704Y-15490327D02*
X13643752Y-15480803D01*
X13643752Y-15480803D02*
X13653276Y-15471280D01*
X13653276Y-15471280D02*
X13662799Y-15452232D01*
X13834228Y-15433184D02*
X13834228Y-15566518D01*
X13786609Y-15356994D02*
X13738990Y-15499851D01*
X13738990Y-15499851D02*
X13862799Y-15499851D01*
X13929466Y-15366518D02*
X13929466Y-15404613D01*
X14005657Y-15366518D02*
X14005657Y-15404613D01*
X14300895Y-15642708D02*
X14291371Y-15633184D01*
X14291371Y-15633184D02*
X14272323Y-15604613D01*
X14272323Y-15604613D02*
X14262800Y-15585565D01*
X14262800Y-15585565D02*
X14253276Y-15556994D01*
X14253276Y-15556994D02*
X14243752Y-15509375D01*
X14243752Y-15509375D02*
X14243752Y-15471280D01*
X14243752Y-15471280D02*
X14253276Y-15423661D01*
X14253276Y-15423661D02*
X14262800Y-15395089D01*
X14262800Y-15395089D02*
X14272323Y-15376042D01*
X14272323Y-15376042D02*
X14291371Y-15347470D01*
X14291371Y-15347470D02*
X14300895Y-15337946D01*
X14367561Y-15385565D02*
X14377085Y-15376042D01*
X14377085Y-15376042D02*
X14396133Y-15366518D01*
X14396133Y-15366518D02*
X14443752Y-15366518D01*
X14443752Y-15366518D02*
X14462800Y-15376042D01*
X14462800Y-15376042D02*
X14472323Y-15385565D01*
X14472323Y-15385565D02*
X14481847Y-15404613D01*
X14481847Y-15404613D02*
X14481847Y-15423661D01*
X14481847Y-15423661D02*
X14472323Y-15452232D01*
X14472323Y-15452232D02*
X14358038Y-15566518D01*
X14358038Y-15566518D02*
X14481847Y-15566518D01*
X14719942Y-15566518D02*
X14719942Y-15366518D01*
X14805657Y-15566518D02*
X14805657Y-15461756D01*
X14805657Y-15461756D02*
X14796133Y-15442708D01*
X14796133Y-15442708D02*
X14777085Y-15433184D01*
X14777085Y-15433184D02*
X14748514Y-15433184D01*
X14748514Y-15433184D02*
X14729466Y-15442708D01*
X14729466Y-15442708D02*
X14719942Y-15452232D01*
X14929466Y-15566518D02*
X14910419Y-15556994D01*
X14910419Y-15556994D02*
X14900895Y-15547470D01*
X14900895Y-15547470D02*
X14891371Y-15528422D01*
X14891371Y-15528422D02*
X14891371Y-15471280D01*
X14891371Y-15471280D02*
X14900895Y-15452232D01*
X14900895Y-15452232D02*
X14910419Y-15442708D01*
X14910419Y-15442708D02*
X14929466Y-15433184D01*
X14929466Y-15433184D02*
X14958038Y-15433184D01*
X14958038Y-15433184D02*
X14977085Y-15442708D01*
X14977085Y-15442708D02*
X14986609Y-15452232D01*
X14986609Y-15452232D02*
X14996133Y-15471280D01*
X14996133Y-15471280D02*
X14996133Y-15528422D01*
X14996133Y-15528422D02*
X14986609Y-15547470D01*
X14986609Y-15547470D02*
X14977085Y-15556994D01*
X14977085Y-15556994D02*
X14958038Y-15566518D01*
X14958038Y-15566518D02*
X14929466Y-15566518D01*
X15110419Y-15566518D02*
X15091371Y-15556994D01*
X15091371Y-15556994D02*
X15081847Y-15537946D01*
X15081847Y-15537946D02*
X15081847Y-15366518D01*
X15262800Y-15556994D02*
X15243752Y-15566518D01*
X15243752Y-15566518D02*
X15205657Y-15566518D01*
X15205657Y-15566518D02*
X15186609Y-15556994D01*
X15186609Y-15556994D02*
X15177085Y-15537946D01*
X15177085Y-15537946D02*
X15177085Y-15461756D01*
X15177085Y-15461756D02*
X15186609Y-15442708D01*
X15186609Y-15442708D02*
X15205657Y-15433184D01*
X15205657Y-15433184D02*
X15243752Y-15433184D01*
X15243752Y-15433184D02*
X15262800Y-15442708D01*
X15262800Y-15442708D02*
X15272323Y-15461756D01*
X15272323Y-15461756D02*
X15272323Y-15480803D01*
X15272323Y-15480803D02*
X15177085Y-15499851D01*
X15348514Y-15556994D02*
X15367562Y-15566518D01*
X15367562Y-15566518D02*
X15405657Y-15566518D01*
X15405657Y-15566518D02*
X15424704Y-15556994D01*
X15424704Y-15556994D02*
X15434228Y-15537946D01*
X15434228Y-15537946D02*
X15434228Y-15528422D01*
X15434228Y-15528422D02*
X15424704Y-15509375D01*
X15424704Y-15509375D02*
X15405657Y-15499851D01*
X15405657Y-15499851D02*
X15377085Y-15499851D01*
X15377085Y-15499851D02*
X15358038Y-15490327D01*
X15358038Y-15490327D02*
X15348514Y-15471280D01*
X15348514Y-15471280D02*
X15348514Y-15461756D01*
X15348514Y-15461756D02*
X15358038Y-15442708D01*
X15358038Y-15442708D02*
X15377085Y-15433184D01*
X15377085Y-15433184D02*
X15405657Y-15433184D01*
X15405657Y-15433184D02*
X15424704Y-15442708D01*
X15500895Y-15642708D02*
X15510419Y-15633184D01*
X15510419Y-15633184D02*
X15529466Y-15604613D01*
X15529466Y-15604613D02*
X15538990Y-15585565D01*
X15538990Y-15585565D02*
X15548514Y-15556994D01*
X15548514Y-15556994D02*
X15558038Y-15509375D01*
X15558038Y-15509375D02*
X15558038Y-15471280D01*
X15558038Y-15471280D02*
X15548514Y-15423661D01*
X15548514Y-15423661D02*
X15538990Y-15395089D01*
X15538990Y-15395089D02*
X15529466Y-15376042D01*
X15529466Y-15376042D02*
X15510419Y-15347470D01*
X15510419Y-15347470D02*
X15500895Y-15337946D01*
X10525832Y-15639034D02*
X10725832Y-15839034D01*
X10725832Y-15639034D02*
X10525832Y-15839034D01*
X10625832Y-15639034D02*
X10625832Y-15839034D01*
X10525832Y-15739034D02*
X10725832Y-15739034D01*
X10977085Y-15649565D02*
X10986609Y-15640042D01*
X10986609Y-15640042D02*
X11005656Y-15630518D01*
X11005656Y-15630518D02*
X11053276Y-15630518D01*
X11053276Y-15630518D02*
X11072323Y-15640042D01*
X11072323Y-15640042D02*
X11081847Y-15649565D01*
X11081847Y-15649565D02*
X11091371Y-15668613D01*
X11091371Y-15668613D02*
X11091371Y-15687661D01*
X11091371Y-15687661D02*
X11081847Y-15716232D01*
X11081847Y-15716232D02*
X10967561Y-15830518D01*
X10967561Y-15830518D02*
X11091371Y-15830518D01*
X11177085Y-15811470D02*
X11186609Y-15820994D01*
X11186609Y-15820994D02*
X11177085Y-15830518D01*
X11177085Y-15830518D02*
X11167561Y-15820994D01*
X11167561Y-15820994D02*
X11177085Y-15811470D01*
X11177085Y-15811470D02*
X11177085Y-15830518D01*
X11253275Y-15630518D02*
X11377085Y-15630518D01*
X11377085Y-15630518D02*
X11310418Y-15706708D01*
X11310418Y-15706708D02*
X11338990Y-15706708D01*
X11338990Y-15706708D02*
X11358037Y-15716232D01*
X11358037Y-15716232D02*
X11367561Y-15725756D01*
X11367561Y-15725756D02*
X11377085Y-15744803D01*
X11377085Y-15744803D02*
X11377085Y-15792422D01*
X11377085Y-15792422D02*
X11367561Y-15811470D01*
X11367561Y-15811470D02*
X11358037Y-15820994D01*
X11358037Y-15820994D02*
X11338990Y-15830518D01*
X11338990Y-15830518D02*
X11281847Y-15830518D01*
X11281847Y-15830518D02*
X11262799Y-15820994D01*
X11262799Y-15820994D02*
X11253275Y-15811470D01*
X11500894Y-15630518D02*
X11519942Y-15630518D01*
X11519942Y-15630518D02*
X11538990Y-15640042D01*
X11538990Y-15640042D02*
X11548514Y-15649565D01*
X11548514Y-15649565D02*
X11558037Y-15668613D01*
X11558037Y-15668613D02*
X11567561Y-15706708D01*
X11567561Y-15706708D02*
X11567561Y-15754327D01*
X11567561Y-15754327D02*
X11558037Y-15792422D01*
X11558037Y-15792422D02*
X11548514Y-15811470D01*
X11548514Y-15811470D02*
X11538990Y-15820994D01*
X11538990Y-15820994D02*
X11519942Y-15830518D01*
X11519942Y-15830518D02*
X11500894Y-15830518D01*
X11500894Y-15830518D02*
X11481847Y-15820994D01*
X11481847Y-15820994D02*
X11472323Y-15811470D01*
X11472323Y-15811470D02*
X11462799Y-15792422D01*
X11462799Y-15792422D02*
X11453275Y-15754327D01*
X11453275Y-15754327D02*
X11453275Y-15706708D01*
X11453275Y-15706708D02*
X11462799Y-15668613D01*
X11462799Y-15668613D02*
X11472323Y-15649565D01*
X11472323Y-15649565D02*
X11481847Y-15640042D01*
X11481847Y-15640042D02*
X11500894Y-15630518D01*
X11691371Y-15630518D02*
X11710418Y-15630518D01*
X11710418Y-15630518D02*
X11729466Y-15640042D01*
X11729466Y-15640042D02*
X11738990Y-15649565D01*
X11738990Y-15649565D02*
X11748514Y-15668613D01*
X11748514Y-15668613D02*
X11758037Y-15706708D01*
X11758037Y-15706708D02*
X11758037Y-15754327D01*
X11758037Y-15754327D02*
X11748514Y-15792422D01*
X11748514Y-15792422D02*
X11738990Y-15811470D01*
X11738990Y-15811470D02*
X11729466Y-15820994D01*
X11729466Y-15820994D02*
X11710418Y-15830518D01*
X11710418Y-15830518D02*
X11691371Y-15830518D01*
X11691371Y-15830518D02*
X11672323Y-15820994D01*
X11672323Y-15820994D02*
X11662799Y-15811470D01*
X11662799Y-15811470D02*
X11653275Y-15792422D01*
X11653275Y-15792422D02*
X11643752Y-15754327D01*
X11643752Y-15754327D02*
X11643752Y-15706708D01*
X11643752Y-15706708D02*
X11653275Y-15668613D01*
X11653275Y-15668613D02*
X11662799Y-15649565D01*
X11662799Y-15649565D02*
X11672323Y-15640042D01*
X11672323Y-15640042D02*
X11691371Y-15630518D01*
X11843752Y-15830518D02*
X11843752Y-15697184D01*
X11843752Y-15716232D02*
X11853275Y-15706708D01*
X11853275Y-15706708D02*
X11872323Y-15697184D01*
X11872323Y-15697184D02*
X11900895Y-15697184D01*
X11900895Y-15697184D02*
X11919942Y-15706708D01*
X11919942Y-15706708D02*
X11929466Y-15725756D01*
X11929466Y-15725756D02*
X11929466Y-15830518D01*
X11929466Y-15725756D02*
X11938990Y-15706708D01*
X11938990Y-15706708D02*
X11958037Y-15697184D01*
X11958037Y-15697184D02*
X11986609Y-15697184D01*
X11986609Y-15697184D02*
X12005656Y-15706708D01*
X12005656Y-15706708D02*
X12015180Y-15725756D01*
X12015180Y-15725756D02*
X12015180Y-15830518D01*
X12110418Y-15830518D02*
X12110418Y-15697184D01*
X12110418Y-15716232D02*
X12119942Y-15706708D01*
X12119942Y-15706708D02*
X12138990Y-15697184D01*
X12138990Y-15697184D02*
X12167561Y-15697184D01*
X12167561Y-15697184D02*
X12186609Y-15706708D01*
X12186609Y-15706708D02*
X12196133Y-15725756D01*
X12196133Y-15725756D02*
X12196133Y-15830518D01*
X12196133Y-15725756D02*
X12205656Y-15706708D01*
X12205656Y-15706708D02*
X12224704Y-15697184D01*
X12224704Y-15697184D02*
X12253275Y-15697184D01*
X12253275Y-15697184D02*
X12272323Y-15706708D01*
X12272323Y-15706708D02*
X12281847Y-15725756D01*
X12281847Y-15725756D02*
X12281847Y-15830518D01*
X12672323Y-15620994D02*
X12500895Y-15878137D01*
X12929466Y-15630518D02*
X12948514Y-15630518D01*
X12948514Y-15630518D02*
X12967561Y-15640042D01*
X12967561Y-15640042D02*
X12977085Y-15649565D01*
X12977085Y-15649565D02*
X12986609Y-15668613D01*
X12986609Y-15668613D02*
X12996133Y-15706708D01*
X12996133Y-15706708D02*
X12996133Y-15754327D01*
X12996133Y-15754327D02*
X12986609Y-15792422D01*
X12986609Y-15792422D02*
X12977085Y-15811470D01*
X12977085Y-15811470D02*
X12967561Y-15820994D01*
X12967561Y-15820994D02*
X12948514Y-15830518D01*
X12948514Y-15830518D02*
X12929466Y-15830518D01*
X12929466Y-15830518D02*
X12910418Y-15820994D01*
X12910418Y-15820994D02*
X12900895Y-15811470D01*
X12900895Y-15811470D02*
X12891371Y-15792422D01*
X12891371Y-15792422D02*
X12881847Y-15754327D01*
X12881847Y-15754327D02*
X12881847Y-15706708D01*
X12881847Y-15706708D02*
X12891371Y-15668613D01*
X12891371Y-15668613D02*
X12900895Y-15649565D01*
X12900895Y-15649565D02*
X12910418Y-15640042D01*
X12910418Y-15640042D02*
X12929466Y-15630518D01*
X13081847Y-15811470D02*
X13091371Y-15820994D01*
X13091371Y-15820994D02*
X13081847Y-15830518D01*
X13081847Y-15830518D02*
X13072323Y-15820994D01*
X13072323Y-15820994D02*
X13081847Y-15811470D01*
X13081847Y-15811470D02*
X13081847Y-15830518D01*
X13215180Y-15630518D02*
X13234228Y-15630518D01*
X13234228Y-15630518D02*
X13253276Y-15640042D01*
X13253276Y-15640042D02*
X13262799Y-15649565D01*
X13262799Y-15649565D02*
X13272323Y-15668613D01*
X13272323Y-15668613D02*
X13281847Y-15706708D01*
X13281847Y-15706708D02*
X13281847Y-15754327D01*
X13281847Y-15754327D02*
X13272323Y-15792422D01*
X13272323Y-15792422D02*
X13262799Y-15811470D01*
X13262799Y-15811470D02*
X13253276Y-15820994D01*
X13253276Y-15820994D02*
X13234228Y-15830518D01*
X13234228Y-15830518D02*
X13215180Y-15830518D01*
X13215180Y-15830518D02*
X13196133Y-15820994D01*
X13196133Y-15820994D02*
X13186609Y-15811470D01*
X13186609Y-15811470D02*
X13177085Y-15792422D01*
X13177085Y-15792422D02*
X13167561Y-15754327D01*
X13167561Y-15754327D02*
X13167561Y-15706708D01*
X13167561Y-15706708D02*
X13177085Y-15668613D01*
X13177085Y-15668613D02*
X13186609Y-15649565D01*
X13186609Y-15649565D02*
X13196133Y-15640042D01*
X13196133Y-15640042D02*
X13215180Y-15630518D01*
X13377085Y-15830518D02*
X13415180Y-15830518D01*
X13415180Y-15830518D02*
X13434228Y-15820994D01*
X13434228Y-15820994D02*
X13443752Y-15811470D01*
X13443752Y-15811470D02*
X13462799Y-15782899D01*
X13462799Y-15782899D02*
X13472323Y-15744803D01*
X13472323Y-15744803D02*
X13472323Y-15668613D01*
X13472323Y-15668613D02*
X13462799Y-15649565D01*
X13462799Y-15649565D02*
X13453276Y-15640042D01*
X13453276Y-15640042D02*
X13434228Y-15630518D01*
X13434228Y-15630518D02*
X13396133Y-15630518D01*
X13396133Y-15630518D02*
X13377085Y-15640042D01*
X13377085Y-15640042D02*
X13367561Y-15649565D01*
X13367561Y-15649565D02*
X13358038Y-15668613D01*
X13358038Y-15668613D02*
X13358038Y-15716232D01*
X13358038Y-15716232D02*
X13367561Y-15735280D01*
X13367561Y-15735280D02*
X13377085Y-15744803D01*
X13377085Y-15744803D02*
X13396133Y-15754327D01*
X13396133Y-15754327D02*
X13434228Y-15754327D01*
X13434228Y-15754327D02*
X13453276Y-15744803D01*
X13453276Y-15744803D02*
X13462799Y-15735280D01*
X13462799Y-15735280D02*
X13472323Y-15716232D01*
X13596133Y-15630518D02*
X13615180Y-15630518D01*
X13615180Y-15630518D02*
X13634228Y-15640042D01*
X13634228Y-15640042D02*
X13643752Y-15649565D01*
X13643752Y-15649565D02*
X13653276Y-15668613D01*
X13653276Y-15668613D02*
X13662799Y-15706708D01*
X13662799Y-15706708D02*
X13662799Y-15754327D01*
X13662799Y-15754327D02*
X13653276Y-15792422D01*
X13653276Y-15792422D02*
X13643752Y-15811470D01*
X13643752Y-15811470D02*
X13634228Y-15820994D01*
X13634228Y-15820994D02*
X13615180Y-15830518D01*
X13615180Y-15830518D02*
X13596133Y-15830518D01*
X13596133Y-15830518D02*
X13577085Y-15820994D01*
X13577085Y-15820994D02*
X13567561Y-15811470D01*
X13567561Y-15811470D02*
X13558038Y-15792422D01*
X13558038Y-15792422D02*
X13548514Y-15754327D01*
X13548514Y-15754327D02*
X13548514Y-15706708D01*
X13548514Y-15706708D02*
X13558038Y-15668613D01*
X13558038Y-15668613D02*
X13567561Y-15649565D01*
X13567561Y-15649565D02*
X13577085Y-15640042D01*
X13577085Y-15640042D02*
X13596133Y-15630518D01*
X13834228Y-15630518D02*
X13796133Y-15630518D01*
X13796133Y-15630518D02*
X13777085Y-15640042D01*
X13777085Y-15640042D02*
X13767561Y-15649565D01*
X13767561Y-15649565D02*
X13748514Y-15678137D01*
X13748514Y-15678137D02*
X13738990Y-15716232D01*
X13738990Y-15716232D02*
X13738990Y-15792422D01*
X13738990Y-15792422D02*
X13748514Y-15811470D01*
X13748514Y-15811470D02*
X13758038Y-15820994D01*
X13758038Y-15820994D02*
X13777085Y-15830518D01*
X13777085Y-15830518D02*
X13815180Y-15830518D01*
X13815180Y-15830518D02*
X13834228Y-15820994D01*
X13834228Y-15820994D02*
X13843752Y-15811470D01*
X13843752Y-15811470D02*
X13853276Y-15792422D01*
X13853276Y-15792422D02*
X13853276Y-15744803D01*
X13853276Y-15744803D02*
X13843752Y-15725756D01*
X13843752Y-15725756D02*
X13834228Y-15716232D01*
X13834228Y-15716232D02*
X13815180Y-15706708D01*
X13815180Y-15706708D02*
X13777085Y-15706708D01*
X13777085Y-15706708D02*
X13758038Y-15716232D01*
X13758038Y-15716232D02*
X13748514Y-15725756D01*
X13748514Y-15725756D02*
X13738990Y-15744803D01*
X13929466Y-15630518D02*
X13929466Y-15668613D01*
X14005657Y-15630518D02*
X14005657Y-15668613D01*
X14300895Y-15906708D02*
X14291371Y-15897184D01*
X14291371Y-15897184D02*
X14272323Y-15868613D01*
X14272323Y-15868613D02*
X14262800Y-15849565D01*
X14262800Y-15849565D02*
X14253276Y-15820994D01*
X14253276Y-15820994D02*
X14243752Y-15773375D01*
X14243752Y-15773375D02*
X14243752Y-15735280D01*
X14243752Y-15735280D02*
X14253276Y-15687661D01*
X14253276Y-15687661D02*
X14262800Y-15659089D01*
X14262800Y-15659089D02*
X14272323Y-15640042D01*
X14272323Y-15640042D02*
X14291371Y-15611470D01*
X14291371Y-15611470D02*
X14300895Y-15601946D01*
X14367561Y-15649565D02*
X14377085Y-15640042D01*
X14377085Y-15640042D02*
X14396133Y-15630518D01*
X14396133Y-15630518D02*
X14443752Y-15630518D01*
X14443752Y-15630518D02*
X14462800Y-15640042D01*
X14462800Y-15640042D02*
X14472323Y-15649565D01*
X14472323Y-15649565D02*
X14481847Y-15668613D01*
X14481847Y-15668613D02*
X14481847Y-15687661D01*
X14481847Y-15687661D02*
X14472323Y-15716232D01*
X14472323Y-15716232D02*
X14358038Y-15830518D01*
X14358038Y-15830518D02*
X14481847Y-15830518D01*
X14719942Y-15830518D02*
X14719942Y-15630518D01*
X14805657Y-15830518D02*
X14805657Y-15725756D01*
X14805657Y-15725756D02*
X14796133Y-15706708D01*
X14796133Y-15706708D02*
X14777085Y-15697184D01*
X14777085Y-15697184D02*
X14748514Y-15697184D01*
X14748514Y-15697184D02*
X14729466Y-15706708D01*
X14729466Y-15706708D02*
X14719942Y-15716232D01*
X14929466Y-15830518D02*
X14910419Y-15820994D01*
X14910419Y-15820994D02*
X14900895Y-15811470D01*
X14900895Y-15811470D02*
X14891371Y-15792422D01*
X14891371Y-15792422D02*
X14891371Y-15735280D01*
X14891371Y-15735280D02*
X14900895Y-15716232D01*
X14900895Y-15716232D02*
X14910419Y-15706708D01*
X14910419Y-15706708D02*
X14929466Y-15697184D01*
X14929466Y-15697184D02*
X14958038Y-15697184D01*
X14958038Y-15697184D02*
X14977085Y-15706708D01*
X14977085Y-15706708D02*
X14986609Y-15716232D01*
X14986609Y-15716232D02*
X14996133Y-15735280D01*
X14996133Y-15735280D02*
X14996133Y-15792422D01*
X14996133Y-15792422D02*
X14986609Y-15811470D01*
X14986609Y-15811470D02*
X14977085Y-15820994D01*
X14977085Y-15820994D02*
X14958038Y-15830518D01*
X14958038Y-15830518D02*
X14929466Y-15830518D01*
X15110419Y-15830518D02*
X15091371Y-15820994D01*
X15091371Y-15820994D02*
X15081847Y-15801946D01*
X15081847Y-15801946D02*
X15081847Y-15630518D01*
X15262800Y-15820994D02*
X15243752Y-15830518D01*
X15243752Y-15830518D02*
X15205657Y-15830518D01*
X15205657Y-15830518D02*
X15186609Y-15820994D01*
X15186609Y-15820994D02*
X15177085Y-15801946D01*
X15177085Y-15801946D02*
X15177085Y-15725756D01*
X15177085Y-15725756D02*
X15186609Y-15706708D01*
X15186609Y-15706708D02*
X15205657Y-15697184D01*
X15205657Y-15697184D02*
X15243752Y-15697184D01*
X15243752Y-15697184D02*
X15262800Y-15706708D01*
X15262800Y-15706708D02*
X15272323Y-15725756D01*
X15272323Y-15725756D02*
X15272323Y-15744803D01*
X15272323Y-15744803D02*
X15177085Y-15763851D01*
X15348514Y-15820994D02*
X15367562Y-15830518D01*
X15367562Y-15830518D02*
X15405657Y-15830518D01*
X15405657Y-15830518D02*
X15424704Y-15820994D01*
X15424704Y-15820994D02*
X15434228Y-15801946D01*
X15434228Y-15801946D02*
X15434228Y-15792422D01*
X15434228Y-15792422D02*
X15424704Y-15773375D01*
X15424704Y-15773375D02*
X15405657Y-15763851D01*
X15405657Y-15763851D02*
X15377085Y-15763851D01*
X15377085Y-15763851D02*
X15358038Y-15754327D01*
X15358038Y-15754327D02*
X15348514Y-15735280D01*
X15348514Y-15735280D02*
X15348514Y-15725756D01*
X15348514Y-15725756D02*
X15358038Y-15706708D01*
X15358038Y-15706708D02*
X15377085Y-15697184D01*
X15377085Y-15697184D02*
X15405657Y-15697184D01*
X15405657Y-15697184D02*
X15424704Y-15706708D01*
X15500895Y-15906708D02*
X15510419Y-15897184D01*
X15510419Y-15897184D02*
X15529466Y-15868613D01*
X15529466Y-15868613D02*
X15538990Y-15849565D01*
X15538990Y-15849565D02*
X15548514Y-15820994D01*
X15548514Y-15820994D02*
X15558038Y-15773375D01*
X15558038Y-15773375D02*
X15558038Y-15735280D01*
X15558038Y-15735280D02*
X15548514Y-15687661D01*
X15548514Y-15687661D02*
X15538990Y-15659089D01*
X15538990Y-15659089D02*
X15529466Y-15640042D01*
X15529466Y-15640042D02*
X15510419Y-15611470D01*
X15510419Y-15611470D02*
X15500895Y-15601946D01*
M02*
