G04 Layer: BottomSilkscreenLayer*
G04 EasyEDA v6.5.25, 2024-03-23 21:11:36*

G04 Gerber Generator version 0.2*
G04 Scale: 100 percent, Rotated: No, Reflected: No *
G04 Dimensions in millimeters  *
G04 leading zeros omitted , absolute positions ,3 integer and 6 decimal *
%TF.GenerationSoftware,KiCad,Pcbnew,7.0.9*%
%TF.CreationDate,2025-01-01T13:08:25+08:00*%
%TF.ProjectId,ver0.1-rounded,76657230-2e31-42d7-926f-756e6465642e,rev?*%
%TF.SameCoordinates,Original*%
%TF.FileFunction,Legend,Bot*%
%TF.FilePolarity,Positive*%
%FSLAX46Y46*%
G04 Gerber Fmt 4.6, Leading zero omitted, Abs format (unit mm)*
G04 Created by KiCad (PCBNEW 7.0.9) date 2025-01-01 13:08:25*
%MOMM*%
%LPD*%
G01*
G04 APERTURE LIST*
%ADD10C,0.150000*%
%ADD11C,0.076200*%
%ADD12C,0.100000*%
%ADD13C,0.120000*%
%ADD14C,0.200000*%
G04 APERTURE END LIST*
D10*
X179679143Y-115020164D02*
X179929143Y-114663021D01*
X180107714Y-115020164D02*
X180107714Y-114270164D01*
X180107714Y-114270164D02*
X179822000Y-114270164D01*
X179822000Y-114270164D02*
X179750571Y-114305878D01*
X179750571Y-114305878D02*
X179714857Y-114341592D01*
X179714857Y-114341592D02*
X179679143Y-114413021D01*
X179679143Y-114413021D02*
X179679143Y-114520164D01*
X179679143Y-114520164D02*
X179714857Y-114591592D01*
X179714857Y-114591592D02*
X179750571Y-114627307D01*
X179750571Y-114627307D02*
X179822000Y-114663021D01*
X179822000Y-114663021D02*
X180107714Y-114663021D01*
X179036286Y-114520164D02*
X179036286Y-115020164D01*
X179214857Y-114234450D02*
X179393428Y-114770164D01*
X179393428Y-114770164D02*
X178929143Y-114770164D01*
X178714857Y-114270164D02*
X178250571Y-114270164D01*
X178250571Y-114270164D02*
X178500571Y-114555878D01*
X178500571Y-114555878D02*
X178393428Y-114555878D01*
X178393428Y-114555878D02*
X178322000Y-114591592D01*
X178322000Y-114591592D02*
X178286285Y-114627307D01*
X178286285Y-114627307D02*
X178250571Y-114698735D01*
X178250571Y-114698735D02*
X178250571Y-114877307D01*
X178250571Y-114877307D02*
X178286285Y-114948735D01*
X178286285Y-114948735D02*
X178322000Y-114984450D01*
X178322000Y-114984450D02*
X178393428Y-115020164D01*
X178393428Y-115020164D02*
X178607714Y-115020164D01*
X178607714Y-115020164D02*
X178679142Y-114984450D01*
X178679142Y-114984450D02*
X178714857Y-114948735D01*
D11*
X152090343Y-112674824D02*
X152120582Y-112640806D01*
X152120582Y-112640806D02*
X152150820Y-112546312D01*
X152150820Y-112546312D02*
X152150820Y-112485836D01*
X152150820Y-112485836D02*
X152120582Y-112398901D01*
X152120582Y-112398901D02*
X152060105Y-112345985D01*
X152060105Y-112345985D02*
X151999629Y-112323306D01*
X151999629Y-112323306D02*
X151878677Y-112308187D01*
X151878677Y-112308187D02*
X151787962Y-112319526D01*
X151787962Y-112319526D02*
X151667010Y-112364883D01*
X151667010Y-112364883D02*
X151606534Y-112402681D01*
X151606534Y-112402681D02*
X151546058Y-112470717D01*
X151546058Y-112470717D02*
X151515820Y-112565211D01*
X151515820Y-112565211D02*
X151515820Y-112625687D01*
X151515820Y-112625687D02*
X151546058Y-112712622D01*
X151546058Y-112712622D02*
X151576296Y-112739080D01*
X152150820Y-113272026D02*
X152150820Y-112909169D01*
X152150820Y-113090598D02*
X151515820Y-113169973D01*
X151515820Y-113169973D02*
X151606534Y-113098157D01*
X151606534Y-113098157D02*
X151667010Y-113030122D01*
X151667010Y-113030122D02*
X151697248Y-112965866D01*
X151515820Y-113744497D02*
X151515820Y-113804973D01*
X151515820Y-113804973D02*
X151546058Y-113861669D01*
X151546058Y-113861669D02*
X151576296Y-113888128D01*
X151576296Y-113888128D02*
X151636772Y-113910806D01*
X151636772Y-113910806D02*
X151757724Y-113925925D01*
X151757724Y-113925925D02*
X151908915Y-113907026D01*
X151908915Y-113907026D02*
X152029867Y-113861669D01*
X152029867Y-113861669D02*
X152090343Y-113823872D01*
X152090343Y-113823872D02*
X152120582Y-113789854D01*
X152120582Y-113789854D02*
X152150820Y-113725598D01*
X152150820Y-113725598D02*
X152150820Y-113665122D01*
X152150820Y-113665122D02*
X152120582Y-113608425D01*
X152120582Y-113608425D02*
X152090343Y-113581967D01*
X152090343Y-113581967D02*
X152029867Y-113559288D01*
X152029867Y-113559288D02*
X151908915Y-113544169D01*
X151908915Y-113544169D02*
X151757724Y-113563068D01*
X151757724Y-113563068D02*
X151636772Y-113608425D01*
X151636772Y-113608425D02*
X151576296Y-113646223D01*
X151576296Y-113646223D02*
X151546058Y-113680241D01*
X151546058Y-113680241D02*
X151515820Y-113744497D01*
X152150820Y-114481550D02*
X152150820Y-114118693D01*
X152150820Y-114300122D02*
X151515820Y-114379497D01*
X151515820Y-114379497D02*
X151606534Y-114307681D01*
X151606534Y-114307681D02*
X151667010Y-114239646D01*
X151667010Y-114239646D02*
X151697248Y-114175390D01*
X166796943Y-112977205D02*
X166827182Y-112943187D01*
X166827182Y-112943187D02*
X166857420Y-112848693D01*
X166857420Y-112848693D02*
X166857420Y-112788217D01*
X166857420Y-112788217D02*
X166827182Y-112701282D01*
X166827182Y-112701282D02*
X166766705Y-112648366D01*
X166766705Y-112648366D02*
X166706229Y-112625687D01*
X166706229Y-112625687D02*
X166585277Y-112610568D01*
X166585277Y-112610568D02*
X166494562Y-112621907D01*
X166494562Y-112621907D02*
X166373610Y-112667264D01*
X166373610Y-112667264D02*
X166313134Y-112705062D01*
X166313134Y-112705062D02*
X166252658Y-112773098D01*
X166252658Y-112773098D02*
X166222420Y-112867592D01*
X166222420Y-112867592D02*
X166222420Y-112928068D01*
X166222420Y-112928068D02*
X166252658Y-113015003D01*
X166252658Y-113015003D02*
X166282896Y-113041461D01*
X166857420Y-113272026D02*
X166857420Y-113392979D01*
X166857420Y-113392979D02*
X166827182Y-113457235D01*
X166827182Y-113457235D02*
X166796943Y-113491253D01*
X166796943Y-113491253D02*
X166706229Y-113563068D01*
X166706229Y-113563068D02*
X166585277Y-113608425D01*
X166585277Y-113608425D02*
X166343372Y-113638663D01*
X166343372Y-113638663D02*
X166282896Y-113615985D01*
X166282896Y-113615985D02*
X166252658Y-113589526D01*
X166252658Y-113589526D02*
X166222420Y-113532830D01*
X166222420Y-113532830D02*
X166222420Y-113411878D01*
X166222420Y-113411878D02*
X166252658Y-113347622D01*
X166252658Y-113347622D02*
X166282896Y-113313604D01*
X166282896Y-113313604D02*
X166343372Y-113275806D01*
X166343372Y-113275806D02*
X166494562Y-113256907D01*
X166494562Y-113256907D02*
X166555039Y-113279586D01*
X166555039Y-113279586D02*
X166585277Y-113306044D01*
X166585277Y-113306044D02*
X166615515Y-113362741D01*
X166615515Y-113362741D02*
X166615515Y-113483693D01*
X166615515Y-113483693D02*
X166585277Y-113547949D01*
X166585277Y-113547949D02*
X166555039Y-113581967D01*
X166555039Y-113581967D02*
X166494562Y-113619764D01*
X166494562Y-113982622D02*
X166464324Y-113925925D01*
X166464324Y-113925925D02*
X166434086Y-113899467D01*
X166434086Y-113899467D02*
X166373610Y-113876788D01*
X166373610Y-113876788D02*
X166343372Y-113880568D01*
X166343372Y-113880568D02*
X166282896Y-113918366D01*
X166282896Y-113918366D02*
X166252658Y-113952384D01*
X166252658Y-113952384D02*
X166222420Y-114016640D01*
X166222420Y-114016640D02*
X166222420Y-114137592D01*
X166222420Y-114137592D02*
X166252658Y-114194288D01*
X166252658Y-114194288D02*
X166282896Y-114220747D01*
X166282896Y-114220747D02*
X166343372Y-114243425D01*
X166343372Y-114243425D02*
X166373610Y-114239645D01*
X166373610Y-114239645D02*
X166434086Y-114201848D01*
X166434086Y-114201848D02*
X166464324Y-114167830D01*
X166464324Y-114167830D02*
X166494562Y-114103574D01*
X166494562Y-114103574D02*
X166494562Y-113982622D01*
X166494562Y-113982622D02*
X166524801Y-113918366D01*
X166524801Y-113918366D02*
X166555039Y-113884348D01*
X166555039Y-113884348D02*
X166615515Y-113846550D01*
X166615515Y-113846550D02*
X166736467Y-113831431D01*
X166736467Y-113831431D02*
X166796943Y-113854110D01*
X166796943Y-113854110D02*
X166827182Y-113880568D01*
X166827182Y-113880568D02*
X166857420Y-113937265D01*
X166857420Y-113937265D02*
X166857420Y-114058217D01*
X166857420Y-114058217D02*
X166827182Y-114122473D01*
X166827182Y-114122473D02*
X166796943Y-114156491D01*
X166796943Y-114156491D02*
X166736467Y-114194288D01*
X166736467Y-114194288D02*
X166615515Y-114209407D01*
X166615515Y-114209407D02*
X166555039Y-114186729D01*
X166555039Y-114186729D02*
X166524801Y-114160270D01*
X166524801Y-114160270D02*
X166494562Y-114103574D01*
X159429923Y-78980060D02*
X159460162Y-78946042D01*
X159460162Y-78946042D02*
X159490400Y-78851548D01*
X159490400Y-78851548D02*
X159490400Y-78791072D01*
X159490400Y-78791072D02*
X159460162Y-78704137D01*
X159460162Y-78704137D02*
X159399685Y-78651221D01*
X159399685Y-78651221D02*
X159339209Y-78628542D01*
X159339209Y-78628542D02*
X159218257Y-78613423D01*
X159218257Y-78613423D02*
X159127542Y-78624762D01*
X159127542Y-78624762D02*
X159006590Y-78670119D01*
X159006590Y-78670119D02*
X158946114Y-78707917D01*
X158946114Y-78707917D02*
X158885638Y-78775953D01*
X158885638Y-78775953D02*
X158855400Y-78870447D01*
X158855400Y-78870447D02*
X158855400Y-78930923D01*
X158855400Y-78930923D02*
X158885638Y-79017858D01*
X158885638Y-79017858D02*
X158915876Y-79044316D01*
X159490400Y-79577262D02*
X159490400Y-79214405D01*
X159490400Y-79395834D02*
X158855400Y-79475209D01*
X158855400Y-79475209D02*
X158946114Y-79403393D01*
X158946114Y-79403393D02*
X159006590Y-79335358D01*
X159006590Y-79335358D02*
X159036828Y-79271102D01*
X158855400Y-80049733D02*
X158855400Y-80110209D01*
X158855400Y-80110209D02*
X158885638Y-80166905D01*
X158885638Y-80166905D02*
X158915876Y-80193364D01*
X158915876Y-80193364D02*
X158976352Y-80216042D01*
X158976352Y-80216042D02*
X159097304Y-80231161D01*
X159097304Y-80231161D02*
X159248495Y-80212262D01*
X159248495Y-80212262D02*
X159369447Y-80166905D01*
X159369447Y-80166905D02*
X159429923Y-80129108D01*
X159429923Y-80129108D02*
X159460162Y-80095090D01*
X159460162Y-80095090D02*
X159490400Y-80030834D01*
X159490400Y-80030834D02*
X159490400Y-79970358D01*
X159490400Y-79970358D02*
X159460162Y-79913661D01*
X159460162Y-79913661D02*
X159429923Y-79887203D01*
X159429923Y-79887203D02*
X159369447Y-79864524D01*
X159369447Y-79864524D02*
X159248495Y-79849405D01*
X159248495Y-79849405D02*
X159097304Y-79868304D01*
X159097304Y-79868304D02*
X158976352Y-79913661D01*
X158976352Y-79913661D02*
X158915876Y-79951459D01*
X158915876Y-79951459D02*
X158885638Y-79985477D01*
X158885638Y-79985477D02*
X158855400Y-80049733D01*
X159067066Y-80779227D02*
X159490400Y-80726310D01*
X158825162Y-80658274D02*
X159278733Y-80450387D01*
X159278733Y-80450387D02*
X159278733Y-80843483D01*
X144724343Y-129489824D02*
X144754582Y-129455806D01*
X144754582Y-129455806D02*
X144784820Y-129361312D01*
X144784820Y-129361312D02*
X144784820Y-129300836D01*
X144784820Y-129300836D02*
X144754582Y-129213901D01*
X144754582Y-129213901D02*
X144694105Y-129160985D01*
X144694105Y-129160985D02*
X144633629Y-129138306D01*
X144633629Y-129138306D02*
X144512677Y-129123187D01*
X144512677Y-129123187D02*
X144421962Y-129134526D01*
X144421962Y-129134526D02*
X144301010Y-129179883D01*
X144301010Y-129179883D02*
X144240534Y-129217681D01*
X144240534Y-129217681D02*
X144180058Y-129285717D01*
X144180058Y-129285717D02*
X144149820Y-129380211D01*
X144149820Y-129380211D02*
X144149820Y-129440687D01*
X144149820Y-129440687D02*
X144180058Y-129527622D01*
X144180058Y-129527622D02*
X144210296Y-129554080D01*
X144784820Y-130087026D02*
X144784820Y-129724169D01*
X144784820Y-129905598D02*
X144149820Y-129984973D01*
X144149820Y-129984973D02*
X144240534Y-129913157D01*
X144240534Y-129913157D02*
X144301010Y-129845122D01*
X144301010Y-129845122D02*
X144331248Y-129780866D01*
X144149820Y-130559497D02*
X144149820Y-130619973D01*
X144149820Y-130619973D02*
X144180058Y-130676669D01*
X144180058Y-130676669D02*
X144210296Y-130703128D01*
X144210296Y-130703128D02*
X144270772Y-130725806D01*
X144270772Y-130725806D02*
X144391724Y-130740925D01*
X144391724Y-130740925D02*
X144542915Y-130722026D01*
X144542915Y-130722026D02*
X144663867Y-130676669D01*
X144663867Y-130676669D02*
X144724343Y-130638872D01*
X144724343Y-130638872D02*
X144754582Y-130604854D01*
X144754582Y-130604854D02*
X144784820Y-130540598D01*
X144784820Y-130540598D02*
X144784820Y-130480122D01*
X144784820Y-130480122D02*
X144754582Y-130423425D01*
X144754582Y-130423425D02*
X144724343Y-130396967D01*
X144724343Y-130396967D02*
X144663867Y-130374288D01*
X144663867Y-130374288D02*
X144542915Y-130359169D01*
X144542915Y-130359169D02*
X144391724Y-130378068D01*
X144391724Y-130378068D02*
X144270772Y-130423425D01*
X144270772Y-130423425D02*
X144210296Y-130461223D01*
X144210296Y-130461223D02*
X144180058Y-130495241D01*
X144180058Y-130495241D02*
X144149820Y-130559497D01*
X144149820Y-131345687D02*
X144149820Y-131043306D01*
X144149820Y-131043306D02*
X144452201Y-130975271D01*
X144452201Y-130975271D02*
X144421962Y-131009288D01*
X144421962Y-131009288D02*
X144391724Y-131073544D01*
X144391724Y-131073544D02*
X144391724Y-131224735D01*
X144391724Y-131224735D02*
X144421962Y-131281431D01*
X144421962Y-131281431D02*
X144452201Y-131307890D01*
X144452201Y-131307890D02*
X144512677Y-131330568D01*
X144512677Y-131330568D02*
X144663867Y-131311669D01*
X144663867Y-131311669D02*
X144724343Y-131273872D01*
X144724343Y-131273872D02*
X144754582Y-131239854D01*
X144754582Y-131239854D02*
X144784820Y-131175598D01*
X144784820Y-131175598D02*
X144784820Y-131024407D01*
X144784820Y-131024407D02*
X144754582Y-130967711D01*
X144754582Y-130967711D02*
X144724343Y-130941253D01*
X166796943Y-129792205D02*
X166827182Y-129758187D01*
X166827182Y-129758187D02*
X166857420Y-129663693D01*
X166857420Y-129663693D02*
X166857420Y-129603217D01*
X166857420Y-129603217D02*
X166827182Y-129516282D01*
X166827182Y-129516282D02*
X166766705Y-129463366D01*
X166766705Y-129463366D02*
X166706229Y-129440687D01*
X166706229Y-129440687D02*
X166585277Y-129425568D01*
X166585277Y-129425568D02*
X166494562Y-129436907D01*
X166494562Y-129436907D02*
X166373610Y-129482264D01*
X166373610Y-129482264D02*
X166313134Y-129520062D01*
X166313134Y-129520062D02*
X166252658Y-129588098D01*
X166252658Y-129588098D02*
X166222420Y-129682592D01*
X166222420Y-129682592D02*
X166222420Y-129743068D01*
X166222420Y-129743068D02*
X166252658Y-129830003D01*
X166252658Y-129830003D02*
X166282896Y-129856461D01*
X166222420Y-130075687D02*
X166222420Y-130499020D01*
X166222420Y-130499020D02*
X166857420Y-130147503D01*
X166222420Y-130861878D02*
X166222420Y-130922354D01*
X166222420Y-130922354D02*
X166252658Y-130979050D01*
X166252658Y-130979050D02*
X166282896Y-131005509D01*
X166282896Y-131005509D02*
X166343372Y-131028187D01*
X166343372Y-131028187D02*
X166464324Y-131043306D01*
X166464324Y-131043306D02*
X166615515Y-131024407D01*
X166615515Y-131024407D02*
X166736467Y-130979050D01*
X166736467Y-130979050D02*
X166796943Y-130941253D01*
X166796943Y-130941253D02*
X166827182Y-130907235D01*
X166827182Y-130907235D02*
X166857420Y-130842979D01*
X166857420Y-130842979D02*
X166857420Y-130782503D01*
X166857420Y-130782503D02*
X166827182Y-130725806D01*
X166827182Y-130725806D02*
X166796943Y-130699348D01*
X166796943Y-130699348D02*
X166736467Y-130676669D01*
X166736467Y-130676669D02*
X166615515Y-130661550D01*
X166615515Y-130661550D02*
X166464324Y-130680449D01*
X166464324Y-130680449D02*
X166343372Y-130725806D01*
X166343372Y-130725806D02*
X166282896Y-130763604D01*
X166282896Y-130763604D02*
X166252658Y-130797622D01*
X166252658Y-130797622D02*
X166222420Y-130861878D01*
X152089323Y-79300765D02*
X152119562Y-79266747D01*
X152119562Y-79266747D02*
X152149800Y-79172253D01*
X152149800Y-79172253D02*
X152149800Y-79111777D01*
X152149800Y-79111777D02*
X152119562Y-79024842D01*
X152119562Y-79024842D02*
X152059085Y-78971926D01*
X152059085Y-78971926D02*
X151998609Y-78949247D01*
X151998609Y-78949247D02*
X151877657Y-78934128D01*
X151877657Y-78934128D02*
X151786942Y-78945467D01*
X151786942Y-78945467D02*
X151665990Y-78990824D01*
X151665990Y-78990824D02*
X151605514Y-79028622D01*
X151605514Y-79028622D02*
X151545038Y-79096658D01*
X151545038Y-79096658D02*
X151514800Y-79191152D01*
X151514800Y-79191152D02*
X151514800Y-79251628D01*
X151514800Y-79251628D02*
X151545038Y-79338563D01*
X151545038Y-79338563D02*
X151575276Y-79365021D01*
X151514800Y-79916866D02*
X151514800Y-79795914D01*
X151514800Y-79795914D02*
X151545038Y-79731658D01*
X151545038Y-79731658D02*
X151575276Y-79697640D01*
X151575276Y-79697640D02*
X151665990Y-79625824D01*
X151665990Y-79625824D02*
X151786942Y-79580467D01*
X151786942Y-79580467D02*
X152028847Y-79550229D01*
X152028847Y-79550229D02*
X152089323Y-79572908D01*
X152089323Y-79572908D02*
X152119562Y-79599366D01*
X152119562Y-79599366D02*
X152149800Y-79656063D01*
X152149800Y-79656063D02*
X152149800Y-79777015D01*
X152149800Y-79777015D02*
X152119562Y-79841271D01*
X152119562Y-79841271D02*
X152089323Y-79875289D01*
X152089323Y-79875289D02*
X152028847Y-79913086D01*
X152028847Y-79913086D02*
X151877657Y-79931985D01*
X151877657Y-79931985D02*
X151817181Y-79909307D01*
X151817181Y-79909307D02*
X151786942Y-79882848D01*
X151786942Y-79882848D02*
X151756704Y-79826152D01*
X151756704Y-79826152D02*
X151756704Y-79705199D01*
X151756704Y-79705199D02*
X151786942Y-79640943D01*
X151786942Y-79640943D02*
X151817181Y-79606926D01*
X151817181Y-79606926D02*
X151877657Y-79569128D01*
X151514800Y-80189009D02*
X151514800Y-80612342D01*
X151514800Y-80612342D02*
X152149800Y-80260825D01*
X144749743Y-96136805D02*
X144779982Y-96102787D01*
X144779982Y-96102787D02*
X144810220Y-96008293D01*
X144810220Y-96008293D02*
X144810220Y-95947817D01*
X144810220Y-95947817D02*
X144779982Y-95860882D01*
X144779982Y-95860882D02*
X144719505Y-95807966D01*
X144719505Y-95807966D02*
X144659029Y-95785287D01*
X144659029Y-95785287D02*
X144538077Y-95770168D01*
X144538077Y-95770168D02*
X144447362Y-95781507D01*
X144447362Y-95781507D02*
X144326410Y-95826864D01*
X144326410Y-95826864D02*
X144265934Y-95864662D01*
X144265934Y-95864662D02*
X144205458Y-95932698D01*
X144205458Y-95932698D02*
X144175220Y-96027192D01*
X144175220Y-96027192D02*
X144175220Y-96087668D01*
X144175220Y-96087668D02*
X144205458Y-96174603D01*
X144205458Y-96174603D02*
X144235696Y-96201061D01*
X144175220Y-96420287D02*
X144175220Y-96843620D01*
X144175220Y-96843620D02*
X144810220Y-96492103D01*
X144810220Y-97338769D02*
X144810220Y-96975912D01*
X144810220Y-97157341D02*
X144175220Y-97236716D01*
X144175220Y-97236716D02*
X144265934Y-97164900D01*
X144265934Y-97164900D02*
X144326410Y-97096865D01*
X144326410Y-97096865D02*
X144356648Y-97032609D01*
X144724343Y-112977205D02*
X144754582Y-112943187D01*
X144754582Y-112943187D02*
X144784820Y-112848693D01*
X144784820Y-112848693D02*
X144784820Y-112788217D01*
X144784820Y-112788217D02*
X144754582Y-112701282D01*
X144754582Y-112701282D02*
X144694105Y-112648366D01*
X144694105Y-112648366D02*
X144633629Y-112625687D01*
X144633629Y-112625687D02*
X144512677Y-112610568D01*
X144512677Y-112610568D02*
X144421962Y-112621907D01*
X144421962Y-112621907D02*
X144301010Y-112667264D01*
X144301010Y-112667264D02*
X144240534Y-112705062D01*
X144240534Y-112705062D02*
X144180058Y-112773098D01*
X144180058Y-112773098D02*
X144149820Y-112867592D01*
X144149820Y-112867592D02*
X144149820Y-112928068D01*
X144149820Y-112928068D02*
X144180058Y-113015003D01*
X144180058Y-113015003D02*
X144210296Y-113041461D01*
X144784820Y-113272026D02*
X144784820Y-113392979D01*
X144784820Y-113392979D02*
X144754582Y-113457235D01*
X144754582Y-113457235D02*
X144724343Y-113491253D01*
X144724343Y-113491253D02*
X144633629Y-113563068D01*
X144633629Y-113563068D02*
X144512677Y-113608425D01*
X144512677Y-113608425D02*
X144270772Y-113638663D01*
X144270772Y-113638663D02*
X144210296Y-113615985D01*
X144210296Y-113615985D02*
X144180058Y-113589526D01*
X144180058Y-113589526D02*
X144149820Y-113532830D01*
X144149820Y-113532830D02*
X144149820Y-113411878D01*
X144149820Y-113411878D02*
X144180058Y-113347622D01*
X144180058Y-113347622D02*
X144210296Y-113313604D01*
X144210296Y-113313604D02*
X144270772Y-113275806D01*
X144270772Y-113275806D02*
X144421962Y-113256907D01*
X144421962Y-113256907D02*
X144482439Y-113279586D01*
X144482439Y-113279586D02*
X144512677Y-113306044D01*
X144512677Y-113306044D02*
X144542915Y-113362741D01*
X144542915Y-113362741D02*
X144542915Y-113483693D01*
X144542915Y-113483693D02*
X144512677Y-113547949D01*
X144512677Y-113547949D02*
X144482439Y-113581967D01*
X144482439Y-113581967D02*
X144421962Y-113619764D01*
X144784820Y-113876788D02*
X144784820Y-113997741D01*
X144784820Y-113997741D02*
X144754582Y-114061997D01*
X144754582Y-114061997D02*
X144724343Y-114096015D01*
X144724343Y-114096015D02*
X144633629Y-114167830D01*
X144633629Y-114167830D02*
X144512677Y-114213187D01*
X144512677Y-114213187D02*
X144270772Y-114243425D01*
X144270772Y-114243425D02*
X144210296Y-114220747D01*
X144210296Y-114220747D02*
X144180058Y-114194288D01*
X144180058Y-114194288D02*
X144149820Y-114137592D01*
X144149820Y-114137592D02*
X144149820Y-114016640D01*
X144149820Y-114016640D02*
X144180058Y-113952384D01*
X144180058Y-113952384D02*
X144210296Y-113918366D01*
X144210296Y-113918366D02*
X144270772Y-113880568D01*
X144270772Y-113880568D02*
X144421962Y-113861669D01*
X144421962Y-113861669D02*
X144482439Y-113884348D01*
X144482439Y-113884348D02*
X144512677Y-113910806D01*
X144512677Y-113910806D02*
X144542915Y-113967503D01*
X144542915Y-113967503D02*
X144542915Y-114088455D01*
X144542915Y-114088455D02*
X144512677Y-114152711D01*
X144512677Y-114152711D02*
X144482439Y-114186729D01*
X144482439Y-114186729D02*
X144421962Y-114224526D01*
X159430943Y-96118481D02*
X159461182Y-96084463D01*
X159461182Y-96084463D02*
X159491420Y-95989969D01*
X159491420Y-95989969D02*
X159491420Y-95929493D01*
X159491420Y-95929493D02*
X159461182Y-95842558D01*
X159461182Y-95842558D02*
X159400705Y-95789642D01*
X159400705Y-95789642D02*
X159340229Y-95766963D01*
X159340229Y-95766963D02*
X159219277Y-95751844D01*
X159219277Y-95751844D02*
X159128562Y-95763183D01*
X159128562Y-95763183D02*
X159007610Y-95808540D01*
X159007610Y-95808540D02*
X158947134Y-95846338D01*
X158947134Y-95846338D02*
X158886658Y-95914374D01*
X158886658Y-95914374D02*
X158856420Y-96008868D01*
X158856420Y-96008868D02*
X158856420Y-96069344D01*
X158856420Y-96069344D02*
X158886658Y-96156279D01*
X158886658Y-96156279D02*
X158916896Y-96182737D01*
X158856420Y-96401963D02*
X158856420Y-96825296D01*
X158856420Y-96825296D02*
X159491420Y-96473779D01*
X158916896Y-97029404D02*
X158886658Y-97063421D01*
X158886658Y-97063421D02*
X158856420Y-97127677D01*
X158856420Y-97127677D02*
X158856420Y-97278868D01*
X158856420Y-97278868D02*
X158886658Y-97335564D01*
X158886658Y-97335564D02*
X158916896Y-97362023D01*
X158916896Y-97362023D02*
X158977372Y-97384701D01*
X158977372Y-97384701D02*
X159037848Y-97377142D01*
X159037848Y-97377142D02*
X159128562Y-97335564D01*
X159128562Y-97335564D02*
X159491420Y-96927350D01*
X159491420Y-96927350D02*
X159491420Y-97320445D01*
X144748723Y-79300765D02*
X144778962Y-79266747D01*
X144778962Y-79266747D02*
X144809200Y-79172253D01*
X144809200Y-79172253D02*
X144809200Y-79111777D01*
X144809200Y-79111777D02*
X144778962Y-79024842D01*
X144778962Y-79024842D02*
X144718485Y-78971926D01*
X144718485Y-78971926D02*
X144658009Y-78949247D01*
X144658009Y-78949247D02*
X144537057Y-78934128D01*
X144537057Y-78934128D02*
X144446342Y-78945467D01*
X144446342Y-78945467D02*
X144325390Y-78990824D01*
X144325390Y-78990824D02*
X144264914Y-79028622D01*
X144264914Y-79028622D02*
X144204438Y-79096658D01*
X144204438Y-79096658D02*
X144174200Y-79191152D01*
X144174200Y-79191152D02*
X144174200Y-79251628D01*
X144174200Y-79251628D02*
X144204438Y-79338563D01*
X144204438Y-79338563D02*
X144234676Y-79365021D01*
X144174200Y-79916866D02*
X144174200Y-79795914D01*
X144174200Y-79795914D02*
X144204438Y-79731658D01*
X144204438Y-79731658D02*
X144234676Y-79697640D01*
X144234676Y-79697640D02*
X144325390Y-79625824D01*
X144325390Y-79625824D02*
X144446342Y-79580467D01*
X144446342Y-79580467D02*
X144688247Y-79550229D01*
X144688247Y-79550229D02*
X144748723Y-79572908D01*
X144748723Y-79572908D02*
X144778962Y-79599366D01*
X144778962Y-79599366D02*
X144809200Y-79656063D01*
X144809200Y-79656063D02*
X144809200Y-79777015D01*
X144809200Y-79777015D02*
X144778962Y-79841271D01*
X144778962Y-79841271D02*
X144748723Y-79875289D01*
X144748723Y-79875289D02*
X144688247Y-79913086D01*
X144688247Y-79913086D02*
X144537057Y-79931985D01*
X144537057Y-79931985D02*
X144476581Y-79909307D01*
X144476581Y-79909307D02*
X144446342Y-79882848D01*
X144446342Y-79882848D02*
X144416104Y-79826152D01*
X144416104Y-79826152D02*
X144416104Y-79705199D01*
X144416104Y-79705199D02*
X144446342Y-79640943D01*
X144446342Y-79640943D02*
X144476581Y-79606926D01*
X144476581Y-79606926D02*
X144537057Y-79569128D01*
X144809200Y-80200348D02*
X144809200Y-80321301D01*
X144809200Y-80321301D02*
X144778962Y-80385557D01*
X144778962Y-80385557D02*
X144748723Y-80419575D01*
X144748723Y-80419575D02*
X144658009Y-80491390D01*
X144658009Y-80491390D02*
X144537057Y-80536747D01*
X144537057Y-80536747D02*
X144295152Y-80566985D01*
X144295152Y-80566985D02*
X144234676Y-80544307D01*
X144234676Y-80544307D02*
X144204438Y-80517848D01*
X144204438Y-80517848D02*
X144174200Y-80461152D01*
X144174200Y-80461152D02*
X144174200Y-80340200D01*
X144174200Y-80340200D02*
X144204438Y-80275944D01*
X144204438Y-80275944D02*
X144234676Y-80241926D01*
X144234676Y-80241926D02*
X144295152Y-80204128D01*
X144295152Y-80204128D02*
X144446342Y-80185229D01*
X144446342Y-80185229D02*
X144506819Y-80207908D01*
X144506819Y-80207908D02*
X144537057Y-80234366D01*
X144537057Y-80234366D02*
X144567295Y-80291063D01*
X144567295Y-80291063D02*
X144567295Y-80412015D01*
X144567295Y-80412015D02*
X144537057Y-80476271D01*
X144537057Y-80476271D02*
X144506819Y-80510289D01*
X144506819Y-80510289D02*
X144446342Y-80548086D01*
X166795923Y-78998384D02*
X166826162Y-78964366D01*
X166826162Y-78964366D02*
X166856400Y-78869872D01*
X166856400Y-78869872D02*
X166856400Y-78809396D01*
X166856400Y-78809396D02*
X166826162Y-78722461D01*
X166826162Y-78722461D02*
X166765685Y-78669545D01*
X166765685Y-78669545D02*
X166705209Y-78646866D01*
X166705209Y-78646866D02*
X166584257Y-78631747D01*
X166584257Y-78631747D02*
X166493542Y-78643086D01*
X166493542Y-78643086D02*
X166372590Y-78688443D01*
X166372590Y-78688443D02*
X166312114Y-78726241D01*
X166312114Y-78726241D02*
X166251638Y-78794277D01*
X166251638Y-78794277D02*
X166221400Y-78888771D01*
X166221400Y-78888771D02*
X166221400Y-78949247D01*
X166221400Y-78949247D02*
X166251638Y-79036182D01*
X166251638Y-79036182D02*
X166281876Y-79062640D01*
X166856400Y-79595586D02*
X166856400Y-79232729D01*
X166856400Y-79414158D02*
X166221400Y-79493533D01*
X166221400Y-79493533D02*
X166312114Y-79421717D01*
X166312114Y-79421717D02*
X166372590Y-79353682D01*
X166372590Y-79353682D02*
X166402828Y-79289426D01*
X166221400Y-80068057D02*
X166221400Y-80128533D01*
X166221400Y-80128533D02*
X166251638Y-80185229D01*
X166251638Y-80185229D02*
X166281876Y-80211688D01*
X166281876Y-80211688D02*
X166342352Y-80234366D01*
X166342352Y-80234366D02*
X166463304Y-80249485D01*
X166463304Y-80249485D02*
X166614495Y-80230586D01*
X166614495Y-80230586D02*
X166735447Y-80185229D01*
X166735447Y-80185229D02*
X166795923Y-80147432D01*
X166795923Y-80147432D02*
X166826162Y-80113414D01*
X166826162Y-80113414D02*
X166856400Y-80049158D01*
X166856400Y-80049158D02*
X166856400Y-79988682D01*
X166856400Y-79988682D02*
X166826162Y-79931985D01*
X166826162Y-79931985D02*
X166795923Y-79905527D01*
X166795923Y-79905527D02*
X166735447Y-79882848D01*
X166735447Y-79882848D02*
X166614495Y-79867729D01*
X166614495Y-79867729D02*
X166463304Y-79886628D01*
X166463304Y-79886628D02*
X166342352Y-79931985D01*
X166342352Y-79931985D02*
X166281876Y-79969783D01*
X166281876Y-79969783D02*
X166251638Y-80003801D01*
X166251638Y-80003801D02*
X166221400Y-80068057D01*
X166221400Y-80672819D02*
X166221400Y-80733295D01*
X166221400Y-80733295D02*
X166251638Y-80789991D01*
X166251638Y-80789991D02*
X166281876Y-80816450D01*
X166281876Y-80816450D02*
X166342352Y-80839128D01*
X166342352Y-80839128D02*
X166463304Y-80854247D01*
X166463304Y-80854247D02*
X166614495Y-80835348D01*
X166614495Y-80835348D02*
X166735447Y-80789991D01*
X166735447Y-80789991D02*
X166795923Y-80752194D01*
X166795923Y-80752194D02*
X166826162Y-80718176D01*
X166826162Y-80718176D02*
X166856400Y-80653920D01*
X166856400Y-80653920D02*
X166856400Y-80593444D01*
X166856400Y-80593444D02*
X166826162Y-80536747D01*
X166826162Y-80536747D02*
X166795923Y-80510289D01*
X166795923Y-80510289D02*
X166735447Y-80487610D01*
X166735447Y-80487610D02*
X166614495Y-80472491D01*
X166614495Y-80472491D02*
X166463304Y-80491390D01*
X166463304Y-80491390D02*
X166342352Y-80536747D01*
X166342352Y-80536747D02*
X166281876Y-80574545D01*
X166281876Y-80574545D02*
X166251638Y-80608563D01*
X166251638Y-80608563D02*
X166221400Y-80672819D01*
X166796943Y-96136805D02*
X166827182Y-96102787D01*
X166827182Y-96102787D02*
X166857420Y-96008293D01*
X166857420Y-96008293D02*
X166857420Y-95947817D01*
X166857420Y-95947817D02*
X166827182Y-95860882D01*
X166827182Y-95860882D02*
X166766705Y-95807966D01*
X166766705Y-95807966D02*
X166706229Y-95785287D01*
X166706229Y-95785287D02*
X166585277Y-95770168D01*
X166585277Y-95770168D02*
X166494562Y-95781507D01*
X166494562Y-95781507D02*
X166373610Y-95826864D01*
X166373610Y-95826864D02*
X166313134Y-95864662D01*
X166313134Y-95864662D02*
X166252658Y-95932698D01*
X166252658Y-95932698D02*
X166222420Y-96027192D01*
X166222420Y-96027192D02*
X166222420Y-96087668D01*
X166222420Y-96087668D02*
X166252658Y-96174603D01*
X166252658Y-96174603D02*
X166282896Y-96201061D01*
X166222420Y-96752906D02*
X166222420Y-96631954D01*
X166222420Y-96631954D02*
X166252658Y-96567698D01*
X166252658Y-96567698D02*
X166282896Y-96533680D01*
X166282896Y-96533680D02*
X166373610Y-96461864D01*
X166373610Y-96461864D02*
X166494562Y-96416507D01*
X166494562Y-96416507D02*
X166736467Y-96386269D01*
X166736467Y-96386269D02*
X166796943Y-96408948D01*
X166796943Y-96408948D02*
X166827182Y-96435406D01*
X166827182Y-96435406D02*
X166857420Y-96492103D01*
X166857420Y-96492103D02*
X166857420Y-96613055D01*
X166857420Y-96613055D02*
X166827182Y-96677311D01*
X166827182Y-96677311D02*
X166796943Y-96711329D01*
X166796943Y-96711329D02*
X166736467Y-96749126D01*
X166736467Y-96749126D02*
X166585277Y-96768025D01*
X166585277Y-96768025D02*
X166524801Y-96745347D01*
X166524801Y-96745347D02*
X166494562Y-96718888D01*
X166494562Y-96718888D02*
X166464324Y-96662192D01*
X166464324Y-96662192D02*
X166464324Y-96541239D01*
X166464324Y-96541239D02*
X166494562Y-96476983D01*
X166494562Y-96476983D02*
X166524801Y-96442966D01*
X166524801Y-96442966D02*
X166585277Y-96405168D01*
X166494562Y-97142222D02*
X166464324Y-97085525D01*
X166464324Y-97085525D02*
X166434086Y-97059067D01*
X166434086Y-97059067D02*
X166373610Y-97036388D01*
X166373610Y-97036388D02*
X166343372Y-97040168D01*
X166343372Y-97040168D02*
X166282896Y-97077966D01*
X166282896Y-97077966D02*
X166252658Y-97111984D01*
X166252658Y-97111984D02*
X166222420Y-97176240D01*
X166222420Y-97176240D02*
X166222420Y-97297192D01*
X166222420Y-97297192D02*
X166252658Y-97353888D01*
X166252658Y-97353888D02*
X166282896Y-97380347D01*
X166282896Y-97380347D02*
X166343372Y-97403025D01*
X166343372Y-97403025D02*
X166373610Y-97399245D01*
X166373610Y-97399245D02*
X166434086Y-97361448D01*
X166434086Y-97361448D02*
X166464324Y-97327430D01*
X166464324Y-97327430D02*
X166494562Y-97263174D01*
X166494562Y-97263174D02*
X166494562Y-97142222D01*
X166494562Y-97142222D02*
X166524801Y-97077966D01*
X166524801Y-97077966D02*
X166555039Y-97043948D01*
X166555039Y-97043948D02*
X166615515Y-97006150D01*
X166615515Y-97006150D02*
X166736467Y-96991031D01*
X166736467Y-96991031D02*
X166796943Y-97013710D01*
X166796943Y-97013710D02*
X166827182Y-97040168D01*
X166827182Y-97040168D02*
X166857420Y-97096865D01*
X166857420Y-97096865D02*
X166857420Y-97217817D01*
X166857420Y-97217817D02*
X166827182Y-97282073D01*
X166827182Y-97282073D02*
X166796943Y-97316091D01*
X166796943Y-97316091D02*
X166736467Y-97353888D01*
X166736467Y-97353888D02*
X166615515Y-97369007D01*
X166615515Y-97369007D02*
X166555039Y-97346329D01*
X166555039Y-97346329D02*
X166524801Y-97319870D01*
X166524801Y-97319870D02*
X166494562Y-97263174D01*
X159405543Y-129766805D02*
X159435782Y-129732787D01*
X159435782Y-129732787D02*
X159466020Y-129638293D01*
X159466020Y-129638293D02*
X159466020Y-129577817D01*
X159466020Y-129577817D02*
X159435782Y-129490882D01*
X159435782Y-129490882D02*
X159375305Y-129437966D01*
X159375305Y-129437966D02*
X159314829Y-129415287D01*
X159314829Y-129415287D02*
X159193877Y-129400168D01*
X159193877Y-129400168D02*
X159103162Y-129411507D01*
X159103162Y-129411507D02*
X158982210Y-129456864D01*
X158982210Y-129456864D02*
X158921734Y-129494662D01*
X158921734Y-129494662D02*
X158861258Y-129562698D01*
X158861258Y-129562698D02*
X158831020Y-129657192D01*
X158831020Y-129657192D02*
X158831020Y-129717668D01*
X158831020Y-129717668D02*
X158861258Y-129804603D01*
X158861258Y-129804603D02*
X158891496Y-129831061D01*
X158831020Y-130382906D02*
X158831020Y-130261954D01*
X158831020Y-130261954D02*
X158861258Y-130197698D01*
X158861258Y-130197698D02*
X158891496Y-130163680D01*
X158891496Y-130163680D02*
X158982210Y-130091864D01*
X158982210Y-130091864D02*
X159103162Y-130046507D01*
X159103162Y-130046507D02*
X159345067Y-130016269D01*
X159345067Y-130016269D02*
X159405543Y-130038948D01*
X159405543Y-130038948D02*
X159435782Y-130065406D01*
X159435782Y-130065406D02*
X159466020Y-130122103D01*
X159466020Y-130122103D02*
X159466020Y-130243055D01*
X159466020Y-130243055D02*
X159435782Y-130307311D01*
X159435782Y-130307311D02*
X159405543Y-130341329D01*
X159405543Y-130341329D02*
X159345067Y-130379126D01*
X159345067Y-130379126D02*
X159193877Y-130398025D01*
X159193877Y-130398025D02*
X159133401Y-130375347D01*
X159133401Y-130375347D02*
X159103162Y-130348888D01*
X159103162Y-130348888D02*
X159072924Y-130292192D01*
X159072924Y-130292192D02*
X159072924Y-130171239D01*
X159072924Y-130171239D02*
X159103162Y-130106983D01*
X159103162Y-130106983D02*
X159133401Y-130072966D01*
X159133401Y-130072966D02*
X159193877Y-130035168D01*
X158831020Y-130987668D02*
X158831020Y-130866716D01*
X158831020Y-130866716D02*
X158861258Y-130802460D01*
X158861258Y-130802460D02*
X158891496Y-130768442D01*
X158891496Y-130768442D02*
X158982210Y-130696626D01*
X158982210Y-130696626D02*
X159103162Y-130651269D01*
X159103162Y-130651269D02*
X159345067Y-130621031D01*
X159345067Y-130621031D02*
X159405543Y-130643710D01*
X159405543Y-130643710D02*
X159435782Y-130670168D01*
X159435782Y-130670168D02*
X159466020Y-130726865D01*
X159466020Y-130726865D02*
X159466020Y-130847817D01*
X159466020Y-130847817D02*
X159435782Y-130912073D01*
X159435782Y-130912073D02*
X159405543Y-130946091D01*
X159405543Y-130946091D02*
X159345067Y-130983888D01*
X159345067Y-130983888D02*
X159193877Y-131002787D01*
X159193877Y-131002787D02*
X159133401Y-130980109D01*
X159133401Y-130980109D02*
X159103162Y-130953650D01*
X159103162Y-130953650D02*
X159072924Y-130896954D01*
X159072924Y-130896954D02*
X159072924Y-130776001D01*
X159072924Y-130776001D02*
X159103162Y-130711745D01*
X159103162Y-130711745D02*
X159133401Y-130677728D01*
X159133401Y-130677728D02*
X159193877Y-130639930D01*
X159430943Y-112674824D02*
X159461182Y-112640806D01*
X159461182Y-112640806D02*
X159491420Y-112546312D01*
X159491420Y-112546312D02*
X159491420Y-112485836D01*
X159491420Y-112485836D02*
X159461182Y-112398901D01*
X159461182Y-112398901D02*
X159400705Y-112345985D01*
X159400705Y-112345985D02*
X159340229Y-112323306D01*
X159340229Y-112323306D02*
X159219277Y-112308187D01*
X159219277Y-112308187D02*
X159128562Y-112319526D01*
X159128562Y-112319526D02*
X159007610Y-112364883D01*
X159007610Y-112364883D02*
X158947134Y-112402681D01*
X158947134Y-112402681D02*
X158886658Y-112470717D01*
X158886658Y-112470717D02*
X158856420Y-112565211D01*
X158856420Y-112565211D02*
X158856420Y-112625687D01*
X158856420Y-112625687D02*
X158886658Y-112712622D01*
X158886658Y-112712622D02*
X158916896Y-112739080D01*
X159491420Y-113272026D02*
X159491420Y-112909169D01*
X159491420Y-113090598D02*
X158856420Y-113169973D01*
X158856420Y-113169973D02*
X158947134Y-113098157D01*
X158947134Y-113098157D02*
X159007610Y-113030122D01*
X159007610Y-113030122D02*
X159037848Y-112965866D01*
X158856420Y-113744497D02*
X158856420Y-113804973D01*
X158856420Y-113804973D02*
X158886658Y-113861669D01*
X158886658Y-113861669D02*
X158916896Y-113888128D01*
X158916896Y-113888128D02*
X158977372Y-113910806D01*
X158977372Y-113910806D02*
X159098324Y-113925925D01*
X159098324Y-113925925D02*
X159249515Y-113907026D01*
X159249515Y-113907026D02*
X159370467Y-113861669D01*
X159370467Y-113861669D02*
X159430943Y-113823872D01*
X159430943Y-113823872D02*
X159461182Y-113789854D01*
X159461182Y-113789854D02*
X159491420Y-113725598D01*
X159491420Y-113725598D02*
X159491420Y-113665122D01*
X159491420Y-113665122D02*
X159461182Y-113608425D01*
X159461182Y-113608425D02*
X159430943Y-113581967D01*
X159430943Y-113581967D02*
X159370467Y-113559288D01*
X159370467Y-113559288D02*
X159249515Y-113544169D01*
X159249515Y-113544169D02*
X159098324Y-113563068D01*
X159098324Y-113563068D02*
X158977372Y-113608425D01*
X158977372Y-113608425D02*
X158916896Y-113646223D01*
X158916896Y-113646223D02*
X158886658Y-113680241D01*
X158886658Y-113680241D02*
X158856420Y-113744497D01*
X158916896Y-114190509D02*
X158886658Y-114224526D01*
X158886658Y-114224526D02*
X158856420Y-114288782D01*
X158856420Y-114288782D02*
X158856420Y-114439973D01*
X158856420Y-114439973D02*
X158886658Y-114496669D01*
X158886658Y-114496669D02*
X158916896Y-114523128D01*
X158916896Y-114523128D02*
X158977372Y-114545806D01*
X158977372Y-114545806D02*
X159037848Y-114538247D01*
X159037848Y-114538247D02*
X159128562Y-114496669D01*
X159128562Y-114496669D02*
X159491420Y-114088455D01*
X159491420Y-114088455D02*
X159491420Y-114481550D01*
X122005271Y-68031600D02*
X122061968Y-68485171D01*
X122061968Y-68485171D02*
X122103545Y-68575885D01*
X122103545Y-68575885D02*
X122171581Y-68636362D01*
X122171581Y-68636362D02*
X122266075Y-68666600D01*
X122266075Y-68666600D02*
X122326551Y-68666600D01*
X121763366Y-68031600D02*
X121370271Y-68031600D01*
X121370271Y-68031600D02*
X121612176Y-68273504D01*
X121612176Y-68273504D02*
X121521461Y-68273504D01*
X121521461Y-68273504D02*
X121464765Y-68303742D01*
X121464765Y-68303742D02*
X121438306Y-68333981D01*
X121438306Y-68333981D02*
X121415628Y-68394457D01*
X121415628Y-68394457D02*
X121434527Y-68545647D01*
X121434527Y-68545647D02*
X121472324Y-68606123D01*
X121472324Y-68606123D02*
X121506342Y-68636362D01*
X121506342Y-68636362D02*
X121570598Y-68666600D01*
X121570598Y-68666600D02*
X121752027Y-68666600D01*
X121752027Y-68666600D02*
X121808723Y-68636362D01*
X121808723Y-68636362D02*
X121835181Y-68606123D01*
X152090343Y-96136805D02*
X152120582Y-96102787D01*
X152120582Y-96102787D02*
X152150820Y-96008293D01*
X152150820Y-96008293D02*
X152150820Y-95947817D01*
X152150820Y-95947817D02*
X152120582Y-95860882D01*
X152120582Y-95860882D02*
X152060105Y-95807966D01*
X152060105Y-95807966D02*
X151999629Y-95785287D01*
X151999629Y-95785287D02*
X151878677Y-95770168D01*
X151878677Y-95770168D02*
X151787962Y-95781507D01*
X151787962Y-95781507D02*
X151667010Y-95826864D01*
X151667010Y-95826864D02*
X151606534Y-95864662D01*
X151606534Y-95864662D02*
X151546058Y-95932698D01*
X151546058Y-95932698D02*
X151515820Y-96027192D01*
X151515820Y-96027192D02*
X151515820Y-96087668D01*
X151515820Y-96087668D02*
X151546058Y-96174603D01*
X151546058Y-96174603D02*
X151576296Y-96201061D01*
X151515820Y-96420287D02*
X151515820Y-96843620D01*
X151515820Y-96843620D02*
X152150820Y-96492103D01*
X151515820Y-97025049D02*
X151515820Y-97418144D01*
X151515820Y-97418144D02*
X151757724Y-97176240D01*
X151757724Y-97176240D02*
X151757724Y-97266954D01*
X151757724Y-97266954D02*
X151787962Y-97323650D01*
X151787962Y-97323650D02*
X151818201Y-97350109D01*
X151818201Y-97350109D02*
X151878677Y-97372787D01*
X151878677Y-97372787D02*
X152029867Y-97353888D01*
X152029867Y-97353888D02*
X152090343Y-97316091D01*
X152090343Y-97316091D02*
X152120582Y-97282073D01*
X152120582Y-97282073D02*
X152150820Y-97217817D01*
X152150820Y-97217817D02*
X152150820Y-97036388D01*
X152150820Y-97036388D02*
X152120582Y-96979692D01*
X152120582Y-96979692D02*
X152090343Y-96953234D01*
X152064943Y-129489824D02*
X152095182Y-129455806D01*
X152095182Y-129455806D02*
X152125420Y-129361312D01*
X152125420Y-129361312D02*
X152125420Y-129300836D01*
X152125420Y-129300836D02*
X152095182Y-129213901D01*
X152095182Y-129213901D02*
X152034705Y-129160985D01*
X152034705Y-129160985D02*
X151974229Y-129138306D01*
X151974229Y-129138306D02*
X151853277Y-129123187D01*
X151853277Y-129123187D02*
X151762562Y-129134526D01*
X151762562Y-129134526D02*
X151641610Y-129179883D01*
X151641610Y-129179883D02*
X151581134Y-129217681D01*
X151581134Y-129217681D02*
X151520658Y-129285717D01*
X151520658Y-129285717D02*
X151490420Y-129380211D01*
X151490420Y-129380211D02*
X151490420Y-129440687D01*
X151490420Y-129440687D02*
X151520658Y-129527622D01*
X151520658Y-129527622D02*
X151550896Y-129554080D01*
X152125420Y-130087026D02*
X152125420Y-129724169D01*
X152125420Y-129905598D02*
X151490420Y-129984973D01*
X151490420Y-129984973D02*
X151581134Y-129913157D01*
X151581134Y-129913157D02*
X151641610Y-129845122D01*
X151641610Y-129845122D02*
X151671848Y-129780866D01*
X151490420Y-130559497D02*
X151490420Y-130619973D01*
X151490420Y-130619973D02*
X151520658Y-130676669D01*
X151520658Y-130676669D02*
X151550896Y-130703128D01*
X151550896Y-130703128D02*
X151611372Y-130725806D01*
X151611372Y-130725806D02*
X151732324Y-130740925D01*
X151732324Y-130740925D02*
X151883515Y-130722026D01*
X151883515Y-130722026D02*
X152004467Y-130676669D01*
X152004467Y-130676669D02*
X152064943Y-130638872D01*
X152064943Y-130638872D02*
X152095182Y-130604854D01*
X152095182Y-130604854D02*
X152125420Y-130540598D01*
X152125420Y-130540598D02*
X152125420Y-130480122D01*
X152125420Y-130480122D02*
X152095182Y-130423425D01*
X152095182Y-130423425D02*
X152064943Y-130396967D01*
X152064943Y-130396967D02*
X152004467Y-130374288D01*
X152004467Y-130374288D02*
X151883515Y-130359169D01*
X151883515Y-130359169D02*
X151732324Y-130378068D01*
X151732324Y-130378068D02*
X151611372Y-130423425D01*
X151611372Y-130423425D02*
X151550896Y-130461223D01*
X151550896Y-130461223D02*
X151520658Y-130495241D01*
X151520658Y-130495241D02*
X151490420Y-130559497D01*
X151490420Y-130982830D02*
X151490420Y-131375925D01*
X151490420Y-131375925D02*
X151732324Y-131134021D01*
X151732324Y-131134021D02*
X151732324Y-131224735D01*
X151732324Y-131224735D02*
X151762562Y-131281431D01*
X151762562Y-131281431D02*
X151792801Y-131307890D01*
X151792801Y-131307890D02*
X151853277Y-131330568D01*
X151853277Y-131330568D02*
X152004467Y-131311669D01*
X152004467Y-131311669D02*
X152064943Y-131273872D01*
X152064943Y-131273872D02*
X152095182Y-131239854D01*
X152095182Y-131239854D02*
X152125420Y-131175598D01*
X152125420Y-131175598D02*
X152125420Y-130994169D01*
X152125420Y-130994169D02*
X152095182Y-130937473D01*
X152095182Y-130937473D02*
X152064943Y-130911015D01*
D12*
X109934013Y-68126319D02*
X109934013Y-68840604D01*
X109934013Y-68840604D02*
X109981632Y-68983461D01*
X109981632Y-68983461D02*
X110076870Y-69078700D01*
X110076870Y-69078700D02*
X110219727Y-69126319D01*
X110219727Y-69126319D02*
X110314965Y-69126319D01*
X108934013Y-69126319D02*
X109505441Y-69126319D01*
X109219727Y-69126319D02*
X109219727Y-68126319D01*
X109219727Y-68126319D02*
X109314965Y-68269176D01*
X109314965Y-68269176D02*
X109410203Y-68364414D01*
X109410203Y-68364414D02*
X109505441Y-68412033D01*
D13*
%TO.C,J9*%
X174187000Y-106218000D02*
X177607000Y-106218000D01*
X173607000Y-107288000D02*
X178607000Y-107288000D01*
X177607000Y-102008000D02*
X177607000Y-107288000D01*
X180807000Y-107288000D02*
X178607000Y-107288000D01*
X174107000Y-105898000D02*
X174187000Y-106218000D01*
X177607000Y-106218000D02*
X177607000Y-105898000D01*
X178607000Y-104568000D02*
X178607000Y-104728000D01*
X180697000Y-103398000D02*
X181297000Y-103098000D01*
X172387000Y-108508000D02*
X180807000Y-108508000D01*
X173607000Y-102008000D02*
X178607000Y-102008000D01*
X173607000Y-100788000D02*
X173607000Y-102008000D01*
X177607000Y-103398000D02*
X177607000Y-103078000D01*
X181297000Y-103098000D02*
X181297000Y-103698000D01*
X177607000Y-103078000D02*
X174187000Y-103078000D01*
X181297000Y-103698000D02*
X180697000Y-103398000D01*
X174107000Y-103398000D02*
X174187000Y-103718000D01*
X180807000Y-102008000D02*
X180807000Y-100788000D01*
X177607000Y-105898000D02*
X177607000Y-105578000D01*
X180807000Y-108508000D02*
X180807000Y-107288000D01*
X172387000Y-100788000D02*
X172387000Y-108508000D01*
X174187000Y-105578000D02*
X174107000Y-105898000D01*
X174187000Y-103078000D02*
X174107000Y-103398000D01*
X180807000Y-100788000D02*
X172387000Y-100788000D01*
X177607000Y-103718000D02*
X177607000Y-103398000D01*
X178607000Y-107288000D02*
X178607000Y-108508000D01*
X178607000Y-102008000D02*
X178607000Y-100788000D01*
X174187000Y-103718000D02*
X177607000Y-103718000D01*
X173607000Y-108508000D02*
X173607000Y-107288000D01*
X178607000Y-102008000D02*
X180807000Y-102008000D01*
X177607000Y-105578000D02*
X174187000Y-105578000D01*
D12*
%TO.C,R43*%
X180441600Y-115150900D02*
X182270400Y-115150900D01*
X182270400Y-114261900D02*
X180441600Y-114261900D01*
X182270400Y-115150900D02*
X182270400Y-114261900D01*
X180441600Y-115150900D02*
X180441600Y-114261900D01*
D13*
%TO.C,C101*%
X155111020Y-118281640D02*
X155111020Y-116981640D01*
X157311020Y-118281640D02*
X155111020Y-118281640D01*
X157311020Y-118181640D02*
X157311020Y-118281640D01*
X152611020Y-116981640D02*
X152611020Y-110881640D01*
X155111020Y-116981640D02*
X152611020Y-116981640D01*
X157311020Y-116981640D02*
X157311020Y-118181640D01*
X159811020Y-116981640D02*
X157311020Y-116981640D01*
X152611020Y-110881640D02*
X153711020Y-109781640D01*
X159811020Y-110881640D02*
X159811020Y-116981640D01*
X153711020Y-109781640D02*
X155111020Y-109781640D01*
X155111020Y-109781640D02*
X155111020Y-108481640D01*
X157311020Y-109781640D02*
X158711020Y-109781640D01*
X158711020Y-109781640D02*
X159811020Y-110881640D01*
X154017270Y-109081640D02*
X154804770Y-109081640D01*
X154411020Y-108687890D02*
X154411020Y-109475390D01*
X155111020Y-108481640D02*
X157311020Y-108481640D01*
X157311020Y-108481640D02*
X157311020Y-109781640D01*
%TO.C,C98*%
X169817620Y-118281640D02*
X169817620Y-116981640D01*
X172017620Y-118281640D02*
X169817620Y-118281640D01*
X172017620Y-118181640D02*
X172017620Y-118281640D01*
X167317620Y-116981640D02*
X167317620Y-110881640D01*
X169817620Y-116981640D02*
X167317620Y-116981640D01*
X172017620Y-116981640D02*
X172017620Y-118181640D01*
X174517620Y-116981640D02*
X172017620Y-116981640D01*
X167317620Y-110881640D02*
X168417620Y-109781640D01*
X174517620Y-110881640D02*
X174517620Y-116981640D01*
X168417620Y-109781640D02*
X169817620Y-109781640D01*
X169817620Y-109781640D02*
X169817620Y-108481640D01*
X172017620Y-109781640D02*
X173417620Y-109781640D01*
X173417620Y-109781640D02*
X174517620Y-110881640D01*
X168723870Y-109081640D02*
X169511370Y-109081640D01*
X169117620Y-108687890D02*
X169117620Y-109475390D01*
X169817620Y-108481640D02*
X172017620Y-108481640D01*
X172017620Y-108481640D02*
X172017620Y-109781640D01*
%TO.C,C104*%
X162450600Y-84586876D02*
X162450600Y-83286876D01*
X164650600Y-84586876D02*
X162450600Y-84586876D01*
X164650600Y-84486876D02*
X164650600Y-84586876D01*
X159950600Y-83286876D02*
X159950600Y-77186876D01*
X162450600Y-83286876D02*
X159950600Y-83286876D01*
X164650600Y-83286876D02*
X164650600Y-84486876D01*
X167150600Y-83286876D02*
X164650600Y-83286876D01*
X159950600Y-77186876D02*
X161050600Y-76086876D01*
X167150600Y-77186876D02*
X167150600Y-83286876D01*
X161050600Y-76086876D02*
X162450600Y-76086876D01*
X162450600Y-76086876D02*
X162450600Y-74786876D01*
X164650600Y-76086876D02*
X166050600Y-76086876D01*
X166050600Y-76086876D02*
X167150600Y-77186876D01*
X161356850Y-75386876D02*
X162144350Y-75386876D01*
X161750600Y-74993126D02*
X161750600Y-75780626D01*
X162450600Y-74786876D02*
X164650600Y-74786876D01*
X164650600Y-74786876D02*
X164650600Y-76086876D01*
%TO.C,C105*%
X147745020Y-135096640D02*
X147745020Y-133796640D01*
X149945020Y-135096640D02*
X147745020Y-135096640D01*
X149945020Y-134996640D02*
X149945020Y-135096640D01*
X145245020Y-133796640D02*
X145245020Y-127696640D01*
X147745020Y-133796640D02*
X145245020Y-133796640D01*
X149945020Y-133796640D02*
X149945020Y-134996640D01*
X152445020Y-133796640D02*
X149945020Y-133796640D01*
X145245020Y-127696640D02*
X146345020Y-126596640D01*
X152445020Y-127696640D02*
X152445020Y-133796640D01*
X146345020Y-126596640D02*
X147745020Y-126596640D01*
X147745020Y-126596640D02*
X147745020Y-125296640D01*
X149945020Y-126596640D02*
X151345020Y-126596640D01*
X151345020Y-126596640D02*
X152445020Y-127696640D01*
X146651270Y-125896640D02*
X147438770Y-125896640D01*
X147045020Y-125502890D02*
X147045020Y-126290390D01*
X147745020Y-125296640D02*
X149945020Y-125296640D01*
X149945020Y-125296640D02*
X149945020Y-126596640D01*
%TO.C,C70*%
X169817620Y-135096640D02*
X169817620Y-133796640D01*
X172017620Y-135096640D02*
X169817620Y-135096640D01*
X167317620Y-133796640D02*
X167317620Y-127696640D01*
X169817620Y-133796640D02*
X167317620Y-133796640D01*
X172017620Y-133796640D02*
X172017620Y-135096640D01*
X174517620Y-133796640D02*
X172017620Y-133796640D01*
X167317620Y-127696640D02*
X168417620Y-126596640D01*
X174517620Y-127696640D02*
X174517620Y-133796640D01*
X168417620Y-126596640D02*
X169817620Y-126596640D01*
X169817620Y-126596640D02*
X169817620Y-125296640D01*
X172017620Y-126596640D02*
X173417620Y-126596640D01*
X173417620Y-126596640D02*
X174517620Y-127696640D01*
X168723870Y-125896640D02*
X169511370Y-125896640D01*
X169117620Y-125502890D02*
X169117620Y-126290390D01*
X169817620Y-125296640D02*
X172017620Y-125296640D01*
X172017620Y-125296640D02*
X172017620Y-126596640D01*
%TO.C,C67*%
X155110000Y-84605200D02*
X155110000Y-83305200D01*
X157310000Y-84605200D02*
X155110000Y-84605200D01*
X152610000Y-83305200D02*
X152610000Y-77205200D01*
X155110000Y-83305200D02*
X152610000Y-83305200D01*
X157310000Y-83305200D02*
X157310000Y-84605200D01*
X159810000Y-83305200D02*
X157310000Y-83305200D01*
X152610000Y-77205200D02*
X153710000Y-76105200D01*
X159810000Y-77205200D02*
X159810000Y-83305200D01*
X153710000Y-76105200D02*
X155110000Y-76105200D01*
X155110000Y-76105200D02*
X155110000Y-74805200D01*
X157310000Y-76105200D02*
X158710000Y-76105200D01*
X158710000Y-76105200D02*
X159810000Y-77205200D01*
X154016250Y-75405200D02*
X154803750Y-75405200D01*
X154410000Y-75011450D02*
X154410000Y-75798950D01*
X155110000Y-74805200D02*
X157310000Y-74805200D01*
X157310000Y-74805200D02*
X157310000Y-76105200D01*
%TO.C,C71*%
X147770420Y-101441240D02*
X147770420Y-100141240D01*
X149970420Y-101441240D02*
X147770420Y-101441240D01*
X145270420Y-100141240D02*
X145270420Y-94041240D01*
X147770420Y-100141240D02*
X145270420Y-100141240D01*
X149970420Y-100141240D02*
X149970420Y-101441240D01*
X152470420Y-100141240D02*
X149970420Y-100141240D01*
X145270420Y-94041240D02*
X146370420Y-92941240D01*
X152470420Y-94041240D02*
X152470420Y-100141240D01*
X146370420Y-92941240D02*
X147770420Y-92941240D01*
X147770420Y-92941240D02*
X147770420Y-91641240D01*
X149970420Y-92941240D02*
X151370420Y-92941240D01*
X151370420Y-92941240D02*
X152470420Y-94041240D01*
X146676670Y-92241240D02*
X147464170Y-92241240D01*
X147070420Y-91847490D02*
X147070420Y-92634990D01*
X147770420Y-91641240D02*
X149970420Y-91641240D01*
X149970420Y-91641240D02*
X149970420Y-92941240D01*
%TO.C,C99*%
X147745020Y-118281640D02*
X147745020Y-116981640D01*
X149945020Y-118281640D02*
X147745020Y-118281640D01*
X149945020Y-118181640D02*
X149945020Y-118281640D01*
X145245020Y-116981640D02*
X145245020Y-110881640D01*
X147745020Y-116981640D02*
X145245020Y-116981640D01*
X149945020Y-116981640D02*
X149945020Y-118181640D01*
X152445020Y-116981640D02*
X149945020Y-116981640D01*
X145245020Y-110881640D02*
X146345020Y-109781640D01*
X152445020Y-110881640D02*
X152445020Y-116981640D01*
X146345020Y-109781640D02*
X147745020Y-109781640D01*
X147745020Y-109781640D02*
X147745020Y-108481640D01*
X149945020Y-109781640D02*
X151345020Y-109781640D01*
X151345020Y-109781640D02*
X152445020Y-110881640D01*
X146651270Y-109081640D02*
X147438770Y-109081640D01*
X147045020Y-108687890D02*
X147045020Y-109475390D01*
X147745020Y-108481640D02*
X149945020Y-108481640D01*
X149945020Y-108481640D02*
X149945020Y-109781640D01*
%TO.C,C72*%
X162451620Y-101422916D02*
X162451620Y-100122916D01*
X164651620Y-101422916D02*
X162451620Y-101422916D01*
X159951620Y-100122916D02*
X159951620Y-94022916D01*
X162451620Y-100122916D02*
X159951620Y-100122916D01*
X164651620Y-100122916D02*
X164651620Y-101422916D01*
X167151620Y-100122916D02*
X164651620Y-100122916D01*
X159951620Y-94022916D02*
X161051620Y-92922916D01*
X167151620Y-94022916D02*
X167151620Y-100122916D01*
X161051620Y-92922916D02*
X162451620Y-92922916D01*
X162451620Y-92922916D02*
X162451620Y-91622916D01*
X164651620Y-92922916D02*
X166051620Y-92922916D01*
X166051620Y-92922916D02*
X167151620Y-94022916D01*
X161357870Y-92222916D02*
X162145370Y-92222916D01*
X161751620Y-91829166D02*
X161751620Y-92616666D01*
X162451620Y-91622916D02*
X164651620Y-91622916D01*
X164651620Y-91622916D02*
X164651620Y-92922916D01*
%TO.C,C69*%
X147769400Y-84605200D02*
X147769400Y-83305200D01*
X149969400Y-84605200D02*
X147769400Y-84605200D01*
X145269400Y-83305200D02*
X145269400Y-77205200D01*
X147769400Y-83305200D02*
X145269400Y-83305200D01*
X149969400Y-83305200D02*
X149969400Y-84605200D01*
X152469400Y-83305200D02*
X149969400Y-83305200D01*
X145269400Y-77205200D02*
X146369400Y-76105200D01*
X152469400Y-77205200D02*
X152469400Y-83305200D01*
X146369400Y-76105200D02*
X147769400Y-76105200D01*
X147769400Y-76105200D02*
X147769400Y-74805200D01*
X149969400Y-76105200D02*
X151369400Y-76105200D01*
X151369400Y-76105200D02*
X152469400Y-77205200D01*
X146675650Y-75405200D02*
X147463150Y-75405200D01*
X147069400Y-75011450D02*
X147069400Y-75798950D01*
X147769400Y-74805200D02*
X149969400Y-74805200D01*
X149969400Y-74805200D02*
X149969400Y-76105200D01*
%TO.C,C100*%
X169816600Y-84605200D02*
X169816600Y-83305200D01*
X172016600Y-84605200D02*
X169816600Y-84605200D01*
X172016600Y-84505200D02*
X172016600Y-84605200D01*
X167316600Y-83305200D02*
X167316600Y-77205200D01*
X169816600Y-83305200D02*
X167316600Y-83305200D01*
X172016600Y-83305200D02*
X172016600Y-84505200D01*
X174516600Y-83305200D02*
X172016600Y-83305200D01*
X167316600Y-77205200D02*
X168416600Y-76105200D01*
X174516600Y-77205200D02*
X174516600Y-83305200D01*
X168416600Y-76105200D02*
X169816600Y-76105200D01*
X169816600Y-76105200D02*
X169816600Y-74805200D01*
X172016600Y-76105200D02*
X173416600Y-76105200D01*
X173416600Y-76105200D02*
X174516600Y-77205200D01*
X168722850Y-75405200D02*
X169510350Y-75405200D01*
X169116600Y-75011450D02*
X169116600Y-75798950D01*
X169816600Y-74805200D02*
X172016600Y-74805200D01*
X172016600Y-74805200D02*
X172016600Y-76105200D01*
%TO.C,C68*%
X169817620Y-101441240D02*
X169817620Y-100141240D01*
X172017620Y-101441240D02*
X169817620Y-101441240D01*
X167317620Y-100141240D02*
X167317620Y-94041240D01*
X169817620Y-100141240D02*
X167317620Y-100141240D01*
X172017620Y-100141240D02*
X172017620Y-101441240D01*
X174517620Y-100141240D02*
X172017620Y-100141240D01*
X167317620Y-94041240D02*
X168417620Y-92941240D01*
X174517620Y-94041240D02*
X174517620Y-100141240D01*
X168417620Y-92941240D02*
X169817620Y-92941240D01*
X169817620Y-92941240D02*
X169817620Y-91641240D01*
X172017620Y-92941240D02*
X173417620Y-92941240D01*
X173417620Y-92941240D02*
X174517620Y-94041240D01*
X168723870Y-92241240D02*
X169511370Y-92241240D01*
X169117620Y-91847490D02*
X169117620Y-92634990D01*
X169817620Y-91641240D02*
X172017620Y-91641240D01*
X172017620Y-91641240D02*
X172017620Y-92941240D01*
%TO.C,C66*%
X162426220Y-135071240D02*
X162426220Y-133771240D01*
X164626220Y-135071240D02*
X162426220Y-135071240D01*
X159926220Y-133771240D02*
X159926220Y-127671240D01*
X162426220Y-133771240D02*
X159926220Y-133771240D01*
X164626220Y-133771240D02*
X164626220Y-135071240D01*
X167126220Y-133771240D02*
X164626220Y-133771240D01*
X159926220Y-127671240D02*
X161026220Y-126571240D01*
X167126220Y-127671240D02*
X167126220Y-133771240D01*
X161026220Y-126571240D02*
X162426220Y-126571240D01*
X162426220Y-126571240D02*
X162426220Y-125271240D01*
X164626220Y-126571240D02*
X166026220Y-126571240D01*
X166026220Y-126571240D02*
X167126220Y-127671240D01*
X161332470Y-125871240D02*
X162119970Y-125871240D01*
X161726220Y-125477490D02*
X161726220Y-126264990D01*
X162426220Y-125271240D02*
X164626220Y-125271240D01*
X164626220Y-125271240D02*
X164626220Y-126571240D01*
%TO.C,C102*%
X162451620Y-118281640D02*
X162451620Y-116981640D01*
X164651620Y-118281640D02*
X162451620Y-118281640D01*
X164651620Y-118181640D02*
X164651620Y-118281640D01*
X159951620Y-116981640D02*
X159951620Y-110881640D01*
X162451620Y-116981640D02*
X159951620Y-116981640D01*
X164651620Y-116981640D02*
X164651620Y-118181640D01*
X167151620Y-116981640D02*
X164651620Y-116981640D01*
X159951620Y-110881640D02*
X161051620Y-109781640D01*
X167151620Y-110881640D02*
X167151620Y-116981640D01*
X161051620Y-109781640D02*
X162451620Y-109781640D01*
X162451620Y-109781640D02*
X162451620Y-108481640D01*
X164651620Y-109781640D02*
X166051620Y-109781640D01*
X166051620Y-109781640D02*
X167151620Y-110881640D01*
X161357870Y-109081640D02*
X162145370Y-109081640D01*
X161751620Y-108687890D02*
X161751620Y-109475390D01*
X162451620Y-108481640D02*
X164651620Y-108481640D01*
X164651620Y-108481640D02*
X164651620Y-109781640D01*
D14*
%TO.C,J3*%
X122428220Y-77073820D02*
X128728220Y-77073820D01*
X133328220Y-77073820D02*
X130328220Y-77073820D01*
X133328220Y-72773820D02*
X133328220Y-77073820D01*
X122428220Y-67873820D02*
X122428220Y-77073820D01*
X124828220Y-67873820D02*
X122428220Y-67873820D01*
X128628220Y-67873820D02*
X133328220Y-67873820D01*
X133328220Y-67873820D02*
X133328220Y-69673820D01*
D13*
%TO.C,J2*%
X148130334Y-72266782D02*
X148130334Y-71506782D01*
X148130334Y-70871782D02*
X148130334Y-69541782D01*
X147560334Y-70871782D02*
X148130334Y-70871782D01*
X147107864Y-69541782D02*
X148130334Y-69541782D01*
X146800334Y-72266782D02*
X148130334Y-72266782D01*
X145470334Y-70871782D02*
X146040334Y-70871782D01*
X145470334Y-70871782D02*
X145470334Y-69541782D01*
X145470334Y-69541782D02*
X146492804Y-69541782D01*
%TO.C,C73*%
X155111020Y-101441240D02*
X155111020Y-100141240D01*
X157311020Y-101441240D02*
X155111020Y-101441240D01*
X152611020Y-100141240D02*
X152611020Y-94041240D01*
X155111020Y-100141240D02*
X152611020Y-100141240D01*
X157311020Y-100141240D02*
X157311020Y-101441240D01*
X159811020Y-100141240D02*
X157311020Y-100141240D01*
X152611020Y-94041240D02*
X153711020Y-92941240D01*
X159811020Y-94041240D02*
X159811020Y-100141240D01*
X153711020Y-92941240D02*
X155111020Y-92941240D01*
X155111020Y-92941240D02*
X155111020Y-91641240D01*
X157311020Y-92941240D02*
X158711020Y-92941240D01*
X158711020Y-92941240D02*
X159811020Y-94041240D01*
X154017270Y-92241240D02*
X154804770Y-92241240D01*
X154411020Y-91847490D02*
X154411020Y-92634990D01*
X155111020Y-91641240D02*
X157311020Y-91641240D01*
X157311020Y-91641240D02*
X157311020Y-92941240D01*
%TO.C,C103*%
X155085620Y-135096640D02*
X155085620Y-133796640D01*
X157285620Y-135096640D02*
X155085620Y-135096640D01*
X157285620Y-134996640D02*
X157285620Y-135096640D01*
X152585620Y-133796640D02*
X152585620Y-127696640D01*
X155085620Y-133796640D02*
X152585620Y-133796640D01*
X157285620Y-133796640D02*
X157285620Y-134996640D01*
X159785620Y-133796640D02*
X157285620Y-133796640D01*
X152585620Y-127696640D02*
X153685620Y-126596640D01*
X159785620Y-127696640D02*
X159785620Y-133796640D01*
X153685620Y-126596640D02*
X155085620Y-126596640D01*
X155085620Y-126596640D02*
X155085620Y-125296640D01*
X157285620Y-126596640D02*
X158685620Y-126596640D01*
X158685620Y-126596640D02*
X159785620Y-127696640D01*
X153991870Y-125896640D02*
X154779370Y-125896640D01*
X154385620Y-125502890D02*
X154385620Y-126290390D01*
X155085620Y-125296640D02*
X157285620Y-125296640D01*
X157285620Y-125296640D02*
X157285620Y-126596640D01*
D12*
%TO.C,J1*%
X108807680Y-80100900D02*
X108807680Y-67850900D01*
X108807680Y-80100900D02*
X120807680Y-80100900D01*
X120807680Y-67850900D02*
X108807680Y-67850900D01*
X120807680Y-67850900D02*
X120807680Y-80100900D01*
%TD*%
M02*
