M48
; DRILL file {KiCad 9.0.2} date 2025-08-02T00:14:22+0800
; FORMAT={-:-/ absolute / metric / decimal}
; #@! TF.CreationDate,2025-08-02T00:14:22+08:00
; #@! TF.GenerationSoftware,Kicad,Pcbnew,9.0.2
; #@! TF.FileFunction,Plated,1,4,PTH
FMAT,2
METRIC
; #@! TA.AperFunction,Plated,PTH,ViaDrill
T1C0.300
; #@! TA.AperFunction,Plated,PTH,ComponentDrill
T2C0.300
; #@! TA.AperFunction,Plated,PTH,ComponentDrill
T3C0.600
; #@! TA.AperFunction,Plated,PTH,ComponentDrill
T4C0.700
; #@! TA.AperFunction,Plated,PTH,ComponentDrill
T5C0.800
; #@! TA.AperFunction,Plated,PTH,ComponentDrill
T6C1.000
; #@! TA.AperFunction,Plated,PTH,ComponentDrill
T7C2.300
%
G90
G05
T1
X107.823Y-92.075
X107.823Y-95.123
X107.823Y-98.044
X107.823Y-100.711
X107.823Y-104.14
X107.823Y-106.807
X108.915Y-99.314
X108.915Y-101.397
X108.915Y-103.175
X108.915Y-104.699
X110.472Y-123.297
X110.474Y-117.859
X110.474Y-119.383
X110.487Y-122.585
X110.49Y-77.724
X110.49Y-80.518
X110.744Y-72.771
X110.744Y-75.565
X110.744Y-101.219
X110.744Y-101.981
X110.744Y-102.743
X110.744Y-103.505
X110.918Y-92.391
X110.928Y-90.358
X112.268Y-71.882
X113.343Y-116.825
X113.343Y-117.425
X113.343Y-118.325
X113.343Y-118.925
X113.343Y-122.325
X113.343Y-122.925
X113.343Y-123.825
X113.343Y-124.425
X113.879Y-85.21
X114.321Y-98.401
X114.33Y-112.569
X114.818Y-128.692
X115.293Y-125.874
X115.578Y-98.364
X115.697Y-71.628
X115.842Y-85.21
X115.844Y-112.569
X115.893Y-125.874
X116.205Y-75.184
X116.342Y-128.692
X116.793Y-125.874
X117.091Y-98.364
X117.348Y-71.882
X117.348Y-73.025
X117.348Y-75.311
X117.348Y-77.724
X117.348Y-80.518
X117.363Y-112.566
X117.393Y-125.874
X117.729Y-69.317
X117.869Y-128.692
X118.186Y-85.21
X118.293Y-125.874
X118.466Y-69.342
X118.669Y-82.296
X118.669Y-82.855
X118.893Y-125.874
X118.999Y-77.724
X118.999Y-80.518
X119.126Y-72.009
X119.126Y-98.364
X119.228Y-69.342
X119.309Y-89.637
X119.332Y-112.566
X119.4Y-128.692
X119.793Y-125.874
X120.393Y-125.874
X120.645Y-98.364
X120.777Y-111.379
X120.917Y-128.692
X121.053Y-112.491
X122.094Y-112.491
X122.174Y-88.265
X122.174Y-119.38
X122.187Y-80.864
X122.558Y-119.875
X122.936Y-99.314
X122.936Y-99.822
X123.158Y-112.491
X123.444Y-99.314
X123.444Y-99.822
X123.457Y-80.864
X123.698Y-104.648
X123.825Y-106.045
X123.952Y-99.314
X123.952Y-99.822
X123.973Y-95.436
X124.01Y-117.474
X124.098Y-89.796
X124.098Y-91.316
X124.098Y-92.992
X124.155Y-128.729
X124.48Y-117.097
X124.727Y-84.666
X125.476Y-104.648
X125.672Y-92.758
X125.674Y-93.223
X125.997Y-84.666
X126.638Y-118.633
X126.638Y-121.628
X126.638Y-123.152
X126.645Y-117.117
X132.22Y-126.906
X132.22Y-127.338
X132.235Y-125.73
X132.235Y-126.162
X132.651Y-126.906
X132.651Y-127.338
X132.667Y-125.73
X132.667Y-126.162
X133.083Y-126.906
X133.083Y-127.338
X133.099Y-125.73
X133.099Y-126.162
X135.738Y-70.256
X136.533Y-78.813
X136.533Y-95.643
X136.533Y-112.473
X136.533Y-129.296
X137.803Y-78.813
X137.803Y-95.643
X137.803Y-112.473
X137.803Y-129.296
X140.343Y-78.813
X140.343Y-95.643
X140.343Y-112.473
X140.343Y-129.296
X141.613Y-78.813
X141.613Y-95.643
X141.613Y-112.473
X141.613Y-129.296
X146.66Y-68.732
X153.043Y-78.961
X153.043Y-95.791
X153.043Y-112.621
X157.582Y-75.133
X157.582Y-75.641
X157.582Y-76.149
X157.582Y-91.948
X157.582Y-92.456
X157.582Y-92.964
X157.582Y-108.763
X157.582Y-109.271
X157.582Y-109.779
X157.582Y-125.628
X157.582Y-126.136
X157.582Y-126.644
X158.09Y-75.133
X158.09Y-75.641
X158.09Y-76.149
X158.09Y-91.948
X158.09Y-92.456
X158.09Y-92.964
X158.09Y-108.763
X158.09Y-109.271
X158.09Y-109.779
X158.09Y-125.628
X158.09Y-126.136
X158.09Y-126.644
X158.598Y-75.133
X158.598Y-75.641
X158.598Y-76.149
X158.598Y-91.948
X158.598Y-92.456
X158.598Y-92.964
X158.598Y-108.763
X158.598Y-109.271
X158.598Y-109.779
X158.598Y-125.628
X158.598Y-126.136
X158.598Y-126.644
X159.106Y-75.133
X159.106Y-75.641
X159.106Y-76.149
X159.106Y-91.948
X159.106Y-92.456
X159.106Y-92.964
X159.106Y-108.763
X159.106Y-109.271
X159.106Y-109.779
X159.106Y-125.628
X159.106Y-126.136
X159.106Y-126.644
X161.933Y-78.961
X161.933Y-95.791
X161.933Y-112.621
X168.3Y-76.403
X168.3Y-76.911
X168.3Y-77.419
X168.3Y-93.218
X168.3Y-93.726
X168.3Y-94.234
X168.3Y-110.043
X168.3Y-110.551
X168.3Y-111.059
X168.3Y-126.898
X168.3Y-127.406
X168.3Y-127.914
X168.808Y-76.403
X168.808Y-76.911
X168.808Y-77.419
X168.808Y-93.218
X168.808Y-93.726
X168.808Y-94.234
X168.808Y-110.043
X168.808Y-110.551
X168.808Y-111.059
X168.808Y-126.898
X168.808Y-127.406
X168.808Y-127.914
X169.316Y-76.403
X169.316Y-76.911
X169.316Y-77.419
X169.316Y-93.218
X169.316Y-93.726
X169.316Y-94.234
X169.316Y-110.043
X169.316Y-110.551
X169.316Y-111.059
X169.316Y-126.898
X169.316Y-127.406
X169.316Y-127.914
X169.824Y-76.403
X169.824Y-76.911
X169.824Y-77.419
X169.824Y-93.218
X169.824Y-93.726
X169.824Y-94.234
X169.824Y-110.043
X169.824Y-110.551
X169.824Y-111.059
X169.824Y-126.898
X169.824Y-127.406
X169.824Y-127.914
X172.842Y-119.139
X172.842Y-119.57
X172.842Y-120.002
X172.842Y-124.699
X172.842Y-125.131
X172.842Y-125.562
X173.274Y-119.139
X173.274Y-119.57
X173.274Y-120.002
X173.274Y-124.699
X173.274Y-125.131
X173.274Y-125.562
X174.18Y-103.429
X174.231Y-86.512
X174.407Y-126.086
X174.407Y-126.517
X174.407Y-126.949
X174.422Y-117.805
X174.422Y-118.237
X174.422Y-118.669
X174.838Y-126.086
X174.838Y-126.517
X174.838Y-126.949
X174.854Y-117.805
X174.854Y-118.237
X174.854Y-118.669
X174.904Y-100.482
X174.955Y-83.566
X176.276Y-109.601
X176.276Y-110.109
X176.276Y-110.617
X176.327Y-92.685
X176.327Y-93.193
X176.327Y-93.701
X176.784Y-109.601
X176.784Y-110.109
X176.784Y-110.617
X176.835Y-92.685
X176.835Y-93.193
X176.835Y-93.701
X177.292Y-109.601
X177.292Y-110.109
X177.292Y-110.617
X177.343Y-92.685
X177.343Y-93.193
X177.343Y-93.701
X177.8Y-109.601
X177.8Y-110.109
X177.8Y-110.617
X177.851Y-92.685
X177.851Y-93.193
X177.851Y-93.701
X178.095Y-122.085
X178.095Y-122.517
X178.511Y-97.688
X178.511Y-98.196
X178.511Y-98.704
X178.526Y-122.085
X178.526Y-122.517
X178.562Y-80.772
X178.562Y-81.28
X178.562Y-81.788
X179.019Y-97.688
X179.019Y-98.196
X179.019Y-98.704
X179.07Y-80.772
X179.07Y-81.28
X179.07Y-81.788
X179.378Y-101.928
X179.429Y-85.011
X179.527Y-97.688
X179.527Y-98.196
X179.527Y-98.704
X179.578Y-80.772
X179.578Y-81.28
X179.578Y-81.788
X180.035Y-97.688
X180.035Y-98.196
X180.035Y-98.704
X180.086Y-80.772
X180.086Y-81.28
X180.086Y-81.788
X180.729Y-124.343
X180.975Y-108.458
X180.975Y-109.093
X181.102Y-91.567
X181.102Y-92.202
X181.356Y-97.79
X181.356Y-98.425
X181.61Y-81.026
X181.61Y-81.534
X181.61Y-108.458
X181.61Y-109.093
X181.737Y-91.567
X181.737Y-92.202
X181.991Y-97.79
X181.991Y-98.425
X182.118Y-81.026
X182.118Y-81.534
X182.133Y-117.45
X182.321Y-103.378
X182.372Y-86.487
X182.616Y-126.782
X182.641Y-117.886
X182.954Y-75.216
X182.954Y-92.039
X182.954Y-108.862
X182.954Y-77.247
X182.954Y-94.07
X182.955Y-110.898
X183.416Y-120.754
X183.416Y-121.186
X183.65Y-117.881
X183.848Y-120.754
X183.848Y-121.186
X184.277Y-73.152
X184.277Y-73.787
T2
X116.987Y-91.263
X116.987Y-92.313
X117.143Y-119.175
X117.143Y-120.625
X117.143Y-122.075
X118.037Y-91.263
X118.037Y-92.313
X118.593Y-119.175
X118.593Y-120.625
X118.593Y-122.075
X120.043Y-119.175
X120.043Y-120.625
X120.043Y-122.075
X177.978Y-102.961
X177.978Y-103.911
X177.978Y-104.861
X178.029Y-86.045
X178.029Y-86.995
X178.029Y-87.945
T3
X129.528Y-74.974
X132.028Y-71.274
T4
X110.558Y-70.701
X112.308Y-70.701
X113.558Y-73.901
X113.558Y-76.901
X114.808Y-70.701
X116.058Y-73.901
X116.058Y-76.901
X117.308Y-70.701
X119.058Y-70.701
T5
X126.728Y-68.974
T6
X167.393Y-70.759
X167.393Y-73.259
T7
X108.808Y-74.601
X120.808Y-74.601
T3
G00X113.858Y-68.451
M15
G01X115.758Y-68.451
M16
G05
M30
