%TF.GenerationSoftware,KiCad,Pcbnew,9.0.0*%
%TF.CreationDate,2025-05-17T23:47:15+08:00*%
%TF.ProjectId,ver0.1,76657230-2e31-42e6-9b69-6361645f7063,rev?*%
%TF.SameCoordinates,Original*%
%TF.FileFunction,Legend,Bot*%
%TF.FilePolarity,Positive*%
%FSLAX46Y46*%
G04 Gerber Fmt 4.6, Leading zero omitted, Abs format (unit mm)*
G04 Created by KiCad (PCBNEW 9.0.0) date 2025-05-17 23:47:15*
%MOMM*%
%LPD*%
G01*
G04 APERTURE LIST*
%ADD10C,0.076200*%
%ADD11C,0.150000*%
%ADD12C,0.100000*%
%ADD13C,0.000000*%
%ADD14C,0.120000*%
%ADD15C,0.127000*%
%ADD16C,0.200000*%
G04 APERTURE END LIST*
D10*
X180594453Y-99898923D02*
X180628471Y-99929162D01*
X180628471Y-99929162D02*
X180722965Y-99959400D01*
X180722965Y-99959400D02*
X180783441Y-99959400D01*
X180783441Y-99959400D02*
X180870376Y-99929162D01*
X180870376Y-99929162D02*
X180923292Y-99868685D01*
X180923292Y-99868685D02*
X180945971Y-99808209D01*
X180945971Y-99808209D02*
X180961090Y-99687257D01*
X180961090Y-99687257D02*
X180949751Y-99596542D01*
X180949751Y-99596542D02*
X180904394Y-99475590D01*
X180904394Y-99475590D02*
X180866596Y-99415114D01*
X180866596Y-99415114D02*
X180798560Y-99354638D01*
X180798560Y-99354638D02*
X180704066Y-99324400D01*
X180704066Y-99324400D02*
X180643590Y-99324400D01*
X180643590Y-99324400D02*
X180556656Y-99354638D01*
X180556656Y-99354638D02*
X180530197Y-99384876D01*
X179997251Y-99959400D02*
X180360108Y-99959400D01*
X180178679Y-99959400D02*
X180099304Y-99324400D01*
X180099304Y-99324400D02*
X180171120Y-99415114D01*
X180171120Y-99415114D02*
X180239156Y-99475590D01*
X180239156Y-99475590D02*
X180303411Y-99505828D01*
X178740523Y-92889765D02*
X178770762Y-92855747D01*
X178770762Y-92855747D02*
X178801000Y-92761253D01*
X178801000Y-92761253D02*
X178801000Y-92700777D01*
X178801000Y-92700777D02*
X178770762Y-92613842D01*
X178770762Y-92613842D02*
X178710285Y-92560926D01*
X178710285Y-92560926D02*
X178649809Y-92538247D01*
X178649809Y-92538247D02*
X178528857Y-92523128D01*
X178528857Y-92523128D02*
X178438142Y-92534467D01*
X178438142Y-92534467D02*
X178317190Y-92579824D01*
X178317190Y-92579824D02*
X178256714Y-92617622D01*
X178256714Y-92617622D02*
X178196238Y-92685658D01*
X178196238Y-92685658D02*
X178166000Y-92780152D01*
X178166000Y-92780152D02*
X178166000Y-92840628D01*
X178166000Y-92840628D02*
X178196238Y-92927563D01*
X178196238Y-92927563D02*
X178226476Y-92954021D01*
X178801000Y-93486967D02*
X178801000Y-93124110D01*
X178801000Y-93305539D02*
X178166000Y-93384914D01*
X178166000Y-93384914D02*
X178256714Y-93313098D01*
X178256714Y-93313098D02*
X178317190Y-93245063D01*
X178317190Y-93245063D02*
X178347428Y-93180807D01*
X178377666Y-94084170D02*
X178801000Y-94031253D01*
X178135762Y-93963217D02*
X178589333Y-93755330D01*
X178589333Y-93755330D02*
X178589333Y-94148426D01*
X152090343Y-112674824D02*
X152120582Y-112640806D01*
X152120582Y-112640806D02*
X152150820Y-112546312D01*
X152150820Y-112546312D02*
X152150820Y-112485836D01*
X152150820Y-112485836D02*
X152120582Y-112398901D01*
X152120582Y-112398901D02*
X152060105Y-112345985D01*
X152060105Y-112345985D02*
X151999629Y-112323306D01*
X151999629Y-112323306D02*
X151878677Y-112308187D01*
X151878677Y-112308187D02*
X151787962Y-112319526D01*
X151787962Y-112319526D02*
X151667010Y-112364883D01*
X151667010Y-112364883D02*
X151606534Y-112402681D01*
X151606534Y-112402681D02*
X151546058Y-112470717D01*
X151546058Y-112470717D02*
X151515820Y-112565211D01*
X151515820Y-112565211D02*
X151515820Y-112625687D01*
X151515820Y-112625687D02*
X151546058Y-112712622D01*
X151546058Y-112712622D02*
X151576296Y-112739080D01*
X152150820Y-113272026D02*
X152150820Y-112909169D01*
X152150820Y-113090598D02*
X151515820Y-113169973D01*
X151515820Y-113169973D02*
X151606534Y-113098157D01*
X151606534Y-113098157D02*
X151667010Y-113030122D01*
X151667010Y-113030122D02*
X151697248Y-112965866D01*
X151515820Y-113744497D02*
X151515820Y-113804973D01*
X151515820Y-113804973D02*
X151546058Y-113861669D01*
X151546058Y-113861669D02*
X151576296Y-113888128D01*
X151576296Y-113888128D02*
X151636772Y-113910806D01*
X151636772Y-113910806D02*
X151757724Y-113925925D01*
X151757724Y-113925925D02*
X151908915Y-113907026D01*
X151908915Y-113907026D02*
X152029867Y-113861669D01*
X152029867Y-113861669D02*
X152090343Y-113823872D01*
X152090343Y-113823872D02*
X152120582Y-113789854D01*
X152120582Y-113789854D02*
X152150820Y-113725598D01*
X152150820Y-113725598D02*
X152150820Y-113665122D01*
X152150820Y-113665122D02*
X152120582Y-113608425D01*
X152120582Y-113608425D02*
X152090343Y-113581967D01*
X152090343Y-113581967D02*
X152029867Y-113559288D01*
X152029867Y-113559288D02*
X151908915Y-113544169D01*
X151908915Y-113544169D02*
X151757724Y-113563068D01*
X151757724Y-113563068D02*
X151636772Y-113608425D01*
X151636772Y-113608425D02*
X151576296Y-113646223D01*
X151576296Y-113646223D02*
X151546058Y-113680241D01*
X151546058Y-113680241D02*
X151515820Y-113744497D01*
X152150820Y-114481550D02*
X152150820Y-114118693D01*
X152150820Y-114300122D02*
X151515820Y-114379497D01*
X151515820Y-114379497D02*
X151606534Y-114307681D01*
X151606534Y-114307681D02*
X151667010Y-114239646D01*
X151667010Y-114239646D02*
X151697248Y-114175390D01*
X173607034Y-86817923D02*
X173641052Y-86848162D01*
X173641052Y-86848162D02*
X173735546Y-86878400D01*
X173735546Y-86878400D02*
X173796022Y-86878400D01*
X173796022Y-86878400D02*
X173882957Y-86848162D01*
X173882957Y-86848162D02*
X173935873Y-86787685D01*
X173935873Y-86787685D02*
X173958552Y-86727209D01*
X173958552Y-86727209D02*
X173973671Y-86606257D01*
X173973671Y-86606257D02*
X173962332Y-86515542D01*
X173962332Y-86515542D02*
X173916975Y-86394590D01*
X173916975Y-86394590D02*
X173879177Y-86334114D01*
X173879177Y-86334114D02*
X173811141Y-86273638D01*
X173811141Y-86273638D02*
X173716647Y-86243400D01*
X173716647Y-86243400D02*
X173656171Y-86243400D01*
X173656171Y-86243400D02*
X173569237Y-86273638D01*
X173569237Y-86273638D02*
X173542778Y-86303876D01*
X173009832Y-86878400D02*
X173372689Y-86878400D01*
X173191260Y-86878400D02*
X173111885Y-86243400D01*
X173111885Y-86243400D02*
X173183701Y-86334114D01*
X173183701Y-86334114D02*
X173251737Y-86394590D01*
X173251737Y-86394590D02*
X173315992Y-86424828D01*
X172696111Y-86303876D02*
X172662094Y-86273638D01*
X172662094Y-86273638D02*
X172597838Y-86243400D01*
X172597838Y-86243400D02*
X172446647Y-86243400D01*
X172446647Y-86243400D02*
X172389951Y-86273638D01*
X172389951Y-86273638D02*
X172363492Y-86303876D01*
X172363492Y-86303876D02*
X172340814Y-86364352D01*
X172340814Y-86364352D02*
X172348373Y-86424828D01*
X172348373Y-86424828D02*
X172389951Y-86515542D01*
X172389951Y-86515542D02*
X172798165Y-86878400D01*
X172798165Y-86878400D02*
X172405070Y-86878400D01*
X137998923Y-81318464D02*
X138029162Y-81284446D01*
X138029162Y-81284446D02*
X138059400Y-81189952D01*
X138059400Y-81189952D02*
X138059400Y-81129476D01*
X138059400Y-81129476D02*
X138029162Y-81042541D01*
X138029162Y-81042541D02*
X137968685Y-80989625D01*
X137968685Y-80989625D02*
X137908209Y-80966946D01*
X137908209Y-80966946D02*
X137787257Y-80951827D01*
X137787257Y-80951827D02*
X137696542Y-80963166D01*
X137696542Y-80963166D02*
X137575590Y-81008523D01*
X137575590Y-81008523D02*
X137515114Y-81046321D01*
X137515114Y-81046321D02*
X137454638Y-81114357D01*
X137454638Y-81114357D02*
X137424400Y-81208851D01*
X137424400Y-81208851D02*
X137424400Y-81269327D01*
X137424400Y-81269327D02*
X137454638Y-81356262D01*
X137454638Y-81356262D02*
X137484876Y-81382720D01*
X138059400Y-81915666D02*
X138059400Y-81552809D01*
X138059400Y-81734238D02*
X137424400Y-81813613D01*
X137424400Y-81813613D02*
X137515114Y-81741797D01*
X137515114Y-81741797D02*
X137575590Y-81673762D01*
X137575590Y-81673762D02*
X137605828Y-81609506D01*
X138059400Y-82520428D02*
X138059400Y-82157571D01*
X138059400Y-82339000D02*
X137424400Y-82418375D01*
X137424400Y-82418375D02*
X137515114Y-82346559D01*
X137515114Y-82346559D02*
X137575590Y-82278524D01*
X137575590Y-82278524D02*
X137605828Y-82214268D01*
X137424400Y-83174327D02*
X137424400Y-82871946D01*
X137424400Y-82871946D02*
X137726781Y-82803911D01*
X137726781Y-82803911D02*
X137696542Y-82837928D01*
X137696542Y-82837928D02*
X137666304Y-82902184D01*
X137666304Y-82902184D02*
X137666304Y-83053375D01*
X137666304Y-83053375D02*
X137696542Y-83110071D01*
X137696542Y-83110071D02*
X137726781Y-83136530D01*
X137726781Y-83136530D02*
X137787257Y-83159208D01*
X137787257Y-83159208D02*
X137938447Y-83140309D01*
X137938447Y-83140309D02*
X137998923Y-83102512D01*
X137998923Y-83102512D02*
X138029162Y-83068494D01*
X138029162Y-83068494D02*
X138059400Y-83004238D01*
X138059400Y-83004238D02*
X138059400Y-82853047D01*
X138059400Y-82853047D02*
X138029162Y-82796351D01*
X138029162Y-82796351D02*
X137998923Y-82769893D01*
X181002214Y-84998800D02*
X181066470Y-85512847D01*
X181066470Y-85512847D02*
X181043791Y-85573323D01*
X181043791Y-85573323D02*
X181017333Y-85603562D01*
X181017333Y-85603562D02*
X180960636Y-85633800D01*
X180960636Y-85633800D02*
X180839684Y-85633800D01*
X180839684Y-85633800D02*
X180775428Y-85603562D01*
X180775428Y-85603562D02*
X180741410Y-85573323D01*
X180741410Y-85573323D02*
X180703613Y-85512847D01*
X180703613Y-85512847D02*
X180639357Y-84998800D01*
X180374773Y-85059276D02*
X180340756Y-85029038D01*
X180340756Y-85029038D02*
X180276500Y-84998800D01*
X180276500Y-84998800D02*
X180125309Y-84998800D01*
X180125309Y-84998800D02*
X180068613Y-85029038D01*
X180068613Y-85029038D02*
X180042154Y-85059276D01*
X180042154Y-85059276D02*
X180019476Y-85119752D01*
X180019476Y-85119752D02*
X180027035Y-85180228D01*
X180027035Y-85180228D02*
X180068613Y-85270942D01*
X180068613Y-85270942D02*
X180476827Y-85633800D01*
X180476827Y-85633800D02*
X180083732Y-85633800D01*
X166796943Y-112977205D02*
X166827182Y-112943187D01*
X166827182Y-112943187D02*
X166857420Y-112848693D01*
X166857420Y-112848693D02*
X166857420Y-112788217D01*
X166857420Y-112788217D02*
X166827182Y-112701282D01*
X166827182Y-112701282D02*
X166766705Y-112648366D01*
X166766705Y-112648366D02*
X166706229Y-112625687D01*
X166706229Y-112625687D02*
X166585277Y-112610568D01*
X166585277Y-112610568D02*
X166494562Y-112621907D01*
X166494562Y-112621907D02*
X166373610Y-112667264D01*
X166373610Y-112667264D02*
X166313134Y-112705062D01*
X166313134Y-112705062D02*
X166252658Y-112773098D01*
X166252658Y-112773098D02*
X166222420Y-112867592D01*
X166222420Y-112867592D02*
X166222420Y-112928068D01*
X166222420Y-112928068D02*
X166252658Y-113015003D01*
X166252658Y-113015003D02*
X166282896Y-113041461D01*
X166857420Y-113272026D02*
X166857420Y-113392979D01*
X166857420Y-113392979D02*
X166827182Y-113457235D01*
X166827182Y-113457235D02*
X166796943Y-113491253D01*
X166796943Y-113491253D02*
X166706229Y-113563068D01*
X166706229Y-113563068D02*
X166585277Y-113608425D01*
X166585277Y-113608425D02*
X166343372Y-113638663D01*
X166343372Y-113638663D02*
X166282896Y-113615985D01*
X166282896Y-113615985D02*
X166252658Y-113589526D01*
X166252658Y-113589526D02*
X166222420Y-113532830D01*
X166222420Y-113532830D02*
X166222420Y-113411878D01*
X166222420Y-113411878D02*
X166252658Y-113347622D01*
X166252658Y-113347622D02*
X166282896Y-113313604D01*
X166282896Y-113313604D02*
X166343372Y-113275806D01*
X166343372Y-113275806D02*
X166494562Y-113256907D01*
X166494562Y-113256907D02*
X166555039Y-113279586D01*
X166555039Y-113279586D02*
X166585277Y-113306044D01*
X166585277Y-113306044D02*
X166615515Y-113362741D01*
X166615515Y-113362741D02*
X166615515Y-113483693D01*
X166615515Y-113483693D02*
X166585277Y-113547949D01*
X166585277Y-113547949D02*
X166555039Y-113581967D01*
X166555039Y-113581967D02*
X166494562Y-113619764D01*
X166494562Y-113982622D02*
X166464324Y-113925925D01*
X166464324Y-113925925D02*
X166434086Y-113899467D01*
X166434086Y-113899467D02*
X166373610Y-113876788D01*
X166373610Y-113876788D02*
X166343372Y-113880568D01*
X166343372Y-113880568D02*
X166282896Y-113918366D01*
X166282896Y-113918366D02*
X166252658Y-113952384D01*
X166252658Y-113952384D02*
X166222420Y-114016640D01*
X166222420Y-114016640D02*
X166222420Y-114137592D01*
X166222420Y-114137592D02*
X166252658Y-114194288D01*
X166252658Y-114194288D02*
X166282896Y-114220747D01*
X166282896Y-114220747D02*
X166343372Y-114243425D01*
X166343372Y-114243425D02*
X166373610Y-114239645D01*
X166373610Y-114239645D02*
X166434086Y-114201848D01*
X166434086Y-114201848D02*
X166464324Y-114167830D01*
X166464324Y-114167830D02*
X166494562Y-114103574D01*
X166494562Y-114103574D02*
X166494562Y-113982622D01*
X166494562Y-113982622D02*
X166524801Y-113918366D01*
X166524801Y-113918366D02*
X166555039Y-113884348D01*
X166555039Y-113884348D02*
X166615515Y-113846550D01*
X166615515Y-113846550D02*
X166736467Y-113831431D01*
X166736467Y-113831431D02*
X166796943Y-113854110D01*
X166796943Y-113854110D02*
X166827182Y-113880568D01*
X166827182Y-113880568D02*
X166857420Y-113937265D01*
X166857420Y-113937265D02*
X166857420Y-114058217D01*
X166857420Y-114058217D02*
X166827182Y-114122473D01*
X166827182Y-114122473D02*
X166796943Y-114156491D01*
X166796943Y-114156491D02*
X166736467Y-114194288D01*
X166736467Y-114194288D02*
X166615515Y-114209407D01*
X166615515Y-114209407D02*
X166555039Y-114186729D01*
X166555039Y-114186729D02*
X166524801Y-114160270D01*
X166524801Y-114160270D02*
X166494562Y-114103574D01*
X138019223Y-131779584D02*
X138049462Y-131745566D01*
X138049462Y-131745566D02*
X138079700Y-131651072D01*
X138079700Y-131651072D02*
X138079700Y-131590596D01*
X138079700Y-131590596D02*
X138049462Y-131503661D01*
X138049462Y-131503661D02*
X137988985Y-131450745D01*
X137988985Y-131450745D02*
X137928509Y-131428066D01*
X137928509Y-131428066D02*
X137807557Y-131412947D01*
X137807557Y-131412947D02*
X137716842Y-131424286D01*
X137716842Y-131424286D02*
X137595890Y-131469643D01*
X137595890Y-131469643D02*
X137535414Y-131507441D01*
X137535414Y-131507441D02*
X137474938Y-131575477D01*
X137474938Y-131575477D02*
X137444700Y-131669971D01*
X137444700Y-131669971D02*
X137444700Y-131730447D01*
X137444700Y-131730447D02*
X137474938Y-131817382D01*
X137474938Y-131817382D02*
X137505176Y-131843840D01*
X138079700Y-132376786D02*
X138079700Y-132013929D01*
X138079700Y-132195358D02*
X137444700Y-132274733D01*
X137444700Y-132274733D02*
X137535414Y-132202917D01*
X137535414Y-132202917D02*
X137595890Y-132134882D01*
X137595890Y-132134882D02*
X137626128Y-132070626D01*
X137505176Y-132690507D02*
X137474938Y-132724524D01*
X137474938Y-132724524D02*
X137444700Y-132788780D01*
X137444700Y-132788780D02*
X137444700Y-132939971D01*
X137444700Y-132939971D02*
X137474938Y-132996667D01*
X137474938Y-132996667D02*
X137505176Y-133023126D01*
X137505176Y-133023126D02*
X137565652Y-133045804D01*
X137565652Y-133045804D02*
X137626128Y-133038245D01*
X137626128Y-133038245D02*
X137716842Y-132996667D01*
X137716842Y-132996667D02*
X138079700Y-132588453D01*
X138079700Y-132588453D02*
X138079700Y-132981548D01*
X137444700Y-133272590D02*
X137444700Y-133665685D01*
X137444700Y-133665685D02*
X137686604Y-133423781D01*
X137686604Y-133423781D02*
X137686604Y-133514495D01*
X137686604Y-133514495D02*
X137716842Y-133571191D01*
X137716842Y-133571191D02*
X137747081Y-133597650D01*
X137747081Y-133597650D02*
X137807557Y-133620328D01*
X137807557Y-133620328D02*
X137958747Y-133601429D01*
X137958747Y-133601429D02*
X138019223Y-133563632D01*
X138019223Y-133563632D02*
X138049462Y-133529614D01*
X138049462Y-133529614D02*
X138079700Y-133465358D01*
X138079700Y-133465358D02*
X138079700Y-133283929D01*
X138079700Y-133283929D02*
X138049462Y-133227233D01*
X138049462Y-133227233D02*
X138019223Y-133200775D01*
X183756240Y-121918425D02*
X184270287Y-121854169D01*
X184270287Y-121854169D02*
X184330763Y-121876848D01*
X184330763Y-121876848D02*
X184361002Y-121903306D01*
X184361002Y-121903306D02*
X184391240Y-121960003D01*
X184391240Y-121960003D02*
X184391240Y-122080955D01*
X184391240Y-122080955D02*
X184361002Y-122145211D01*
X184361002Y-122145211D02*
X184330763Y-122179229D01*
X184330763Y-122179229D02*
X184270287Y-122217026D01*
X184270287Y-122217026D02*
X183756240Y-122281282D01*
X183756240Y-122523187D02*
X183756240Y-122916282D01*
X183756240Y-122916282D02*
X183998144Y-122674378D01*
X183998144Y-122674378D02*
X183998144Y-122765092D01*
X183998144Y-122765092D02*
X184028382Y-122821788D01*
X184028382Y-122821788D02*
X184058621Y-122848247D01*
X184058621Y-122848247D02*
X184119097Y-122870925D01*
X184119097Y-122870925D02*
X184270287Y-122852026D01*
X184270287Y-122852026D02*
X184330763Y-122814229D01*
X184330763Y-122814229D02*
X184361002Y-122780211D01*
X184361002Y-122780211D02*
X184391240Y-122715955D01*
X184391240Y-122715955D02*
X184391240Y-122534526D01*
X184391240Y-122534526D02*
X184361002Y-122477830D01*
X184361002Y-122477830D02*
X184330763Y-122451372D01*
X181262413Y-125283200D02*
X181564794Y-125283200D01*
X181564794Y-125283200D02*
X181485419Y-124648200D01*
X180725686Y-124859866D02*
X180778603Y-125283200D01*
X180846639Y-124617962D02*
X181054526Y-125071533D01*
X181054526Y-125071533D02*
X180661430Y-125071533D01*
X180909200Y-131617205D02*
X180606819Y-131443336D01*
X180909200Y-131254348D02*
X180274200Y-131333723D01*
X180274200Y-131333723D02*
X180274200Y-131575628D01*
X180274200Y-131575628D02*
X180304438Y-131632324D01*
X180304438Y-131632324D02*
X180334676Y-131658783D01*
X180334676Y-131658783D02*
X180395152Y-131681461D01*
X180395152Y-131681461D02*
X180485866Y-131670122D01*
X180485866Y-131670122D02*
X180546342Y-131632324D01*
X180546342Y-131632324D02*
X180576581Y-131598307D01*
X180576581Y-131598307D02*
X180606819Y-131534051D01*
X180606819Y-131534051D02*
X180606819Y-131292146D01*
X180334676Y-131930926D02*
X180304438Y-131964943D01*
X180304438Y-131964943D02*
X180274200Y-132029199D01*
X180274200Y-132029199D02*
X180274200Y-132180390D01*
X180274200Y-132180390D02*
X180304438Y-132237086D01*
X180304438Y-132237086D02*
X180334676Y-132263545D01*
X180334676Y-132263545D02*
X180395152Y-132286223D01*
X180395152Y-132286223D02*
X180455628Y-132278664D01*
X180455628Y-132278664D02*
X180546342Y-132237086D01*
X180546342Y-132237086D02*
X180909200Y-131828872D01*
X180909200Y-131828872D02*
X180909200Y-132221967D01*
X180334676Y-132535688D02*
X180304438Y-132569705D01*
X180304438Y-132569705D02*
X180274200Y-132633961D01*
X180274200Y-132633961D02*
X180274200Y-132785152D01*
X180274200Y-132785152D02*
X180304438Y-132841848D01*
X180304438Y-132841848D02*
X180334676Y-132868307D01*
X180334676Y-132868307D02*
X180395152Y-132890985D01*
X180395152Y-132890985D02*
X180455628Y-132883426D01*
X180455628Y-132883426D02*
X180546342Y-132841848D01*
X180546342Y-132841848D02*
X180909200Y-132433634D01*
X180909200Y-132433634D02*
X180909200Y-132826729D01*
X173690794Y-91196400D02*
X173864663Y-90894019D01*
X174053651Y-91196400D02*
X173974276Y-90561400D01*
X173974276Y-90561400D02*
X173732371Y-90561400D01*
X173732371Y-90561400D02*
X173675675Y-90591638D01*
X173675675Y-90591638D02*
X173649216Y-90621876D01*
X173649216Y-90621876D02*
X173626538Y-90682352D01*
X173626538Y-90682352D02*
X173637877Y-90773066D01*
X173637877Y-90773066D02*
X173675675Y-90833542D01*
X173675675Y-90833542D02*
X173709692Y-90863781D01*
X173709692Y-90863781D02*
X173773948Y-90894019D01*
X173773948Y-90894019D02*
X174015853Y-90894019D01*
X173086032Y-91196400D02*
X173448889Y-91196400D01*
X173267460Y-91196400D02*
X173188085Y-90561400D01*
X173188085Y-90561400D02*
X173259901Y-90652114D01*
X173259901Y-90652114D02*
X173327937Y-90712590D01*
X173327937Y-90712590D02*
X173392192Y-90742828D01*
X172794990Y-90561400D02*
X172401895Y-90561400D01*
X172401895Y-90561400D02*
X172643800Y-90803304D01*
X172643800Y-90803304D02*
X172553085Y-90803304D01*
X172553085Y-90803304D02*
X172496389Y-90833542D01*
X172496389Y-90833542D02*
X172469930Y-90863781D01*
X172469930Y-90863781D02*
X172447252Y-90924257D01*
X172447252Y-90924257D02*
X172466151Y-91075447D01*
X172466151Y-91075447D02*
X172503948Y-91135923D01*
X172503948Y-91135923D02*
X172537966Y-91166162D01*
X172537966Y-91166162D02*
X172602222Y-91196400D01*
X172602222Y-91196400D02*
X172783651Y-91196400D01*
X172783651Y-91196400D02*
X172840347Y-91166162D01*
X172840347Y-91166162D02*
X172866805Y-91135923D01*
X180823053Y-84481123D02*
X180857071Y-84511362D01*
X180857071Y-84511362D02*
X180951565Y-84541600D01*
X180951565Y-84541600D02*
X181012041Y-84541600D01*
X181012041Y-84541600D02*
X181098976Y-84511362D01*
X181098976Y-84511362D02*
X181151892Y-84450885D01*
X181151892Y-84450885D02*
X181174571Y-84390409D01*
X181174571Y-84390409D02*
X181189690Y-84269457D01*
X181189690Y-84269457D02*
X181178351Y-84178742D01*
X181178351Y-84178742D02*
X181132994Y-84057790D01*
X181132994Y-84057790D02*
X181095196Y-83997314D01*
X181095196Y-83997314D02*
X181027160Y-83936838D01*
X181027160Y-83936838D02*
X180932666Y-83906600D01*
X180932666Y-83906600D02*
X180872190Y-83906600D01*
X180872190Y-83906600D02*
X180785256Y-83936838D01*
X180785256Y-83936838D02*
X180758797Y-83967076D01*
X180528232Y-84541600D02*
X180407279Y-84541600D01*
X180407279Y-84541600D02*
X180343023Y-84511362D01*
X180343023Y-84511362D02*
X180309006Y-84481123D01*
X180309006Y-84481123D02*
X180237190Y-84390409D01*
X180237190Y-84390409D02*
X180191833Y-84269457D01*
X180191833Y-84269457D02*
X180161595Y-84027552D01*
X180161595Y-84027552D02*
X180184273Y-83967076D01*
X180184273Y-83967076D02*
X180210732Y-83936838D01*
X180210732Y-83936838D02*
X180267428Y-83906600D01*
X180267428Y-83906600D02*
X180388381Y-83906600D01*
X180388381Y-83906600D02*
X180452636Y-83936838D01*
X180452636Y-83936838D02*
X180486654Y-83967076D01*
X180486654Y-83967076D02*
X180524452Y-84027552D01*
X180524452Y-84027552D02*
X180543351Y-84178742D01*
X180543351Y-84178742D02*
X180520672Y-84239219D01*
X180520672Y-84239219D02*
X180494214Y-84269457D01*
X180494214Y-84269457D02*
X180437517Y-84299695D01*
X180437517Y-84299695D02*
X180316565Y-84299695D01*
X180316565Y-84299695D02*
X180252309Y-84269457D01*
X180252309Y-84269457D02*
X180218291Y-84239219D01*
X180218291Y-84239219D02*
X180180494Y-84178742D01*
X181772800Y-129712205D02*
X181470419Y-129538336D01*
X181772800Y-129349348D02*
X181137800Y-129428723D01*
X181137800Y-129428723D02*
X181137800Y-129670628D01*
X181137800Y-129670628D02*
X181168038Y-129727324D01*
X181168038Y-129727324D02*
X181198276Y-129753783D01*
X181198276Y-129753783D02*
X181258752Y-129776461D01*
X181258752Y-129776461D02*
X181349466Y-129765122D01*
X181349466Y-129765122D02*
X181409942Y-129727324D01*
X181409942Y-129727324D02*
X181440181Y-129693307D01*
X181440181Y-129693307D02*
X181470419Y-129629051D01*
X181470419Y-129629051D02*
X181470419Y-129387146D01*
X181772800Y-130316967D02*
X181772800Y-129954110D01*
X181772800Y-130135539D02*
X181137800Y-130214914D01*
X181137800Y-130214914D02*
X181228514Y-130143098D01*
X181228514Y-130143098D02*
X181288990Y-130075063D01*
X181288990Y-130075063D02*
X181319228Y-130010807D01*
X181772800Y-130619348D02*
X181772800Y-130740301D01*
X181772800Y-130740301D02*
X181742562Y-130804557D01*
X181742562Y-130804557D02*
X181712323Y-130838575D01*
X181712323Y-130838575D02*
X181621609Y-130910390D01*
X181621609Y-130910390D02*
X181500657Y-130955747D01*
X181500657Y-130955747D02*
X181258752Y-130985985D01*
X181258752Y-130985985D02*
X181198276Y-130963307D01*
X181198276Y-130963307D02*
X181168038Y-130936848D01*
X181168038Y-130936848D02*
X181137800Y-130880152D01*
X181137800Y-130880152D02*
X181137800Y-130759200D01*
X181137800Y-130759200D02*
X181168038Y-130694944D01*
X181168038Y-130694944D02*
X181198276Y-130660926D01*
X181198276Y-130660926D02*
X181258752Y-130623128D01*
X181258752Y-130623128D02*
X181409942Y-130604229D01*
X181409942Y-130604229D02*
X181470419Y-130626908D01*
X181470419Y-130626908D02*
X181500657Y-130653366D01*
X181500657Y-130653366D02*
X181530895Y-130710063D01*
X181530895Y-130710063D02*
X181530895Y-130831015D01*
X181530895Y-130831015D02*
X181500657Y-130895271D01*
X181500657Y-130895271D02*
X181470419Y-130929289D01*
X181470419Y-130929289D02*
X181409942Y-130967086D01*
X179553323Y-109854546D02*
X179583562Y-109820528D01*
X179583562Y-109820528D02*
X179613800Y-109726034D01*
X179613800Y-109726034D02*
X179613800Y-109665558D01*
X179613800Y-109665558D02*
X179583562Y-109578623D01*
X179583562Y-109578623D02*
X179523085Y-109525707D01*
X179523085Y-109525707D02*
X179462609Y-109503028D01*
X179462609Y-109503028D02*
X179341657Y-109487909D01*
X179341657Y-109487909D02*
X179250942Y-109499248D01*
X179250942Y-109499248D02*
X179129990Y-109544605D01*
X179129990Y-109544605D02*
X179069514Y-109582403D01*
X179069514Y-109582403D02*
X179009038Y-109650439D01*
X179009038Y-109650439D02*
X178978800Y-109744933D01*
X178978800Y-109744933D02*
X178978800Y-109805409D01*
X178978800Y-109805409D02*
X179009038Y-109892344D01*
X179009038Y-109892344D02*
X179039276Y-109918802D01*
X178978800Y-110500885D02*
X178978800Y-110198504D01*
X178978800Y-110198504D02*
X179281181Y-110130469D01*
X179281181Y-110130469D02*
X179250942Y-110164486D01*
X179250942Y-110164486D02*
X179220704Y-110228742D01*
X179220704Y-110228742D02*
X179220704Y-110379933D01*
X179220704Y-110379933D02*
X179250942Y-110436629D01*
X179250942Y-110436629D02*
X179281181Y-110463088D01*
X179281181Y-110463088D02*
X179341657Y-110485766D01*
X179341657Y-110485766D02*
X179492847Y-110466867D01*
X179492847Y-110466867D02*
X179553323Y-110429070D01*
X179553323Y-110429070D02*
X179583562Y-110395052D01*
X179583562Y-110395052D02*
X179613800Y-110330796D01*
X179613800Y-110330796D02*
X179613800Y-110179605D01*
X179613800Y-110179605D02*
X179583562Y-110122909D01*
X179583562Y-110122909D02*
X179553323Y-110096451D01*
X159429923Y-78980060D02*
X159460162Y-78946042D01*
X159460162Y-78946042D02*
X159490400Y-78851548D01*
X159490400Y-78851548D02*
X159490400Y-78791072D01*
X159490400Y-78791072D02*
X159460162Y-78704137D01*
X159460162Y-78704137D02*
X159399685Y-78651221D01*
X159399685Y-78651221D02*
X159339209Y-78628542D01*
X159339209Y-78628542D02*
X159218257Y-78613423D01*
X159218257Y-78613423D02*
X159127542Y-78624762D01*
X159127542Y-78624762D02*
X159006590Y-78670119D01*
X159006590Y-78670119D02*
X158946114Y-78707917D01*
X158946114Y-78707917D02*
X158885638Y-78775953D01*
X158885638Y-78775953D02*
X158855400Y-78870447D01*
X158855400Y-78870447D02*
X158855400Y-78930923D01*
X158855400Y-78930923D02*
X158885638Y-79017858D01*
X158885638Y-79017858D02*
X158915876Y-79044316D01*
X159490400Y-79577262D02*
X159490400Y-79214405D01*
X159490400Y-79395834D02*
X158855400Y-79475209D01*
X158855400Y-79475209D02*
X158946114Y-79403393D01*
X158946114Y-79403393D02*
X159006590Y-79335358D01*
X159006590Y-79335358D02*
X159036828Y-79271102D01*
X158855400Y-80049733D02*
X158855400Y-80110209D01*
X158855400Y-80110209D02*
X158885638Y-80166905D01*
X158885638Y-80166905D02*
X158915876Y-80193364D01*
X158915876Y-80193364D02*
X158976352Y-80216042D01*
X158976352Y-80216042D02*
X159097304Y-80231161D01*
X159097304Y-80231161D02*
X159248495Y-80212262D01*
X159248495Y-80212262D02*
X159369447Y-80166905D01*
X159369447Y-80166905D02*
X159429923Y-80129108D01*
X159429923Y-80129108D02*
X159460162Y-80095090D01*
X159460162Y-80095090D02*
X159490400Y-80030834D01*
X159490400Y-80030834D02*
X159490400Y-79970358D01*
X159490400Y-79970358D02*
X159460162Y-79913661D01*
X159460162Y-79913661D02*
X159429923Y-79887203D01*
X159429923Y-79887203D02*
X159369447Y-79864524D01*
X159369447Y-79864524D02*
X159248495Y-79849405D01*
X159248495Y-79849405D02*
X159097304Y-79868304D01*
X159097304Y-79868304D02*
X158976352Y-79913661D01*
X158976352Y-79913661D02*
X158915876Y-79951459D01*
X158915876Y-79951459D02*
X158885638Y-79985477D01*
X158885638Y-79985477D02*
X158855400Y-80049733D01*
X159067066Y-80779227D02*
X159490400Y-80726310D01*
X158825162Y-80658274D02*
X159278733Y-80450387D01*
X159278733Y-80450387D02*
X159278733Y-80843483D01*
X144724343Y-129489824D02*
X144754582Y-129455806D01*
X144754582Y-129455806D02*
X144784820Y-129361312D01*
X144784820Y-129361312D02*
X144784820Y-129300836D01*
X144784820Y-129300836D02*
X144754582Y-129213901D01*
X144754582Y-129213901D02*
X144694105Y-129160985D01*
X144694105Y-129160985D02*
X144633629Y-129138306D01*
X144633629Y-129138306D02*
X144512677Y-129123187D01*
X144512677Y-129123187D02*
X144421962Y-129134526D01*
X144421962Y-129134526D02*
X144301010Y-129179883D01*
X144301010Y-129179883D02*
X144240534Y-129217681D01*
X144240534Y-129217681D02*
X144180058Y-129285717D01*
X144180058Y-129285717D02*
X144149820Y-129380211D01*
X144149820Y-129380211D02*
X144149820Y-129440687D01*
X144149820Y-129440687D02*
X144180058Y-129527622D01*
X144180058Y-129527622D02*
X144210296Y-129554080D01*
X144784820Y-130087026D02*
X144784820Y-129724169D01*
X144784820Y-129905598D02*
X144149820Y-129984973D01*
X144149820Y-129984973D02*
X144240534Y-129913157D01*
X144240534Y-129913157D02*
X144301010Y-129845122D01*
X144301010Y-129845122D02*
X144331248Y-129780866D01*
X144149820Y-130559497D02*
X144149820Y-130619973D01*
X144149820Y-130619973D02*
X144180058Y-130676669D01*
X144180058Y-130676669D02*
X144210296Y-130703128D01*
X144210296Y-130703128D02*
X144270772Y-130725806D01*
X144270772Y-130725806D02*
X144391724Y-130740925D01*
X144391724Y-130740925D02*
X144542915Y-130722026D01*
X144542915Y-130722026D02*
X144663867Y-130676669D01*
X144663867Y-130676669D02*
X144724343Y-130638872D01*
X144724343Y-130638872D02*
X144754582Y-130604854D01*
X144754582Y-130604854D02*
X144784820Y-130540598D01*
X144784820Y-130540598D02*
X144784820Y-130480122D01*
X144784820Y-130480122D02*
X144754582Y-130423425D01*
X144754582Y-130423425D02*
X144724343Y-130396967D01*
X144724343Y-130396967D02*
X144663867Y-130374288D01*
X144663867Y-130374288D02*
X144542915Y-130359169D01*
X144542915Y-130359169D02*
X144391724Y-130378068D01*
X144391724Y-130378068D02*
X144270772Y-130423425D01*
X144270772Y-130423425D02*
X144210296Y-130461223D01*
X144210296Y-130461223D02*
X144180058Y-130495241D01*
X144180058Y-130495241D02*
X144149820Y-130559497D01*
X144149820Y-131345687D02*
X144149820Y-131043306D01*
X144149820Y-131043306D02*
X144452201Y-130975271D01*
X144452201Y-130975271D02*
X144421962Y-131009288D01*
X144421962Y-131009288D02*
X144391724Y-131073544D01*
X144391724Y-131073544D02*
X144391724Y-131224735D01*
X144391724Y-131224735D02*
X144421962Y-131281431D01*
X144421962Y-131281431D02*
X144452201Y-131307890D01*
X144452201Y-131307890D02*
X144512677Y-131330568D01*
X144512677Y-131330568D02*
X144663867Y-131311669D01*
X144663867Y-131311669D02*
X144724343Y-131273872D01*
X144724343Y-131273872D02*
X144754582Y-131239854D01*
X144754582Y-131239854D02*
X144784820Y-131175598D01*
X144784820Y-131175598D02*
X144784820Y-131024407D01*
X144784820Y-131024407D02*
X144754582Y-130967711D01*
X144754582Y-130967711D02*
X144724343Y-130941253D01*
X176743600Y-82237186D02*
X176441219Y-82063317D01*
X176743600Y-81874329D02*
X176108600Y-81953704D01*
X176108600Y-81953704D02*
X176108600Y-82195609D01*
X176108600Y-82195609D02*
X176138838Y-82252305D01*
X176138838Y-82252305D02*
X176169076Y-82278764D01*
X176169076Y-82278764D02*
X176229552Y-82301442D01*
X176229552Y-82301442D02*
X176320266Y-82290103D01*
X176320266Y-82290103D02*
X176380742Y-82252305D01*
X176380742Y-82252305D02*
X176410981Y-82218288D01*
X176410981Y-82218288D02*
X176441219Y-82154032D01*
X176441219Y-82154032D02*
X176441219Y-81912127D01*
X176743600Y-82539567D02*
X176743600Y-82660520D01*
X176743600Y-82660520D02*
X176713362Y-82724776D01*
X176713362Y-82724776D02*
X176683123Y-82758794D01*
X176683123Y-82758794D02*
X176592409Y-82830609D01*
X176592409Y-82830609D02*
X176471457Y-82875966D01*
X176471457Y-82875966D02*
X176229552Y-82906204D01*
X176229552Y-82906204D02*
X176169076Y-82883526D01*
X176169076Y-82883526D02*
X176138838Y-82857067D01*
X176138838Y-82857067D02*
X176108600Y-82800371D01*
X176108600Y-82800371D02*
X176108600Y-82679419D01*
X176108600Y-82679419D02*
X176138838Y-82615163D01*
X176138838Y-82615163D02*
X176169076Y-82581145D01*
X176169076Y-82581145D02*
X176229552Y-82543347D01*
X176229552Y-82543347D02*
X176380742Y-82524448D01*
X176380742Y-82524448D02*
X176441219Y-82547127D01*
X176441219Y-82547127D02*
X176471457Y-82573585D01*
X176471457Y-82573585D02*
X176501695Y-82630282D01*
X176501695Y-82630282D02*
X176501695Y-82751234D01*
X176501695Y-82751234D02*
X176471457Y-82815490D01*
X176471457Y-82815490D02*
X176441219Y-82849508D01*
X176441219Y-82849508D02*
X176380742Y-82887305D01*
X180883800Y-112186205D02*
X180581419Y-112012336D01*
X180883800Y-111823348D02*
X180248800Y-111902723D01*
X180248800Y-111902723D02*
X180248800Y-112144628D01*
X180248800Y-112144628D02*
X180279038Y-112201324D01*
X180279038Y-112201324D02*
X180309276Y-112227783D01*
X180309276Y-112227783D02*
X180369752Y-112250461D01*
X180369752Y-112250461D02*
X180460466Y-112239122D01*
X180460466Y-112239122D02*
X180520942Y-112201324D01*
X180520942Y-112201324D02*
X180551181Y-112167307D01*
X180551181Y-112167307D02*
X180581419Y-112103051D01*
X180581419Y-112103051D02*
X180581419Y-111861146D01*
X180883800Y-112790967D02*
X180883800Y-112428110D01*
X180883800Y-112609539D02*
X180248800Y-112688914D01*
X180248800Y-112688914D02*
X180339514Y-112617098D01*
X180339514Y-112617098D02*
X180399990Y-112549063D01*
X180399990Y-112549063D02*
X180430228Y-112484807D01*
X180248800Y-113414628D02*
X180248800Y-113293676D01*
X180248800Y-113293676D02*
X180279038Y-113229420D01*
X180279038Y-113229420D02*
X180309276Y-113195402D01*
X180309276Y-113195402D02*
X180399990Y-113123586D01*
X180399990Y-113123586D02*
X180520942Y-113078229D01*
X180520942Y-113078229D02*
X180762847Y-113047991D01*
X180762847Y-113047991D02*
X180823323Y-113070670D01*
X180823323Y-113070670D02*
X180853562Y-113097128D01*
X180853562Y-113097128D02*
X180883800Y-113153825D01*
X180883800Y-113153825D02*
X180883800Y-113274777D01*
X180883800Y-113274777D02*
X180853562Y-113339033D01*
X180853562Y-113339033D02*
X180823323Y-113373051D01*
X180823323Y-113373051D02*
X180762847Y-113410848D01*
X180762847Y-113410848D02*
X180611657Y-113429747D01*
X180611657Y-113429747D02*
X180551181Y-113407069D01*
X180551181Y-113407069D02*
X180520942Y-113380610D01*
X180520942Y-113380610D02*
X180490704Y-113323914D01*
X180490704Y-113323914D02*
X180490704Y-113202961D01*
X180490704Y-113202961D02*
X180520942Y-113138705D01*
X180520942Y-113138705D02*
X180551181Y-113104688D01*
X180551181Y-113104688D02*
X180611657Y-113066890D01*
X141808923Y-81318464D02*
X141839162Y-81284446D01*
X141839162Y-81284446D02*
X141869400Y-81189952D01*
X141869400Y-81189952D02*
X141869400Y-81129476D01*
X141869400Y-81129476D02*
X141839162Y-81042541D01*
X141839162Y-81042541D02*
X141778685Y-80989625D01*
X141778685Y-80989625D02*
X141718209Y-80966946D01*
X141718209Y-80966946D02*
X141597257Y-80951827D01*
X141597257Y-80951827D02*
X141506542Y-80963166D01*
X141506542Y-80963166D02*
X141385590Y-81008523D01*
X141385590Y-81008523D02*
X141325114Y-81046321D01*
X141325114Y-81046321D02*
X141264638Y-81114357D01*
X141264638Y-81114357D02*
X141234400Y-81208851D01*
X141234400Y-81208851D02*
X141234400Y-81269327D01*
X141234400Y-81269327D02*
X141264638Y-81356262D01*
X141264638Y-81356262D02*
X141294876Y-81382720D01*
X141869400Y-81915666D02*
X141869400Y-81552809D01*
X141869400Y-81734238D02*
X141234400Y-81813613D01*
X141234400Y-81813613D02*
X141325114Y-81741797D01*
X141325114Y-81741797D02*
X141385590Y-81673762D01*
X141385590Y-81673762D02*
X141415828Y-81609506D01*
X141869400Y-82520428D02*
X141869400Y-82157571D01*
X141869400Y-82339000D02*
X141234400Y-82418375D01*
X141234400Y-82418375D02*
X141325114Y-82346559D01*
X141325114Y-82346559D02*
X141385590Y-82278524D01*
X141385590Y-82278524D02*
X141415828Y-82214268D01*
X141234400Y-82811470D02*
X141234400Y-83234803D01*
X141234400Y-83234803D02*
X141869400Y-82883286D01*
X173515413Y-103159800D02*
X173689282Y-102857419D01*
X173878270Y-103159800D02*
X173798895Y-102524800D01*
X173798895Y-102524800D02*
X173556990Y-102524800D01*
X173556990Y-102524800D02*
X173500294Y-102555038D01*
X173500294Y-102555038D02*
X173473835Y-102585276D01*
X173473835Y-102585276D02*
X173451157Y-102645752D01*
X173451157Y-102645752D02*
X173462496Y-102736466D01*
X173462496Y-102736466D02*
X173500294Y-102796942D01*
X173500294Y-102796942D02*
X173534311Y-102827181D01*
X173534311Y-102827181D02*
X173598567Y-102857419D01*
X173598567Y-102857419D02*
X173840472Y-102857419D01*
X173224371Y-102524800D02*
X172801038Y-102524800D01*
X172801038Y-102524800D02*
X173152556Y-103159800D01*
X180909200Y-114065805D02*
X180606819Y-113891936D01*
X180909200Y-113702948D02*
X180274200Y-113782323D01*
X180274200Y-113782323D02*
X180274200Y-114024228D01*
X180274200Y-114024228D02*
X180304438Y-114080924D01*
X180304438Y-114080924D02*
X180334676Y-114107383D01*
X180334676Y-114107383D02*
X180395152Y-114130061D01*
X180395152Y-114130061D02*
X180485866Y-114118722D01*
X180485866Y-114118722D02*
X180546342Y-114080924D01*
X180546342Y-114080924D02*
X180576581Y-114046907D01*
X180576581Y-114046907D02*
X180606819Y-113982651D01*
X180606819Y-113982651D02*
X180606819Y-113740746D01*
X180909200Y-114670567D02*
X180909200Y-114307710D01*
X180909200Y-114489139D02*
X180274200Y-114568514D01*
X180274200Y-114568514D02*
X180364914Y-114496698D01*
X180364914Y-114496698D02*
X180425390Y-114428663D01*
X180425390Y-114428663D02*
X180455628Y-114364407D01*
X180546342Y-115078782D02*
X180516104Y-115022085D01*
X180516104Y-115022085D02*
X180485866Y-114995627D01*
X180485866Y-114995627D02*
X180425390Y-114972948D01*
X180425390Y-114972948D02*
X180395152Y-114976728D01*
X180395152Y-114976728D02*
X180334676Y-115014526D01*
X180334676Y-115014526D02*
X180304438Y-115048544D01*
X180304438Y-115048544D02*
X180274200Y-115112800D01*
X180274200Y-115112800D02*
X180274200Y-115233752D01*
X180274200Y-115233752D02*
X180304438Y-115290448D01*
X180304438Y-115290448D02*
X180334676Y-115316907D01*
X180334676Y-115316907D02*
X180395152Y-115339585D01*
X180395152Y-115339585D02*
X180425390Y-115335805D01*
X180425390Y-115335805D02*
X180485866Y-115298008D01*
X180485866Y-115298008D02*
X180516104Y-115263990D01*
X180516104Y-115263990D02*
X180546342Y-115199734D01*
X180546342Y-115199734D02*
X180546342Y-115078782D01*
X180546342Y-115078782D02*
X180576581Y-115014526D01*
X180576581Y-115014526D02*
X180606819Y-114980508D01*
X180606819Y-114980508D02*
X180667295Y-114942710D01*
X180667295Y-114942710D02*
X180788247Y-114927591D01*
X180788247Y-114927591D02*
X180848723Y-114950270D01*
X180848723Y-114950270D02*
X180878962Y-114976728D01*
X180878962Y-114976728D02*
X180909200Y-115033425D01*
X180909200Y-115033425D02*
X180909200Y-115154377D01*
X180909200Y-115154377D02*
X180878962Y-115218633D01*
X180878962Y-115218633D02*
X180848723Y-115252651D01*
X180848723Y-115252651D02*
X180788247Y-115290448D01*
X180788247Y-115290448D02*
X180667295Y-115305567D01*
X180667295Y-115305567D02*
X180606819Y-115282889D01*
X180606819Y-115282889D02*
X180576581Y-115256430D01*
X180576581Y-115256430D02*
X180546342Y-115199734D01*
X184183413Y-103591600D02*
X184485794Y-103591600D01*
X184485794Y-103591600D02*
X184406419Y-102956600D01*
X183639127Y-103591600D02*
X184001984Y-103591600D01*
X183820555Y-103591600D02*
X183741180Y-102956600D01*
X183741180Y-102956600D02*
X183812996Y-103047314D01*
X183812996Y-103047314D02*
X183881032Y-103107790D01*
X183881032Y-103107790D02*
X183945287Y-103138028D01*
X141808923Y-97997584D02*
X141839162Y-97963566D01*
X141839162Y-97963566D02*
X141869400Y-97869072D01*
X141869400Y-97869072D02*
X141869400Y-97808596D01*
X141869400Y-97808596D02*
X141839162Y-97721661D01*
X141839162Y-97721661D02*
X141778685Y-97668745D01*
X141778685Y-97668745D02*
X141718209Y-97646066D01*
X141718209Y-97646066D02*
X141597257Y-97630947D01*
X141597257Y-97630947D02*
X141506542Y-97642286D01*
X141506542Y-97642286D02*
X141385590Y-97687643D01*
X141385590Y-97687643D02*
X141325114Y-97725441D01*
X141325114Y-97725441D02*
X141264638Y-97793477D01*
X141264638Y-97793477D02*
X141234400Y-97887971D01*
X141234400Y-97887971D02*
X141234400Y-97948447D01*
X141234400Y-97948447D02*
X141264638Y-98035382D01*
X141264638Y-98035382D02*
X141294876Y-98061840D01*
X141869400Y-98594786D02*
X141869400Y-98231929D01*
X141869400Y-98413358D02*
X141234400Y-98492733D01*
X141234400Y-98492733D02*
X141325114Y-98420917D01*
X141325114Y-98420917D02*
X141385590Y-98352882D01*
X141385590Y-98352882D02*
X141415828Y-98288626D01*
X141294876Y-98908507D02*
X141264638Y-98942524D01*
X141264638Y-98942524D02*
X141234400Y-99006780D01*
X141234400Y-99006780D02*
X141234400Y-99157971D01*
X141234400Y-99157971D02*
X141264638Y-99214667D01*
X141264638Y-99214667D02*
X141294876Y-99241126D01*
X141294876Y-99241126D02*
X141355352Y-99263804D01*
X141355352Y-99263804D02*
X141415828Y-99256245D01*
X141415828Y-99256245D02*
X141506542Y-99214667D01*
X141506542Y-99214667D02*
X141869400Y-98806453D01*
X141869400Y-98806453D02*
X141869400Y-99199548D01*
X141869400Y-99501929D02*
X141869400Y-99622882D01*
X141869400Y-99622882D02*
X141839162Y-99687138D01*
X141839162Y-99687138D02*
X141808923Y-99721156D01*
X141808923Y-99721156D02*
X141718209Y-99792971D01*
X141718209Y-99792971D02*
X141597257Y-99838328D01*
X141597257Y-99838328D02*
X141355352Y-99868566D01*
X141355352Y-99868566D02*
X141294876Y-99845888D01*
X141294876Y-99845888D02*
X141264638Y-99819429D01*
X141264638Y-99819429D02*
X141234400Y-99762733D01*
X141234400Y-99762733D02*
X141234400Y-99641781D01*
X141234400Y-99641781D02*
X141264638Y-99577525D01*
X141264638Y-99577525D02*
X141294876Y-99543507D01*
X141294876Y-99543507D02*
X141355352Y-99505709D01*
X141355352Y-99505709D02*
X141506542Y-99486810D01*
X141506542Y-99486810D02*
X141567019Y-99509489D01*
X141567019Y-99509489D02*
X141597257Y-99535947D01*
X141597257Y-99535947D02*
X141627495Y-99592644D01*
X141627495Y-99592644D02*
X141627495Y-99713596D01*
X141627495Y-99713596D02*
X141597257Y-99777852D01*
X141597257Y-99777852D02*
X141567019Y-99811870D01*
X141567019Y-99811870D02*
X141506542Y-99849667D01*
X173558653Y-103861323D02*
X173592671Y-103891562D01*
X173592671Y-103891562D02*
X173687165Y-103921800D01*
X173687165Y-103921800D02*
X173747641Y-103921800D01*
X173747641Y-103921800D02*
X173834576Y-103891562D01*
X173834576Y-103891562D02*
X173887492Y-103831085D01*
X173887492Y-103831085D02*
X173910171Y-103770609D01*
X173910171Y-103770609D02*
X173925290Y-103649657D01*
X173925290Y-103649657D02*
X173913951Y-103558942D01*
X173913951Y-103558942D02*
X173868594Y-103437990D01*
X173868594Y-103437990D02*
X173830796Y-103377514D01*
X173830796Y-103377514D02*
X173762760Y-103317038D01*
X173762760Y-103317038D02*
X173668266Y-103286800D01*
X173668266Y-103286800D02*
X173607790Y-103286800D01*
X173607790Y-103286800D02*
X173520856Y-103317038D01*
X173520856Y-103317038D02*
X173494397Y-103347276D01*
X173275171Y-103286800D02*
X172851838Y-103286800D01*
X172851838Y-103286800D02*
X173203356Y-103921800D01*
X166796943Y-129792205D02*
X166827182Y-129758187D01*
X166827182Y-129758187D02*
X166857420Y-129663693D01*
X166857420Y-129663693D02*
X166857420Y-129603217D01*
X166857420Y-129603217D02*
X166827182Y-129516282D01*
X166827182Y-129516282D02*
X166766705Y-129463366D01*
X166766705Y-129463366D02*
X166706229Y-129440687D01*
X166706229Y-129440687D02*
X166585277Y-129425568D01*
X166585277Y-129425568D02*
X166494562Y-129436907D01*
X166494562Y-129436907D02*
X166373610Y-129482264D01*
X166373610Y-129482264D02*
X166313134Y-129520062D01*
X166313134Y-129520062D02*
X166252658Y-129588098D01*
X166252658Y-129588098D02*
X166222420Y-129682592D01*
X166222420Y-129682592D02*
X166222420Y-129743068D01*
X166222420Y-129743068D02*
X166252658Y-129830003D01*
X166252658Y-129830003D02*
X166282896Y-129856461D01*
X166222420Y-130075687D02*
X166222420Y-130499020D01*
X166222420Y-130499020D02*
X166857420Y-130147503D01*
X166222420Y-130861878D02*
X166222420Y-130922354D01*
X166222420Y-130922354D02*
X166252658Y-130979050D01*
X166252658Y-130979050D02*
X166282896Y-131005509D01*
X166282896Y-131005509D02*
X166343372Y-131028187D01*
X166343372Y-131028187D02*
X166464324Y-131043306D01*
X166464324Y-131043306D02*
X166615515Y-131024407D01*
X166615515Y-131024407D02*
X166736467Y-130979050D01*
X166736467Y-130979050D02*
X166796943Y-130941253D01*
X166796943Y-130941253D02*
X166827182Y-130907235D01*
X166827182Y-130907235D02*
X166857420Y-130842979D01*
X166857420Y-130842979D02*
X166857420Y-130782503D01*
X166857420Y-130782503D02*
X166827182Y-130725806D01*
X166827182Y-130725806D02*
X166796943Y-130699348D01*
X166796943Y-130699348D02*
X166736467Y-130676669D01*
X166736467Y-130676669D02*
X166615515Y-130661550D01*
X166615515Y-130661550D02*
X166464324Y-130680449D01*
X166464324Y-130680449D02*
X166343372Y-130725806D01*
X166343372Y-130725806D02*
X166282896Y-130763604D01*
X166282896Y-130763604D02*
X166252658Y-130797622D01*
X166252658Y-130797622D02*
X166222420Y-130861878D01*
X152089323Y-79300765D02*
X152119562Y-79266747D01*
X152119562Y-79266747D02*
X152149800Y-79172253D01*
X152149800Y-79172253D02*
X152149800Y-79111777D01*
X152149800Y-79111777D02*
X152119562Y-79024842D01*
X152119562Y-79024842D02*
X152059085Y-78971926D01*
X152059085Y-78971926D02*
X151998609Y-78949247D01*
X151998609Y-78949247D02*
X151877657Y-78934128D01*
X151877657Y-78934128D02*
X151786942Y-78945467D01*
X151786942Y-78945467D02*
X151665990Y-78990824D01*
X151665990Y-78990824D02*
X151605514Y-79028622D01*
X151605514Y-79028622D02*
X151545038Y-79096658D01*
X151545038Y-79096658D02*
X151514800Y-79191152D01*
X151514800Y-79191152D02*
X151514800Y-79251628D01*
X151514800Y-79251628D02*
X151545038Y-79338563D01*
X151545038Y-79338563D02*
X151575276Y-79365021D01*
X151514800Y-79916866D02*
X151514800Y-79795914D01*
X151514800Y-79795914D02*
X151545038Y-79731658D01*
X151545038Y-79731658D02*
X151575276Y-79697640D01*
X151575276Y-79697640D02*
X151665990Y-79625824D01*
X151665990Y-79625824D02*
X151786942Y-79580467D01*
X151786942Y-79580467D02*
X152028847Y-79550229D01*
X152028847Y-79550229D02*
X152089323Y-79572908D01*
X152089323Y-79572908D02*
X152119562Y-79599366D01*
X152119562Y-79599366D02*
X152149800Y-79656063D01*
X152149800Y-79656063D02*
X152149800Y-79777015D01*
X152149800Y-79777015D02*
X152119562Y-79841271D01*
X152119562Y-79841271D02*
X152089323Y-79875289D01*
X152089323Y-79875289D02*
X152028847Y-79913086D01*
X152028847Y-79913086D02*
X151877657Y-79931985D01*
X151877657Y-79931985D02*
X151817181Y-79909307D01*
X151817181Y-79909307D02*
X151786942Y-79882848D01*
X151786942Y-79882848D02*
X151756704Y-79826152D01*
X151756704Y-79826152D02*
X151756704Y-79705199D01*
X151756704Y-79705199D02*
X151786942Y-79640943D01*
X151786942Y-79640943D02*
X151817181Y-79606926D01*
X151817181Y-79606926D02*
X151877657Y-79569128D01*
X151514800Y-80189009D02*
X151514800Y-80612342D01*
X151514800Y-80612342D02*
X152149800Y-80260825D01*
X144749743Y-96136805D02*
X144779982Y-96102787D01*
X144779982Y-96102787D02*
X144810220Y-96008293D01*
X144810220Y-96008293D02*
X144810220Y-95947817D01*
X144810220Y-95947817D02*
X144779982Y-95860882D01*
X144779982Y-95860882D02*
X144719505Y-95807966D01*
X144719505Y-95807966D02*
X144659029Y-95785287D01*
X144659029Y-95785287D02*
X144538077Y-95770168D01*
X144538077Y-95770168D02*
X144447362Y-95781507D01*
X144447362Y-95781507D02*
X144326410Y-95826864D01*
X144326410Y-95826864D02*
X144265934Y-95864662D01*
X144265934Y-95864662D02*
X144205458Y-95932698D01*
X144205458Y-95932698D02*
X144175220Y-96027192D01*
X144175220Y-96027192D02*
X144175220Y-96087668D01*
X144175220Y-96087668D02*
X144205458Y-96174603D01*
X144205458Y-96174603D02*
X144235696Y-96201061D01*
X144175220Y-96420287D02*
X144175220Y-96843620D01*
X144175220Y-96843620D02*
X144810220Y-96492103D01*
X144810220Y-97338769D02*
X144810220Y-96975912D01*
X144810220Y-97157341D02*
X144175220Y-97236716D01*
X144175220Y-97236716D02*
X144265934Y-97164900D01*
X144265934Y-97164900D02*
X144326410Y-97096865D01*
X144326410Y-97096865D02*
X144356648Y-97032609D01*
X138024323Y-114913984D02*
X138054562Y-114879966D01*
X138054562Y-114879966D02*
X138084800Y-114785472D01*
X138084800Y-114785472D02*
X138084800Y-114724996D01*
X138084800Y-114724996D02*
X138054562Y-114638061D01*
X138054562Y-114638061D02*
X137994085Y-114585145D01*
X137994085Y-114585145D02*
X137933609Y-114562466D01*
X137933609Y-114562466D02*
X137812657Y-114547347D01*
X137812657Y-114547347D02*
X137721942Y-114558686D01*
X137721942Y-114558686D02*
X137600990Y-114604043D01*
X137600990Y-114604043D02*
X137540514Y-114641841D01*
X137540514Y-114641841D02*
X137480038Y-114709877D01*
X137480038Y-114709877D02*
X137449800Y-114804371D01*
X137449800Y-114804371D02*
X137449800Y-114864847D01*
X137449800Y-114864847D02*
X137480038Y-114951782D01*
X137480038Y-114951782D02*
X137510276Y-114978240D01*
X138084800Y-115511186D02*
X138084800Y-115148329D01*
X138084800Y-115329758D02*
X137449800Y-115409133D01*
X137449800Y-115409133D02*
X137540514Y-115337317D01*
X137540514Y-115337317D02*
X137600990Y-115269282D01*
X137600990Y-115269282D02*
X137631228Y-115205026D01*
X138084800Y-116115948D02*
X138084800Y-115753091D01*
X138084800Y-115934520D02*
X137449800Y-116013895D01*
X137449800Y-116013895D02*
X137540514Y-115942079D01*
X137540514Y-115942079D02*
X137600990Y-115874044D01*
X137600990Y-115874044D02*
X137631228Y-115809788D01*
X138084800Y-116418329D02*
X138084800Y-116539282D01*
X138084800Y-116539282D02*
X138054562Y-116603538D01*
X138054562Y-116603538D02*
X138024323Y-116637556D01*
X138024323Y-116637556D02*
X137933609Y-116709371D01*
X137933609Y-116709371D02*
X137812657Y-116754728D01*
X137812657Y-116754728D02*
X137570752Y-116784966D01*
X137570752Y-116784966D02*
X137510276Y-116762288D01*
X137510276Y-116762288D02*
X137480038Y-116735829D01*
X137480038Y-116735829D02*
X137449800Y-116679133D01*
X137449800Y-116679133D02*
X137449800Y-116558181D01*
X137449800Y-116558181D02*
X137480038Y-116493925D01*
X137480038Y-116493925D02*
X137510276Y-116459907D01*
X137510276Y-116459907D02*
X137570752Y-116422109D01*
X137570752Y-116422109D02*
X137721942Y-116403210D01*
X137721942Y-116403210D02*
X137782419Y-116425889D01*
X137782419Y-116425889D02*
X137812657Y-116452347D01*
X137812657Y-116452347D02*
X137842895Y-116509044D01*
X137842895Y-116509044D02*
X137842895Y-116629996D01*
X137842895Y-116629996D02*
X137812657Y-116694252D01*
X137812657Y-116694252D02*
X137782419Y-116728270D01*
X137782419Y-116728270D02*
X137721942Y-116766067D01*
X181722000Y-112160805D02*
X181419619Y-111986936D01*
X181722000Y-111797948D02*
X181087000Y-111877323D01*
X181087000Y-111877323D02*
X181087000Y-112119228D01*
X181087000Y-112119228D02*
X181117238Y-112175924D01*
X181117238Y-112175924D02*
X181147476Y-112202383D01*
X181147476Y-112202383D02*
X181207952Y-112225061D01*
X181207952Y-112225061D02*
X181298666Y-112213722D01*
X181298666Y-112213722D02*
X181359142Y-112175924D01*
X181359142Y-112175924D02*
X181389381Y-112141907D01*
X181389381Y-112141907D02*
X181419619Y-112077651D01*
X181419619Y-112077651D02*
X181419619Y-111835746D01*
X181722000Y-112765567D02*
X181722000Y-112402710D01*
X181722000Y-112584139D02*
X181087000Y-112663514D01*
X181087000Y-112663514D02*
X181177714Y-112591698D01*
X181177714Y-112591698D02*
X181238190Y-112523663D01*
X181238190Y-112523663D02*
X181268428Y-112459407D01*
X181087000Y-113419466D02*
X181087000Y-113117085D01*
X181087000Y-113117085D02*
X181389381Y-113049050D01*
X181389381Y-113049050D02*
X181359142Y-113083067D01*
X181359142Y-113083067D02*
X181328904Y-113147323D01*
X181328904Y-113147323D02*
X181328904Y-113298514D01*
X181328904Y-113298514D02*
X181359142Y-113355210D01*
X181359142Y-113355210D02*
X181389381Y-113381669D01*
X181389381Y-113381669D02*
X181449857Y-113404347D01*
X181449857Y-113404347D02*
X181601047Y-113385448D01*
X181601047Y-113385448D02*
X181661523Y-113347651D01*
X181661523Y-113347651D02*
X181691762Y-113313633D01*
X181691762Y-113313633D02*
X181722000Y-113249377D01*
X181722000Y-113249377D02*
X181722000Y-113098186D01*
X181722000Y-113098186D02*
X181691762Y-113041490D01*
X181691762Y-113041490D02*
X181661523Y-113015032D01*
X180976814Y-101915200D02*
X181041070Y-102429247D01*
X181041070Y-102429247D02*
X181018391Y-102489723D01*
X181018391Y-102489723D02*
X180991933Y-102519962D01*
X180991933Y-102519962D02*
X180935236Y-102550200D01*
X180935236Y-102550200D02*
X180814284Y-102550200D01*
X180814284Y-102550200D02*
X180750028Y-102519962D01*
X180750028Y-102519962D02*
X180716010Y-102489723D01*
X180716010Y-102489723D02*
X180678213Y-102429247D01*
X180678213Y-102429247D02*
X180613957Y-101915200D01*
X180058332Y-102550200D02*
X180421189Y-102550200D01*
X180239760Y-102550200D02*
X180160385Y-101915200D01*
X180160385Y-101915200D02*
X180232201Y-102005914D01*
X180232201Y-102005914D02*
X180300237Y-102066390D01*
X180300237Y-102066390D02*
X180364492Y-102096628D01*
X173665394Y-90205800D02*
X173839263Y-89903419D01*
X174028251Y-90205800D02*
X173948876Y-89570800D01*
X173948876Y-89570800D02*
X173706971Y-89570800D01*
X173706971Y-89570800D02*
X173650275Y-89601038D01*
X173650275Y-89601038D02*
X173623816Y-89631276D01*
X173623816Y-89631276D02*
X173601138Y-89691752D01*
X173601138Y-89691752D02*
X173612477Y-89782466D01*
X173612477Y-89782466D02*
X173650275Y-89842942D01*
X173650275Y-89842942D02*
X173684292Y-89873181D01*
X173684292Y-89873181D02*
X173748548Y-89903419D01*
X173748548Y-89903419D02*
X173990453Y-89903419D01*
X173060632Y-90205800D02*
X173423489Y-90205800D01*
X173242060Y-90205800D02*
X173162685Y-89570800D01*
X173162685Y-89570800D02*
X173234501Y-89661514D01*
X173234501Y-89661514D02*
X173302537Y-89721990D01*
X173302537Y-89721990D02*
X173366792Y-89752228D01*
X172463429Y-89782466D02*
X172516346Y-90205800D01*
X172584382Y-89540562D02*
X172792269Y-89994133D01*
X172792269Y-89994133D02*
X172399173Y-89994133D01*
X175727600Y-82262586D02*
X175425219Y-82088717D01*
X175727600Y-81899729D02*
X175092600Y-81979104D01*
X175092600Y-81979104D02*
X175092600Y-82221009D01*
X175092600Y-82221009D02*
X175122838Y-82277705D01*
X175122838Y-82277705D02*
X175153076Y-82304164D01*
X175153076Y-82304164D02*
X175213552Y-82326842D01*
X175213552Y-82326842D02*
X175304266Y-82315503D01*
X175304266Y-82315503D02*
X175364742Y-82277705D01*
X175364742Y-82277705D02*
X175394981Y-82243688D01*
X175394981Y-82243688D02*
X175425219Y-82179432D01*
X175425219Y-82179432D02*
X175425219Y-81937527D01*
X175364742Y-82670801D02*
X175334504Y-82614104D01*
X175334504Y-82614104D02*
X175304266Y-82587646D01*
X175304266Y-82587646D02*
X175243790Y-82564967D01*
X175243790Y-82564967D02*
X175213552Y-82568747D01*
X175213552Y-82568747D02*
X175153076Y-82606545D01*
X175153076Y-82606545D02*
X175122838Y-82640563D01*
X175122838Y-82640563D02*
X175092600Y-82704819D01*
X175092600Y-82704819D02*
X175092600Y-82825771D01*
X175092600Y-82825771D02*
X175122838Y-82882467D01*
X175122838Y-82882467D02*
X175153076Y-82908926D01*
X175153076Y-82908926D02*
X175213552Y-82931604D01*
X175213552Y-82931604D02*
X175243790Y-82927824D01*
X175243790Y-82927824D02*
X175304266Y-82890027D01*
X175304266Y-82890027D02*
X175334504Y-82856009D01*
X175334504Y-82856009D02*
X175364742Y-82791753D01*
X175364742Y-82791753D02*
X175364742Y-82670801D01*
X175364742Y-82670801D02*
X175394981Y-82606545D01*
X175394981Y-82606545D02*
X175425219Y-82572527D01*
X175425219Y-82572527D02*
X175485695Y-82534729D01*
X175485695Y-82534729D02*
X175606647Y-82519610D01*
X175606647Y-82519610D02*
X175667123Y-82542289D01*
X175667123Y-82542289D02*
X175697362Y-82568747D01*
X175697362Y-82568747D02*
X175727600Y-82625444D01*
X175727600Y-82625444D02*
X175727600Y-82746396D01*
X175727600Y-82746396D02*
X175697362Y-82810652D01*
X175697362Y-82810652D02*
X175667123Y-82844670D01*
X175667123Y-82844670D02*
X175606647Y-82882467D01*
X175606647Y-82882467D02*
X175485695Y-82897586D01*
X175485695Y-82897586D02*
X175425219Y-82874908D01*
X175425219Y-82874908D02*
X175394981Y-82848449D01*
X175394981Y-82848449D02*
X175364742Y-82791753D01*
X178255234Y-129870923D02*
X178289252Y-129901162D01*
X178289252Y-129901162D02*
X178383746Y-129931400D01*
X178383746Y-129931400D02*
X178444222Y-129931400D01*
X178444222Y-129931400D02*
X178531157Y-129901162D01*
X178531157Y-129901162D02*
X178584073Y-129840685D01*
X178584073Y-129840685D02*
X178606752Y-129780209D01*
X178606752Y-129780209D02*
X178621871Y-129659257D01*
X178621871Y-129659257D02*
X178610532Y-129568542D01*
X178610532Y-129568542D02*
X178565175Y-129447590D01*
X178565175Y-129447590D02*
X178527377Y-129387114D01*
X178527377Y-129387114D02*
X178459341Y-129326638D01*
X178459341Y-129326638D02*
X178364847Y-129296400D01*
X178364847Y-129296400D02*
X178304371Y-129296400D01*
X178304371Y-129296400D02*
X178217437Y-129326638D01*
X178217437Y-129326638D02*
X178190978Y-129356876D01*
X177658032Y-129931400D02*
X178020889Y-129931400D01*
X177839460Y-129931400D02*
X177760085Y-129296400D01*
X177760085Y-129296400D02*
X177831901Y-129387114D01*
X177831901Y-129387114D02*
X177899937Y-129447590D01*
X177899937Y-129447590D02*
X177964192Y-129477828D01*
X177249817Y-129568542D02*
X177306514Y-129538304D01*
X177306514Y-129538304D02*
X177332972Y-129508066D01*
X177332972Y-129508066D02*
X177355651Y-129447590D01*
X177355651Y-129447590D02*
X177351871Y-129417352D01*
X177351871Y-129417352D02*
X177314073Y-129356876D01*
X177314073Y-129356876D02*
X177280055Y-129326638D01*
X177280055Y-129326638D02*
X177215800Y-129296400D01*
X177215800Y-129296400D02*
X177094847Y-129296400D01*
X177094847Y-129296400D02*
X177038151Y-129326638D01*
X177038151Y-129326638D02*
X177011692Y-129356876D01*
X177011692Y-129356876D02*
X176989014Y-129417352D01*
X176989014Y-129417352D02*
X176992794Y-129447590D01*
X176992794Y-129447590D02*
X177030591Y-129508066D01*
X177030591Y-129508066D02*
X177064609Y-129538304D01*
X177064609Y-129538304D02*
X177128865Y-129568542D01*
X177128865Y-129568542D02*
X177249817Y-129568542D01*
X177249817Y-129568542D02*
X177314073Y-129598781D01*
X177314073Y-129598781D02*
X177348091Y-129629019D01*
X177348091Y-129629019D02*
X177385889Y-129689495D01*
X177385889Y-129689495D02*
X177401008Y-129810447D01*
X177401008Y-129810447D02*
X177378329Y-129870923D01*
X177378329Y-129870923D02*
X177351871Y-129901162D01*
X177351871Y-129901162D02*
X177295175Y-129931400D01*
X177295175Y-129931400D02*
X177174222Y-129931400D01*
X177174222Y-129931400D02*
X177109966Y-129901162D01*
X177109966Y-129901162D02*
X177075948Y-129870923D01*
X177075948Y-129870923D02*
X177038151Y-129810447D01*
X177038151Y-129810447D02*
X177023032Y-129689495D01*
X177023032Y-129689495D02*
X177045710Y-129629019D01*
X177045710Y-129629019D02*
X177072169Y-129598781D01*
X177072169Y-129598781D02*
X177128865Y-129568542D01*
X144724343Y-112977205D02*
X144754582Y-112943187D01*
X144754582Y-112943187D02*
X144784820Y-112848693D01*
X144784820Y-112848693D02*
X144784820Y-112788217D01*
X144784820Y-112788217D02*
X144754582Y-112701282D01*
X144754582Y-112701282D02*
X144694105Y-112648366D01*
X144694105Y-112648366D02*
X144633629Y-112625687D01*
X144633629Y-112625687D02*
X144512677Y-112610568D01*
X144512677Y-112610568D02*
X144421962Y-112621907D01*
X144421962Y-112621907D02*
X144301010Y-112667264D01*
X144301010Y-112667264D02*
X144240534Y-112705062D01*
X144240534Y-112705062D02*
X144180058Y-112773098D01*
X144180058Y-112773098D02*
X144149820Y-112867592D01*
X144149820Y-112867592D02*
X144149820Y-112928068D01*
X144149820Y-112928068D02*
X144180058Y-113015003D01*
X144180058Y-113015003D02*
X144210296Y-113041461D01*
X144784820Y-113272026D02*
X144784820Y-113392979D01*
X144784820Y-113392979D02*
X144754582Y-113457235D01*
X144754582Y-113457235D02*
X144724343Y-113491253D01*
X144724343Y-113491253D02*
X144633629Y-113563068D01*
X144633629Y-113563068D02*
X144512677Y-113608425D01*
X144512677Y-113608425D02*
X144270772Y-113638663D01*
X144270772Y-113638663D02*
X144210296Y-113615985D01*
X144210296Y-113615985D02*
X144180058Y-113589526D01*
X144180058Y-113589526D02*
X144149820Y-113532830D01*
X144149820Y-113532830D02*
X144149820Y-113411878D01*
X144149820Y-113411878D02*
X144180058Y-113347622D01*
X144180058Y-113347622D02*
X144210296Y-113313604D01*
X144210296Y-113313604D02*
X144270772Y-113275806D01*
X144270772Y-113275806D02*
X144421962Y-113256907D01*
X144421962Y-113256907D02*
X144482439Y-113279586D01*
X144482439Y-113279586D02*
X144512677Y-113306044D01*
X144512677Y-113306044D02*
X144542915Y-113362741D01*
X144542915Y-113362741D02*
X144542915Y-113483693D01*
X144542915Y-113483693D02*
X144512677Y-113547949D01*
X144512677Y-113547949D02*
X144482439Y-113581967D01*
X144482439Y-113581967D02*
X144421962Y-113619764D01*
X144784820Y-113876788D02*
X144784820Y-113997741D01*
X144784820Y-113997741D02*
X144754582Y-114061997D01*
X144754582Y-114061997D02*
X144724343Y-114096015D01*
X144724343Y-114096015D02*
X144633629Y-114167830D01*
X144633629Y-114167830D02*
X144512677Y-114213187D01*
X144512677Y-114213187D02*
X144270772Y-114243425D01*
X144270772Y-114243425D02*
X144210296Y-114220747D01*
X144210296Y-114220747D02*
X144180058Y-114194288D01*
X144180058Y-114194288D02*
X144149820Y-114137592D01*
X144149820Y-114137592D02*
X144149820Y-114016640D01*
X144149820Y-114016640D02*
X144180058Y-113952384D01*
X144180058Y-113952384D02*
X144210296Y-113918366D01*
X144210296Y-113918366D02*
X144270772Y-113880568D01*
X144270772Y-113880568D02*
X144421962Y-113861669D01*
X144421962Y-113861669D02*
X144482439Y-113884348D01*
X144482439Y-113884348D02*
X144512677Y-113910806D01*
X144512677Y-113910806D02*
X144542915Y-113967503D01*
X144542915Y-113967503D02*
X144542915Y-114088455D01*
X144542915Y-114088455D02*
X144512677Y-114152711D01*
X144512677Y-114152711D02*
X144482439Y-114186729D01*
X144482439Y-114186729D02*
X144421962Y-114224526D01*
X173591613Y-109128800D02*
X173765482Y-108826419D01*
X173954470Y-109128800D02*
X173875095Y-108493800D01*
X173875095Y-108493800D02*
X173633190Y-108493800D01*
X173633190Y-108493800D02*
X173576494Y-108524038D01*
X173576494Y-108524038D02*
X173550035Y-108554276D01*
X173550035Y-108554276D02*
X173527357Y-108614752D01*
X173527357Y-108614752D02*
X173538696Y-108705466D01*
X173538696Y-108705466D02*
X173576494Y-108765942D01*
X173576494Y-108765942D02*
X173610511Y-108796181D01*
X173610511Y-108796181D02*
X173674767Y-108826419D01*
X173674767Y-108826419D02*
X173916672Y-108826419D01*
X172994410Y-108705466D02*
X173047327Y-109128800D01*
X173115363Y-108463562D02*
X173323250Y-108917133D01*
X173323250Y-108917133D02*
X172930154Y-108917133D01*
X173609453Y-85192323D02*
X173643471Y-85222562D01*
X173643471Y-85222562D02*
X173737965Y-85252800D01*
X173737965Y-85252800D02*
X173798441Y-85252800D01*
X173798441Y-85252800D02*
X173885376Y-85222562D01*
X173885376Y-85222562D02*
X173938292Y-85162085D01*
X173938292Y-85162085D02*
X173960971Y-85101609D01*
X173960971Y-85101609D02*
X173976090Y-84980657D01*
X173976090Y-84980657D02*
X173964751Y-84889942D01*
X173964751Y-84889942D02*
X173919394Y-84768990D01*
X173919394Y-84768990D02*
X173881596Y-84708514D01*
X173881596Y-84708514D02*
X173813560Y-84648038D01*
X173813560Y-84648038D02*
X173719066Y-84617800D01*
X173719066Y-84617800D02*
X173658590Y-84617800D01*
X173658590Y-84617800D02*
X173571656Y-84648038D01*
X173571656Y-84648038D02*
X173545197Y-84678276D01*
X173325971Y-84617800D02*
X172932876Y-84617800D01*
X172932876Y-84617800D02*
X173174781Y-84859704D01*
X173174781Y-84859704D02*
X173084066Y-84859704D01*
X173084066Y-84859704D02*
X173027370Y-84889942D01*
X173027370Y-84889942D02*
X173000911Y-84920181D01*
X173000911Y-84920181D02*
X172978233Y-84980657D01*
X172978233Y-84980657D02*
X172997132Y-85131847D01*
X172997132Y-85131847D02*
X173034929Y-85192323D01*
X173034929Y-85192323D02*
X173068947Y-85222562D01*
X173068947Y-85222562D02*
X173133203Y-85252800D01*
X173133203Y-85252800D02*
X173314632Y-85252800D01*
X173314632Y-85252800D02*
X173371328Y-85222562D01*
X173371328Y-85222562D02*
X173397786Y-85192323D01*
X159430943Y-96118481D02*
X159461182Y-96084463D01*
X159461182Y-96084463D02*
X159491420Y-95989969D01*
X159491420Y-95989969D02*
X159491420Y-95929493D01*
X159491420Y-95929493D02*
X159461182Y-95842558D01*
X159461182Y-95842558D02*
X159400705Y-95789642D01*
X159400705Y-95789642D02*
X159340229Y-95766963D01*
X159340229Y-95766963D02*
X159219277Y-95751844D01*
X159219277Y-95751844D02*
X159128562Y-95763183D01*
X159128562Y-95763183D02*
X159007610Y-95808540D01*
X159007610Y-95808540D02*
X158947134Y-95846338D01*
X158947134Y-95846338D02*
X158886658Y-95914374D01*
X158886658Y-95914374D02*
X158856420Y-96008868D01*
X158856420Y-96008868D02*
X158856420Y-96069344D01*
X158856420Y-96069344D02*
X158886658Y-96156279D01*
X158886658Y-96156279D02*
X158916896Y-96182737D01*
X158856420Y-96401963D02*
X158856420Y-96825296D01*
X158856420Y-96825296D02*
X159491420Y-96473779D01*
X158916896Y-97029404D02*
X158886658Y-97063421D01*
X158886658Y-97063421D02*
X158856420Y-97127677D01*
X158856420Y-97127677D02*
X158856420Y-97278868D01*
X158856420Y-97278868D02*
X158886658Y-97335564D01*
X158886658Y-97335564D02*
X158916896Y-97362023D01*
X158916896Y-97362023D02*
X158977372Y-97384701D01*
X158977372Y-97384701D02*
X159037848Y-97377142D01*
X159037848Y-97377142D02*
X159128562Y-97335564D01*
X159128562Y-97335564D02*
X159491420Y-96927350D01*
X159491420Y-96927350D02*
X159491420Y-97320445D01*
X180960000Y-129763005D02*
X180657619Y-129589136D01*
X180960000Y-129400148D02*
X180325000Y-129479523D01*
X180325000Y-129479523D02*
X180325000Y-129721428D01*
X180325000Y-129721428D02*
X180355238Y-129778124D01*
X180355238Y-129778124D02*
X180385476Y-129804583D01*
X180385476Y-129804583D02*
X180445952Y-129827261D01*
X180445952Y-129827261D02*
X180536666Y-129815922D01*
X180536666Y-129815922D02*
X180597142Y-129778124D01*
X180597142Y-129778124D02*
X180627381Y-129744107D01*
X180627381Y-129744107D02*
X180657619Y-129679851D01*
X180657619Y-129679851D02*
X180657619Y-129437946D01*
X180385476Y-130076726D02*
X180355238Y-130110743D01*
X180355238Y-130110743D02*
X180325000Y-130174999D01*
X180325000Y-130174999D02*
X180325000Y-130326190D01*
X180325000Y-130326190D02*
X180355238Y-130382886D01*
X180355238Y-130382886D02*
X180385476Y-130409345D01*
X180385476Y-130409345D02*
X180445952Y-130432023D01*
X180445952Y-130432023D02*
X180506428Y-130424464D01*
X180506428Y-130424464D02*
X180597142Y-130382886D01*
X180597142Y-130382886D02*
X180960000Y-129974672D01*
X180960000Y-129974672D02*
X180960000Y-130367767D01*
X180325000Y-130840238D02*
X180325000Y-130900714D01*
X180325000Y-130900714D02*
X180355238Y-130957410D01*
X180355238Y-130957410D02*
X180385476Y-130983869D01*
X180385476Y-130983869D02*
X180445952Y-131006547D01*
X180445952Y-131006547D02*
X180566904Y-131021666D01*
X180566904Y-131021666D02*
X180718095Y-131002767D01*
X180718095Y-131002767D02*
X180839047Y-130957410D01*
X180839047Y-130957410D02*
X180899523Y-130919613D01*
X180899523Y-130919613D02*
X180929762Y-130885595D01*
X180929762Y-130885595D02*
X180960000Y-130821339D01*
X180960000Y-130821339D02*
X180960000Y-130760863D01*
X180960000Y-130760863D02*
X180929762Y-130704166D01*
X180929762Y-130704166D02*
X180899523Y-130677708D01*
X180899523Y-130677708D02*
X180839047Y-130655029D01*
X180839047Y-130655029D02*
X180718095Y-130639910D01*
X180718095Y-130639910D02*
X180566904Y-130658809D01*
X180566904Y-130658809D02*
X180445952Y-130704166D01*
X180445952Y-130704166D02*
X180385476Y-130741964D01*
X180385476Y-130741964D02*
X180355238Y-130775982D01*
X180355238Y-130775982D02*
X180325000Y-130840238D01*
X176692800Y-99280586D02*
X176390419Y-99106717D01*
X176692800Y-98917729D02*
X176057800Y-98997104D01*
X176057800Y-98997104D02*
X176057800Y-99239009D01*
X176057800Y-99239009D02*
X176088038Y-99295705D01*
X176088038Y-99295705D02*
X176118276Y-99322164D01*
X176118276Y-99322164D02*
X176178752Y-99344842D01*
X176178752Y-99344842D02*
X176269466Y-99333503D01*
X176269466Y-99333503D02*
X176329942Y-99295705D01*
X176329942Y-99295705D02*
X176360181Y-99261688D01*
X176360181Y-99261688D02*
X176390419Y-99197432D01*
X176390419Y-99197432D02*
X176390419Y-98955527D01*
X176118276Y-99594307D02*
X176088038Y-99628324D01*
X176088038Y-99628324D02*
X176057800Y-99692580D01*
X176057800Y-99692580D02*
X176057800Y-99843771D01*
X176057800Y-99843771D02*
X176088038Y-99900467D01*
X176088038Y-99900467D02*
X176118276Y-99926926D01*
X176118276Y-99926926D02*
X176178752Y-99949604D01*
X176178752Y-99949604D02*
X176239228Y-99942045D01*
X176239228Y-99942045D02*
X176329942Y-99900467D01*
X176329942Y-99900467D02*
X176692800Y-99492253D01*
X176692800Y-99492253D02*
X176692800Y-99885348D01*
X140559223Y-131779584D02*
X140589462Y-131745566D01*
X140589462Y-131745566D02*
X140619700Y-131651072D01*
X140619700Y-131651072D02*
X140619700Y-131590596D01*
X140619700Y-131590596D02*
X140589462Y-131503661D01*
X140589462Y-131503661D02*
X140528985Y-131450745D01*
X140528985Y-131450745D02*
X140468509Y-131428066D01*
X140468509Y-131428066D02*
X140347557Y-131412947D01*
X140347557Y-131412947D02*
X140256842Y-131424286D01*
X140256842Y-131424286D02*
X140135890Y-131469643D01*
X140135890Y-131469643D02*
X140075414Y-131507441D01*
X140075414Y-131507441D02*
X140014938Y-131575477D01*
X140014938Y-131575477D02*
X139984700Y-131669971D01*
X139984700Y-131669971D02*
X139984700Y-131730447D01*
X139984700Y-131730447D02*
X140014938Y-131817382D01*
X140014938Y-131817382D02*
X140045176Y-131843840D01*
X140619700Y-132376786D02*
X140619700Y-132013929D01*
X140619700Y-132195358D02*
X139984700Y-132274733D01*
X139984700Y-132274733D02*
X140075414Y-132202917D01*
X140075414Y-132202917D02*
X140135890Y-132134882D01*
X140135890Y-132134882D02*
X140166128Y-132070626D01*
X140045176Y-132690507D02*
X140014938Y-132724524D01*
X140014938Y-132724524D02*
X139984700Y-132788780D01*
X139984700Y-132788780D02*
X139984700Y-132939971D01*
X139984700Y-132939971D02*
X140014938Y-132996667D01*
X140014938Y-132996667D02*
X140045176Y-133023126D01*
X140045176Y-133023126D02*
X140105652Y-133045804D01*
X140105652Y-133045804D02*
X140166128Y-133038245D01*
X140166128Y-133038245D02*
X140256842Y-132996667D01*
X140256842Y-132996667D02*
X140619700Y-132588453D01*
X140619700Y-132588453D02*
X140619700Y-132981548D01*
X140196366Y-133578751D02*
X140619700Y-133525834D01*
X139954462Y-133457798D02*
X140408033Y-133249911D01*
X140408033Y-133249911D02*
X140408033Y-133643007D01*
X173642413Y-108138200D02*
X173816282Y-107835819D01*
X174005270Y-108138200D02*
X173925895Y-107503200D01*
X173925895Y-107503200D02*
X173683990Y-107503200D01*
X173683990Y-107503200D02*
X173627294Y-107533438D01*
X173627294Y-107533438D02*
X173600835Y-107563676D01*
X173600835Y-107563676D02*
X173578157Y-107624152D01*
X173578157Y-107624152D02*
X173589496Y-107714866D01*
X173589496Y-107714866D02*
X173627294Y-107775342D01*
X173627294Y-107775342D02*
X173661311Y-107805581D01*
X173661311Y-107805581D02*
X173725567Y-107835819D01*
X173725567Y-107835819D02*
X173967472Y-107835819D01*
X172988514Y-107503200D02*
X173290895Y-107503200D01*
X173290895Y-107503200D02*
X173358931Y-107805581D01*
X173358931Y-107805581D02*
X173324913Y-107775342D01*
X173324913Y-107775342D02*
X173260657Y-107745104D01*
X173260657Y-107745104D02*
X173109466Y-107745104D01*
X173109466Y-107745104D02*
X173052770Y-107775342D01*
X173052770Y-107775342D02*
X173026311Y-107805581D01*
X173026311Y-107805581D02*
X173003633Y-107866057D01*
X173003633Y-107866057D02*
X173022532Y-108017247D01*
X173022532Y-108017247D02*
X173060329Y-108077723D01*
X173060329Y-108077723D02*
X173094347Y-108107962D01*
X173094347Y-108107962D02*
X173158603Y-108138200D01*
X173158603Y-108138200D02*
X173309794Y-108138200D01*
X173309794Y-108138200D02*
X173366490Y-108107962D01*
X173366490Y-108107962D02*
X173392948Y-108077723D01*
X181747400Y-131566405D02*
X181445019Y-131392536D01*
X181747400Y-131203548D02*
X181112400Y-131282923D01*
X181112400Y-131282923D02*
X181112400Y-131524828D01*
X181112400Y-131524828D02*
X181142638Y-131581524D01*
X181142638Y-131581524D02*
X181172876Y-131607983D01*
X181172876Y-131607983D02*
X181233352Y-131630661D01*
X181233352Y-131630661D02*
X181324066Y-131619322D01*
X181324066Y-131619322D02*
X181384542Y-131581524D01*
X181384542Y-131581524D02*
X181414781Y-131547507D01*
X181414781Y-131547507D02*
X181445019Y-131483251D01*
X181445019Y-131483251D02*
X181445019Y-131241346D01*
X181172876Y-131880126D02*
X181142638Y-131914143D01*
X181142638Y-131914143D02*
X181112400Y-131978399D01*
X181112400Y-131978399D02*
X181112400Y-132129590D01*
X181112400Y-132129590D02*
X181142638Y-132186286D01*
X181142638Y-132186286D02*
X181172876Y-132212745D01*
X181172876Y-132212745D02*
X181233352Y-132235423D01*
X181233352Y-132235423D02*
X181293828Y-132227864D01*
X181293828Y-132227864D02*
X181384542Y-132186286D01*
X181384542Y-132186286D02*
X181747400Y-131778072D01*
X181747400Y-131778072D02*
X181747400Y-132171167D01*
X181747400Y-132775929D02*
X181747400Y-132413072D01*
X181747400Y-132594501D02*
X181112400Y-132673876D01*
X181112400Y-132673876D02*
X181203114Y-132602060D01*
X181203114Y-132602060D02*
X181263590Y-132534025D01*
X181263590Y-132534025D02*
X181293828Y-132469769D01*
X178255234Y-115265923D02*
X178289252Y-115296162D01*
X178289252Y-115296162D02*
X178383746Y-115326400D01*
X178383746Y-115326400D02*
X178444222Y-115326400D01*
X178444222Y-115326400D02*
X178531157Y-115296162D01*
X178531157Y-115296162D02*
X178584073Y-115235685D01*
X178584073Y-115235685D02*
X178606752Y-115175209D01*
X178606752Y-115175209D02*
X178621871Y-115054257D01*
X178621871Y-115054257D02*
X178610532Y-114963542D01*
X178610532Y-114963542D02*
X178565175Y-114842590D01*
X178565175Y-114842590D02*
X178527377Y-114782114D01*
X178527377Y-114782114D02*
X178459341Y-114721638D01*
X178459341Y-114721638D02*
X178364847Y-114691400D01*
X178364847Y-114691400D02*
X178304371Y-114691400D01*
X178304371Y-114691400D02*
X178217437Y-114721638D01*
X178217437Y-114721638D02*
X178190978Y-114751876D01*
X177658032Y-115326400D02*
X178020889Y-115326400D01*
X177839460Y-115326400D02*
X177760085Y-114691400D01*
X177760085Y-114691400D02*
X177831901Y-114782114D01*
X177831901Y-114782114D02*
X177899937Y-114842590D01*
X177899937Y-114842590D02*
X177964192Y-114872828D01*
X177366990Y-114691400D02*
X176943657Y-114691400D01*
X176943657Y-114691400D02*
X177295175Y-115326400D01*
X173515413Y-101635800D02*
X173689282Y-101333419D01*
X173878270Y-101635800D02*
X173798895Y-101000800D01*
X173798895Y-101000800D02*
X173556990Y-101000800D01*
X173556990Y-101000800D02*
X173500294Y-101031038D01*
X173500294Y-101031038D02*
X173473835Y-101061276D01*
X173473835Y-101061276D02*
X173451157Y-101121752D01*
X173451157Y-101121752D02*
X173462496Y-101212466D01*
X173462496Y-101212466D02*
X173500294Y-101272942D01*
X173500294Y-101272942D02*
X173534311Y-101303181D01*
X173534311Y-101303181D02*
X173598567Y-101333419D01*
X173598567Y-101333419D02*
X173840472Y-101333419D01*
X173224371Y-101000800D02*
X172831276Y-101000800D01*
X172831276Y-101000800D02*
X173073181Y-101242704D01*
X173073181Y-101242704D02*
X172982466Y-101242704D01*
X172982466Y-101242704D02*
X172925770Y-101272942D01*
X172925770Y-101272942D02*
X172899311Y-101303181D01*
X172899311Y-101303181D02*
X172876633Y-101363657D01*
X172876633Y-101363657D02*
X172895532Y-101514847D01*
X172895532Y-101514847D02*
X172933329Y-101575323D01*
X172933329Y-101575323D02*
X172967347Y-101605562D01*
X172967347Y-101605562D02*
X173031603Y-101635800D01*
X173031603Y-101635800D02*
X173213032Y-101635800D01*
X173213032Y-101635800D02*
X173269728Y-101605562D01*
X173269728Y-101605562D02*
X173296186Y-101575323D01*
X136754323Y-114913984D02*
X136784562Y-114879966D01*
X136784562Y-114879966D02*
X136814800Y-114785472D01*
X136814800Y-114785472D02*
X136814800Y-114724996D01*
X136814800Y-114724996D02*
X136784562Y-114638061D01*
X136784562Y-114638061D02*
X136724085Y-114585145D01*
X136724085Y-114585145D02*
X136663609Y-114562466D01*
X136663609Y-114562466D02*
X136542657Y-114547347D01*
X136542657Y-114547347D02*
X136451942Y-114558686D01*
X136451942Y-114558686D02*
X136330990Y-114604043D01*
X136330990Y-114604043D02*
X136270514Y-114641841D01*
X136270514Y-114641841D02*
X136210038Y-114709877D01*
X136210038Y-114709877D02*
X136179800Y-114804371D01*
X136179800Y-114804371D02*
X136179800Y-114864847D01*
X136179800Y-114864847D02*
X136210038Y-114951782D01*
X136210038Y-114951782D02*
X136240276Y-114978240D01*
X136814800Y-115511186D02*
X136814800Y-115148329D01*
X136814800Y-115329758D02*
X136179800Y-115409133D01*
X136179800Y-115409133D02*
X136270514Y-115337317D01*
X136270514Y-115337317D02*
X136330990Y-115269282D01*
X136330990Y-115269282D02*
X136361228Y-115205026D01*
X136814800Y-116115948D02*
X136814800Y-115753091D01*
X136814800Y-115934520D02*
X136179800Y-116013895D01*
X136179800Y-116013895D02*
X136270514Y-115942079D01*
X136270514Y-115942079D02*
X136330990Y-115874044D01*
X136330990Y-115874044D02*
X136361228Y-115809788D01*
X136451942Y-116524163D02*
X136421704Y-116467466D01*
X136421704Y-116467466D02*
X136391466Y-116441008D01*
X136391466Y-116441008D02*
X136330990Y-116418329D01*
X136330990Y-116418329D02*
X136300752Y-116422109D01*
X136300752Y-116422109D02*
X136240276Y-116459907D01*
X136240276Y-116459907D02*
X136210038Y-116493925D01*
X136210038Y-116493925D02*
X136179800Y-116558181D01*
X136179800Y-116558181D02*
X136179800Y-116679133D01*
X136179800Y-116679133D02*
X136210038Y-116735829D01*
X136210038Y-116735829D02*
X136240276Y-116762288D01*
X136240276Y-116762288D02*
X136300752Y-116784966D01*
X136300752Y-116784966D02*
X136330990Y-116781186D01*
X136330990Y-116781186D02*
X136391466Y-116743389D01*
X136391466Y-116743389D02*
X136421704Y-116709371D01*
X136421704Y-116709371D02*
X136451942Y-116645115D01*
X136451942Y-116645115D02*
X136451942Y-116524163D01*
X136451942Y-116524163D02*
X136482181Y-116459907D01*
X136482181Y-116459907D02*
X136512419Y-116425889D01*
X136512419Y-116425889D02*
X136572895Y-116388091D01*
X136572895Y-116388091D02*
X136693847Y-116372972D01*
X136693847Y-116372972D02*
X136754323Y-116395651D01*
X136754323Y-116395651D02*
X136784562Y-116422109D01*
X136784562Y-116422109D02*
X136814800Y-116478806D01*
X136814800Y-116478806D02*
X136814800Y-116599758D01*
X136814800Y-116599758D02*
X136784562Y-116664014D01*
X136784562Y-116664014D02*
X136754323Y-116698032D01*
X136754323Y-116698032D02*
X136693847Y-116735829D01*
X136693847Y-116735829D02*
X136572895Y-116750948D01*
X136572895Y-116750948D02*
X136512419Y-116728270D01*
X136512419Y-116728270D02*
X136482181Y-116701811D01*
X136482181Y-116701811D02*
X136451942Y-116645115D01*
X181747400Y-114015005D02*
X181445019Y-113841136D01*
X181747400Y-113652148D02*
X181112400Y-113731523D01*
X181112400Y-113731523D02*
X181112400Y-113973428D01*
X181112400Y-113973428D02*
X181142638Y-114030124D01*
X181142638Y-114030124D02*
X181172876Y-114056583D01*
X181172876Y-114056583D02*
X181233352Y-114079261D01*
X181233352Y-114079261D02*
X181324066Y-114067922D01*
X181324066Y-114067922D02*
X181384542Y-114030124D01*
X181384542Y-114030124D02*
X181414781Y-113996107D01*
X181414781Y-113996107D02*
X181445019Y-113931851D01*
X181445019Y-113931851D02*
X181445019Y-113689946D01*
X181747400Y-114619767D02*
X181747400Y-114256910D01*
X181747400Y-114438339D02*
X181112400Y-114517714D01*
X181112400Y-114517714D02*
X181203114Y-114445898D01*
X181203114Y-114445898D02*
X181263590Y-114377863D01*
X181263590Y-114377863D02*
X181293828Y-114313607D01*
X181112400Y-114910809D02*
X181112400Y-115334142D01*
X181112400Y-115334142D02*
X181747400Y-114982625D01*
X181262413Y-119822200D02*
X181564794Y-119822200D01*
X181564794Y-119822200D02*
X181485419Y-119187200D01*
X181031847Y-119187200D02*
X180638752Y-119187200D01*
X180638752Y-119187200D02*
X180880657Y-119429104D01*
X180880657Y-119429104D02*
X180789942Y-119429104D01*
X180789942Y-119429104D02*
X180733246Y-119459342D01*
X180733246Y-119459342D02*
X180706787Y-119489581D01*
X180706787Y-119489581D02*
X180684109Y-119550057D01*
X180684109Y-119550057D02*
X180703008Y-119701247D01*
X180703008Y-119701247D02*
X180740805Y-119761723D01*
X180740805Y-119761723D02*
X180774823Y-119791962D01*
X180774823Y-119791962D02*
X180839079Y-119822200D01*
X180839079Y-119822200D02*
X181020508Y-119822200D01*
X181020508Y-119822200D02*
X181077204Y-119791962D01*
X181077204Y-119791962D02*
X181103662Y-119761723D01*
X144748723Y-79300765D02*
X144778962Y-79266747D01*
X144778962Y-79266747D02*
X144809200Y-79172253D01*
X144809200Y-79172253D02*
X144809200Y-79111777D01*
X144809200Y-79111777D02*
X144778962Y-79024842D01*
X144778962Y-79024842D02*
X144718485Y-78971926D01*
X144718485Y-78971926D02*
X144658009Y-78949247D01*
X144658009Y-78949247D02*
X144537057Y-78934128D01*
X144537057Y-78934128D02*
X144446342Y-78945467D01*
X144446342Y-78945467D02*
X144325390Y-78990824D01*
X144325390Y-78990824D02*
X144264914Y-79028622D01*
X144264914Y-79028622D02*
X144204438Y-79096658D01*
X144204438Y-79096658D02*
X144174200Y-79191152D01*
X144174200Y-79191152D02*
X144174200Y-79251628D01*
X144174200Y-79251628D02*
X144204438Y-79338563D01*
X144204438Y-79338563D02*
X144234676Y-79365021D01*
X144174200Y-79916866D02*
X144174200Y-79795914D01*
X144174200Y-79795914D02*
X144204438Y-79731658D01*
X144204438Y-79731658D02*
X144234676Y-79697640D01*
X144234676Y-79697640D02*
X144325390Y-79625824D01*
X144325390Y-79625824D02*
X144446342Y-79580467D01*
X144446342Y-79580467D02*
X144688247Y-79550229D01*
X144688247Y-79550229D02*
X144748723Y-79572908D01*
X144748723Y-79572908D02*
X144778962Y-79599366D01*
X144778962Y-79599366D02*
X144809200Y-79656063D01*
X144809200Y-79656063D02*
X144809200Y-79777015D01*
X144809200Y-79777015D02*
X144778962Y-79841271D01*
X144778962Y-79841271D02*
X144748723Y-79875289D01*
X144748723Y-79875289D02*
X144688247Y-79913086D01*
X144688247Y-79913086D02*
X144537057Y-79931985D01*
X144537057Y-79931985D02*
X144476581Y-79909307D01*
X144476581Y-79909307D02*
X144446342Y-79882848D01*
X144446342Y-79882848D02*
X144416104Y-79826152D01*
X144416104Y-79826152D02*
X144416104Y-79705199D01*
X144416104Y-79705199D02*
X144446342Y-79640943D01*
X144446342Y-79640943D02*
X144476581Y-79606926D01*
X144476581Y-79606926D02*
X144537057Y-79569128D01*
X144809200Y-80200348D02*
X144809200Y-80321301D01*
X144809200Y-80321301D02*
X144778962Y-80385557D01*
X144778962Y-80385557D02*
X144748723Y-80419575D01*
X144748723Y-80419575D02*
X144658009Y-80491390D01*
X144658009Y-80491390D02*
X144537057Y-80536747D01*
X144537057Y-80536747D02*
X144295152Y-80566985D01*
X144295152Y-80566985D02*
X144234676Y-80544307D01*
X144234676Y-80544307D02*
X144204438Y-80517848D01*
X144204438Y-80517848D02*
X144174200Y-80461152D01*
X144174200Y-80461152D02*
X144174200Y-80340200D01*
X144174200Y-80340200D02*
X144204438Y-80275944D01*
X144204438Y-80275944D02*
X144234676Y-80241926D01*
X144234676Y-80241926D02*
X144295152Y-80204128D01*
X144295152Y-80204128D02*
X144446342Y-80185229D01*
X144446342Y-80185229D02*
X144506819Y-80207908D01*
X144506819Y-80207908D02*
X144537057Y-80234366D01*
X144537057Y-80234366D02*
X144567295Y-80291063D01*
X144567295Y-80291063D02*
X144567295Y-80412015D01*
X144567295Y-80412015D02*
X144537057Y-80476271D01*
X144537057Y-80476271D02*
X144506819Y-80510289D01*
X144506819Y-80510289D02*
X144446342Y-80548086D01*
X173579215Y-102311923D02*
X173613233Y-102342162D01*
X173613233Y-102342162D02*
X173707727Y-102372400D01*
X173707727Y-102372400D02*
X173768203Y-102372400D01*
X173768203Y-102372400D02*
X173855138Y-102342162D01*
X173855138Y-102342162D02*
X173908054Y-102281685D01*
X173908054Y-102281685D02*
X173930733Y-102221209D01*
X173930733Y-102221209D02*
X173945852Y-102100257D01*
X173945852Y-102100257D02*
X173934513Y-102009542D01*
X173934513Y-102009542D02*
X173889156Y-101888590D01*
X173889156Y-101888590D02*
X173851358Y-101828114D01*
X173851358Y-101828114D02*
X173783322Y-101767638D01*
X173783322Y-101767638D02*
X173688828Y-101737400D01*
X173688828Y-101737400D02*
X173628352Y-101737400D01*
X173628352Y-101737400D02*
X173541418Y-101767638D01*
X173541418Y-101767638D02*
X173514959Y-101797876D01*
X172982013Y-102372400D02*
X173344870Y-102372400D01*
X173163441Y-102372400D02*
X173084066Y-101737400D01*
X173084066Y-101737400D02*
X173155882Y-101828114D01*
X173155882Y-101828114D02*
X173223918Y-101888590D01*
X173223918Y-101888590D02*
X173288173Y-101918828D01*
X172690971Y-101737400D02*
X172297876Y-101737400D01*
X172297876Y-101737400D02*
X172539781Y-101979304D01*
X172539781Y-101979304D02*
X172449066Y-101979304D01*
X172449066Y-101979304D02*
X172392370Y-102009542D01*
X172392370Y-102009542D02*
X172365911Y-102039781D01*
X172365911Y-102039781D02*
X172343233Y-102100257D01*
X172343233Y-102100257D02*
X172362132Y-102251447D01*
X172362132Y-102251447D02*
X172399929Y-102311923D01*
X172399929Y-102311923D02*
X172433947Y-102342162D01*
X172433947Y-102342162D02*
X172498203Y-102372400D01*
X172498203Y-102372400D02*
X172679632Y-102372400D01*
X172679632Y-102372400D02*
X172736328Y-102342162D01*
X172736328Y-102342162D02*
X172762786Y-102311923D01*
X172086209Y-101737400D02*
X171693114Y-101737400D01*
X171693114Y-101737400D02*
X171935019Y-101979304D01*
X171935019Y-101979304D02*
X171844304Y-101979304D01*
X171844304Y-101979304D02*
X171787608Y-102009542D01*
X171787608Y-102009542D02*
X171761149Y-102039781D01*
X171761149Y-102039781D02*
X171738471Y-102100257D01*
X171738471Y-102100257D02*
X171757370Y-102251447D01*
X171757370Y-102251447D02*
X171795167Y-102311923D01*
X171795167Y-102311923D02*
X171829185Y-102342162D01*
X171829185Y-102342162D02*
X171893441Y-102372400D01*
X171893441Y-102372400D02*
X172074870Y-102372400D01*
X172074870Y-102372400D02*
X172131566Y-102342162D01*
X172131566Y-102342162D02*
X172158024Y-102311923D01*
X140538923Y-97997584D02*
X140569162Y-97963566D01*
X140569162Y-97963566D02*
X140599400Y-97869072D01*
X140599400Y-97869072D02*
X140599400Y-97808596D01*
X140599400Y-97808596D02*
X140569162Y-97721661D01*
X140569162Y-97721661D02*
X140508685Y-97668745D01*
X140508685Y-97668745D02*
X140448209Y-97646066D01*
X140448209Y-97646066D02*
X140327257Y-97630947D01*
X140327257Y-97630947D02*
X140236542Y-97642286D01*
X140236542Y-97642286D02*
X140115590Y-97687643D01*
X140115590Y-97687643D02*
X140055114Y-97725441D01*
X140055114Y-97725441D02*
X139994638Y-97793477D01*
X139994638Y-97793477D02*
X139964400Y-97887971D01*
X139964400Y-97887971D02*
X139964400Y-97948447D01*
X139964400Y-97948447D02*
X139994638Y-98035382D01*
X139994638Y-98035382D02*
X140024876Y-98061840D01*
X140599400Y-98594786D02*
X140599400Y-98231929D01*
X140599400Y-98413358D02*
X139964400Y-98492733D01*
X139964400Y-98492733D02*
X140055114Y-98420917D01*
X140055114Y-98420917D02*
X140115590Y-98352882D01*
X140115590Y-98352882D02*
X140145828Y-98288626D01*
X140024876Y-98908507D02*
X139994638Y-98942524D01*
X139994638Y-98942524D02*
X139964400Y-99006780D01*
X139964400Y-99006780D02*
X139964400Y-99157971D01*
X139964400Y-99157971D02*
X139994638Y-99214667D01*
X139994638Y-99214667D02*
X140024876Y-99241126D01*
X140024876Y-99241126D02*
X140085352Y-99263804D01*
X140085352Y-99263804D02*
X140145828Y-99256245D01*
X140145828Y-99256245D02*
X140236542Y-99214667D01*
X140236542Y-99214667D02*
X140599400Y-98806453D01*
X140599400Y-98806453D02*
X140599400Y-99199548D01*
X140236542Y-99607763D02*
X140206304Y-99551066D01*
X140206304Y-99551066D02*
X140176066Y-99524608D01*
X140176066Y-99524608D02*
X140115590Y-99501929D01*
X140115590Y-99501929D02*
X140085352Y-99505709D01*
X140085352Y-99505709D02*
X140024876Y-99543507D01*
X140024876Y-99543507D02*
X139994638Y-99577525D01*
X139994638Y-99577525D02*
X139964400Y-99641781D01*
X139964400Y-99641781D02*
X139964400Y-99762733D01*
X139964400Y-99762733D02*
X139994638Y-99819429D01*
X139994638Y-99819429D02*
X140024876Y-99845888D01*
X140024876Y-99845888D02*
X140085352Y-99868566D01*
X140085352Y-99868566D02*
X140115590Y-99864786D01*
X140115590Y-99864786D02*
X140176066Y-99826989D01*
X140176066Y-99826989D02*
X140206304Y-99792971D01*
X140206304Y-99792971D02*
X140236542Y-99728715D01*
X140236542Y-99728715D02*
X140236542Y-99607763D01*
X140236542Y-99607763D02*
X140266781Y-99543507D01*
X140266781Y-99543507D02*
X140297019Y-99509489D01*
X140297019Y-99509489D02*
X140357495Y-99471691D01*
X140357495Y-99471691D02*
X140478447Y-99456572D01*
X140478447Y-99456572D02*
X140538923Y-99479251D01*
X140538923Y-99479251D02*
X140569162Y-99505709D01*
X140569162Y-99505709D02*
X140599400Y-99562406D01*
X140599400Y-99562406D02*
X140599400Y-99683358D01*
X140599400Y-99683358D02*
X140569162Y-99747614D01*
X140569162Y-99747614D02*
X140538923Y-99781632D01*
X140538923Y-99781632D02*
X140478447Y-99819429D01*
X140478447Y-99819429D02*
X140357495Y-99834548D01*
X140357495Y-99834548D02*
X140297019Y-99811870D01*
X140297019Y-99811870D02*
X140266781Y-99785411D01*
X140266781Y-99785411D02*
X140236542Y-99728715D01*
X173617013Y-107122200D02*
X173790882Y-106819819D01*
X173979870Y-107122200D02*
X173900495Y-106487200D01*
X173900495Y-106487200D02*
X173658590Y-106487200D01*
X173658590Y-106487200D02*
X173601894Y-106517438D01*
X173601894Y-106517438D02*
X173575435Y-106547676D01*
X173575435Y-106547676D02*
X173552757Y-106608152D01*
X173552757Y-106608152D02*
X173564096Y-106698866D01*
X173564096Y-106698866D02*
X173601894Y-106759342D01*
X173601894Y-106759342D02*
X173635911Y-106789581D01*
X173635911Y-106789581D02*
X173700167Y-106819819D01*
X173700167Y-106819819D02*
X173942072Y-106819819D01*
X172993352Y-106487200D02*
X173114304Y-106487200D01*
X173114304Y-106487200D02*
X173178560Y-106517438D01*
X173178560Y-106517438D02*
X173212578Y-106547676D01*
X173212578Y-106547676D02*
X173284394Y-106638390D01*
X173284394Y-106638390D02*
X173329751Y-106759342D01*
X173329751Y-106759342D02*
X173359989Y-107001247D01*
X173359989Y-107001247D02*
X173337310Y-107061723D01*
X173337310Y-107061723D02*
X173310852Y-107091962D01*
X173310852Y-107091962D02*
X173254156Y-107122200D01*
X173254156Y-107122200D02*
X173133203Y-107122200D01*
X173133203Y-107122200D02*
X173068947Y-107091962D01*
X173068947Y-107091962D02*
X173034929Y-107061723D01*
X173034929Y-107061723D02*
X172997132Y-107001247D01*
X172997132Y-107001247D02*
X172978233Y-106850057D01*
X172978233Y-106850057D02*
X173000911Y-106789581D01*
X173000911Y-106789581D02*
X173027370Y-106759342D01*
X173027370Y-106759342D02*
X173084066Y-106729104D01*
X173084066Y-106729104D02*
X173205019Y-106729104D01*
X173205019Y-106729104D02*
X173269275Y-106759342D01*
X173269275Y-106759342D02*
X173303292Y-106789581D01*
X173303292Y-106789581D02*
X173341090Y-106850057D01*
X172847723Y-104799946D02*
X172877962Y-104765928D01*
X172877962Y-104765928D02*
X172908200Y-104671434D01*
X172908200Y-104671434D02*
X172908200Y-104610958D01*
X172908200Y-104610958D02*
X172877962Y-104524023D01*
X172877962Y-104524023D02*
X172817485Y-104471107D01*
X172817485Y-104471107D02*
X172757009Y-104448428D01*
X172757009Y-104448428D02*
X172636057Y-104433309D01*
X172636057Y-104433309D02*
X172545342Y-104444648D01*
X172545342Y-104444648D02*
X172424390Y-104490005D01*
X172424390Y-104490005D02*
X172363914Y-104527803D01*
X172363914Y-104527803D02*
X172303438Y-104595839D01*
X172303438Y-104595839D02*
X172273200Y-104690333D01*
X172273200Y-104690333D02*
X172273200Y-104750809D01*
X172273200Y-104750809D02*
X172303438Y-104837744D01*
X172303438Y-104837744D02*
X172333676Y-104864202D01*
X172273200Y-105416047D02*
X172273200Y-105295095D01*
X172273200Y-105295095D02*
X172303438Y-105230839D01*
X172303438Y-105230839D02*
X172333676Y-105196821D01*
X172333676Y-105196821D02*
X172424390Y-105125005D01*
X172424390Y-105125005D02*
X172545342Y-105079648D01*
X172545342Y-105079648D02*
X172787247Y-105049410D01*
X172787247Y-105049410D02*
X172847723Y-105072089D01*
X172847723Y-105072089D02*
X172877962Y-105098547D01*
X172877962Y-105098547D02*
X172908200Y-105155244D01*
X172908200Y-105155244D02*
X172908200Y-105276196D01*
X172908200Y-105276196D02*
X172877962Y-105340452D01*
X172877962Y-105340452D02*
X172847723Y-105374470D01*
X172847723Y-105374470D02*
X172787247Y-105412267D01*
X172787247Y-105412267D02*
X172636057Y-105431166D01*
X172636057Y-105431166D02*
X172575581Y-105408488D01*
X172575581Y-105408488D02*
X172545342Y-105382029D01*
X172545342Y-105382029D02*
X172515104Y-105325333D01*
X172515104Y-105325333D02*
X172515104Y-105204380D01*
X172515104Y-105204380D02*
X172545342Y-105140124D01*
X172545342Y-105140124D02*
X172575581Y-105106107D01*
X172575581Y-105106107D02*
X172636057Y-105068309D01*
X176403723Y-117476965D02*
X176433962Y-117442947D01*
X176433962Y-117442947D02*
X176464200Y-117348453D01*
X176464200Y-117348453D02*
X176464200Y-117287977D01*
X176464200Y-117287977D02*
X176433962Y-117201042D01*
X176433962Y-117201042D02*
X176373485Y-117148126D01*
X176373485Y-117148126D02*
X176313009Y-117125447D01*
X176313009Y-117125447D02*
X176192057Y-117110328D01*
X176192057Y-117110328D02*
X176101342Y-117121667D01*
X176101342Y-117121667D02*
X175980390Y-117167024D01*
X175980390Y-117167024D02*
X175919914Y-117204822D01*
X175919914Y-117204822D02*
X175859438Y-117272858D01*
X175859438Y-117272858D02*
X175829200Y-117367352D01*
X175829200Y-117367352D02*
X175829200Y-117427828D01*
X175829200Y-117427828D02*
X175859438Y-117514763D01*
X175859438Y-117514763D02*
X175889676Y-117541221D01*
X176464200Y-118074167D02*
X176464200Y-117711310D01*
X176464200Y-117892739D02*
X175829200Y-117972114D01*
X175829200Y-117972114D02*
X175919914Y-117900298D01*
X175919914Y-117900298D02*
X175980390Y-117832263D01*
X175980390Y-117832263D02*
X176010628Y-117768007D01*
X175829200Y-118728066D02*
X175829200Y-118425685D01*
X175829200Y-118425685D02*
X176131581Y-118357650D01*
X176131581Y-118357650D02*
X176101342Y-118391667D01*
X176101342Y-118391667D02*
X176071104Y-118455923D01*
X176071104Y-118455923D02*
X176071104Y-118607114D01*
X176071104Y-118607114D02*
X176101342Y-118663810D01*
X176101342Y-118663810D02*
X176131581Y-118690269D01*
X176131581Y-118690269D02*
X176192057Y-118712947D01*
X176192057Y-118712947D02*
X176343247Y-118694048D01*
X176343247Y-118694048D02*
X176403723Y-118656251D01*
X176403723Y-118656251D02*
X176433962Y-118622233D01*
X176433962Y-118622233D02*
X176464200Y-118557977D01*
X176464200Y-118557977D02*
X176464200Y-118406786D01*
X176464200Y-118406786D02*
X176433962Y-118350090D01*
X176433962Y-118350090D02*
X176403723Y-118323632D01*
X184183413Y-86649800D02*
X184485794Y-86649800D01*
X184485794Y-86649800D02*
X184406419Y-86014800D01*
X183930168Y-86075276D02*
X183896151Y-86045038D01*
X183896151Y-86045038D02*
X183831895Y-86014800D01*
X183831895Y-86014800D02*
X183680704Y-86014800D01*
X183680704Y-86014800D02*
X183624008Y-86045038D01*
X183624008Y-86045038D02*
X183597549Y-86075276D01*
X183597549Y-86075276D02*
X183574871Y-86135752D01*
X183574871Y-86135752D02*
X183582430Y-86196228D01*
X183582430Y-86196228D02*
X183624008Y-86286942D01*
X183624008Y-86286942D02*
X184032222Y-86649800D01*
X184032222Y-86649800D02*
X183639127Y-86649800D01*
X140564323Y-114913984D02*
X140594562Y-114879966D01*
X140594562Y-114879966D02*
X140624800Y-114785472D01*
X140624800Y-114785472D02*
X140624800Y-114724996D01*
X140624800Y-114724996D02*
X140594562Y-114638061D01*
X140594562Y-114638061D02*
X140534085Y-114585145D01*
X140534085Y-114585145D02*
X140473609Y-114562466D01*
X140473609Y-114562466D02*
X140352657Y-114547347D01*
X140352657Y-114547347D02*
X140261942Y-114558686D01*
X140261942Y-114558686D02*
X140140990Y-114604043D01*
X140140990Y-114604043D02*
X140080514Y-114641841D01*
X140080514Y-114641841D02*
X140020038Y-114709877D01*
X140020038Y-114709877D02*
X139989800Y-114804371D01*
X139989800Y-114804371D02*
X139989800Y-114864847D01*
X139989800Y-114864847D02*
X140020038Y-114951782D01*
X140020038Y-114951782D02*
X140050276Y-114978240D01*
X140624800Y-115511186D02*
X140624800Y-115148329D01*
X140624800Y-115329758D02*
X139989800Y-115409133D01*
X139989800Y-115409133D02*
X140080514Y-115337317D01*
X140080514Y-115337317D02*
X140140990Y-115269282D01*
X140140990Y-115269282D02*
X140171228Y-115205026D01*
X140050276Y-115824907D02*
X140020038Y-115858924D01*
X140020038Y-115858924D02*
X139989800Y-115923180D01*
X139989800Y-115923180D02*
X139989800Y-116074371D01*
X139989800Y-116074371D02*
X140020038Y-116131067D01*
X140020038Y-116131067D02*
X140050276Y-116157526D01*
X140050276Y-116157526D02*
X140110752Y-116180204D01*
X140110752Y-116180204D02*
X140171228Y-116172645D01*
X140171228Y-116172645D02*
X140261942Y-116131067D01*
X140261942Y-116131067D02*
X140624800Y-115722853D01*
X140624800Y-115722853D02*
X140624800Y-116115948D01*
X139989800Y-116588419D02*
X139989800Y-116648895D01*
X139989800Y-116648895D02*
X140020038Y-116705591D01*
X140020038Y-116705591D02*
X140050276Y-116732050D01*
X140050276Y-116732050D02*
X140110752Y-116754728D01*
X140110752Y-116754728D02*
X140231704Y-116769847D01*
X140231704Y-116769847D02*
X140382895Y-116750948D01*
X140382895Y-116750948D02*
X140503847Y-116705591D01*
X140503847Y-116705591D02*
X140564323Y-116667794D01*
X140564323Y-116667794D02*
X140594562Y-116633776D01*
X140594562Y-116633776D02*
X140624800Y-116569520D01*
X140624800Y-116569520D02*
X140624800Y-116509044D01*
X140624800Y-116509044D02*
X140594562Y-116452347D01*
X140594562Y-116452347D02*
X140564323Y-116425889D01*
X140564323Y-116425889D02*
X140503847Y-116403210D01*
X140503847Y-116403210D02*
X140382895Y-116388091D01*
X140382895Y-116388091D02*
X140231704Y-116406990D01*
X140231704Y-116406990D02*
X140110752Y-116452347D01*
X140110752Y-116452347D02*
X140050276Y-116490145D01*
X140050276Y-116490145D02*
X140020038Y-116524163D01*
X140020038Y-116524163D02*
X139989800Y-116588419D01*
X176276723Y-126290765D02*
X176306962Y-126256747D01*
X176306962Y-126256747D02*
X176337200Y-126162253D01*
X176337200Y-126162253D02*
X176337200Y-126101777D01*
X176337200Y-126101777D02*
X176306962Y-126014842D01*
X176306962Y-126014842D02*
X176246485Y-125961926D01*
X176246485Y-125961926D02*
X176186009Y-125939247D01*
X176186009Y-125939247D02*
X176065057Y-125924128D01*
X176065057Y-125924128D02*
X175974342Y-125935467D01*
X175974342Y-125935467D02*
X175853390Y-125980824D01*
X175853390Y-125980824D02*
X175792914Y-126018622D01*
X175792914Y-126018622D02*
X175732438Y-126086658D01*
X175732438Y-126086658D02*
X175702200Y-126181152D01*
X175702200Y-126181152D02*
X175702200Y-126241628D01*
X175702200Y-126241628D02*
X175732438Y-126328563D01*
X175732438Y-126328563D02*
X175762676Y-126355021D01*
X176337200Y-126887967D02*
X176337200Y-126525110D01*
X176337200Y-126706539D02*
X175702200Y-126785914D01*
X175702200Y-126785914D02*
X175792914Y-126714098D01*
X175792914Y-126714098D02*
X175853390Y-126646063D01*
X175853390Y-126646063D02*
X175883628Y-126581807D01*
X176337200Y-127190348D02*
X176337200Y-127311301D01*
X176337200Y-127311301D02*
X176306962Y-127375557D01*
X176306962Y-127375557D02*
X176276723Y-127409575D01*
X176276723Y-127409575D02*
X176186009Y-127481390D01*
X176186009Y-127481390D02*
X176065057Y-127526747D01*
X176065057Y-127526747D02*
X175823152Y-127556985D01*
X175823152Y-127556985D02*
X175762676Y-127534307D01*
X175762676Y-127534307D02*
X175732438Y-127507848D01*
X175732438Y-127507848D02*
X175702200Y-127451152D01*
X175702200Y-127451152D02*
X175702200Y-127330200D01*
X175702200Y-127330200D02*
X175732438Y-127265944D01*
X175732438Y-127265944D02*
X175762676Y-127231926D01*
X175762676Y-127231926D02*
X175823152Y-127194128D01*
X175823152Y-127194128D02*
X175974342Y-127175229D01*
X175974342Y-127175229D02*
X176034819Y-127197908D01*
X176034819Y-127197908D02*
X176065057Y-127224366D01*
X176065057Y-127224366D02*
X176095295Y-127281063D01*
X176095295Y-127281063D02*
X176095295Y-127402015D01*
X176095295Y-127402015D02*
X176065057Y-127466271D01*
X176065057Y-127466271D02*
X176034819Y-127500289D01*
X176034819Y-127500289D02*
X175974342Y-127538086D01*
X166796943Y-96136805D02*
X166827182Y-96102787D01*
X166827182Y-96102787D02*
X166857420Y-96008293D01*
X166857420Y-96008293D02*
X166857420Y-95947817D01*
X166857420Y-95947817D02*
X166827182Y-95860882D01*
X166827182Y-95860882D02*
X166766705Y-95807966D01*
X166766705Y-95807966D02*
X166706229Y-95785287D01*
X166706229Y-95785287D02*
X166585277Y-95770168D01*
X166585277Y-95770168D02*
X166494562Y-95781507D01*
X166494562Y-95781507D02*
X166373610Y-95826864D01*
X166373610Y-95826864D02*
X166313134Y-95864662D01*
X166313134Y-95864662D02*
X166252658Y-95932698D01*
X166252658Y-95932698D02*
X166222420Y-96027192D01*
X166222420Y-96027192D02*
X166222420Y-96087668D01*
X166222420Y-96087668D02*
X166252658Y-96174603D01*
X166252658Y-96174603D02*
X166282896Y-96201061D01*
X166222420Y-96752906D02*
X166222420Y-96631954D01*
X166222420Y-96631954D02*
X166252658Y-96567698D01*
X166252658Y-96567698D02*
X166282896Y-96533680D01*
X166282896Y-96533680D02*
X166373610Y-96461864D01*
X166373610Y-96461864D02*
X166494562Y-96416507D01*
X166494562Y-96416507D02*
X166736467Y-96386269D01*
X166736467Y-96386269D02*
X166796943Y-96408948D01*
X166796943Y-96408948D02*
X166827182Y-96435406D01*
X166827182Y-96435406D02*
X166857420Y-96492103D01*
X166857420Y-96492103D02*
X166857420Y-96613055D01*
X166857420Y-96613055D02*
X166827182Y-96677311D01*
X166827182Y-96677311D02*
X166796943Y-96711329D01*
X166796943Y-96711329D02*
X166736467Y-96749126D01*
X166736467Y-96749126D02*
X166585277Y-96768025D01*
X166585277Y-96768025D02*
X166524801Y-96745347D01*
X166524801Y-96745347D02*
X166494562Y-96718888D01*
X166494562Y-96718888D02*
X166464324Y-96662192D01*
X166464324Y-96662192D02*
X166464324Y-96541239D01*
X166464324Y-96541239D02*
X166494562Y-96476983D01*
X166494562Y-96476983D02*
X166524801Y-96442966D01*
X166524801Y-96442966D02*
X166585277Y-96405168D01*
X166494562Y-97142222D02*
X166464324Y-97085525D01*
X166464324Y-97085525D02*
X166434086Y-97059067D01*
X166434086Y-97059067D02*
X166373610Y-97036388D01*
X166373610Y-97036388D02*
X166343372Y-97040168D01*
X166343372Y-97040168D02*
X166282896Y-97077966D01*
X166282896Y-97077966D02*
X166252658Y-97111984D01*
X166252658Y-97111984D02*
X166222420Y-97176240D01*
X166222420Y-97176240D02*
X166222420Y-97297192D01*
X166222420Y-97297192D02*
X166252658Y-97353888D01*
X166252658Y-97353888D02*
X166282896Y-97380347D01*
X166282896Y-97380347D02*
X166343372Y-97403025D01*
X166343372Y-97403025D02*
X166373610Y-97399245D01*
X166373610Y-97399245D02*
X166434086Y-97361448D01*
X166434086Y-97361448D02*
X166464324Y-97327430D01*
X166464324Y-97327430D02*
X166494562Y-97263174D01*
X166494562Y-97263174D02*
X166494562Y-97142222D01*
X166494562Y-97142222D02*
X166524801Y-97077966D01*
X166524801Y-97077966D02*
X166555039Y-97043948D01*
X166555039Y-97043948D02*
X166615515Y-97006150D01*
X166615515Y-97006150D02*
X166736467Y-96991031D01*
X166736467Y-96991031D02*
X166796943Y-97013710D01*
X166796943Y-97013710D02*
X166827182Y-97040168D01*
X166827182Y-97040168D02*
X166857420Y-97096865D01*
X166857420Y-97096865D02*
X166857420Y-97217817D01*
X166857420Y-97217817D02*
X166827182Y-97282073D01*
X166827182Y-97282073D02*
X166796943Y-97316091D01*
X166796943Y-97316091D02*
X166736467Y-97353888D01*
X166736467Y-97353888D02*
X166615515Y-97369007D01*
X166615515Y-97369007D02*
X166555039Y-97346329D01*
X166555039Y-97346329D02*
X166524801Y-97319870D01*
X166524801Y-97319870D02*
X166494562Y-97263174D01*
X141834323Y-131779584D02*
X141864562Y-131745566D01*
X141864562Y-131745566D02*
X141894800Y-131651072D01*
X141894800Y-131651072D02*
X141894800Y-131590596D01*
X141894800Y-131590596D02*
X141864562Y-131503661D01*
X141864562Y-131503661D02*
X141804085Y-131450745D01*
X141804085Y-131450745D02*
X141743609Y-131428066D01*
X141743609Y-131428066D02*
X141622657Y-131412947D01*
X141622657Y-131412947D02*
X141531942Y-131424286D01*
X141531942Y-131424286D02*
X141410990Y-131469643D01*
X141410990Y-131469643D02*
X141350514Y-131507441D01*
X141350514Y-131507441D02*
X141290038Y-131575477D01*
X141290038Y-131575477D02*
X141259800Y-131669971D01*
X141259800Y-131669971D02*
X141259800Y-131730447D01*
X141259800Y-131730447D02*
X141290038Y-131817382D01*
X141290038Y-131817382D02*
X141320276Y-131843840D01*
X141894800Y-132376786D02*
X141894800Y-132013929D01*
X141894800Y-132195358D02*
X141259800Y-132274733D01*
X141259800Y-132274733D02*
X141350514Y-132202917D01*
X141350514Y-132202917D02*
X141410990Y-132134882D01*
X141410990Y-132134882D02*
X141441228Y-132070626D01*
X141320276Y-132690507D02*
X141290038Y-132724524D01*
X141290038Y-132724524D02*
X141259800Y-132788780D01*
X141259800Y-132788780D02*
X141259800Y-132939971D01*
X141259800Y-132939971D02*
X141290038Y-132996667D01*
X141290038Y-132996667D02*
X141320276Y-133023126D01*
X141320276Y-133023126D02*
X141380752Y-133045804D01*
X141380752Y-133045804D02*
X141441228Y-133038245D01*
X141441228Y-133038245D02*
X141531942Y-132996667D01*
X141531942Y-132996667D02*
X141894800Y-132588453D01*
X141894800Y-132588453D02*
X141894800Y-132981548D01*
X141259800Y-133635447D02*
X141259800Y-133333066D01*
X141259800Y-133333066D02*
X141562181Y-133265031D01*
X141562181Y-133265031D02*
X141531942Y-133299048D01*
X141531942Y-133299048D02*
X141501704Y-133363304D01*
X141501704Y-133363304D02*
X141501704Y-133514495D01*
X141501704Y-133514495D02*
X141531942Y-133571191D01*
X141531942Y-133571191D02*
X141562181Y-133597650D01*
X141562181Y-133597650D02*
X141622657Y-133620328D01*
X141622657Y-133620328D02*
X141773847Y-133601429D01*
X141773847Y-133601429D02*
X141834323Y-133563632D01*
X141834323Y-133563632D02*
X141864562Y-133529614D01*
X141864562Y-133529614D02*
X141894800Y-133465358D01*
X141894800Y-133465358D02*
X141894800Y-133314167D01*
X141894800Y-133314167D02*
X141864562Y-133257471D01*
X141864562Y-133257471D02*
X141834323Y-133231013D01*
X173614594Y-84414600D02*
X173788463Y-84112219D01*
X173977451Y-84414600D02*
X173898076Y-83779600D01*
X173898076Y-83779600D02*
X173656171Y-83779600D01*
X173656171Y-83779600D02*
X173599475Y-83809838D01*
X173599475Y-83809838D02*
X173573016Y-83840076D01*
X173573016Y-83840076D02*
X173550338Y-83900552D01*
X173550338Y-83900552D02*
X173561677Y-83991266D01*
X173561677Y-83991266D02*
X173599475Y-84051742D01*
X173599475Y-84051742D02*
X173633492Y-84081981D01*
X173633492Y-84081981D02*
X173697748Y-84112219D01*
X173697748Y-84112219D02*
X173939653Y-84112219D01*
X173009832Y-84414600D02*
X173372689Y-84414600D01*
X173191260Y-84414600D02*
X173111885Y-83779600D01*
X173111885Y-83779600D02*
X173183701Y-83870314D01*
X173183701Y-83870314D02*
X173251737Y-83930790D01*
X173251737Y-83930790D02*
X173315992Y-83961028D01*
X172537361Y-83779600D02*
X172476885Y-83779600D01*
X172476885Y-83779600D02*
X172420189Y-83809838D01*
X172420189Y-83809838D02*
X172393730Y-83840076D01*
X172393730Y-83840076D02*
X172371052Y-83900552D01*
X172371052Y-83900552D02*
X172355933Y-84021504D01*
X172355933Y-84021504D02*
X172374832Y-84172695D01*
X172374832Y-84172695D02*
X172420189Y-84293647D01*
X172420189Y-84293647D02*
X172457986Y-84354123D01*
X172457986Y-84354123D02*
X172492004Y-84384362D01*
X172492004Y-84384362D02*
X172556260Y-84414600D01*
X172556260Y-84414600D02*
X172616736Y-84414600D01*
X172616736Y-84414600D02*
X172673433Y-84384362D01*
X172673433Y-84384362D02*
X172699891Y-84354123D01*
X172699891Y-84354123D02*
X172722570Y-84293647D01*
X172722570Y-84293647D02*
X172737689Y-84172695D01*
X172737689Y-84172695D02*
X172718790Y-84021504D01*
X172718790Y-84021504D02*
X172673433Y-83900552D01*
X172673433Y-83900552D02*
X172635635Y-83840076D01*
X172635635Y-83840076D02*
X172601617Y-83809838D01*
X172601617Y-83809838D02*
X172537361Y-83779600D01*
D11*
X175267209Y-74247476D02*
X175267209Y-73914143D01*
X175791019Y-73914143D02*
X174791019Y-73914143D01*
X174791019Y-73914143D02*
X174791019Y-74390333D01*
X175505304Y-74723667D02*
X175505304Y-75199857D01*
X175791019Y-74628429D02*
X174791019Y-74961762D01*
X174791019Y-74961762D02*
X175791019Y-75295095D01*
X175791019Y-75628429D02*
X174791019Y-75628429D01*
X174791019Y-75628429D02*
X175791019Y-76199857D01*
X175791019Y-76199857D02*
X174791019Y-76199857D01*
D10*
X175514723Y-126290765D02*
X175544962Y-126256747D01*
X175544962Y-126256747D02*
X175575200Y-126162253D01*
X175575200Y-126162253D02*
X175575200Y-126101777D01*
X175575200Y-126101777D02*
X175544962Y-126014842D01*
X175544962Y-126014842D02*
X175484485Y-125961926D01*
X175484485Y-125961926D02*
X175424009Y-125939247D01*
X175424009Y-125939247D02*
X175303057Y-125924128D01*
X175303057Y-125924128D02*
X175212342Y-125935467D01*
X175212342Y-125935467D02*
X175091390Y-125980824D01*
X175091390Y-125980824D02*
X175030914Y-126018622D01*
X175030914Y-126018622D02*
X174970438Y-126086658D01*
X174970438Y-126086658D02*
X174940200Y-126181152D01*
X174940200Y-126181152D02*
X174940200Y-126241628D01*
X174940200Y-126241628D02*
X174970438Y-126328563D01*
X174970438Y-126328563D02*
X175000676Y-126355021D01*
X175000676Y-126596926D02*
X174970438Y-126630943D01*
X174970438Y-126630943D02*
X174940200Y-126695199D01*
X174940200Y-126695199D02*
X174940200Y-126846390D01*
X174940200Y-126846390D02*
X174970438Y-126903086D01*
X174970438Y-126903086D02*
X175000676Y-126929545D01*
X175000676Y-126929545D02*
X175061152Y-126952223D01*
X175061152Y-126952223D02*
X175121628Y-126944664D01*
X175121628Y-126944664D02*
X175212342Y-126903086D01*
X175212342Y-126903086D02*
X175575200Y-126494872D01*
X175575200Y-126494872D02*
X175575200Y-126887967D01*
X174940200Y-127360438D02*
X174940200Y-127420914D01*
X174940200Y-127420914D02*
X174970438Y-127477610D01*
X174970438Y-127477610D02*
X175000676Y-127504069D01*
X175000676Y-127504069D02*
X175061152Y-127526747D01*
X175061152Y-127526747D02*
X175182104Y-127541866D01*
X175182104Y-127541866D02*
X175333295Y-127522967D01*
X175333295Y-127522967D02*
X175454247Y-127477610D01*
X175454247Y-127477610D02*
X175514723Y-127439813D01*
X175514723Y-127439813D02*
X175544962Y-127405795D01*
X175544962Y-127405795D02*
X175575200Y-127341539D01*
X175575200Y-127341539D02*
X175575200Y-127281063D01*
X175575200Y-127281063D02*
X175544962Y-127224366D01*
X175544962Y-127224366D02*
X175514723Y-127197908D01*
X175514723Y-127197908D02*
X175454247Y-127175229D01*
X175454247Y-127175229D02*
X175333295Y-127160110D01*
X175333295Y-127160110D02*
X175182104Y-127179009D01*
X175182104Y-127179009D02*
X175061152Y-127224366D01*
X175061152Y-127224366D02*
X175000676Y-127262164D01*
X175000676Y-127262164D02*
X174970438Y-127296182D01*
X174970438Y-127296182D02*
X174940200Y-127360438D01*
X140538923Y-81318464D02*
X140569162Y-81284446D01*
X140569162Y-81284446D02*
X140599400Y-81189952D01*
X140599400Y-81189952D02*
X140599400Y-81129476D01*
X140599400Y-81129476D02*
X140569162Y-81042541D01*
X140569162Y-81042541D02*
X140508685Y-80989625D01*
X140508685Y-80989625D02*
X140448209Y-80966946D01*
X140448209Y-80966946D02*
X140327257Y-80951827D01*
X140327257Y-80951827D02*
X140236542Y-80963166D01*
X140236542Y-80963166D02*
X140115590Y-81008523D01*
X140115590Y-81008523D02*
X140055114Y-81046321D01*
X140055114Y-81046321D02*
X139994638Y-81114357D01*
X139994638Y-81114357D02*
X139964400Y-81208851D01*
X139964400Y-81208851D02*
X139964400Y-81269327D01*
X139964400Y-81269327D02*
X139994638Y-81356262D01*
X139994638Y-81356262D02*
X140024876Y-81382720D01*
X140599400Y-81915666D02*
X140599400Y-81552809D01*
X140599400Y-81734238D02*
X139964400Y-81813613D01*
X139964400Y-81813613D02*
X140055114Y-81741797D01*
X140055114Y-81741797D02*
X140115590Y-81673762D01*
X140115590Y-81673762D02*
X140145828Y-81609506D01*
X140599400Y-82520428D02*
X140599400Y-82157571D01*
X140599400Y-82339000D02*
X139964400Y-82418375D01*
X139964400Y-82418375D02*
X140055114Y-82346559D01*
X140055114Y-82346559D02*
X140115590Y-82278524D01*
X140115590Y-82278524D02*
X140145828Y-82214268D01*
X139964400Y-83144089D02*
X139964400Y-83023137D01*
X139964400Y-83023137D02*
X139994638Y-82958881D01*
X139994638Y-82958881D02*
X140024876Y-82924863D01*
X140024876Y-82924863D02*
X140115590Y-82853047D01*
X140115590Y-82853047D02*
X140236542Y-82807690D01*
X140236542Y-82807690D02*
X140478447Y-82777452D01*
X140478447Y-82777452D02*
X140538923Y-82800131D01*
X140538923Y-82800131D02*
X140569162Y-82826589D01*
X140569162Y-82826589D02*
X140599400Y-82883286D01*
X140599400Y-82883286D02*
X140599400Y-83004238D01*
X140599400Y-83004238D02*
X140569162Y-83068494D01*
X140569162Y-83068494D02*
X140538923Y-83102512D01*
X140538923Y-83102512D02*
X140478447Y-83140309D01*
X140478447Y-83140309D02*
X140327257Y-83159208D01*
X140327257Y-83159208D02*
X140266781Y-83136530D01*
X140266781Y-83136530D02*
X140236542Y-83110071D01*
X140236542Y-83110071D02*
X140206304Y-83053375D01*
X140206304Y-83053375D02*
X140206304Y-82932422D01*
X140206304Y-82932422D02*
X140236542Y-82868166D01*
X140236542Y-82868166D02*
X140266781Y-82834149D01*
X140266781Y-82834149D02*
X140327257Y-82796351D01*
X180696053Y-101397523D02*
X180730071Y-101427762D01*
X180730071Y-101427762D02*
X180824565Y-101458000D01*
X180824565Y-101458000D02*
X180885041Y-101458000D01*
X180885041Y-101458000D02*
X180971976Y-101427762D01*
X180971976Y-101427762D02*
X181024892Y-101367285D01*
X181024892Y-101367285D02*
X181047571Y-101306809D01*
X181047571Y-101306809D02*
X181062690Y-101185857D01*
X181062690Y-101185857D02*
X181051351Y-101095142D01*
X181051351Y-101095142D02*
X181005994Y-100974190D01*
X181005994Y-100974190D02*
X180968196Y-100913714D01*
X180968196Y-100913714D02*
X180900160Y-100853238D01*
X180900160Y-100853238D02*
X180805666Y-100823000D01*
X180805666Y-100823000D02*
X180745190Y-100823000D01*
X180745190Y-100823000D02*
X180658256Y-100853238D01*
X180658256Y-100853238D02*
X180631797Y-100883476D01*
X180389892Y-100883476D02*
X180355875Y-100853238D01*
X180355875Y-100853238D02*
X180291619Y-100823000D01*
X180291619Y-100823000D02*
X180140428Y-100823000D01*
X180140428Y-100823000D02*
X180083732Y-100853238D01*
X180083732Y-100853238D02*
X180057273Y-100883476D01*
X180057273Y-100883476D02*
X180034595Y-100943952D01*
X180034595Y-100943952D02*
X180042154Y-101004428D01*
X180042154Y-101004428D02*
X180083732Y-101095142D01*
X180083732Y-101095142D02*
X180491946Y-101458000D01*
X180491946Y-101458000D02*
X180098851Y-101458000D01*
X179654923Y-92889765D02*
X179685162Y-92855747D01*
X179685162Y-92855747D02*
X179715400Y-92761253D01*
X179715400Y-92761253D02*
X179715400Y-92700777D01*
X179715400Y-92700777D02*
X179685162Y-92613842D01*
X179685162Y-92613842D02*
X179624685Y-92560926D01*
X179624685Y-92560926D02*
X179564209Y-92538247D01*
X179564209Y-92538247D02*
X179443257Y-92523128D01*
X179443257Y-92523128D02*
X179352542Y-92534467D01*
X179352542Y-92534467D02*
X179231590Y-92579824D01*
X179231590Y-92579824D02*
X179171114Y-92617622D01*
X179171114Y-92617622D02*
X179110638Y-92685658D01*
X179110638Y-92685658D02*
X179080400Y-92780152D01*
X179080400Y-92780152D02*
X179080400Y-92840628D01*
X179080400Y-92840628D02*
X179110638Y-92927563D01*
X179110638Y-92927563D02*
X179140876Y-92954021D01*
X179715400Y-93486967D02*
X179715400Y-93124110D01*
X179715400Y-93305539D02*
X179080400Y-93384914D01*
X179080400Y-93384914D02*
X179171114Y-93313098D01*
X179171114Y-93313098D02*
X179231590Y-93245063D01*
X179231590Y-93245063D02*
X179261828Y-93180807D01*
X179080400Y-93778009D02*
X179080400Y-94171104D01*
X179080400Y-94171104D02*
X179322304Y-93929200D01*
X179322304Y-93929200D02*
X179322304Y-94019914D01*
X179322304Y-94019914D02*
X179352542Y-94076610D01*
X179352542Y-94076610D02*
X179382781Y-94103069D01*
X179382781Y-94103069D02*
X179443257Y-94125747D01*
X179443257Y-94125747D02*
X179594447Y-94106848D01*
X179594447Y-94106848D02*
X179654923Y-94069051D01*
X179654923Y-94069051D02*
X179685162Y-94035033D01*
X179685162Y-94035033D02*
X179715400Y-93970777D01*
X179715400Y-93970777D02*
X179715400Y-93789348D01*
X179715400Y-93789348D02*
X179685162Y-93732652D01*
X179685162Y-93732652D02*
X179654923Y-93706194D01*
X173639994Y-92212400D02*
X173813863Y-91910019D01*
X174002851Y-92212400D02*
X173923476Y-91577400D01*
X173923476Y-91577400D02*
X173681571Y-91577400D01*
X173681571Y-91577400D02*
X173624875Y-91607638D01*
X173624875Y-91607638D02*
X173598416Y-91637876D01*
X173598416Y-91637876D02*
X173575738Y-91698352D01*
X173575738Y-91698352D02*
X173587077Y-91789066D01*
X173587077Y-91789066D02*
X173624875Y-91849542D01*
X173624875Y-91849542D02*
X173658892Y-91879781D01*
X173658892Y-91879781D02*
X173723148Y-91910019D01*
X173723148Y-91910019D02*
X173965053Y-91910019D01*
X173035232Y-92212400D02*
X173398089Y-92212400D01*
X173216660Y-92212400D02*
X173137285Y-91577400D01*
X173137285Y-91577400D02*
X173209101Y-91668114D01*
X173209101Y-91668114D02*
X173277137Y-91728590D01*
X173277137Y-91728590D02*
X173341392Y-91758828D01*
X172721511Y-91637876D02*
X172687494Y-91607638D01*
X172687494Y-91607638D02*
X172623238Y-91577400D01*
X172623238Y-91577400D02*
X172472047Y-91577400D01*
X172472047Y-91577400D02*
X172415351Y-91607638D01*
X172415351Y-91607638D02*
X172388892Y-91637876D01*
X172388892Y-91637876D02*
X172366214Y-91698352D01*
X172366214Y-91698352D02*
X172373773Y-91758828D01*
X172373773Y-91758828D02*
X172415351Y-91849542D01*
X172415351Y-91849542D02*
X172823565Y-92212400D01*
X172823565Y-92212400D02*
X172430470Y-92212400D01*
X159405543Y-129766805D02*
X159435782Y-129732787D01*
X159435782Y-129732787D02*
X159466020Y-129638293D01*
X159466020Y-129638293D02*
X159466020Y-129577817D01*
X159466020Y-129577817D02*
X159435782Y-129490882D01*
X159435782Y-129490882D02*
X159375305Y-129437966D01*
X159375305Y-129437966D02*
X159314829Y-129415287D01*
X159314829Y-129415287D02*
X159193877Y-129400168D01*
X159193877Y-129400168D02*
X159103162Y-129411507D01*
X159103162Y-129411507D02*
X158982210Y-129456864D01*
X158982210Y-129456864D02*
X158921734Y-129494662D01*
X158921734Y-129494662D02*
X158861258Y-129562698D01*
X158861258Y-129562698D02*
X158831020Y-129657192D01*
X158831020Y-129657192D02*
X158831020Y-129717668D01*
X158831020Y-129717668D02*
X158861258Y-129804603D01*
X158861258Y-129804603D02*
X158891496Y-129831061D01*
X158831020Y-130382906D02*
X158831020Y-130261954D01*
X158831020Y-130261954D02*
X158861258Y-130197698D01*
X158861258Y-130197698D02*
X158891496Y-130163680D01*
X158891496Y-130163680D02*
X158982210Y-130091864D01*
X158982210Y-130091864D02*
X159103162Y-130046507D01*
X159103162Y-130046507D02*
X159345067Y-130016269D01*
X159345067Y-130016269D02*
X159405543Y-130038948D01*
X159405543Y-130038948D02*
X159435782Y-130065406D01*
X159435782Y-130065406D02*
X159466020Y-130122103D01*
X159466020Y-130122103D02*
X159466020Y-130243055D01*
X159466020Y-130243055D02*
X159435782Y-130307311D01*
X159435782Y-130307311D02*
X159405543Y-130341329D01*
X159405543Y-130341329D02*
X159345067Y-130379126D01*
X159345067Y-130379126D02*
X159193877Y-130398025D01*
X159193877Y-130398025D02*
X159133401Y-130375347D01*
X159133401Y-130375347D02*
X159103162Y-130348888D01*
X159103162Y-130348888D02*
X159072924Y-130292192D01*
X159072924Y-130292192D02*
X159072924Y-130171239D01*
X159072924Y-130171239D02*
X159103162Y-130106983D01*
X159103162Y-130106983D02*
X159133401Y-130072966D01*
X159133401Y-130072966D02*
X159193877Y-130035168D01*
X158831020Y-130987668D02*
X158831020Y-130866716D01*
X158831020Y-130866716D02*
X158861258Y-130802460D01*
X158861258Y-130802460D02*
X158891496Y-130768442D01*
X158891496Y-130768442D02*
X158982210Y-130696626D01*
X158982210Y-130696626D02*
X159103162Y-130651269D01*
X159103162Y-130651269D02*
X159345067Y-130621031D01*
X159345067Y-130621031D02*
X159405543Y-130643710D01*
X159405543Y-130643710D02*
X159435782Y-130670168D01*
X159435782Y-130670168D02*
X159466020Y-130726865D01*
X159466020Y-130726865D02*
X159466020Y-130847817D01*
X159466020Y-130847817D02*
X159435782Y-130912073D01*
X159435782Y-130912073D02*
X159405543Y-130946091D01*
X159405543Y-130946091D02*
X159345067Y-130983888D01*
X159345067Y-130983888D02*
X159193877Y-131002787D01*
X159193877Y-131002787D02*
X159133401Y-130980109D01*
X159133401Y-130980109D02*
X159103162Y-130953650D01*
X159103162Y-130953650D02*
X159072924Y-130896954D01*
X159072924Y-130896954D02*
X159072924Y-130776001D01*
X159072924Y-130776001D02*
X159103162Y-130711745D01*
X159103162Y-130711745D02*
X159133401Y-130677728D01*
X159133401Y-130677728D02*
X159193877Y-130639930D01*
X137998923Y-97997584D02*
X138029162Y-97963566D01*
X138029162Y-97963566D02*
X138059400Y-97869072D01*
X138059400Y-97869072D02*
X138059400Y-97808596D01*
X138059400Y-97808596D02*
X138029162Y-97721661D01*
X138029162Y-97721661D02*
X137968685Y-97668745D01*
X137968685Y-97668745D02*
X137908209Y-97646066D01*
X137908209Y-97646066D02*
X137787257Y-97630947D01*
X137787257Y-97630947D02*
X137696542Y-97642286D01*
X137696542Y-97642286D02*
X137575590Y-97687643D01*
X137575590Y-97687643D02*
X137515114Y-97725441D01*
X137515114Y-97725441D02*
X137454638Y-97793477D01*
X137454638Y-97793477D02*
X137424400Y-97887971D01*
X137424400Y-97887971D02*
X137424400Y-97948447D01*
X137424400Y-97948447D02*
X137454638Y-98035382D01*
X137454638Y-98035382D02*
X137484876Y-98061840D01*
X138059400Y-98594786D02*
X138059400Y-98231929D01*
X138059400Y-98413358D02*
X137424400Y-98492733D01*
X137424400Y-98492733D02*
X137515114Y-98420917D01*
X137515114Y-98420917D02*
X137575590Y-98352882D01*
X137575590Y-98352882D02*
X137605828Y-98288626D01*
X137484876Y-98908507D02*
X137454638Y-98942524D01*
X137454638Y-98942524D02*
X137424400Y-99006780D01*
X137424400Y-99006780D02*
X137424400Y-99157971D01*
X137424400Y-99157971D02*
X137454638Y-99214667D01*
X137454638Y-99214667D02*
X137484876Y-99241126D01*
X137484876Y-99241126D02*
X137545352Y-99263804D01*
X137545352Y-99263804D02*
X137605828Y-99256245D01*
X137605828Y-99256245D02*
X137696542Y-99214667D01*
X137696542Y-99214667D02*
X138059400Y-98806453D01*
X138059400Y-98806453D02*
X138059400Y-99199548D01*
X137424400Y-99490590D02*
X137424400Y-99913923D01*
X137424400Y-99913923D02*
X138059400Y-99562406D01*
X180772253Y-82957123D02*
X180806271Y-82987362D01*
X180806271Y-82987362D02*
X180900765Y-83017600D01*
X180900765Y-83017600D02*
X180961241Y-83017600D01*
X180961241Y-83017600D02*
X181048176Y-82987362D01*
X181048176Y-82987362D02*
X181101092Y-82926885D01*
X181101092Y-82926885D02*
X181123771Y-82866409D01*
X181123771Y-82866409D02*
X181138890Y-82745457D01*
X181138890Y-82745457D02*
X181127551Y-82654742D01*
X181127551Y-82654742D02*
X181082194Y-82533790D01*
X181082194Y-82533790D02*
X181044396Y-82473314D01*
X181044396Y-82473314D02*
X180976360Y-82412838D01*
X180976360Y-82412838D02*
X180881866Y-82382600D01*
X180881866Y-82382600D02*
X180821390Y-82382600D01*
X180821390Y-82382600D02*
X180734456Y-82412838D01*
X180734456Y-82412838D02*
X180707997Y-82443076D01*
X180371598Y-82654742D02*
X180428295Y-82624504D01*
X180428295Y-82624504D02*
X180454753Y-82594266D01*
X180454753Y-82594266D02*
X180477432Y-82533790D01*
X180477432Y-82533790D02*
X180473652Y-82503552D01*
X180473652Y-82503552D02*
X180435854Y-82443076D01*
X180435854Y-82443076D02*
X180401836Y-82412838D01*
X180401836Y-82412838D02*
X180337581Y-82382600D01*
X180337581Y-82382600D02*
X180216628Y-82382600D01*
X180216628Y-82382600D02*
X180159932Y-82412838D01*
X180159932Y-82412838D02*
X180133473Y-82443076D01*
X180133473Y-82443076D02*
X180110795Y-82503552D01*
X180110795Y-82503552D02*
X180114575Y-82533790D01*
X180114575Y-82533790D02*
X180152372Y-82594266D01*
X180152372Y-82594266D02*
X180186390Y-82624504D01*
X180186390Y-82624504D02*
X180250646Y-82654742D01*
X180250646Y-82654742D02*
X180371598Y-82654742D01*
X180371598Y-82654742D02*
X180435854Y-82684981D01*
X180435854Y-82684981D02*
X180469872Y-82715219D01*
X180469872Y-82715219D02*
X180507670Y-82775695D01*
X180507670Y-82775695D02*
X180522789Y-82896647D01*
X180522789Y-82896647D02*
X180500110Y-82957123D01*
X180500110Y-82957123D02*
X180473652Y-82987362D01*
X180473652Y-82987362D02*
X180416956Y-83017600D01*
X180416956Y-83017600D02*
X180296003Y-83017600D01*
X180296003Y-83017600D02*
X180231747Y-82987362D01*
X180231747Y-82987362D02*
X180197729Y-82957123D01*
X180197729Y-82957123D02*
X180159932Y-82896647D01*
X180159932Y-82896647D02*
X180144813Y-82775695D01*
X180144813Y-82775695D02*
X180167491Y-82715219D01*
X180167491Y-82715219D02*
X180193950Y-82684981D01*
X180193950Y-82684981D02*
X180250646Y-82654742D01*
X159430943Y-112674824D02*
X159461182Y-112640806D01*
X159461182Y-112640806D02*
X159491420Y-112546312D01*
X159491420Y-112546312D02*
X159491420Y-112485836D01*
X159491420Y-112485836D02*
X159461182Y-112398901D01*
X159461182Y-112398901D02*
X159400705Y-112345985D01*
X159400705Y-112345985D02*
X159340229Y-112323306D01*
X159340229Y-112323306D02*
X159219277Y-112308187D01*
X159219277Y-112308187D02*
X159128562Y-112319526D01*
X159128562Y-112319526D02*
X159007610Y-112364883D01*
X159007610Y-112364883D02*
X158947134Y-112402681D01*
X158947134Y-112402681D02*
X158886658Y-112470717D01*
X158886658Y-112470717D02*
X158856420Y-112565211D01*
X158856420Y-112565211D02*
X158856420Y-112625687D01*
X158856420Y-112625687D02*
X158886658Y-112712622D01*
X158886658Y-112712622D02*
X158916896Y-112739080D01*
X159491420Y-113272026D02*
X159491420Y-112909169D01*
X159491420Y-113090598D02*
X158856420Y-113169973D01*
X158856420Y-113169973D02*
X158947134Y-113098157D01*
X158947134Y-113098157D02*
X159007610Y-113030122D01*
X159007610Y-113030122D02*
X159037848Y-112965866D01*
X158856420Y-113744497D02*
X158856420Y-113804973D01*
X158856420Y-113804973D02*
X158886658Y-113861669D01*
X158886658Y-113861669D02*
X158916896Y-113888128D01*
X158916896Y-113888128D02*
X158977372Y-113910806D01*
X158977372Y-113910806D02*
X159098324Y-113925925D01*
X159098324Y-113925925D02*
X159249515Y-113907026D01*
X159249515Y-113907026D02*
X159370467Y-113861669D01*
X159370467Y-113861669D02*
X159430943Y-113823872D01*
X159430943Y-113823872D02*
X159461182Y-113789854D01*
X159461182Y-113789854D02*
X159491420Y-113725598D01*
X159491420Y-113725598D02*
X159491420Y-113665122D01*
X159491420Y-113665122D02*
X159461182Y-113608425D01*
X159461182Y-113608425D02*
X159430943Y-113581967D01*
X159430943Y-113581967D02*
X159370467Y-113559288D01*
X159370467Y-113559288D02*
X159249515Y-113544169D01*
X159249515Y-113544169D02*
X159098324Y-113563068D01*
X159098324Y-113563068D02*
X158977372Y-113608425D01*
X158977372Y-113608425D02*
X158916896Y-113646223D01*
X158916896Y-113646223D02*
X158886658Y-113680241D01*
X158886658Y-113680241D02*
X158856420Y-113744497D01*
X158916896Y-114190509D02*
X158886658Y-114224526D01*
X158886658Y-114224526D02*
X158856420Y-114288782D01*
X158856420Y-114288782D02*
X158856420Y-114439973D01*
X158856420Y-114439973D02*
X158886658Y-114496669D01*
X158886658Y-114496669D02*
X158916896Y-114523128D01*
X158916896Y-114523128D02*
X158977372Y-114545806D01*
X158977372Y-114545806D02*
X159037848Y-114538247D01*
X159037848Y-114538247D02*
X159128562Y-114496669D01*
X159128562Y-114496669D02*
X159491420Y-114088455D01*
X159491420Y-114088455D02*
X159491420Y-114481550D01*
X141834323Y-114913984D02*
X141864562Y-114879966D01*
X141864562Y-114879966D02*
X141894800Y-114785472D01*
X141894800Y-114785472D02*
X141894800Y-114724996D01*
X141894800Y-114724996D02*
X141864562Y-114638061D01*
X141864562Y-114638061D02*
X141804085Y-114585145D01*
X141804085Y-114585145D02*
X141743609Y-114562466D01*
X141743609Y-114562466D02*
X141622657Y-114547347D01*
X141622657Y-114547347D02*
X141531942Y-114558686D01*
X141531942Y-114558686D02*
X141410990Y-114604043D01*
X141410990Y-114604043D02*
X141350514Y-114641841D01*
X141350514Y-114641841D02*
X141290038Y-114709877D01*
X141290038Y-114709877D02*
X141259800Y-114804371D01*
X141259800Y-114804371D02*
X141259800Y-114864847D01*
X141259800Y-114864847D02*
X141290038Y-114951782D01*
X141290038Y-114951782D02*
X141320276Y-114978240D01*
X141894800Y-115511186D02*
X141894800Y-115148329D01*
X141894800Y-115329758D02*
X141259800Y-115409133D01*
X141259800Y-115409133D02*
X141350514Y-115337317D01*
X141350514Y-115337317D02*
X141410990Y-115269282D01*
X141410990Y-115269282D02*
X141441228Y-115205026D01*
X141320276Y-115824907D02*
X141290038Y-115858924D01*
X141290038Y-115858924D02*
X141259800Y-115923180D01*
X141259800Y-115923180D02*
X141259800Y-116074371D01*
X141259800Y-116074371D02*
X141290038Y-116131067D01*
X141290038Y-116131067D02*
X141320276Y-116157526D01*
X141320276Y-116157526D02*
X141380752Y-116180204D01*
X141380752Y-116180204D02*
X141441228Y-116172645D01*
X141441228Y-116172645D02*
X141531942Y-116131067D01*
X141531942Y-116131067D02*
X141894800Y-115722853D01*
X141894800Y-115722853D02*
X141894800Y-116115948D01*
X141894800Y-116720710D02*
X141894800Y-116357853D01*
X141894800Y-116539282D02*
X141259800Y-116618657D01*
X141259800Y-116618657D02*
X141350514Y-116546841D01*
X141350514Y-116546841D02*
X141410990Y-116478806D01*
X141410990Y-116478806D02*
X141441228Y-116414550D01*
X136749223Y-131768304D02*
X136779462Y-131734286D01*
X136779462Y-131734286D02*
X136809700Y-131639792D01*
X136809700Y-131639792D02*
X136809700Y-131579316D01*
X136809700Y-131579316D02*
X136779462Y-131492381D01*
X136779462Y-131492381D02*
X136718985Y-131439465D01*
X136718985Y-131439465D02*
X136658509Y-131416786D01*
X136658509Y-131416786D02*
X136537557Y-131401667D01*
X136537557Y-131401667D02*
X136446842Y-131413006D01*
X136446842Y-131413006D02*
X136325890Y-131458363D01*
X136325890Y-131458363D02*
X136265414Y-131496161D01*
X136265414Y-131496161D02*
X136204938Y-131564197D01*
X136204938Y-131564197D02*
X136174700Y-131658691D01*
X136174700Y-131658691D02*
X136174700Y-131719167D01*
X136174700Y-131719167D02*
X136204938Y-131806102D01*
X136204938Y-131806102D02*
X136235176Y-131832560D01*
X136809700Y-132365506D02*
X136809700Y-132002649D01*
X136809700Y-132184078D02*
X136174700Y-132263453D01*
X136174700Y-132263453D02*
X136265414Y-132191637D01*
X136265414Y-132191637D02*
X136325890Y-132123602D01*
X136325890Y-132123602D02*
X136356128Y-132059346D01*
X136235176Y-132679227D02*
X136204938Y-132713244D01*
X136204938Y-132713244D02*
X136174700Y-132777500D01*
X136174700Y-132777500D02*
X136174700Y-132928691D01*
X136174700Y-132928691D02*
X136204938Y-132985387D01*
X136204938Y-132985387D02*
X136235176Y-133011846D01*
X136235176Y-133011846D02*
X136295652Y-133034524D01*
X136295652Y-133034524D02*
X136356128Y-133026965D01*
X136356128Y-133026965D02*
X136446842Y-132985387D01*
X136446842Y-132985387D02*
X136809700Y-132577173D01*
X136809700Y-132577173D02*
X136809700Y-132970268D01*
X136235176Y-133283989D02*
X136204938Y-133318006D01*
X136204938Y-133318006D02*
X136174700Y-133382262D01*
X136174700Y-133382262D02*
X136174700Y-133533453D01*
X136174700Y-133533453D02*
X136204938Y-133590149D01*
X136204938Y-133590149D02*
X136235176Y-133616608D01*
X136235176Y-133616608D02*
X136295652Y-133639286D01*
X136295652Y-133639286D02*
X136356128Y-133631727D01*
X136356128Y-133631727D02*
X136446842Y-133590149D01*
X136446842Y-133590149D02*
X136809700Y-133181935D01*
X136809700Y-133181935D02*
X136809700Y-133575030D01*
X175651400Y-99331386D02*
X175349019Y-99157517D01*
X175651400Y-98968529D02*
X175016400Y-99047904D01*
X175016400Y-99047904D02*
X175016400Y-99289809D01*
X175016400Y-99289809D02*
X175046638Y-99346505D01*
X175046638Y-99346505D02*
X175076876Y-99372964D01*
X175076876Y-99372964D02*
X175137352Y-99395642D01*
X175137352Y-99395642D02*
X175228066Y-99384303D01*
X175228066Y-99384303D02*
X175288542Y-99346505D01*
X175288542Y-99346505D02*
X175318781Y-99312488D01*
X175318781Y-99312488D02*
X175349019Y-99248232D01*
X175349019Y-99248232D02*
X175349019Y-99006327D01*
X175651400Y-99936148D02*
X175651400Y-99573291D01*
X175651400Y-99754720D02*
X175016400Y-99834095D01*
X175016400Y-99834095D02*
X175107114Y-99762279D01*
X175107114Y-99762279D02*
X175167590Y-99694244D01*
X175167590Y-99694244D02*
X175197828Y-99629988D01*
X122005271Y-68031600D02*
X122061968Y-68485171D01*
X122061968Y-68485171D02*
X122103545Y-68575885D01*
X122103545Y-68575885D02*
X122171581Y-68636362D01*
X122171581Y-68636362D02*
X122266075Y-68666600D01*
X122266075Y-68666600D02*
X122326551Y-68666600D01*
X121763366Y-68031600D02*
X121370271Y-68031600D01*
X121370271Y-68031600D02*
X121612176Y-68273504D01*
X121612176Y-68273504D02*
X121521461Y-68273504D01*
X121521461Y-68273504D02*
X121464765Y-68303742D01*
X121464765Y-68303742D02*
X121438306Y-68333981D01*
X121438306Y-68333981D02*
X121415628Y-68394457D01*
X121415628Y-68394457D02*
X121434527Y-68545647D01*
X121434527Y-68545647D02*
X121472324Y-68606123D01*
X121472324Y-68606123D02*
X121506342Y-68636362D01*
X121506342Y-68636362D02*
X121570598Y-68666600D01*
X121570598Y-68666600D02*
X121752027Y-68666600D01*
X121752027Y-68666600D02*
X121808723Y-68636362D01*
X121808723Y-68636362D02*
X121835181Y-68606123D01*
X136728923Y-97997584D02*
X136759162Y-97963566D01*
X136759162Y-97963566D02*
X136789400Y-97869072D01*
X136789400Y-97869072D02*
X136789400Y-97808596D01*
X136789400Y-97808596D02*
X136759162Y-97721661D01*
X136759162Y-97721661D02*
X136698685Y-97668745D01*
X136698685Y-97668745D02*
X136638209Y-97646066D01*
X136638209Y-97646066D02*
X136517257Y-97630947D01*
X136517257Y-97630947D02*
X136426542Y-97642286D01*
X136426542Y-97642286D02*
X136305590Y-97687643D01*
X136305590Y-97687643D02*
X136245114Y-97725441D01*
X136245114Y-97725441D02*
X136184638Y-97793477D01*
X136184638Y-97793477D02*
X136154400Y-97887971D01*
X136154400Y-97887971D02*
X136154400Y-97948447D01*
X136154400Y-97948447D02*
X136184638Y-98035382D01*
X136184638Y-98035382D02*
X136214876Y-98061840D01*
X136789400Y-98594786D02*
X136789400Y-98231929D01*
X136789400Y-98413358D02*
X136154400Y-98492733D01*
X136154400Y-98492733D02*
X136245114Y-98420917D01*
X136245114Y-98420917D02*
X136305590Y-98352882D01*
X136305590Y-98352882D02*
X136335828Y-98288626D01*
X136214876Y-98908507D02*
X136184638Y-98942524D01*
X136184638Y-98942524D02*
X136154400Y-99006780D01*
X136154400Y-99006780D02*
X136154400Y-99157971D01*
X136154400Y-99157971D02*
X136184638Y-99214667D01*
X136184638Y-99214667D02*
X136214876Y-99241126D01*
X136214876Y-99241126D02*
X136275352Y-99263804D01*
X136275352Y-99263804D02*
X136335828Y-99256245D01*
X136335828Y-99256245D02*
X136426542Y-99214667D01*
X136426542Y-99214667D02*
X136789400Y-98806453D01*
X136789400Y-98806453D02*
X136789400Y-99199548D01*
X136154400Y-99823209D02*
X136154400Y-99702257D01*
X136154400Y-99702257D02*
X136184638Y-99638001D01*
X136184638Y-99638001D02*
X136214876Y-99603983D01*
X136214876Y-99603983D02*
X136305590Y-99532167D01*
X136305590Y-99532167D02*
X136426542Y-99486810D01*
X136426542Y-99486810D02*
X136668447Y-99456572D01*
X136668447Y-99456572D02*
X136728923Y-99479251D01*
X136728923Y-99479251D02*
X136759162Y-99505709D01*
X136759162Y-99505709D02*
X136789400Y-99562406D01*
X136789400Y-99562406D02*
X136789400Y-99683358D01*
X136789400Y-99683358D02*
X136759162Y-99747614D01*
X136759162Y-99747614D02*
X136728923Y-99781632D01*
X136728923Y-99781632D02*
X136668447Y-99819429D01*
X136668447Y-99819429D02*
X136517257Y-99838328D01*
X136517257Y-99838328D02*
X136456781Y-99815650D01*
X136456781Y-99815650D02*
X136426542Y-99789191D01*
X136426542Y-99789191D02*
X136396304Y-99732495D01*
X136396304Y-99732495D02*
X136396304Y-99611542D01*
X136396304Y-99611542D02*
X136426542Y-99547286D01*
X136426542Y-99547286D02*
X136456781Y-99513269D01*
X136456781Y-99513269D02*
X136517257Y-99475471D01*
X172898523Y-87581165D02*
X172928762Y-87547147D01*
X172928762Y-87547147D02*
X172959000Y-87452653D01*
X172959000Y-87452653D02*
X172959000Y-87392177D01*
X172959000Y-87392177D02*
X172928762Y-87305242D01*
X172928762Y-87305242D02*
X172868285Y-87252326D01*
X172868285Y-87252326D02*
X172807809Y-87229647D01*
X172807809Y-87229647D02*
X172686857Y-87214528D01*
X172686857Y-87214528D02*
X172596142Y-87225867D01*
X172596142Y-87225867D02*
X172475190Y-87271224D01*
X172475190Y-87271224D02*
X172414714Y-87309022D01*
X172414714Y-87309022D02*
X172354238Y-87377058D01*
X172354238Y-87377058D02*
X172324000Y-87471552D01*
X172324000Y-87471552D02*
X172324000Y-87532028D01*
X172324000Y-87532028D02*
X172354238Y-87618963D01*
X172354238Y-87618963D02*
X172384476Y-87645421D01*
X172959000Y-88178367D02*
X172959000Y-87815510D01*
X172959000Y-87996939D02*
X172324000Y-88076314D01*
X172324000Y-88076314D02*
X172414714Y-88004498D01*
X172414714Y-88004498D02*
X172475190Y-87936463D01*
X172475190Y-87936463D02*
X172505428Y-87872207D01*
X172959000Y-88783129D02*
X172959000Y-88420272D01*
X172959000Y-88601701D02*
X172324000Y-88681076D01*
X172324000Y-88681076D02*
X172414714Y-88609260D01*
X172414714Y-88609260D02*
X172475190Y-88541225D01*
X172475190Y-88541225D02*
X172505428Y-88476969D01*
X175616323Y-117527765D02*
X175646562Y-117493747D01*
X175646562Y-117493747D02*
X175676800Y-117399253D01*
X175676800Y-117399253D02*
X175676800Y-117338777D01*
X175676800Y-117338777D02*
X175646562Y-117251842D01*
X175646562Y-117251842D02*
X175586085Y-117198926D01*
X175586085Y-117198926D02*
X175525609Y-117176247D01*
X175525609Y-117176247D02*
X175404657Y-117161128D01*
X175404657Y-117161128D02*
X175313942Y-117172467D01*
X175313942Y-117172467D02*
X175192990Y-117217824D01*
X175192990Y-117217824D02*
X175132514Y-117255622D01*
X175132514Y-117255622D02*
X175072038Y-117323658D01*
X175072038Y-117323658D02*
X175041800Y-117418152D01*
X175041800Y-117418152D02*
X175041800Y-117478628D01*
X175041800Y-117478628D02*
X175072038Y-117565563D01*
X175072038Y-117565563D02*
X175102276Y-117592021D01*
X175676800Y-118124967D02*
X175676800Y-117762110D01*
X175676800Y-117943539D02*
X175041800Y-118022914D01*
X175041800Y-118022914D02*
X175132514Y-117951098D01*
X175132514Y-117951098D02*
X175192990Y-117883063D01*
X175192990Y-117883063D02*
X175223228Y-117818807D01*
X175041800Y-118748628D02*
X175041800Y-118627676D01*
X175041800Y-118627676D02*
X175072038Y-118563420D01*
X175072038Y-118563420D02*
X175102276Y-118529402D01*
X175102276Y-118529402D02*
X175192990Y-118457586D01*
X175192990Y-118457586D02*
X175313942Y-118412229D01*
X175313942Y-118412229D02*
X175555847Y-118381991D01*
X175555847Y-118381991D02*
X175616323Y-118404670D01*
X175616323Y-118404670D02*
X175646562Y-118431128D01*
X175646562Y-118431128D02*
X175676800Y-118487825D01*
X175676800Y-118487825D02*
X175676800Y-118608777D01*
X175676800Y-118608777D02*
X175646562Y-118673033D01*
X175646562Y-118673033D02*
X175616323Y-118707051D01*
X175616323Y-118707051D02*
X175555847Y-118744848D01*
X175555847Y-118744848D02*
X175404657Y-118763747D01*
X175404657Y-118763747D02*
X175344181Y-118741069D01*
X175344181Y-118741069D02*
X175313942Y-118714610D01*
X175313942Y-118714610D02*
X175283704Y-118657914D01*
X175283704Y-118657914D02*
X175283704Y-118536961D01*
X175283704Y-118536961D02*
X175313942Y-118472705D01*
X175313942Y-118472705D02*
X175344181Y-118438688D01*
X175344181Y-118438688D02*
X175404657Y-118400890D01*
X136728923Y-81309784D02*
X136759162Y-81275766D01*
X136759162Y-81275766D02*
X136789400Y-81181272D01*
X136789400Y-81181272D02*
X136789400Y-81120796D01*
X136789400Y-81120796D02*
X136759162Y-81033861D01*
X136759162Y-81033861D02*
X136698685Y-80980945D01*
X136698685Y-80980945D02*
X136638209Y-80958266D01*
X136638209Y-80958266D02*
X136517257Y-80943147D01*
X136517257Y-80943147D02*
X136426542Y-80954486D01*
X136426542Y-80954486D02*
X136305590Y-80999843D01*
X136305590Y-80999843D02*
X136245114Y-81037641D01*
X136245114Y-81037641D02*
X136184638Y-81105677D01*
X136184638Y-81105677D02*
X136154400Y-81200171D01*
X136154400Y-81200171D02*
X136154400Y-81260647D01*
X136154400Y-81260647D02*
X136184638Y-81347582D01*
X136184638Y-81347582D02*
X136214876Y-81374040D01*
X136789400Y-81906986D02*
X136789400Y-81544129D01*
X136789400Y-81725558D02*
X136154400Y-81804933D01*
X136154400Y-81804933D02*
X136245114Y-81733117D01*
X136245114Y-81733117D02*
X136305590Y-81665082D01*
X136305590Y-81665082D02*
X136335828Y-81600826D01*
X136789400Y-82511748D02*
X136789400Y-82148891D01*
X136789400Y-82330320D02*
X136154400Y-82409695D01*
X136154400Y-82409695D02*
X136245114Y-82337879D01*
X136245114Y-82337879D02*
X136305590Y-82269844D01*
X136305590Y-82269844D02*
X136335828Y-82205588D01*
X136366066Y-83108951D02*
X136789400Y-83056034D01*
X136124162Y-82987998D02*
X136577733Y-82780111D01*
X136577733Y-82780111D02*
X136577733Y-83173207D01*
X178740523Y-109829146D02*
X178770762Y-109795128D01*
X178770762Y-109795128D02*
X178801000Y-109700634D01*
X178801000Y-109700634D02*
X178801000Y-109640158D01*
X178801000Y-109640158D02*
X178770762Y-109553223D01*
X178770762Y-109553223D02*
X178710285Y-109500307D01*
X178710285Y-109500307D02*
X178649809Y-109477628D01*
X178649809Y-109477628D02*
X178528857Y-109462509D01*
X178528857Y-109462509D02*
X178438142Y-109473848D01*
X178438142Y-109473848D02*
X178317190Y-109519205D01*
X178317190Y-109519205D02*
X178256714Y-109557003D01*
X178256714Y-109557003D02*
X178196238Y-109625039D01*
X178196238Y-109625039D02*
X178166000Y-109719533D01*
X178166000Y-109719533D02*
X178166000Y-109780009D01*
X178166000Y-109780009D02*
X178196238Y-109866944D01*
X178196238Y-109866944D02*
X178226476Y-109893402D01*
X178377666Y-110418789D02*
X178801000Y-110365872D01*
X178135762Y-110297836D02*
X178589333Y-110089949D01*
X178589333Y-110089949D02*
X178589333Y-110483045D01*
X152090343Y-96136805D02*
X152120582Y-96102787D01*
X152120582Y-96102787D02*
X152150820Y-96008293D01*
X152150820Y-96008293D02*
X152150820Y-95947817D01*
X152150820Y-95947817D02*
X152120582Y-95860882D01*
X152120582Y-95860882D02*
X152060105Y-95807966D01*
X152060105Y-95807966D02*
X151999629Y-95785287D01*
X151999629Y-95785287D02*
X151878677Y-95770168D01*
X151878677Y-95770168D02*
X151787962Y-95781507D01*
X151787962Y-95781507D02*
X151667010Y-95826864D01*
X151667010Y-95826864D02*
X151606534Y-95864662D01*
X151606534Y-95864662D02*
X151546058Y-95932698D01*
X151546058Y-95932698D02*
X151515820Y-96027192D01*
X151515820Y-96027192D02*
X151515820Y-96087668D01*
X151515820Y-96087668D02*
X151546058Y-96174603D01*
X151546058Y-96174603D02*
X151576296Y-96201061D01*
X151515820Y-96420287D02*
X151515820Y-96843620D01*
X151515820Y-96843620D02*
X152150820Y-96492103D01*
X151515820Y-97025049D02*
X151515820Y-97418144D01*
X151515820Y-97418144D02*
X151757724Y-97176240D01*
X151757724Y-97176240D02*
X151757724Y-97266954D01*
X151757724Y-97266954D02*
X151787962Y-97323650D01*
X151787962Y-97323650D02*
X151818201Y-97350109D01*
X151818201Y-97350109D02*
X151878677Y-97372787D01*
X151878677Y-97372787D02*
X152029867Y-97353888D01*
X152029867Y-97353888D02*
X152090343Y-97316091D01*
X152090343Y-97316091D02*
X152120582Y-97282073D01*
X152120582Y-97282073D02*
X152150820Y-97217817D01*
X152150820Y-97217817D02*
X152150820Y-97036388D01*
X152150820Y-97036388D02*
X152120582Y-96979692D01*
X152120582Y-96979692D02*
X152090343Y-96953234D01*
X173589194Y-86065600D02*
X173763063Y-85763219D01*
X173952051Y-86065600D02*
X173872676Y-85430600D01*
X173872676Y-85430600D02*
X173630771Y-85430600D01*
X173630771Y-85430600D02*
X173574075Y-85460838D01*
X173574075Y-85460838D02*
X173547616Y-85491076D01*
X173547616Y-85491076D02*
X173524938Y-85551552D01*
X173524938Y-85551552D02*
X173536277Y-85642266D01*
X173536277Y-85642266D02*
X173574075Y-85702742D01*
X173574075Y-85702742D02*
X173608092Y-85732981D01*
X173608092Y-85732981D02*
X173672348Y-85763219D01*
X173672348Y-85763219D02*
X173914253Y-85763219D01*
X172984432Y-86065600D02*
X173347289Y-86065600D01*
X173165860Y-86065600D02*
X173086485Y-85430600D01*
X173086485Y-85430600D02*
X173158301Y-85521314D01*
X173158301Y-85521314D02*
X173226337Y-85581790D01*
X173226337Y-85581790D02*
X173290592Y-85612028D01*
X172379670Y-86065600D02*
X172742527Y-86065600D01*
X172561098Y-86065600D02*
X172481723Y-85430600D01*
X172481723Y-85430600D02*
X172553539Y-85521314D01*
X172553539Y-85521314D02*
X172621575Y-85581790D01*
X172621575Y-85581790D02*
X172685830Y-85612028D01*
X152064943Y-129489824D02*
X152095182Y-129455806D01*
X152095182Y-129455806D02*
X152125420Y-129361312D01*
X152125420Y-129361312D02*
X152125420Y-129300836D01*
X152125420Y-129300836D02*
X152095182Y-129213901D01*
X152095182Y-129213901D02*
X152034705Y-129160985D01*
X152034705Y-129160985D02*
X151974229Y-129138306D01*
X151974229Y-129138306D02*
X151853277Y-129123187D01*
X151853277Y-129123187D02*
X151762562Y-129134526D01*
X151762562Y-129134526D02*
X151641610Y-129179883D01*
X151641610Y-129179883D02*
X151581134Y-129217681D01*
X151581134Y-129217681D02*
X151520658Y-129285717D01*
X151520658Y-129285717D02*
X151490420Y-129380211D01*
X151490420Y-129380211D02*
X151490420Y-129440687D01*
X151490420Y-129440687D02*
X151520658Y-129527622D01*
X151520658Y-129527622D02*
X151550896Y-129554080D01*
X152125420Y-130087026D02*
X152125420Y-129724169D01*
X152125420Y-129905598D02*
X151490420Y-129984973D01*
X151490420Y-129984973D02*
X151581134Y-129913157D01*
X151581134Y-129913157D02*
X151641610Y-129845122D01*
X151641610Y-129845122D02*
X151671848Y-129780866D01*
X151490420Y-130559497D02*
X151490420Y-130619973D01*
X151490420Y-130619973D02*
X151520658Y-130676669D01*
X151520658Y-130676669D02*
X151550896Y-130703128D01*
X151550896Y-130703128D02*
X151611372Y-130725806D01*
X151611372Y-130725806D02*
X151732324Y-130740925D01*
X151732324Y-130740925D02*
X151883515Y-130722026D01*
X151883515Y-130722026D02*
X152004467Y-130676669D01*
X152004467Y-130676669D02*
X152064943Y-130638872D01*
X152064943Y-130638872D02*
X152095182Y-130604854D01*
X152095182Y-130604854D02*
X152125420Y-130540598D01*
X152125420Y-130540598D02*
X152125420Y-130480122D01*
X152125420Y-130480122D02*
X152095182Y-130423425D01*
X152095182Y-130423425D02*
X152064943Y-130396967D01*
X152064943Y-130396967D02*
X152004467Y-130374288D01*
X152004467Y-130374288D02*
X151883515Y-130359169D01*
X151883515Y-130359169D02*
X151732324Y-130378068D01*
X151732324Y-130378068D02*
X151611372Y-130423425D01*
X151611372Y-130423425D02*
X151550896Y-130461223D01*
X151550896Y-130461223D02*
X151520658Y-130495241D01*
X151520658Y-130495241D02*
X151490420Y-130559497D01*
X151490420Y-130982830D02*
X151490420Y-131375925D01*
X151490420Y-131375925D02*
X151732324Y-131134021D01*
X151732324Y-131134021D02*
X151732324Y-131224735D01*
X151732324Y-131224735D02*
X151762562Y-131281431D01*
X151762562Y-131281431D02*
X151792801Y-131307890D01*
X151792801Y-131307890D02*
X151853277Y-131330568D01*
X151853277Y-131330568D02*
X152004467Y-131311669D01*
X152004467Y-131311669D02*
X152064943Y-131273872D01*
X152064943Y-131273872D02*
X152095182Y-131239854D01*
X152095182Y-131239854D02*
X152125420Y-131175598D01*
X152125420Y-131175598D02*
X152125420Y-130994169D01*
X152125420Y-130994169D02*
X152095182Y-130937473D01*
X152095182Y-130937473D02*
X152064943Y-130911015D01*
D12*
X109934013Y-68126319D02*
X109934013Y-68840604D01*
X109934013Y-68840604D02*
X109981632Y-68983461D01*
X109981632Y-68983461D02*
X110076870Y-69078700D01*
X110076870Y-69078700D02*
X110219727Y-69126319D01*
X110219727Y-69126319D02*
X110314965Y-69126319D01*
X108934013Y-69126319D02*
X109505441Y-69126319D01*
X109219727Y-69126319D02*
X109219727Y-68126319D01*
X109219727Y-68126319D02*
X109314965Y-68269176D01*
X109314965Y-68269176D02*
X109410203Y-68364414D01*
X109410203Y-68364414D02*
X109505441Y-68412033D01*
D13*
%TO.C,G\u002A\u002A\u002A*%
G36*
X117840125Y-93715474D02*
G01*
X117987376Y-93772063D01*
X118115348Y-93872207D01*
X118220762Y-94010861D01*
X118300342Y-94182981D01*
X118350809Y-94383522D01*
X118368885Y-94607441D01*
X118367753Y-94696202D01*
X118359394Y-94789170D01*
X118339788Y-94862358D01*
X118305241Y-94934760D01*
X118284814Y-94968065D01*
X118219437Y-95050516D01*
X118151636Y-95111450D01*
X118149856Y-95112637D01*
X118043048Y-95156876D01*
X117911592Y-95173259D01*
X117775216Y-95161410D01*
X117653648Y-95120953D01*
X117629128Y-95108236D01*
X117552105Y-95061155D01*
X117519382Y-95019301D01*
X117526864Y-94972274D01*
X117570455Y-94909670D01*
X117644511Y-94818932D01*
X117738118Y-94869343D01*
X117779254Y-94888151D01*
X117876381Y-94901411D01*
X117959179Y-94864273D01*
X118025945Y-94777283D01*
X118045932Y-94726883D01*
X118064897Y-94601320D01*
X118057700Y-94457139D01*
X118027099Y-94310579D01*
X117975853Y-94177881D01*
X117906720Y-94075286D01*
X117850669Y-94037856D01*
X117760729Y-94016208D01*
X117668234Y-94021955D01*
X117595970Y-94056478D01*
X117574237Y-94073101D01*
X117547136Y-94075200D01*
X117511734Y-94048198D01*
X117455935Y-93986007D01*
X117360819Y-93874885D01*
X117417281Y-93814784D01*
X117503723Y-93751372D01*
X117632558Y-93710860D01*
X117783635Y-93706794D01*
X117840125Y-93715474D01*
G37*
G36*
X113016882Y-93735858D02*
G01*
X113146079Y-93798610D01*
X113253780Y-93893106D01*
X113342007Y-94023711D01*
X113420678Y-94204369D01*
X113471753Y-94402619D01*
X113491136Y-94601915D01*
X113474731Y-94785712D01*
X113450607Y-94868655D01*
X113390569Y-94989643D01*
X113312156Y-95087037D01*
X113225364Y-95146379D01*
X113145869Y-95165484D01*
X113033082Y-95171941D01*
X112908691Y-95165027D01*
X112788630Y-95146469D01*
X112688835Y-95117993D01*
X112625239Y-95081328D01*
X112613166Y-95058818D01*
X112593647Y-94986444D01*
X112574212Y-94875475D01*
X112556519Y-94734283D01*
X112543293Y-94614869D01*
X112529831Y-94503694D01*
X112518473Y-94420325D01*
X112510787Y-94376996D01*
X112508390Y-94363982D01*
X112516306Y-94346502D01*
X112548440Y-94336544D01*
X112614223Y-94332067D01*
X112723089Y-94331029D01*
X112819030Y-94331540D01*
X112891030Y-94334989D01*
X112929707Y-94344095D01*
X112945409Y-94361570D01*
X112948485Y-94390129D01*
X112951291Y-94432259D01*
X112964682Y-94508330D01*
X112969390Y-94529473D01*
X112961072Y-94560289D01*
X112913340Y-94567430D01*
X112912017Y-94567432D01*
X112860258Y-94573307D01*
X112833261Y-94597908D01*
X112826215Y-94652163D01*
X112834313Y-94746997D01*
X112842797Y-94809757D01*
X112858053Y-94860493D01*
X112887293Y-94885091D01*
X112941156Y-94898655D01*
X112987001Y-94904562D01*
X113044088Y-94892740D01*
X113101726Y-94845973D01*
X113120433Y-94826443D01*
X113148018Y-94788024D01*
X113163355Y-94740486D01*
X113169972Y-94669365D01*
X113171394Y-94560200D01*
X113159730Y-94392978D01*
X113118383Y-94234291D01*
X113048535Y-94114601D01*
X112951630Y-94037342D01*
X112946720Y-94034958D01*
X112853409Y-94011785D01*
X112767241Y-94026562D01*
X112705275Y-94076571D01*
X112690595Y-94083325D01*
X112648601Y-94058577D01*
X112581982Y-93989561D01*
X112526042Y-93922859D01*
X112500561Y-93881351D01*
X112501198Y-93852090D01*
X112523299Y-93821768D01*
X112617877Y-93749546D01*
X112741024Y-93710177D01*
X112877945Y-93705997D01*
X113016882Y-93735858D01*
G37*
G36*
X111287953Y-94722486D02*
G01*
X111254076Y-94888543D01*
X111187170Y-95017355D01*
X111085866Y-95112254D01*
X111007126Y-95148176D01*
X110882672Y-95170679D01*
X110749429Y-95166957D01*
X110628444Y-95135919D01*
X110548451Y-95092571D01*
X110429938Y-94986024D01*
X110332410Y-94844880D01*
X110258836Y-94678741D01*
X110212188Y-94497209D01*
X110195435Y-94309887D01*
X110195944Y-94304092D01*
X110530810Y-94304092D01*
X110540082Y-94450012D01*
X110569615Y-94594532D01*
X110616934Y-94721139D01*
X110679564Y-94813317D01*
X110750488Y-94868154D01*
X110817969Y-94878021D01*
X110892718Y-94842270D01*
X110913922Y-94824739D01*
X110968078Y-94737788D01*
X110992494Y-94613538D01*
X110986667Y-94456984D01*
X110950094Y-94273123D01*
X110908166Y-94168618D01*
X110845224Y-94084447D01*
X110771464Y-94030729D01*
X110695525Y-94011566D01*
X110626042Y-94031063D01*
X110571655Y-94093323D01*
X110544274Y-94173285D01*
X110530810Y-94304092D01*
X110195944Y-94304092D01*
X110211549Y-94126376D01*
X110263500Y-93956278D01*
X110267582Y-93947285D01*
X110350818Y-93825194D01*
X110466260Y-93744168D01*
X110610675Y-93706533D01*
X110770555Y-93713033D01*
X110918920Y-93765584D01*
X111046279Y-93861404D01*
X111149999Y-93997016D01*
X111227449Y-94168942D01*
X111275995Y-94373707D01*
X111293006Y-94607831D01*
X111292754Y-94613538D01*
X111287953Y-94722486D01*
G37*
G36*
X116478459Y-93904193D02*
G01*
X116488146Y-93994599D01*
X116500816Y-94100705D01*
X116511710Y-94179995D01*
X116527126Y-94278495D01*
X116698126Y-94278495D01*
X116869127Y-94278495D01*
X116850911Y-94077484D01*
X116850087Y-94068478D01*
X116839036Y-93960109D01*
X116827461Y-93864592D01*
X116817738Y-93801682D01*
X116802780Y-93726893D01*
X116958068Y-93726893D01*
X117113356Y-93726893D01*
X117188092Y-94337596D01*
X117199644Y-94431884D01*
X117221068Y-94606211D01*
X117240528Y-94763880D01*
X117256926Y-94896020D01*
X117269163Y-94993757D01*
X117276138Y-95048219D01*
X117289447Y-95148139D01*
X117134988Y-95140153D01*
X116980528Y-95132167D01*
X116948015Y-94870160D01*
X116938568Y-94796741D01*
X116923837Y-94692168D01*
X116911200Y-94613813D01*
X116902649Y-94574658D01*
X116893221Y-94563810D01*
X116835239Y-94546863D01*
X116727599Y-94541163D01*
X116565402Y-94541163D01*
X116581895Y-94718464D01*
X116590671Y-94806962D01*
X116603741Y-94925714D01*
X116615699Y-95021956D01*
X116633010Y-95148146D01*
X116478222Y-95140156D01*
X116323434Y-95132167D01*
X116253313Y-94554297D01*
X116246017Y-94494212D01*
X116224758Y-94319640D01*
X116205038Y-94158392D01*
X116188048Y-94020174D01*
X116174982Y-93914694D01*
X116167030Y-93851660D01*
X116150867Y-93726893D01*
X116305746Y-93726893D01*
X116460624Y-93726893D01*
X116478459Y-93904193D01*
G37*
G36*
X115935086Y-94662725D02*
G01*
X115987090Y-94808885D01*
X116032379Y-94936740D01*
X116068171Y-95038512D01*
X116091687Y-95106426D01*
X116100143Y-95132704D01*
X116087203Y-95137895D01*
X116034637Y-95143232D01*
X115955421Y-95145300D01*
X115810698Y-95145300D01*
X115751462Y-95020533D01*
X115692227Y-94895765D01*
X115535016Y-94895765D01*
X115377806Y-94895765D01*
X115369800Y-95020533D01*
X115361794Y-95145300D01*
X115190190Y-95145300D01*
X115018587Y-95145300D01*
X115034318Y-95046799D01*
X115035723Y-95037422D01*
X115043933Y-94974688D01*
X115056194Y-94874128D01*
X115071486Y-94744743D01*
X115079866Y-94672497D01*
X115395259Y-94672497D01*
X115511300Y-94672497D01*
X115530012Y-94672241D01*
X115602399Y-94662581D01*
X115627341Y-94639713D01*
X115626665Y-94633572D01*
X115615134Y-94586930D01*
X115592259Y-94509533D01*
X115561868Y-94412947D01*
X115527789Y-94308739D01*
X115493851Y-94208474D01*
X115463882Y-94123720D01*
X115441709Y-94066042D01*
X115431163Y-94047006D01*
X115427448Y-94073532D01*
X115422130Y-94142295D01*
X115416001Y-94242609D01*
X115409779Y-94363863D01*
X115395259Y-94672497D01*
X115079866Y-94672497D01*
X115088793Y-94595533D01*
X115107095Y-94435497D01*
X115125375Y-94273636D01*
X115142615Y-94118950D01*
X115157796Y-93980438D01*
X115169900Y-93867100D01*
X115177909Y-93787938D01*
X115180805Y-93751949D01*
X115182608Y-93748650D01*
X115218592Y-93737570D01*
X115291269Y-93729814D01*
X115388129Y-93726893D01*
X115490169Y-93728501D01*
X115558508Y-93735182D01*
X115595997Y-93749211D01*
X115613783Y-93772859D01*
X115616683Y-93780284D01*
X115637812Y-93836839D01*
X115671696Y-93929524D01*
X115715552Y-94050563D01*
X115766601Y-94192179D01*
X115822061Y-94346596D01*
X115879150Y-94506037D01*
X115926871Y-94639713D01*
X115935086Y-94662725D01*
G37*
G36*
X114587546Y-93729852D02*
G01*
X114611780Y-93747175D01*
X114630762Y-93782199D01*
X114646600Y-93840640D01*
X114661399Y-93928219D01*
X114677265Y-94050653D01*
X114696305Y-94213661D01*
X114720624Y-94422963D01*
X114728778Y-94491707D01*
X114749088Y-94660081D01*
X114767774Y-94811115D01*
X114783730Y-94936099D01*
X114795852Y-95026319D01*
X114803037Y-95073066D01*
X114803190Y-95073843D01*
X114808810Y-95114931D01*
X114796965Y-95136169D01*
X114755967Y-95144109D01*
X114674126Y-95145300D01*
X114531008Y-95145300D01*
X114499775Y-94902332D01*
X114495417Y-94868017D01*
X114478971Y-94732346D01*
X114463947Y-94599939D01*
X114453140Y-94495197D01*
X114443812Y-94417146D01*
X114431984Y-94354894D01*
X114421168Y-94331029D01*
X114420957Y-94331053D01*
X114408689Y-94356455D01*
X114388028Y-94422958D01*
X114361804Y-94520661D01*
X114332852Y-94639664D01*
X114305418Y-94756416D01*
X114275710Y-94880179D01*
X114250653Y-94981821D01*
X114233785Y-95046799D01*
X114206464Y-95145300D01*
X114023831Y-95145300D01*
X113923863Y-95142281D01*
X113860917Y-95131632D01*
X113840822Y-95112466D01*
X113839282Y-95094281D01*
X113832134Y-95028793D01*
X113819973Y-94923948D01*
X113803698Y-94787342D01*
X113784206Y-94626570D01*
X113762398Y-94449230D01*
X113747584Y-94328798D01*
X113727183Y-94160167D01*
X113709717Y-94012457D01*
X113696091Y-93893468D01*
X113687208Y-93811002D01*
X113683973Y-93772859D01*
X113684019Y-93769321D01*
X113695317Y-93742916D01*
X113734766Y-93730190D01*
X113814431Y-93726893D01*
X113845809Y-93727146D01*
X113911126Y-93732772D01*
X113943440Y-93750380D01*
X113957311Y-93785993D01*
X113959370Y-93797482D01*
X113968518Y-93860040D01*
X113981355Y-93957058D01*
X113996385Y-94076170D01*
X114012115Y-94205012D01*
X114027049Y-94331219D01*
X114039693Y-94442426D01*
X114048552Y-94526268D01*
X114052131Y-94570380D01*
X114053248Y-94584898D01*
X114062468Y-94589179D01*
X114081178Y-94546736D01*
X114109761Y-94456409D01*
X114148597Y-94317037D01*
X114198070Y-94127461D01*
X114300358Y-93726893D01*
X114464280Y-93726893D01*
X114514903Y-93725427D01*
X114555956Y-93724508D01*
X114587546Y-93729852D01*
G37*
G36*
X112144586Y-93825393D02*
G01*
X112145514Y-93831528D01*
X112154288Y-93895382D01*
X112167888Y-94000066D01*
X112185087Y-94135906D01*
X112204659Y-94293230D01*
X112225377Y-94462363D01*
X112229532Y-94496544D01*
X112249581Y-94661446D01*
X112267735Y-94810666D01*
X112282883Y-94935088D01*
X112293916Y-95025593D01*
X112299723Y-95073066D01*
X112308625Y-95145300D01*
X111958572Y-95145300D01*
X111881713Y-95145019D01*
X111753388Y-95142346D01*
X111668937Y-95136395D01*
X111622504Y-95126618D01*
X111608230Y-95112466D01*
X111608042Y-95107118D01*
X111602470Y-95054297D01*
X111591660Y-94981132D01*
X111575379Y-94882632D01*
X111776127Y-94882632D01*
X111976876Y-94882632D01*
X111961778Y-94770998D01*
X111954282Y-94714842D01*
X111940379Y-94625711D01*
X111922333Y-94573755D01*
X111891060Y-94548997D01*
X111837473Y-94541459D01*
X111752487Y-94541163D01*
X111740435Y-94541155D01*
X111653503Y-94539383D01*
X111605993Y-94531677D01*
X111586069Y-94513937D01*
X111581894Y-94482063D01*
X111579089Y-94439933D01*
X111565697Y-94363863D01*
X111562885Y-94352840D01*
X111561500Y-94325838D01*
X111580745Y-94311477D01*
X111631253Y-94305778D01*
X111723657Y-94304762D01*
X111811140Y-94303997D01*
X111868471Y-94294788D01*
X111892772Y-94266265D01*
X111892449Y-94207549D01*
X111875912Y-94107761D01*
X111857397Y-94002694D01*
X111673858Y-93989561D01*
X111490319Y-93976427D01*
X111475978Y-93851660D01*
X111461637Y-93726893D01*
X111795438Y-93726893D01*
X112129238Y-93726893D01*
X112144586Y-93825393D01*
G37*
G36*
X111545476Y-82178131D02*
G01*
X111562289Y-82180905D01*
X111637727Y-82190056D01*
X111742075Y-82200035D01*
X111858054Y-82209127D01*
X111954860Y-82216507D01*
X112123906Y-82230992D01*
X112330800Y-82249993D01*
X112567336Y-82272666D01*
X112825308Y-82298167D01*
X113096513Y-82325653D01*
X113372743Y-82354280D01*
X113645796Y-82383206D01*
X113907464Y-82411586D01*
X114149544Y-82438578D01*
X114363829Y-82463337D01*
X114542116Y-82485021D01*
X114562067Y-82487542D01*
X114871365Y-82528458D01*
X115137119Y-82568122D01*
X115367694Y-82608739D01*
X115571460Y-82652515D01*
X115756784Y-82701654D01*
X115932033Y-82758362D01*
X116105576Y-82824843D01*
X116285779Y-82903302D01*
X116481012Y-82995944D01*
X116530525Y-83020383D01*
X116840757Y-83186573D01*
X117120614Y-83362768D01*
X117383004Y-83558476D01*
X117640834Y-83783208D01*
X117907012Y-84046472D01*
X117939018Y-84080086D01*
X118262186Y-84460252D01*
X118542759Y-84868467D01*
X118779505Y-85300828D01*
X118971195Y-85753433D01*
X119116599Y-86222376D01*
X119214485Y-86703755D01*
X119263625Y-87193665D01*
X119262788Y-87688205D01*
X119210743Y-88183469D01*
X119145215Y-88523642D01*
X119004813Y-89023130D01*
X118814826Y-89507963D01*
X118576487Y-89975141D01*
X118291028Y-90421668D01*
X118222051Y-90512392D01*
X118097453Y-90659333D01*
X117947669Y-90822482D01*
X117782123Y-90992482D01*
X117610241Y-91159975D01*
X117441446Y-91315602D01*
X117285162Y-91450006D01*
X117150815Y-91553828D01*
X117062256Y-91613594D01*
X116883828Y-91722264D01*
X116679248Y-91835903D01*
X116462355Y-91947498D01*
X116246991Y-92050033D01*
X116046997Y-92136492D01*
X115876213Y-92199861D01*
X115685257Y-92256657D01*
X115425835Y-92321123D01*
X115161426Y-92374986D01*
X114918137Y-92412452D01*
X114901057Y-92414402D01*
X114763444Y-92424176D01*
X114589165Y-92429121D01*
X114390953Y-92429564D01*
X114181542Y-92425832D01*
X113973667Y-92418252D01*
X113780062Y-92407151D01*
X113613460Y-92392856D01*
X113486596Y-92375694D01*
X113249805Y-92328552D01*
X112756746Y-92197756D01*
X112294764Y-92027366D01*
X111859275Y-91815279D01*
X111445694Y-91559393D01*
X111049438Y-91257605D01*
X110874235Y-91102332D01*
X110634175Y-90856443D01*
X110403790Y-90577912D01*
X110174606Y-90257046D01*
X110021351Y-90018253D01*
X109818814Y-89657751D01*
X109657051Y-89302208D01*
X109531988Y-88940924D01*
X109439550Y-88563199D01*
X109375664Y-88158330D01*
X109374923Y-88151911D01*
X109368075Y-88067212D01*
X109361166Y-87938797D01*
X109354251Y-87770852D01*
X109347383Y-87567561D01*
X109340616Y-87333107D01*
X109334004Y-87071675D01*
X109327602Y-86787448D01*
X109321462Y-86484612D01*
X109315639Y-86167350D01*
X109310187Y-85839846D01*
X109305160Y-85506284D01*
X109300612Y-85170849D01*
X109296597Y-84837724D01*
X109293168Y-84511095D01*
X109290380Y-84195144D01*
X109288286Y-83894057D01*
X109286941Y-83612017D01*
X109286398Y-83353208D01*
X109286711Y-83121814D01*
X109287935Y-82922021D01*
X109290123Y-82758011D01*
X109293329Y-82633969D01*
X109297607Y-82554079D01*
X109303011Y-82522525D01*
X109314491Y-82522148D01*
X109337806Y-82534666D01*
X109374743Y-82561833D01*
X109427112Y-82605379D01*
X109496724Y-82667034D01*
X109585387Y-82748529D01*
X109694913Y-82851592D01*
X109827112Y-82977956D01*
X109983793Y-83129349D01*
X110166766Y-83307502D01*
X110377841Y-83514146D01*
X110618830Y-83751010D01*
X110891540Y-84019824D01*
X111197783Y-84322319D01*
X111539369Y-84660225D01*
X111591130Y-84711443D01*
X111936059Y-85051911D01*
X112250480Y-85360735D01*
X112533619Y-85637172D01*
X112784702Y-85880479D01*
X113002955Y-86089912D01*
X113187604Y-86264729D01*
X113337876Y-86404186D01*
X113452996Y-86507541D01*
X113532192Y-86574049D01*
X113818005Y-86798283D01*
X114177637Y-86717292D01*
X114207233Y-86710652D01*
X114347216Y-86679885D01*
X114475370Y-86652680D01*
X114578572Y-86631777D01*
X114643702Y-86619920D01*
X114673271Y-86616641D01*
X114796718Y-86628315D01*
X114906756Y-86676105D01*
X114986457Y-86753419D01*
X114997391Y-86775103D01*
X115026546Y-86845378D01*
X115068608Y-86954793D01*
X115121207Y-87096913D01*
X115181974Y-87265308D01*
X115248541Y-87453543D01*
X115318539Y-87655186D01*
X115327719Y-87681884D01*
X115408341Y-87917615D01*
X115472553Y-88109635D01*
X115521329Y-88263232D01*
X115555645Y-88383695D01*
X115576477Y-88476311D01*
X115584799Y-88546368D01*
X115581588Y-88599154D01*
X115567818Y-88639959D01*
X115544465Y-88674068D01*
X115512504Y-88706772D01*
X115499958Y-88717939D01*
X115399081Y-88772017D01*
X115289510Y-88776550D01*
X115180805Y-88730844D01*
X115160010Y-88715946D01*
X115132184Y-88690494D01*
X115106277Y-88655699D01*
X115079243Y-88604798D01*
X115048036Y-88531029D01*
X115009612Y-88427626D01*
X114960923Y-88287828D01*
X114898925Y-88104869D01*
X114843337Y-87940085D01*
X114775018Y-87738584D01*
X114720240Y-87578809D01*
X114677233Y-87455930D01*
X114644226Y-87365118D01*
X114619450Y-87301543D01*
X114601134Y-87260375D01*
X114587509Y-87236784D01*
X114576804Y-87225942D01*
X114572995Y-87224288D01*
X114552743Y-87222496D01*
X114514027Y-87225600D01*
X114451342Y-87234514D01*
X114359182Y-87250155D01*
X114232041Y-87273435D01*
X114064415Y-87305271D01*
X113850798Y-87346577D01*
X113824657Y-87351814D01*
X113776521Y-87364515D01*
X113735190Y-87384437D01*
X113692921Y-87418483D01*
X113641973Y-87473555D01*
X113574601Y-87556555D01*
X113483062Y-87674385D01*
X113414778Y-87763333D01*
X113342611Y-87862484D01*
X113290661Y-87947300D01*
X113255484Y-88028926D01*
X113233637Y-88118506D01*
X113221677Y-88227185D01*
X113216161Y-88366106D01*
X113213645Y-88546415D01*
X113213277Y-88584098D01*
X113213297Y-88693420D01*
X113216993Y-88763259D01*
X113226340Y-88803877D01*
X113243316Y-88825535D01*
X113269895Y-88838497D01*
X113292339Y-88844400D01*
X113364272Y-88858795D01*
X113474917Y-88878579D01*
X113616303Y-88902386D01*
X113780454Y-88928850D01*
X113959399Y-88956607D01*
X114138218Y-88983801D01*
X114319953Y-89011638D01*
X114460765Y-89033883D01*
X114566764Y-89051903D01*
X114644056Y-89067067D01*
X114698750Y-89080741D01*
X114736954Y-89094293D01*
X114764774Y-89109091D01*
X114788320Y-89126503D01*
X114813699Y-89147895D01*
X114858313Y-89191801D01*
X114885252Y-89248347D01*
X114891870Y-89331558D01*
X114889019Y-89390103D01*
X114867368Y-89461204D01*
X114815090Y-89526224D01*
X114753072Y-89572185D01*
X114659015Y-89600890D01*
X114535508Y-89601946D01*
X114374394Y-89576279D01*
X114374010Y-89576198D01*
X114314308Y-89564892D01*
X114211015Y-89546747D01*
X114072334Y-89523145D01*
X113906468Y-89495467D01*
X113721621Y-89465095D01*
X113525996Y-89433410D01*
X113516252Y-89431843D01*
X113305933Y-89397893D01*
X113140971Y-89370610D01*
X113015109Y-89348434D01*
X112922086Y-89329808D01*
X112855643Y-89313175D01*
X112809521Y-89296976D01*
X112777461Y-89279652D01*
X112753202Y-89259647D01*
X112730487Y-89235402D01*
X112657316Y-89153540D01*
X112660376Y-88668682D01*
X112663436Y-88183823D01*
X112558002Y-88059443D01*
X112511885Y-88007237D01*
X112429466Y-87918814D01*
X112326183Y-87811526D01*
X112207279Y-87690496D01*
X112077994Y-87560850D01*
X111943569Y-87427711D01*
X111809244Y-87296205D01*
X111680262Y-87171454D01*
X111561863Y-87058584D01*
X111459288Y-86962719D01*
X111377778Y-86888983D01*
X111322574Y-86842500D01*
X111298917Y-86828396D01*
X111271033Y-86869655D01*
X111246909Y-86955208D01*
X111228250Y-87075090D01*
X111215425Y-87220114D01*
X111208803Y-87381089D01*
X111208755Y-87548827D01*
X111215650Y-87714140D01*
X111229859Y-87867836D01*
X111251749Y-88000729D01*
X111276107Y-88106396D01*
X111400261Y-88513987D01*
X111565015Y-88890055D01*
X111769324Y-89233228D01*
X112012146Y-89542133D01*
X112292438Y-89815399D01*
X112609157Y-90051653D01*
X112961260Y-90249525D01*
X113204723Y-90355027D01*
X113579735Y-90473435D01*
X113958331Y-90542352D01*
X114336536Y-90562426D01*
X114710373Y-90534305D01*
X115075867Y-90458637D01*
X115429043Y-90336068D01*
X115765924Y-90167247D01*
X116082535Y-89952822D01*
X116374900Y-89693439D01*
X116450616Y-89614838D01*
X116722187Y-89289454D01*
X116944761Y-88945641D01*
X117118118Y-88583924D01*
X117242038Y-88204828D01*
X117316299Y-87808876D01*
X117340681Y-87396593D01*
X117332744Y-87174296D01*
X117280739Y-86783801D01*
X117182050Y-86410494D01*
X117038804Y-86057894D01*
X116853126Y-85729517D01*
X116627141Y-85428882D01*
X116362976Y-85159506D01*
X116062754Y-84924906D01*
X115728602Y-84728600D01*
X115496428Y-84622215D01*
X115171176Y-84508969D01*
X114839161Y-84436638D01*
X114492676Y-84404168D01*
X114124016Y-84410506D01*
X113725473Y-84454597D01*
X113679055Y-84461394D01*
X113551637Y-84477978D01*
X113446502Y-84488643D01*
X113373500Y-84492512D01*
X113342481Y-84488707D01*
X113331830Y-84475780D01*
X113292610Y-84427459D01*
X113233447Y-84354199D01*
X113162408Y-84265979D01*
X113128808Y-84224811D01*
X113052706Y-84133312D01*
X112951265Y-84012655D01*
X112829907Y-83869242D01*
X112694054Y-83709475D01*
X112549131Y-83539757D01*
X112400558Y-83366491D01*
X112245824Y-83185569D01*
X112031278Y-82931069D01*
X111851655Y-82712977D01*
X111707214Y-82531621D01*
X111598217Y-82387328D01*
X111524921Y-82280429D01*
X111487587Y-82211251D01*
X111480887Y-82188122D01*
X111493638Y-82172387D01*
X111545476Y-82178131D01*
G37*
D14*
%TO.C,C1*%
X178294420Y-99134200D02*
X178575580Y-99134200D01*
X178294420Y-100154200D02*
X178575580Y-100154200D01*
%TO.C,C14*%
X176328400Y-90990052D02*
X176328400Y-90467548D01*
X177798400Y-90990052D02*
X177798400Y-90467548D01*
%TO.C,C101*%
X157311020Y-108481640D02*
X157311020Y-109781640D01*
X155111020Y-108481640D02*
X157311020Y-108481640D01*
X154411020Y-108687890D02*
X154411020Y-109475390D01*
X154017270Y-109081640D02*
X154804770Y-109081640D01*
X158711020Y-109781640D02*
X159811020Y-110881640D01*
X157311020Y-109781640D02*
X158711020Y-109781640D01*
X155111020Y-109781640D02*
X155111020Y-108481640D01*
X153711020Y-109781640D02*
X155111020Y-109781640D01*
X159811020Y-110881640D02*
X159811020Y-116981640D01*
X152611020Y-110881640D02*
X153711020Y-109781640D01*
X159811020Y-116981640D02*
X157311020Y-116981640D01*
X157311020Y-116981640D02*
X157311020Y-118181640D01*
X155111020Y-116981640D02*
X152611020Y-116981640D01*
X152611020Y-116981640D02*
X152611020Y-110881640D01*
X157311020Y-118181640D02*
X157311020Y-118281640D01*
X157311020Y-118281640D02*
X155111020Y-118281640D01*
X155111020Y-118281640D02*
X155111020Y-116981640D01*
%TO.C,C12*%
X175181356Y-88853600D02*
X174965684Y-88853600D01*
X175181356Y-88133600D02*
X174965684Y-88133600D01*
%TO.C,C115*%
X138149900Y-79800564D02*
X138149900Y-80016236D01*
X137429900Y-79800564D02*
X137429900Y-80016236D01*
D15*
%TO.C,U2*%
X179528600Y-88515000D02*
X179528600Y-88435000D01*
X179528600Y-88515000D02*
X178723600Y-88515000D01*
X179528600Y-85475000D02*
X179528600Y-85555000D01*
X179528600Y-85475000D02*
X178723600Y-85475000D01*
X177333600Y-88515000D02*
X176528600Y-88515000D01*
X177333600Y-85475000D02*
X176528600Y-85475000D01*
X176528600Y-88515000D02*
X176528600Y-88435000D01*
X176528600Y-85475000D02*
X176528600Y-85555000D01*
D16*
X180523600Y-85995000D02*
G75*
G02*
X180323600Y-85995000I-100000J0D01*
G01*
X180323600Y-85995000D02*
G75*
G02*
X180523600Y-85995000I100000J0D01*
G01*
D14*
%TO.C,C98*%
X172017620Y-108481640D02*
X172017620Y-109781640D01*
X169817620Y-108481640D02*
X172017620Y-108481640D01*
X169117620Y-108687890D02*
X169117620Y-109475390D01*
X168723870Y-109081640D02*
X169511370Y-109081640D01*
X173417620Y-109781640D02*
X174517620Y-110881640D01*
X172017620Y-109781640D02*
X173417620Y-109781640D01*
X169817620Y-109781640D02*
X169817620Y-108481640D01*
X168417620Y-109781640D02*
X169817620Y-109781640D01*
X174517620Y-110881640D02*
X174517620Y-116981640D01*
X167317620Y-110881640D02*
X168417620Y-109781640D01*
X174517620Y-116981640D02*
X172017620Y-116981640D01*
X172017620Y-116981640D02*
X172017620Y-118181640D01*
X169817620Y-116981640D02*
X167317620Y-116981640D01*
X167317620Y-116981640D02*
X167317620Y-110881640D01*
X172017620Y-118181640D02*
X172017620Y-118281640D01*
X172017620Y-118281640D02*
X169817620Y-118281640D01*
X169817620Y-118281640D02*
X169817620Y-116981640D01*
%TO.C,C123*%
X138149900Y-130272964D02*
X138149900Y-130488636D01*
X137429900Y-130272964D02*
X137429900Y-130488636D01*
%TO.C,U3*%
X180141440Y-122326640D02*
X180141440Y-123126640D01*
X180141440Y-122326640D02*
X180141440Y-121526640D01*
X183261440Y-122326640D02*
X183261440Y-124126640D01*
X183261440Y-122326640D02*
X183261440Y-121526640D01*
%TO.C,L4*%
X181766640Y-129101540D02*
X181766640Y-128301540D01*
X181766640Y-129101540D02*
X176646640Y-129101540D01*
X181766640Y-124481540D02*
X181766640Y-125281540D01*
X181766640Y-124481540D02*
X176646640Y-124481540D01*
X176646640Y-129101540D02*
X176646640Y-128301540D01*
X176646640Y-124481540D02*
X176646640Y-125281540D01*
%TO.C,R22*%
X182235840Y-128322281D02*
X182235840Y-128014999D01*
X182995840Y-128322281D02*
X182995840Y-128014999D01*
%TO.C,R13*%
X174928559Y-90552000D02*
X175235841Y-90552000D01*
X174928559Y-91312000D02*
X175235841Y-91312000D01*
%TO.C,C9*%
X178345220Y-83741800D02*
X178626380Y-83741800D01*
X178345220Y-84761800D02*
X178626380Y-84761800D01*
%TO.C,R19*%
X184011840Y-125271799D02*
X184011840Y-125579081D01*
X183251840Y-125271799D02*
X183251840Y-125579081D01*
%TO.C,C5*%
X178284200Y-107906452D02*
X178284200Y-107383948D01*
X179754200Y-107906452D02*
X179754200Y-107383948D01*
%TO.C,C104*%
X164650600Y-74786876D02*
X164650600Y-76086876D01*
X162450600Y-74786876D02*
X164650600Y-74786876D01*
X161750600Y-74993126D02*
X161750600Y-75780626D01*
X161356850Y-75386876D02*
X162144350Y-75386876D01*
X166050600Y-76086876D02*
X167150600Y-77186876D01*
X164650600Y-76086876D02*
X166050600Y-76086876D01*
X162450600Y-76086876D02*
X162450600Y-74786876D01*
X161050600Y-76086876D02*
X162450600Y-76086876D01*
X167150600Y-77186876D02*
X167150600Y-83286876D01*
X159950600Y-77186876D02*
X161050600Y-76086876D01*
X167150600Y-83286876D02*
X164650600Y-83286876D01*
X164650600Y-83286876D02*
X164650600Y-84486876D01*
X162450600Y-83286876D02*
X159950600Y-83286876D01*
X159950600Y-83286876D02*
X159950600Y-77186876D01*
X164650600Y-84486876D02*
X164650600Y-84586876D01*
X164650600Y-84586876D02*
X162450600Y-84586876D01*
X162450600Y-84586876D02*
X162450600Y-83286876D01*
%TO.C,C105*%
X149945020Y-125296640D02*
X149945020Y-126596640D01*
X147745020Y-125296640D02*
X149945020Y-125296640D01*
X147045020Y-125502890D02*
X147045020Y-126290390D01*
X146651270Y-125896640D02*
X147438770Y-125896640D01*
X151345020Y-126596640D02*
X152445020Y-127696640D01*
X149945020Y-126596640D02*
X151345020Y-126596640D01*
X147745020Y-126596640D02*
X147745020Y-125296640D01*
X146345020Y-126596640D02*
X147745020Y-126596640D01*
X152445020Y-127696640D02*
X152445020Y-133796640D01*
X145245020Y-127696640D02*
X146345020Y-126596640D01*
X152445020Y-133796640D02*
X149945020Y-133796640D01*
X149945020Y-133796640D02*
X149945020Y-134996640D01*
X147745020Y-133796640D02*
X145245020Y-133796640D01*
X145245020Y-133796640D02*
X145245020Y-127696640D01*
X149945020Y-134996640D02*
X149945020Y-135096640D01*
X149945020Y-135096640D02*
X147745020Y-135096640D01*
X147745020Y-135096640D02*
X147745020Y-133796640D01*
%TO.C,R9*%
X176073800Y-84200241D02*
X176073800Y-83892959D01*
X176833800Y-84200241D02*
X176833800Y-83892959D01*
%TO.C,R16*%
X183021240Y-116356399D02*
X183021240Y-116663681D01*
X182261240Y-116356399D02*
X182261240Y-116663681D01*
%TO.C,C117*%
X141959900Y-79800564D02*
X141959900Y-80016236D01*
X141239900Y-79800564D02*
X141239900Y-80016236D01*
%TO.C,R7*%
X175176361Y-104799400D02*
X174869079Y-104799400D01*
X175176361Y-104039400D02*
X174869079Y-104039400D01*
%TO.C,R18*%
X183021240Y-119099599D02*
X183021240Y-119406881D01*
X182261240Y-119099599D02*
X182261240Y-119406881D01*
%TO.C,L1*%
X184631200Y-102693400D02*
X183831200Y-102693400D01*
X184631200Y-102693400D02*
X184631200Y-107813400D01*
X180011200Y-102693400D02*
X180811200Y-102693400D01*
X180011200Y-102693400D02*
X180011200Y-107813400D01*
X184631200Y-107813400D02*
X183831200Y-107813400D01*
X180011200Y-107813400D02*
X180811200Y-107813400D01*
%TO.C,C129*%
X141959900Y-96561964D02*
X141959900Y-96777636D01*
X141239900Y-96561964D02*
X141239900Y-96777636D01*
%TO.C,C7*%
X175130556Y-105770000D02*
X174914884Y-105770000D01*
X175130556Y-105050000D02*
X174914884Y-105050000D01*
%TO.C,C70*%
X172017620Y-125296640D02*
X172017620Y-126596640D01*
X169817620Y-125296640D02*
X172017620Y-125296640D01*
X169117620Y-125502890D02*
X169117620Y-126290390D01*
X168723870Y-125896640D02*
X169511370Y-125896640D01*
X173417620Y-126596640D02*
X174517620Y-127696640D01*
X172017620Y-126596640D02*
X173417620Y-126596640D01*
X169817620Y-126596640D02*
X169817620Y-125296640D01*
X168417620Y-126596640D02*
X169817620Y-126596640D01*
X174517620Y-127696640D02*
X174517620Y-133796640D01*
X167317620Y-127696640D02*
X168417620Y-126596640D01*
X174517620Y-133796640D02*
X172017620Y-133796640D01*
X172017620Y-133796640D02*
X172017620Y-135096640D01*
X169817620Y-133796640D02*
X167317620Y-133796640D01*
X167317620Y-133796640D02*
X167317620Y-127696640D01*
X172017620Y-135096640D02*
X169817620Y-135096640D01*
X169817620Y-135096640D02*
X169817620Y-133796640D01*
%TO.C,C67*%
X157310000Y-74805200D02*
X157310000Y-76105200D01*
X155110000Y-74805200D02*
X157310000Y-74805200D01*
X154410000Y-75011450D02*
X154410000Y-75798950D01*
X154016250Y-75405200D02*
X154803750Y-75405200D01*
X158710000Y-76105200D02*
X159810000Y-77205200D01*
X157310000Y-76105200D02*
X158710000Y-76105200D01*
X155110000Y-76105200D02*
X155110000Y-74805200D01*
X153710000Y-76105200D02*
X155110000Y-76105200D01*
X159810000Y-77205200D02*
X159810000Y-83305200D01*
X152610000Y-77205200D02*
X153710000Y-76105200D01*
X159810000Y-83305200D02*
X157310000Y-83305200D01*
X157310000Y-83305200D02*
X157310000Y-84605200D01*
X155110000Y-83305200D02*
X152610000Y-83305200D01*
X152610000Y-83305200D02*
X152610000Y-77205200D01*
X157310000Y-84605200D02*
X155110000Y-84605200D01*
X155110000Y-84605200D02*
X155110000Y-83305200D01*
%TO.C,C71*%
X149970420Y-91641240D02*
X149970420Y-92941240D01*
X147770420Y-91641240D02*
X149970420Y-91641240D01*
X147070420Y-91847490D02*
X147070420Y-92634990D01*
X146676670Y-92241240D02*
X147464170Y-92241240D01*
X151370420Y-92941240D02*
X152470420Y-94041240D01*
X149970420Y-92941240D02*
X151370420Y-92941240D01*
X147770420Y-92941240D02*
X147770420Y-91641240D01*
X146370420Y-92941240D02*
X147770420Y-92941240D01*
X152470420Y-94041240D02*
X152470420Y-100141240D01*
X145270420Y-94041240D02*
X146370420Y-92941240D01*
X152470420Y-100141240D02*
X149970420Y-100141240D01*
X149970420Y-100141240D02*
X149970420Y-101441240D01*
X147770420Y-100141240D02*
X145270420Y-100141240D01*
X145270420Y-100141240D02*
X145270420Y-94041240D01*
X149970420Y-101441240D02*
X147770420Y-101441240D01*
X147770420Y-101441240D02*
X147770420Y-100141240D01*
%TO.C,C119*%
X138155000Y-113407364D02*
X138155000Y-113623036D01*
X137435000Y-113407364D02*
X137435000Y-113623036D01*
%TO.C,R15*%
X183277240Y-116663681D02*
X183277240Y-116356399D01*
X184037240Y-116663681D02*
X184037240Y-116356399D01*
D15*
%TO.C,U1*%
X179477800Y-105431400D02*
X179477800Y-105351400D01*
X179477800Y-105431400D02*
X178672800Y-105431400D01*
X179477800Y-102391400D02*
X179477800Y-102471400D01*
X179477800Y-102391400D02*
X178672800Y-102391400D01*
X177282800Y-105431400D02*
X176477800Y-105431400D01*
X177282800Y-102391400D02*
X176477800Y-102391400D01*
X176477800Y-105431400D02*
X176477800Y-105351400D01*
X176477800Y-102391400D02*
X176477800Y-102471400D01*
D16*
X180472800Y-102911400D02*
G75*
G02*
X180272800Y-102911400I-100000J0D01*
G01*
X180272800Y-102911400D02*
G75*
G02*
X180472800Y-102911400I100000J0D01*
G01*
D14*
%TO.C,R14*%
X175235841Y-90296000D02*
X174928559Y-90296000D01*
X175235841Y-89536000D02*
X174928559Y-89536000D01*
%TO.C,R8*%
X175809000Y-83888959D02*
X175809000Y-84196241D01*
X175049000Y-83888959D02*
X175049000Y-84196241D01*
%TO.C,C18*%
X177712460Y-123086640D02*
X177993620Y-123086640D01*
X177712460Y-124106640D02*
X177993620Y-124106640D01*
%TO.C,C99*%
X149945020Y-108481640D02*
X149945020Y-109781640D01*
X147745020Y-108481640D02*
X149945020Y-108481640D01*
X147045020Y-108687890D02*
X147045020Y-109475390D01*
X146651270Y-109081640D02*
X147438770Y-109081640D01*
X151345020Y-109781640D02*
X152445020Y-110881640D01*
X149945020Y-109781640D02*
X151345020Y-109781640D01*
X147745020Y-109781640D02*
X147745020Y-108481640D01*
X146345020Y-109781640D02*
X147745020Y-109781640D01*
X152445020Y-110881640D02*
X152445020Y-116981640D01*
X145245020Y-110881640D02*
X146345020Y-109781640D01*
X152445020Y-116981640D02*
X149945020Y-116981640D01*
X149945020Y-116981640D02*
X149945020Y-118181640D01*
X147745020Y-116981640D02*
X145245020Y-116981640D01*
X145245020Y-116981640D02*
X145245020Y-110881640D01*
X149945020Y-118181640D02*
X149945020Y-118281640D01*
X149945020Y-118281640D02*
X147745020Y-118281640D01*
X147745020Y-118281640D02*
X147745020Y-116981640D01*
%TO.C,R4*%
X175183041Y-109244400D02*
X174875759Y-109244400D01*
X175183041Y-108484400D02*
X174875759Y-108484400D01*
%TO.C,C3*%
X175179876Y-86867320D02*
X174964204Y-86867320D01*
X175179876Y-86147320D02*
X174964204Y-86147320D01*
%TO.C,C72*%
X164651620Y-91622916D02*
X164651620Y-92922916D01*
X162451620Y-91622916D02*
X164651620Y-91622916D01*
X161751620Y-91829166D02*
X161751620Y-92616666D01*
X161357870Y-92222916D02*
X162145370Y-92222916D01*
X166051620Y-92922916D02*
X167151620Y-94022916D01*
X164651620Y-92922916D02*
X166051620Y-92922916D01*
X162451620Y-92922916D02*
X162451620Y-91622916D01*
X161051620Y-92922916D02*
X162451620Y-92922916D01*
X167151620Y-94022916D02*
X167151620Y-100122916D01*
X159951620Y-94022916D02*
X161051620Y-92922916D01*
X167151620Y-100122916D02*
X164651620Y-100122916D01*
X164651620Y-100122916D02*
X164651620Y-101422916D01*
X162451620Y-100122916D02*
X159951620Y-100122916D01*
X159951620Y-100122916D02*
X159951620Y-94022916D01*
X164651620Y-101422916D02*
X162451620Y-101422916D01*
X162451620Y-101422916D02*
X162451620Y-100122916D01*
%TO.C,R20*%
X182235840Y-125579081D02*
X182235840Y-125271799D01*
X182995840Y-125579081D02*
X182995840Y-125271799D01*
%TO.C,R2*%
X176023000Y-101116641D02*
X176023000Y-100809359D01*
X176783000Y-101116641D02*
X176783000Y-100809359D01*
%TO.C,C124*%
X140689900Y-130272964D02*
X140689900Y-130488636D01*
X139969900Y-130272964D02*
X139969900Y-130488636D01*
%TO.C,R5*%
X174877759Y-107468400D02*
X175185041Y-107468400D01*
X174877759Y-108228400D02*
X175185041Y-108228400D01*
%TO.C,R21*%
X184011840Y-128014999D02*
X184011840Y-128322281D01*
X183251840Y-128014999D02*
X183251840Y-128322281D01*
%TO.C,C17*%
X177712460Y-120576640D02*
X177993620Y-120576640D01*
X177712460Y-121596640D02*
X177993620Y-121596640D01*
%TO.C,FID4*%
X113450600Y-134010400D02*
G75*
G02*
X112050600Y-134010400I-700000J0D01*
G01*
X112050600Y-134010400D02*
G75*
G02*
X113450600Y-134010400I700000J0D01*
G01*
%TO.C,R3*%
X175176361Y-102818200D02*
X174869079Y-102818200D01*
X175176361Y-102058200D02*
X174869079Y-102058200D01*
%TO.C,C118*%
X136885000Y-113407364D02*
X136885000Y-113623036D01*
X136165000Y-113407364D02*
X136165000Y-113623036D01*
%TO.C,R17*%
X183277240Y-119406881D02*
X183277240Y-119099599D01*
X184037240Y-119406881D02*
X184037240Y-119099599D01*
%TO.C,L3*%
X176672040Y-115566140D02*
X176672040Y-116366140D01*
X176672040Y-115566140D02*
X181792040Y-115566140D01*
X176672040Y-120186140D02*
X176672040Y-119386140D01*
X176672040Y-120186140D02*
X181792040Y-120186140D01*
X181792040Y-115566140D02*
X181792040Y-116366140D01*
X181792040Y-120186140D02*
X181792040Y-119386140D01*
%TO.C,C69*%
X149969400Y-74805200D02*
X149969400Y-76105200D01*
X147769400Y-74805200D02*
X149969400Y-74805200D01*
X147069400Y-75011450D02*
X147069400Y-75798950D01*
X146675650Y-75405200D02*
X147463150Y-75405200D01*
X151369400Y-76105200D02*
X152469400Y-77205200D01*
X149969400Y-76105200D02*
X151369400Y-76105200D01*
X147769400Y-76105200D02*
X147769400Y-74805200D01*
X146369400Y-76105200D02*
X147769400Y-76105200D01*
X152469400Y-77205200D02*
X152469400Y-83305200D01*
X145269400Y-77205200D02*
X146369400Y-76105200D01*
X152469400Y-83305200D02*
X149969400Y-83305200D01*
X149969400Y-83305200D02*
X149969400Y-84605200D01*
X147769400Y-83305200D02*
X145269400Y-83305200D01*
X145269400Y-83305200D02*
X145269400Y-77205200D01*
X149969400Y-84605200D02*
X147769400Y-84605200D01*
X147769400Y-84605200D02*
X147769400Y-83305200D01*
%TO.C,FID3*%
X180176400Y-68884800D02*
G75*
G02*
X178776400Y-68884800I-700000J0D01*
G01*
X178776400Y-68884800D02*
G75*
G02*
X180176400Y-68884800I700000J0D01*
G01*
%TO.C,C133*%
X175130556Y-103788800D02*
X174914884Y-103788800D01*
X175130556Y-103068800D02*
X174914884Y-103068800D01*
%TO.C,C128*%
X140689900Y-96561964D02*
X140689900Y-96777636D01*
X139969900Y-96561964D02*
X139969900Y-96777636D01*
%TO.C,R6*%
X175185041Y-107212400D02*
X174877759Y-107212400D01*
X175185041Y-106452400D02*
X174877759Y-106452400D01*
%TO.C,C6*%
X173918200Y-104819564D02*
X173918200Y-105035236D01*
X173198200Y-104819564D02*
X173198200Y-105035236D01*
%TO.C,C15*%
X175019240Y-120486020D02*
X175019240Y-120204860D01*
X176039240Y-120486020D02*
X176039240Y-120204860D01*
%TO.C,L2*%
X184682000Y-85777000D02*
X183882000Y-85777000D01*
X184682000Y-85777000D02*
X184682000Y-90897000D01*
X180062000Y-85777000D02*
X180862000Y-85777000D01*
X180062000Y-85777000D02*
X180062000Y-90897000D01*
X184682000Y-90897000D02*
X183882000Y-90897000D01*
X180062000Y-90897000D02*
X180862000Y-90897000D01*
%TO.C,C120*%
X140695000Y-113407364D02*
X140695000Y-113623036D01*
X139975000Y-113407364D02*
X139975000Y-113623036D01*
%TO.C,C19*%
X176013840Y-124205660D02*
X176013840Y-124486820D01*
X174993840Y-124205660D02*
X174993840Y-124486820D01*
%TO.C,C68*%
X172017620Y-91641240D02*
X172017620Y-92941240D01*
X169817620Y-91641240D02*
X172017620Y-91641240D01*
X169117620Y-91847490D02*
X169117620Y-92634990D01*
X168723870Y-92241240D02*
X169511370Y-92241240D01*
X173417620Y-92941240D02*
X174517620Y-94041240D01*
X172017620Y-92941240D02*
X173417620Y-92941240D01*
X169817620Y-92941240D02*
X169817620Y-91641240D01*
X168417620Y-92941240D02*
X169817620Y-92941240D01*
X174517620Y-94041240D02*
X174517620Y-100141240D01*
X167317620Y-94041240D02*
X168417620Y-92941240D01*
X174517620Y-100141240D02*
X172017620Y-100141240D01*
X172017620Y-100141240D02*
X172017620Y-101441240D01*
X169817620Y-100141240D02*
X167317620Y-100141240D01*
X167317620Y-100141240D02*
X167317620Y-94041240D01*
X172017620Y-101441240D02*
X169817620Y-101441240D01*
X169817620Y-101441240D02*
X169817620Y-100141240D01*
%TO.C,C125*%
X141965000Y-130272964D02*
X141965000Y-130488636D01*
X141245000Y-130272964D02*
X141245000Y-130488636D01*
%TO.C,R10*%
X175227161Y-85901800D02*
X174919879Y-85901800D01*
X175227161Y-85141800D02*
X174919879Y-85141800D01*
%TO.C,FAN*%
X165783500Y-75869000D02*
X174203500Y-75869000D01*
X172983500Y-75869000D02*
X172983500Y-74649000D01*
X174203500Y-75869000D02*
X174203500Y-68149000D01*
X165783500Y-74649000D02*
X165783500Y-75869000D01*
X167983500Y-74649000D02*
X167983500Y-75869000D01*
X167983500Y-74649000D02*
X165783500Y-74649000D01*
X168983500Y-74649000D02*
X168983500Y-69369000D01*
X172983500Y-74649000D02*
X167983500Y-74649000D01*
X168983500Y-73579000D02*
X172403500Y-73579000D01*
X172403500Y-73579000D02*
X172483500Y-73259000D01*
X165293500Y-73559000D02*
X165293500Y-72959000D01*
X165893500Y-73259000D02*
X165293500Y-73559000D01*
X168983500Y-73259000D02*
X168983500Y-73579000D01*
X172483500Y-73259000D02*
X172403500Y-72939000D01*
X165293500Y-72959000D02*
X165893500Y-73259000D01*
X168983500Y-72939000D02*
X168983500Y-73259000D01*
X172403500Y-72939000D02*
X168983500Y-72939000D01*
X167983500Y-72089000D02*
X167983500Y-71929000D01*
X168983500Y-71079000D02*
X172403500Y-71079000D01*
X172403500Y-71079000D02*
X172483500Y-70759000D01*
X168983500Y-70759000D02*
X168983500Y-71079000D01*
X172483500Y-70759000D02*
X172403500Y-70439000D01*
X168983500Y-70439000D02*
X168983500Y-70759000D01*
X172403500Y-70439000D02*
X168983500Y-70439000D01*
X165783500Y-69369000D02*
X167983500Y-69369000D01*
X167983500Y-69369000D02*
X167983500Y-68149000D01*
X172983500Y-69369000D02*
X167983500Y-69369000D01*
X165783500Y-68149000D02*
X165783500Y-69369000D01*
X172983500Y-68149000D02*
X172983500Y-69369000D01*
X174203500Y-68149000D02*
X165783500Y-68149000D01*
%TO.C,C20*%
X174480640Y-124205660D02*
X174480640Y-124486820D01*
X173460640Y-124205660D02*
X173460640Y-124486820D01*
%TO.C,C116*%
X140689900Y-79800564D02*
X140689900Y-80016236D01*
X139969900Y-79800564D02*
X139969900Y-80016236D01*
%TO.C,C2*%
X178294420Y-100658200D02*
X178575580Y-100658200D01*
X178294420Y-101678200D02*
X178575580Y-101678200D01*
%TO.C,C13*%
X178335000Y-90990052D02*
X178335000Y-90467548D01*
X179805000Y-90990052D02*
X179805000Y-90467548D01*
%TO.C,R12*%
X175233841Y-92328000D02*
X174926559Y-92328000D01*
X175233841Y-91568000D02*
X174926559Y-91568000D01*
%TO.C,C66*%
X164626220Y-125271240D02*
X164626220Y-126571240D01*
X162426220Y-125271240D02*
X164626220Y-125271240D01*
X161726220Y-125477490D02*
X161726220Y-126264990D01*
X161332470Y-125871240D02*
X162119970Y-125871240D01*
X166026220Y-126571240D02*
X167126220Y-127671240D01*
X164626220Y-126571240D02*
X166026220Y-126571240D01*
X162426220Y-126571240D02*
X162426220Y-125271240D01*
X161026220Y-126571240D02*
X162426220Y-126571240D01*
X167126220Y-127671240D02*
X167126220Y-133771240D01*
X159926220Y-127671240D02*
X161026220Y-126571240D01*
X167126220Y-133771240D02*
X164626220Y-133771240D01*
X164626220Y-133771240D02*
X164626220Y-135071240D01*
X162426220Y-133771240D02*
X159926220Y-133771240D01*
X159926220Y-133771240D02*
X159926220Y-127671240D01*
X164626220Y-135071240D02*
X162426220Y-135071240D01*
X162426220Y-135071240D02*
X162426220Y-133771240D01*
%TO.C,C127*%
X138149900Y-96561964D02*
X138149900Y-96777636D01*
X137429900Y-96561964D02*
X137429900Y-96777636D01*
%TO.C,C8*%
X178345220Y-82217800D02*
X178626380Y-82217800D01*
X178345220Y-83237800D02*
X178626380Y-83237800D01*
%TO.C,C102*%
X164651620Y-108481640D02*
X164651620Y-109781640D01*
X162451620Y-108481640D02*
X164651620Y-108481640D01*
X161751620Y-108687890D02*
X161751620Y-109475390D01*
X161357870Y-109081640D02*
X162145370Y-109081640D01*
X166051620Y-109781640D02*
X167151620Y-110881640D01*
X164651620Y-109781640D02*
X166051620Y-109781640D01*
X162451620Y-109781640D02*
X162451620Y-108481640D01*
X161051620Y-109781640D02*
X162451620Y-109781640D01*
X167151620Y-110881640D02*
X167151620Y-116981640D01*
X159951620Y-110881640D02*
X161051620Y-109781640D01*
X167151620Y-116981640D02*
X164651620Y-116981640D01*
X164651620Y-116981640D02*
X164651620Y-118181640D01*
X162451620Y-116981640D02*
X159951620Y-116981640D01*
X159951620Y-116981640D02*
X159951620Y-110881640D01*
X164651620Y-118181640D02*
X164651620Y-118281640D01*
X164651620Y-118281640D02*
X162451620Y-118281640D01*
X162451620Y-118281640D02*
X162451620Y-116981640D01*
%TO.C,C121*%
X141965000Y-113407364D02*
X141965000Y-113623036D01*
X141245000Y-113407364D02*
X141245000Y-113623036D01*
%TO.C,C122*%
X136879900Y-130261684D02*
X136879900Y-130477356D01*
X136159900Y-130261684D02*
X136159900Y-130477356D01*
%TO.C,R1*%
X175758200Y-100805359D02*
X175758200Y-101112641D01*
X174998200Y-100805359D02*
X174998200Y-101112641D01*
D16*
%TO.C,J3*%
X133328220Y-67873820D02*
X133328220Y-69673820D01*
X128628220Y-67873820D02*
X133328220Y-67873820D01*
X124828220Y-67873820D02*
X122428220Y-67873820D01*
X122428220Y-67873820D02*
X122428220Y-77073820D01*
X133328220Y-72773820D02*
X133328220Y-77073820D01*
X133328220Y-77073820D02*
X130328220Y-77073820D01*
X122428220Y-77073820D02*
X128728220Y-77073820D01*
D14*
%TO.C,C126*%
X136879900Y-96561964D02*
X136879900Y-96777636D01*
X136159900Y-96561964D02*
X136159900Y-96777636D01*
%TO.C,C11*%
X173969000Y-87903164D02*
X173969000Y-88118836D01*
X173249000Y-87903164D02*
X173249000Y-88118836D01*
%TO.C,C16*%
X173495240Y-120486020D02*
X173495240Y-120204860D01*
X174515240Y-120486020D02*
X174515240Y-120204860D01*
%TO.C,C114*%
X136879900Y-79791884D02*
X136879900Y-80007556D01*
X136159900Y-79791884D02*
X136159900Y-80007556D01*
%TO.C,J2*%
X135096800Y-74536800D02*
X135096800Y-72736800D01*
X136696800Y-74536800D02*
X135096800Y-74536800D01*
X139566800Y-73266800D02*
X139566800Y-69836800D01*
X135096800Y-72736800D02*
X134156800Y-72736800D01*
X135096800Y-68566800D02*
X135096800Y-70366800D01*
X136696800Y-68566800D02*
X135096800Y-68566800D01*
%TO.C,C4*%
X176277600Y-107906452D02*
X176277600Y-107383948D01*
X177747600Y-107906452D02*
X177747600Y-107383948D01*
%TO.C,C73*%
X157311020Y-91641240D02*
X157311020Y-92941240D01*
X155111020Y-91641240D02*
X157311020Y-91641240D01*
X154411020Y-91847490D02*
X154411020Y-92634990D01*
X154017270Y-92241240D02*
X154804770Y-92241240D01*
X158711020Y-92941240D02*
X159811020Y-94041240D01*
X157311020Y-92941240D02*
X158711020Y-92941240D01*
X155111020Y-92941240D02*
X155111020Y-91641240D01*
X153711020Y-92941240D02*
X155111020Y-92941240D01*
X159811020Y-94041240D02*
X159811020Y-100141240D01*
X152611020Y-94041240D02*
X153711020Y-92941240D01*
X159811020Y-100141240D02*
X157311020Y-100141240D01*
X157311020Y-100141240D02*
X157311020Y-101441240D01*
X155111020Y-100141240D02*
X152611020Y-100141240D01*
X152611020Y-100141240D02*
X152611020Y-94041240D01*
X157311020Y-101441240D02*
X155111020Y-101441240D01*
X155111020Y-101441240D02*
X155111020Y-100141240D01*
%TO.C,R11*%
X175227161Y-87883000D02*
X174919879Y-87883000D01*
X175227161Y-87123000D02*
X174919879Y-87123000D01*
%TO.C,C103*%
X157285620Y-125296640D02*
X157285620Y-126596640D01*
X155085620Y-125296640D02*
X157285620Y-125296640D01*
X154385620Y-125502890D02*
X154385620Y-126290390D01*
X153991870Y-125896640D02*
X154779370Y-125896640D01*
X158685620Y-126596640D02*
X159785620Y-127696640D01*
X157285620Y-126596640D02*
X158685620Y-126596640D01*
X155085620Y-126596640D02*
X155085620Y-125296640D01*
X153685620Y-126596640D02*
X155085620Y-126596640D01*
X159785620Y-127696640D02*
X159785620Y-133796640D01*
X152585620Y-127696640D02*
X153685620Y-126596640D01*
X159785620Y-133796640D02*
X157285620Y-133796640D01*
X157285620Y-133796640D02*
X157285620Y-134996640D01*
X155085620Y-133796640D02*
X152585620Y-133796640D01*
X152585620Y-133796640D02*
X152585620Y-127696640D01*
X157285620Y-134996640D02*
X157285620Y-135096640D01*
X157285620Y-135096640D02*
X155085620Y-135096640D01*
X155085620Y-135096640D02*
X155085620Y-133796640D01*
D12*
%TO.C,J1*%
X120807680Y-67850900D02*
X120807680Y-80100900D01*
X120807680Y-67850900D02*
X108807680Y-67850900D01*
X108807680Y-80100900D02*
X120807680Y-80100900D01*
X108807680Y-80100900D02*
X108807680Y-67850900D01*
%TD*%
M02*
